<?xml version="1.0" encoding="us-ascii" standalone="no"?><svg xmlns="http://www.w3.org/2000/svg" xmlns:xlink="http://www.w3.org/1999/xlink" contentStyleType="text/css" height="1071px" preserveAspectRatio="none" style="width:8478px;height:1071px;background:#FFFFFF;" version="1.1" viewBox="0 0 8478 1071" width="8478px" zoomAndPan="magnify"><defs/><g><!--cluster org--><g id="cluster_org"><path d="M8.5,6.0137 L33.5,6.0137 A3.75,3.75 0 0 1 36,8.5137 L43,30.6348 L8468.5,30.6348 A2.5,2.5 0 0 1 8471,33.1348 L8471,1061.5137 A2.5,2.5 0 0 1 8468.5,1064.0137 L8.5,1064.0137 A2.5,2.5 0 0 1 6,1061.5137 L6,8.5137 A2.5,2.5 0 0 1 8.5,6.0137 " fill="none" style="stroke:#000000;stroke-width:1.5;"/><line style="stroke:#000000;stroke-width:1.5;" x1="6" x2="43" y1="30.6348" y2="30.6348"/><text fill="#000000" font-family="sans-serif" font-size="14" font-weight="bold" lengthAdjust="spacing" textLength="24" x="10" y="23.1211">org</text></g><!--cluster javaguru--><g id="cluster_javaguru"><path d="M32.5,51.0137 L95.5,51.0137 A3.75,3.75 0 0 1 98,53.5137 L105,75.6348 L8444.5,75.6348 A2.5,2.5 0 0 1 8447,78.1348 L8447,1037.5137 A2.5,2.5 0 0 1 8444.5,1040.0137 L32.5,1040.0137 A2.5,2.5 0 0 1 30,1037.5137 L30,53.5137 A2.5,2.5 0 0 1 32.5,51.0137 " fill="none" style="stroke:#000000;stroke-width:1.5;"/><line style="stroke:#000000;stroke-width:1.5;" x1="30" x2="105" y1="75.6348" y2="75.6348"/><text fill="#000000" font-family="sans-serif" font-size="14" font-weight="bold" lengthAdjust="spacing" textLength="62" x="34" y="68.1211">javaguru</text></g><!--cluster travel--><g id="cluster_travel"><path d="M56.5,96.0137 L98.5,96.0137 A3.75,3.75 0 0 1 101,98.5137 L108,120.6348 L8420.5,120.6348 A2.5,2.5 0 0 1 8423,123.1348 L8423,1013.5137 A2.5,2.5 0 0 1 8420.5,1016.0137 L56.5,1016.0137 A2.5,2.5 0 0 1 54,1013.5137 L54,98.5137 A2.5,2.5 0 0 1 56.5,96.0137 " fill="none" style="stroke:#000000;stroke-width:1.5;"/><line style="stroke:#000000;stroke-width:1.5;" x1="54" x2="108" y1="120.6348" y2="120.6348"/><text fill="#000000" font-family="sans-serif" font-size="14" font-weight="bold" lengthAdjust="spacing" textLength="41" x="58" y="113.1211">travel</text></g><!--cluster insurance--><g id="cluster_insurance"><path d="M80.5,141.0137 L151.5,141.0137 A3.75,3.75 0 0 1 154,143.5137 L161,165.6348 L8396.5,165.6348 A2.5,2.5 0 0 1 8399,168.1348 L8399,989.5137 A2.5,2.5 0 0 1 8396.5,992.0137 L80.5,992.0137 A2.5,2.5 0 0 1 78,989.5137 L78,143.5137 A2.5,2.5 0 0 1 80.5,141.0137 " fill="none" style="stroke:#000000;stroke-width:1.5;"/><line style="stroke:#000000;stroke-width:1.5;" x1="78" x2="161" y1="165.6348" y2="165.6348"/><text fill="#000000" font-family="sans-serif" font-size="14" font-weight="bold" lengthAdjust="spacing" textLength="70" x="82" y="158.1211">insurance</text></g><!--cluster core--><g id="cluster_core"><path d="M104.5,186.0137 L137.5,186.0137 A3.75,3.75 0 0 1 140,188.5137 L147,210.6348 L8372.5,210.6348 A2.5,2.5 0 0 1 8375,213.1348 L8375,965.5137 A2.5,2.5 0 0 1 8372.5,968.0137 L104.5,968.0137 A2.5,2.5 0 0 1 102,965.5137 L102,188.5137 A2.5,2.5 0 0 1 104.5,186.0137 " fill="none" style="stroke:#000000;stroke-width:1.5;"/><line style="stroke:#000000;stroke-width:1.5;" x1="102" x2="147" y1="210.6348" y2="210.6348"/><text fill="#000000" font-family="sans-serif" font-size="14" font-weight="bold" lengthAdjust="spacing" textLength="32" x="106" y="203.1211">core</text></g><!--cluster validations--><g id="cluster_validations"><path d="M128.5,231.0137 L206.5,231.0137 A3.75,3.75 0 0 1 209,233.5137 L216,255.6348 L8348.5,255.6348 A2.5,2.5 0 0 1 8351,258.1348 L8351,941.5137 A2.5,2.5 0 0 1 8348.5,944.0137 L128.5,944.0137 A2.5,2.5 0 0 1 126,941.5137 L126,233.5137 A2.5,2.5 0 0 1 128.5,231.0137 " fill="none" style="stroke:#000000;stroke-width:1.5;"/><line style="stroke:#000000;stroke-width:1.5;" x1="126" x2="216" y1="255.6348" y2="255.6348"/><text fill="#000000" font-family="sans-serif" font-size="14" font-weight="bold" lengthAdjust="spacing" textLength="77" x="130" y="248.1211">validations</text></g><!--cluster agreement--><g id="cluster_agreement"><path d="M2150.5,469.5137 L2227.5,469.5137 A3.75,3.75 0 0 1 2230,472.0137 L2237,494.1348 L7750.5,494.1348 A2.5,2.5 0 0 1 7753,496.6348 L7753,917.5137 A2.5,2.5 0 0 1 7750.5,920.0137 L2150.5,920.0137 A2.5,2.5 0 0 1 2148,917.5137 L2148,472.0137 A2.5,2.5 0 0 1 2150.5,469.5137 " fill="none" style="stroke:#000000;stroke-width:1.5;"/><line style="stroke:#000000;stroke-width:1.5;" x1="2148" x2="2237" y1="494.1348" y2="494.1348"/><text fill="#000000" font-family="sans-serif" font-size="14" font-weight="bold" lengthAdjust="spacing" textLength="76" x="2152" y="486.6211">agreement</text></g><!--cluster person--><g id="cluster_person"><path d="M152.5,469.5137 L203.5,469.5137 A3.75,3.75 0 0 1 206,472.0137 L213,494.1348 L2121.5,494.1348 A2.5,2.5 0 0 1 2124,496.6348 L2124,880.5137 A2.5,2.5 0 0 1 2121.5,883.0137 L152.5,883.0137 A2.5,2.5 0 0 1 150,880.5137 L150,472.0137 A2.5,2.5 0 0 1 152.5,469.5137 " fill="none" style="stroke:#000000;stroke-width:1.5;"/><line style="stroke:#000000;stroke-width:1.5;" x1="150" x2="213" y1="494.1348" y2="494.1348"/><text fill="#000000" font-family="sans-serif" font-size="14" font-weight="bold" lengthAdjust="spacing" textLength="50" x="154" y="486.6211">person</text></g><!--class TravelCalculatePremiumRequestValidatorImpl--><g id="elem_TravelCalculatePremiumRequestValidatorImpl"><rect codeLine="1" fill="#F1F1F1" height="234.2109" id="TravelCalculatePremiumRequestValidatorImpl" rx="2.5" ry="2.5" style="stroke:#181818;stroke-width:0.5;" width="566" x="7769" y="432.0137"/><ellipse cx="7903.75" cy="448.0137" fill="#ADD1B2" rx="11" ry="11" style="stroke:#181818;stroke-width:1.0;"/><path d="M7906.5156,443.8887 Q7906.6719,443.6699 7906.8594,443.5605 Q7907.0469,443.4512 7907.2656,443.4512 Q7907.6406,443.4512 7907.875,443.7168 Q7908.1094,443.9668 7908.1094,444.5762 L7908.1094,446.0293 Q7908.1094,446.6387 7907.875,446.9043 Q7907.6406,447.1699 7907.2656,447.1699 Q7906.9219,447.1699 7906.7188,446.9668 Q7906.5156,446.7793 7906.4063,446.2637 Q7906.3594,445.9043 7906.1719,445.7168 Q7905.8438,445.3418 7905.2344,445.123 Q7904.625,444.9043 7904,444.9043 Q7903.2344,444.9043 7902.5938,445.2324 Q7901.9688,445.5605 7901.4688,446.3105 Q7900.9844,447.0605 7900.9844,448.0918 L7900.9844,449.1855 Q7900.9844,450.4199 7901.875,451.248 Q7902.7656,452.0605 7904.3594,452.0605 Q7905.2969,452.0605 7905.9531,451.8105 Q7906.3438,451.6543 7906.7656,451.2168 Q7907.0313,450.9512 7907.1719,450.873 Q7907.3281,450.7949 7907.5313,450.7949 Q7907.8594,450.7949 7908.1094,451.0605 Q7908.375,451.3105 7908.375,451.6543 Q7908.375,451.998 7908.0313,452.4043 Q7907.5313,452.9824 7906.7344,453.3105 Q7905.6563,453.7637 7904.3594,453.7637 Q7902.8438,453.7637 7901.6406,453.1387 Q7900.6563,452.6387 7899.9688,451.5762 Q7899.2813,450.498 7899.2813,449.2168 L7899.2813,448.0605 Q7899.2813,446.7324 7899.8906,445.5918 Q7900.5156,444.4355 7901.6094,443.8262 Q7902.7031,443.2012 7903.9375,443.2012 Q7904.6719,443.2012 7905.3125,443.373 Q7905.9688,443.5293 7906.5156,443.8887 Z " fill="#000000"/><text fill="#000000" font-family="sans-serif" font-size="14" lengthAdjust="spacing" textLength="288" x="7924.25" y="453.8105">TravelCalculatePremiumRequestValidatorImpl</text><line style="stroke:#181818;stroke-width:0.5;" x1="7770" x2="8334" y1="464.0137" y2="464.0137"/><rect fill="none" height="6" style="stroke:#C82930;stroke-width:1.0;" width="6" x="7777" y="475.8242"/><text fill="#000000" font-family="sans-serif" font-size="14" lengthAdjust="spacing" textLength="412" x="7789" y="483.1211">List&lt;TravelAgreementFieldValidation&gt; agreementFieldValidations</text><rect fill="none" height="6" style="stroke:#C82930;stroke-width:1.0;" width="6" x="7777" y="494.4453"/><text fill="#000000" font-family="sans-serif" font-size="14" lengthAdjust="spacing" textLength="364" x="7789" y="501.7422">List&lt;TravelPersonFieldValidation&gt; personFieldValidations</text><line style="stroke:#181818;stroke-width:0.5;" x1="7770" x2="8334" y1="509.2559" y2="509.2559"/><ellipse cx="7780" cy="524.0664" fill="#84BE84" rx="3" ry="3" style="stroke:#038048;stroke-width:1.0;"/><text fill="#000000" font-family="sans-serif" font-size="14" lengthAdjust="spacing" textLength="402" x="7789" y="528.3633">List&lt;ValidationError&gt; validate(TravelCalculatePremiumRequest)</text><rect fill="#F24D5C" height="6" style="stroke:#C82930;stroke-width:1.0;" width="6" x="7777" y="539.6875"/><text fill="#000000" font-family="sans-serif" font-size="14" lengthAdjust="spacing" textLength="501" x="7789" y="546.9844">List&lt;ValidationError&gt; collectAgreementErrors(TravelCalculatePremiumRequest)</text><rect fill="#F24D5C" height="6" style="stroke:#C82930;stroke-width:1.0;" width="6" x="7777" y="558.3086"/><text fill="#000000" font-family="sans-serif" font-size="14" lengthAdjust="spacing" textLength="477" x="7789" y="565.6055">List&lt;ValidationError&gt; collectPersonErrors(TravelCalculatePremiumRequest)</text><rect fill="#F24D5C" height="6" style="stroke:#C82930;stroke-width:1.0;" width="6" x="7777" y="576.9297"/><text fill="#000000" font-family="sans-serif" font-size="14" lengthAdjust="spacing" textLength="540" x="7789" y="584.2266">List&lt;ValidationError&gt; collectSingleAgreementErrors(TravelCalculatePremiumRequest)</text><rect fill="#F24D5C" height="6" style="stroke:#C82930;stroke-width:1.0;" width="6" x="7777" y="595.5508"/><text fill="#000000" font-family="sans-serif" font-size="14" lengthAdjust="spacing" textLength="523" x="7789" y="602.8477">List&lt;ValidationError&gt; collectListAgreementErrors(TravelCalculatePremiumRequest)</text><rect fill="#F24D5C" height="6" style="stroke:#C82930;stroke-width:1.0;" width="6" x="7777" y="614.1719"/><text fill="#000000" font-family="sans-serif" font-size="14" lengthAdjust="spacing" textLength="516" x="7789" y="621.4688">List&lt;ValidationError&gt; collectSinglePersonErrors(TravelCalculatePremiumRequest)</text><rect fill="#F24D5C" height="6" style="stroke:#C82930;stroke-width:1.0;" width="6" x="7777" y="632.793"/><text fill="#000000" font-family="sans-serif" font-size="14" lengthAdjust="spacing" textLength="499" x="7789" y="640.0898">List&lt;ValidationError&gt; collectListPersonErrors(TravelCalculatePremiumRequest)</text><rect fill="#F24D5C" height="6" style="stroke:#C82930;stroke-width:1.0;" width="6" x="7777" y="651.4141"/><text fill="#000000" font-family="sans-serif" font-size="14" lengthAdjust="spacing" textLength="521" x="7789" y="658.7109">List&lt;ValidationError&gt; concatenateLists(List&lt;ValidationError&gt;,List&lt;ValidationError&gt;)</text></g><!--class TravelCalculatePremiumRequestValidator--><g id="elem_TravelCalculatePremiumRequestValidator"><rect codeLine="53" fill="#F1F1F1" height="66.6211" id="TravelCalculatePremiumRequestValidator" rx="2.5" ry="2.5" style="stroke:#181818;stroke-width:0.5;" width="428" x="7838" y="286.5137"/><ellipse cx="7916.75" cy="302.5137" fill="#B4A7E5" rx="11" ry="11" style="stroke:#181818;stroke-width:1.0;"/><path d="M7917.7031,299.1543 L7917.7031,305.8105 L7919.4219,305.8105 Q7920.0313,305.8105 7920.2969,306.0449 Q7920.5625,306.2793 7920.5625,306.6699 Q7920.5625,307.0449 7920.2969,307.2793 Q7920.0313,307.5137 7919.4219,307.5137 L7914.2813,307.5137 Q7913.6719,307.5137 7913.4063,307.2793 Q7913.1406,307.0449 7913.1406,306.6543 Q7913.1406,306.2793 7913.4063,306.0449 Q7913.6719,305.8105 7914.2813,305.8105 L7916,305.8105 L7916,299.1543 L7914.2813,299.1543 Q7913.6719,299.1543 7913.4063,298.9199 Q7913.1406,298.6855 7913.1406,298.2949 Q7913.1406,297.9199 7913.4063,297.6855 Q7913.6719,297.4512 7914.2813,297.4512 L7919.4219,297.4512 Q7920.0313,297.4512 7920.2969,297.6855 Q7920.5625,297.9199 7920.5625,298.2949 Q7920.5625,298.6855 7920.2969,298.9199 Q7920.0313,299.1543 7919.4219,299.1543 L7917.7031,299.1543 Z " fill="#000000"/><text fill="#000000" font-family="sans-serif" font-size="14" font-style="italic" lengthAdjust="spacing" textLength="262" x="7937.25" y="308.3105">TravelCalculatePremiumRequestValidator</text><line style="stroke:#181818;stroke-width:0.5;" x1="7839" x2="8265" y1="318.5137" y2="318.5137"/><line style="stroke:#181818;stroke-width:0.5;" x1="7839" x2="8265" y1="326.5137" y2="326.5137"/><polygon fill="#4177AF" points="7849,337.3242,7845,343.3242,7853,343.3242" style="stroke:#1963A0;stroke-width:1.0;"/><text fill="#000000" font-family="sans-serif" font-size="14" lengthAdjust="spacing" textLength="402" x="7858" y="345.6211">List&lt;ValidationError&gt; validate(TravelCalculatePremiumRequest)</text></g><!--class ValidationErrorFactory--><g id="elem_ValidationErrorFactory"><rect codeLine="75" fill="#F1F1F1" height="103.8633" id="ValidationErrorFactory" rx="2.5" ry="2.5" style="stroke:#181818;stroke-width:0.5;" width="350" x="6302" y="268.0137"/><ellipse cx="6401.75" cy="284.0137" fill="#ADD1B2" rx="11" ry="11" style="stroke:#181818;stroke-width:1.0;"/><path d="M6404.5156,279.8887 Q6404.6719,279.6699 6404.8594,279.5605 Q6405.0469,279.4512 6405.2656,279.4512 Q6405.6406,279.4512 6405.875,279.7168 Q6406.1094,279.9668 6406.1094,280.5762 L6406.1094,282.0293 Q6406.1094,282.6387 6405.875,282.9043 Q6405.6406,283.1699 6405.2656,283.1699 Q6404.9219,283.1699 6404.7188,282.9668 Q6404.5156,282.7793 6404.4063,282.2637 Q6404.3594,281.9043 6404.1719,281.7168 Q6403.8438,281.3418 6403.2344,281.123 Q6402.625,280.9043 6402,280.9043 Q6401.2344,280.9043 6400.5938,281.2324 Q6399.9688,281.5605 6399.4688,282.3105 Q6398.9844,283.0605 6398.9844,284.0918 L6398.9844,285.1855 Q6398.9844,286.4199 6399.875,287.248 Q6400.7656,288.0605 6402.3594,288.0605 Q6403.2969,288.0605 6403.9531,287.8105 Q6404.3438,287.6543 6404.7656,287.2168 Q6405.0313,286.9512 6405.1719,286.873 Q6405.3281,286.7949 6405.5313,286.7949 Q6405.8594,286.7949 6406.1094,287.0605 Q6406.375,287.3105 6406.375,287.6543 Q6406.375,287.998 6406.0313,288.4043 Q6405.5313,288.9824 6404.7344,289.3105 Q6403.6563,289.7637 6402.3594,289.7637 Q6400.8438,289.7637 6399.6406,289.1387 Q6398.6563,288.6387 6397.9688,287.5762 Q6397.2813,286.498 6397.2813,285.2168 L6397.2813,284.0605 Q6397.2813,282.7324 6397.8906,281.5918 Q6398.5156,280.4355 6399.6094,279.8262 Q6400.7031,279.2012 6401.9375,279.2012 Q6402.6719,279.2012 6403.3125,279.373 Q6403.9688,279.5293 6404.5156,279.8887 Z " fill="#000000"/><text fill="#000000" font-family="sans-serif" font-size="14" lengthAdjust="spacing" textLength="142" x="6422.25" y="289.8105">ValidationErrorFactory</text><line style="stroke:#181818;stroke-width:0.5;" x1="6303" x2="6651" y1="300.0137" y2="300.0137"/><rect fill="none" height="6" style="stroke:#C82930;stroke-width:1.0;" width="6" x="6310" y="311.8242"/><text fill="#000000" font-family="sans-serif" font-size="14" lengthAdjust="spacing" textLength="173" x="6322" y="319.1211">ErrorCodeUtil errorCodeUtil</text><line style="stroke:#181818;stroke-width:0.5;" x1="6303" x2="6651" y1="326.6348" y2="326.6348"/><ellipse cx="6313" cy="341.4453" fill="#84BE84" rx="3" ry="3" style="stroke:#038048;stroke-width:1.0;"/><text fill="#000000" font-family="sans-serif" font-size="14" lengthAdjust="spacing" textLength="207" x="6322" y="345.7422">ValidationError buildError(String)</text><ellipse cx="6313" cy="360.0664" fill="#84BE84" rx="3" ry="3" style="stroke:#038048;stroke-width:1.0;"/><text fill="#000000" font-family="sans-serif" font-size="14" lengthAdjust="spacing" textLength="324" x="6322" y="364.3633">ValidationError buildError(String,List&lt;Placeholder&gt;)</text></g><!--class TravelAgreementFieldValidation--><g id="elem_TravelAgreementFieldValidation"><rect codeLine="131" fill="#F1F1F1" height="85.2422" id="TravelAgreementFieldValidation" rx="2.5" ry="2.5" style="stroke:#181818;stroke-width:0.5;" width="459" x="4656.5" y="277.5137"/><ellipse cx="4781.25" cy="293.5137" fill="#B4A7E5" rx="11" ry="11" style="stroke:#181818;stroke-width:1.0;"/><path d="M4782.2031,290.1543 L4782.2031,296.8105 L4783.9219,296.8105 Q4784.5313,296.8105 4784.7969,297.0449 Q4785.0625,297.2793 4785.0625,297.6699 Q4785.0625,298.0449 4784.7969,298.2793 Q4784.5313,298.5137 4783.9219,298.5137 L4778.7813,298.5137 Q4778.1719,298.5137 4777.9063,298.2793 Q4777.6406,298.0449 4777.6406,297.6543 Q4777.6406,297.2793 4777.9063,297.0449 Q4778.1719,296.8105 4778.7813,296.8105 L4780.5,296.8105 L4780.5,290.1543 L4778.7813,290.1543 Q4778.1719,290.1543 4777.9063,289.9199 Q4777.6406,289.6855 4777.6406,289.2949 Q4777.6406,288.9199 4777.9063,288.6855 Q4778.1719,288.4512 4778.7813,288.4512 L4783.9219,288.4512 Q4784.5313,288.4512 4784.7969,288.6855 Q4785.0625,288.9199 4785.0625,289.2949 Q4785.0625,289.6855 4784.7969,289.9199 Q4784.5313,290.1543 4783.9219,290.1543 L4782.2031,290.1543 Z " fill="#000000"/><text fill="#000000" font-family="sans-serif" font-size="14" font-style="italic" lengthAdjust="spacing" textLength="201" x="4801.75" y="299.3105">TravelAgreementFieldValidation</text><line style="stroke:#181818;stroke-width:0.5;" x1="4657.5" x2="5114.5" y1="309.5137" y2="309.5137"/><line style="stroke:#181818;stroke-width:0.5;" x1="4657.5" x2="5114.5" y1="317.5137" y2="317.5137"/><polygon fill="#4177AF" points="4667.5,328.3242,4663.5,334.3242,4671.5,334.3242" style="stroke:#1963A0;stroke-width:1.0;"/><text fill="#000000" font-family="sans-serif" font-size="14" lengthAdjust="spacing" textLength="433" x="4676.5" y="336.6211">Optional&lt;ValidationError&gt; validate(TravelCalculatePremiumRequest)</text><polygon fill="#4177AF" points="4667.5,346.9453,4663.5,352.9453,4671.5,352.9453" style="stroke:#1963A0;stroke-width:1.0;"/><text fill="#000000" font-family="sans-serif" font-size="14" lengthAdjust="spacing" textLength="424" x="4676.5" y="355.2422">List&lt;ValidationError&gt; validateList(TravelCalculatePremiumRequest)</text></g><!--class TravelPersonFieldValidation--><g id="elem_TravelPersonFieldValidation"><rect codeLine="141" fill="#F1F1F1" height="85.2422" id="TravelPersonFieldValidation" rx="2.5" ry="2.5" style="stroke:#181818;stroke-width:0.5;" width="459" x="907.5" y="277.5137"/><ellipse cx="1044.25" cy="293.5137" fill="#B4A7E5" rx="11" ry="11" style="stroke:#181818;stroke-width:1.0;"/><path d="M1045.2031,290.1543 L1045.2031,296.8105 L1046.9219,296.8105 Q1047.5313,296.8105 1047.7969,297.0449 Q1048.0625,297.2793 1048.0625,297.6699 Q1048.0625,298.0449 1047.7969,298.2793 Q1047.5313,298.5137 1046.9219,298.5137 L1041.7813,298.5137 Q1041.1719,298.5137 1040.9063,298.2793 Q1040.6406,298.0449 1040.6406,297.6543 Q1040.6406,297.2793 1040.9063,297.0449 Q1041.1719,296.8105 1041.7813,296.8105 L1043.5,296.8105 L1043.5,290.1543 L1041.7813,290.1543 Q1041.1719,290.1543 1040.9063,289.9199 Q1040.6406,289.6855 1040.6406,289.2949 Q1040.6406,288.9199 1040.9063,288.6855 Q1041.1719,288.4512 1041.7813,288.4512 L1046.9219,288.4512 Q1047.5313,288.4512 1047.7969,288.6855 Q1048.0625,288.9199 1048.0625,289.2949 Q1048.0625,289.6855 1047.7969,289.9199 Q1047.5313,290.1543 1046.9219,290.1543 L1045.2031,290.1543 Z " fill="#000000"/><text fill="#000000" font-family="sans-serif" font-size="14" font-style="italic" lengthAdjust="spacing" textLength="177" x="1064.75" y="299.3105">TravelPersonFieldValidation</text><line style="stroke:#181818;stroke-width:0.5;" x1="908.5" x2="1365.5" y1="309.5137" y2="309.5137"/><line style="stroke:#181818;stroke-width:0.5;" x1="908.5" x2="1365.5" y1="317.5137" y2="317.5137"/><polygon fill="#4177AF" points="918.5,328.3242,914.5,334.3242,922.5,334.3242" style="stroke:#1963A0;stroke-width:1.0;"/><text fill="#000000" font-family="sans-serif" font-size="14" lengthAdjust="spacing" textLength="433" x="927.5" y="336.6211">Optional&lt;ValidationError&gt; validate(TravelCalculatePremiumRequest)</text><polygon fill="#4177AF" points="918.5,346.9453,914.5,352.9453,922.5,352.9453" style="stroke:#1963A0;stroke-width:1.0;"/><text fill="#000000" font-family="sans-serif" font-size="14" lengthAdjust="spacing" textLength="424" x="927.5" y="355.2422">List&lt;ValidationError&gt; validateList(TravelCalculatePremiumRequest)</text></g><!--class AgreementDateToValidation--><g id="elem_AgreementDateToValidation"><rect codeLine="15" fill="#F1F1F1" height="85.2422" id="AgreementDateToValidation" rx="2.5" ry="2.5" style="stroke:#181818;stroke-width:0.5;" width="459" x="2164.5" y="772.5137"/><ellipse cx="2300.75" cy="788.5137" fill="#ADD1B2" rx="11" ry="11" style="stroke:#181818;stroke-width:1.0;"/><path d="M2303.5156,784.3887 Q2303.6719,784.1699 2303.8594,784.0605 Q2304.0469,783.9512 2304.2656,783.9512 Q2304.6406,783.9512 2304.875,784.2168 Q2305.1094,784.4668 2305.1094,785.0762 L2305.1094,786.5293 Q2305.1094,787.1387 2304.875,787.4043 Q2304.6406,787.6699 2304.2656,787.6699 Q2303.9219,787.6699 2303.7188,787.4668 Q2303.5156,787.2793 2303.4063,786.7637 Q2303.3594,786.4043 2303.1719,786.2168 Q2302.8438,785.8418 2302.2344,785.623 Q2301.625,785.4043 2301,785.4043 Q2300.2344,785.4043 2299.5938,785.7324 Q2298.9688,786.0605 2298.4688,786.8105 Q2297.9844,787.5605 2297.9844,788.5918 L2297.9844,789.6855 Q2297.9844,790.9199 2298.875,791.748 Q2299.7656,792.5605 2301.3594,792.5605 Q2302.2969,792.5605 2302.9531,792.3105 Q2303.3438,792.1543 2303.7656,791.7168 Q2304.0313,791.4512 2304.1719,791.373 Q2304.3281,791.2949 2304.5313,791.2949 Q2304.8594,791.2949 2305.1094,791.5605 Q2305.375,791.8105 2305.375,792.1543 Q2305.375,792.498 2305.0313,792.9043 Q2304.5313,793.4824 2303.7344,793.8105 Q2302.6563,794.2637 2301.3594,794.2637 Q2299.8438,794.2637 2298.6406,793.6387 Q2297.6563,793.1387 2296.9688,792.0762 Q2296.2813,790.998 2296.2813,789.7168 L2296.2813,788.5605 Q2296.2813,787.2324 2296.8906,786.0918 Q2297.5156,784.9355 2298.6094,784.3262 Q2299.7031,783.7012 2300.9375,783.7012 Q2301.6719,783.7012 2302.3125,783.873 Q2302.9688,784.0293 2303.5156,784.3887 Z " fill="#000000"/><text fill="#000000" font-family="sans-serif" font-size="14" lengthAdjust="spacing" textLength="178" x="2321.25" y="794.3105">AgreementDateToValidation</text><line style="stroke:#181818;stroke-width:0.5;" x1="2165.5" x2="2622.5" y1="804.5137" y2="804.5137"/><rect fill="none" height="6" style="stroke:#C82930;stroke-width:1.0;" width="6" x="2172.5" y="816.3242"/><text fill="#000000" font-family="sans-serif" font-size="14" lengthAdjust="spacing" textLength="225" x="2184.5" y="823.6211">ValidationErrorFactory errorFactory</text><line style="stroke:#181818;stroke-width:0.5;" x1="2165.5" x2="2622.5" y1="831.1348" y2="831.1348"/><ellipse cx="2175.5" cy="845.9453" fill="#84BE84" rx="3" ry="3" style="stroke:#038048;stroke-width:1.0;"/><text fill="#000000" font-family="sans-serif" font-size="14" lengthAdjust="spacing" textLength="433" x="2184.5" y="850.2422">Optional&lt;ValidationError&gt; validate(TravelCalculatePremiumRequest)</text></g><!--class DateFromLessThenDateToValidation--><g id="elem_DateFromLessThenDateToValidation"><rect codeLine="21" fill="#F1F1F1" height="85.2422" id="DateFromLessThenDateToValidation" rx="2.5" ry="2.5" style="stroke:#181818;stroke-width:0.5;" width="459" x="2658.5" y="772.5137"/><ellipse cx="2766.25" cy="788.5137" fill="#ADD1B2" rx="11" ry="11" style="stroke:#181818;stroke-width:1.0;"/><path d="M2769.0156,784.3887 Q2769.1719,784.1699 2769.3594,784.0605 Q2769.5469,783.9512 2769.7656,783.9512 Q2770.1406,783.9512 2770.375,784.2168 Q2770.6094,784.4668 2770.6094,785.0762 L2770.6094,786.5293 Q2770.6094,787.1387 2770.375,787.4043 Q2770.1406,787.6699 2769.7656,787.6699 Q2769.4219,787.6699 2769.2188,787.4668 Q2769.0156,787.2793 2768.9063,786.7637 Q2768.8594,786.4043 2768.6719,786.2168 Q2768.3438,785.8418 2767.7344,785.623 Q2767.125,785.4043 2766.5,785.4043 Q2765.7344,785.4043 2765.0938,785.7324 Q2764.4688,786.0605 2763.9688,786.8105 Q2763.4844,787.5605 2763.4844,788.5918 L2763.4844,789.6855 Q2763.4844,790.9199 2764.375,791.748 Q2765.2656,792.5605 2766.8594,792.5605 Q2767.7969,792.5605 2768.4531,792.3105 Q2768.8438,792.1543 2769.2656,791.7168 Q2769.5313,791.4512 2769.6719,791.373 Q2769.8281,791.2949 2770.0313,791.2949 Q2770.3594,791.2949 2770.6094,791.5605 Q2770.875,791.8105 2770.875,792.1543 Q2770.875,792.498 2770.5313,792.9043 Q2770.0313,793.4824 2769.2344,793.8105 Q2768.1563,794.2637 2766.8594,794.2637 Q2765.3438,794.2637 2764.1406,793.6387 Q2763.1563,793.1387 2762.4688,792.0762 Q2761.7813,790.998 2761.7813,789.7168 L2761.7813,788.5605 Q2761.7813,787.2324 2762.3906,786.0918 Q2763.0156,784.9355 2764.1094,784.3262 Q2765.2031,783.7012 2766.4375,783.7012 Q2767.1719,783.7012 2767.8125,783.873 Q2768.4688,784.0293 2769.0156,784.3887 Z " fill="#000000"/><text fill="#000000" font-family="sans-serif" font-size="14" lengthAdjust="spacing" textLength="235" x="2786.75" y="794.3105">DateFromLessThenDateToValidation</text><line style="stroke:#181818;stroke-width:0.5;" x1="2659.5" x2="3116.5" y1="804.5137" y2="804.5137"/><rect fill="none" height="6" style="stroke:#C82930;stroke-width:1.0;" width="6" x="2666.5" y="816.3242"/><text fill="#000000" font-family="sans-serif" font-size="14" lengthAdjust="spacing" textLength="225" x="2678.5" y="823.6211">ValidationErrorFactory errorFactory</text><line style="stroke:#181818;stroke-width:0.5;" x1="2659.5" x2="3116.5" y1="831.1348" y2="831.1348"/><ellipse cx="2669.5" cy="845.9453" fill="#84BE84" rx="3" ry="3" style="stroke:#038048;stroke-width:1.0;"/><text fill="#000000" font-family="sans-serif" font-size="14" lengthAdjust="spacing" textLength="433" x="2678.5" y="850.2422">Optional&lt;ValidationError&gt; validate(TravelCalculatePremiumRequest)</text></g><!--class AgreementDateFromValidation--><g id="elem_AgreementDateFromValidation"><rect codeLine="27" fill="#F1F1F1" height="85.2422" id="AgreementDateFromValidation" rx="2.5" ry="2.5" style="stroke:#181818;stroke-width:0.5;" width="459" x="3152.5" y="772.5137"/><ellipse cx="3280.75" cy="788.5137" fill="#ADD1B2" rx="11" ry="11" style="stroke:#181818;stroke-width:1.0;"/><path d="M3283.5156,784.3887 Q3283.6719,784.1699 3283.8594,784.0605 Q3284.0469,783.9512 3284.2656,783.9512 Q3284.6406,783.9512 3284.875,784.2168 Q3285.1094,784.4668 3285.1094,785.0762 L3285.1094,786.5293 Q3285.1094,787.1387 3284.875,787.4043 Q3284.6406,787.6699 3284.2656,787.6699 Q3283.9219,787.6699 3283.7188,787.4668 Q3283.5156,787.2793 3283.4063,786.7637 Q3283.3594,786.4043 3283.1719,786.2168 Q3282.8438,785.8418 3282.2344,785.623 Q3281.625,785.4043 3281,785.4043 Q3280.2344,785.4043 3279.5938,785.7324 Q3278.9688,786.0605 3278.4688,786.8105 Q3277.9844,787.5605 3277.9844,788.5918 L3277.9844,789.6855 Q3277.9844,790.9199 3278.875,791.748 Q3279.7656,792.5605 3281.3594,792.5605 Q3282.2969,792.5605 3282.9531,792.3105 Q3283.3438,792.1543 3283.7656,791.7168 Q3284.0313,791.4512 3284.1719,791.373 Q3284.3281,791.2949 3284.5313,791.2949 Q3284.8594,791.2949 3285.1094,791.5605 Q3285.375,791.8105 3285.375,792.1543 Q3285.375,792.498 3285.0313,792.9043 Q3284.5313,793.4824 3283.7344,793.8105 Q3282.6563,794.2637 3281.3594,794.2637 Q3279.8438,794.2637 3278.6406,793.6387 Q3277.6563,793.1387 3276.9688,792.0762 Q3276.2813,790.998 3276.2813,789.7168 L3276.2813,788.5605 Q3276.2813,787.2324 3276.8906,786.0918 Q3277.5156,784.9355 3278.6094,784.3262 Q3279.7031,783.7012 3280.9375,783.7012 Q3281.6719,783.7012 3282.3125,783.873 Q3282.9688,784.0293 3283.5156,784.3887 Z " fill="#000000"/><text fill="#000000" font-family="sans-serif" font-size="14" lengthAdjust="spacing" textLength="194" x="3301.25" y="794.3105">AgreementDateFromValidation</text><line style="stroke:#181818;stroke-width:0.5;" x1="3153.5" x2="3610.5" y1="804.5137" y2="804.5137"/><rect fill="none" height="6" style="stroke:#C82930;stroke-width:1.0;" width="6" x="3160.5" y="816.3242"/><text fill="#000000" font-family="sans-serif" font-size="14" lengthAdjust="spacing" textLength="225" x="3172.5" y="823.6211">ValidationErrorFactory errorFactory</text><line style="stroke:#181818;stroke-width:0.5;" x1="3153.5" x2="3610.5" y1="831.1348" y2="831.1348"/><ellipse cx="3163.5" cy="845.9453" fill="#84BE84" rx="3" ry="3" style="stroke:#038048;stroke-width:1.0;"/><text fill="#000000" font-family="sans-serif" font-size="14" lengthAdjust="spacing" textLength="433" x="3172.5" y="850.2422">Optional&lt;ValidationError&gt; validate(TravelCalculatePremiumRequest)</text></g><!--class AgreementDateToInFutureValidation--><g id="elem_AgreementDateToInFutureValidation"><rect codeLine="46" fill="#F1F1F1" height="103.8633" id="AgreementDateToInFutureValidation" rx="2.5" ry="2.5" style="stroke:#181818;stroke-width:0.5;" width="459" x="3646.5" y="763.0137"/><ellipse cx="3756.25" cy="779.0137" fill="#ADD1B2" rx="11" ry="11" style="stroke:#181818;stroke-width:1.0;"/><path d="M3759.0156,774.8887 Q3759.1719,774.6699 3759.3594,774.5605 Q3759.5469,774.4512 3759.7656,774.4512 Q3760.1406,774.4512 3760.375,774.7168 Q3760.6094,774.9668 3760.6094,775.5762 L3760.6094,777.0293 Q3760.6094,777.6387 3760.375,777.9043 Q3760.1406,778.1699 3759.7656,778.1699 Q3759.4219,778.1699 3759.2188,777.9668 Q3759.0156,777.7793 3758.9063,777.2637 Q3758.8594,776.9043 3758.6719,776.7168 Q3758.3438,776.3418 3757.7344,776.123 Q3757.125,775.9043 3756.5,775.9043 Q3755.7344,775.9043 3755.0938,776.2324 Q3754.4688,776.5605 3753.9688,777.3105 Q3753.4844,778.0605 3753.4844,779.0918 L3753.4844,780.1855 Q3753.4844,781.4199 3754.375,782.248 Q3755.2656,783.0605 3756.8594,783.0605 Q3757.7969,783.0605 3758.4531,782.8105 Q3758.8438,782.6543 3759.2656,782.2168 Q3759.5313,781.9512 3759.6719,781.873 Q3759.8281,781.7949 3760.0313,781.7949 Q3760.3594,781.7949 3760.6094,782.0605 Q3760.875,782.3105 3760.875,782.6543 Q3760.875,782.998 3760.5313,783.4043 Q3760.0313,783.9824 3759.2344,784.3105 Q3758.1563,784.7637 3756.8594,784.7637 Q3755.3438,784.7637 3754.1406,784.1387 Q3753.1563,783.6387 3752.4688,782.5762 Q3751.7813,781.498 3751.7813,780.2168 L3751.7813,779.0605 Q3751.7813,777.7324 3752.3906,776.5918 Q3753.0156,775.4355 3754.1094,774.8262 Q3755.2031,774.2012 3756.4375,774.2012 Q3757.1719,774.2012 3757.8125,774.373 Q3758.4688,774.5293 3759.0156,774.8887 Z " fill="#000000"/><text fill="#000000" font-family="sans-serif" font-size="14" lengthAdjust="spacing" textLength="231" x="3776.75" y="784.8105">AgreementDateToInFutureValidation</text><line style="stroke:#181818;stroke-width:0.5;" x1="3647.5" x2="4104.5" y1="795.0137" y2="795.0137"/><rect fill="none" height="6" style="stroke:#C82930;stroke-width:1.0;" width="6" x="3654.5" y="806.8242"/><text fill="#000000" font-family="sans-serif" font-size="14" lengthAdjust="spacing" textLength="162" x="3666.5" y="814.1211">DateTimeUtil dateTimeUtil</text><rect fill="none" height="6" style="stroke:#C82930;stroke-width:1.0;" width="6" x="3654.5" y="825.4453"/><text fill="#000000" font-family="sans-serif" font-size="14" lengthAdjust="spacing" textLength="225" x="3666.5" y="832.7422">ValidationErrorFactory errorFactory</text><line style="stroke:#181818;stroke-width:0.5;" x1="3647.5" x2="4104.5" y1="840.2559" y2="840.2559"/><ellipse cx="3657.5" cy="855.0664" fill="#84BE84" rx="3" ry="3" style="stroke:#038048;stroke-width:1.0;"/><text fill="#000000" font-family="sans-serif" font-size="14" lengthAdjust="spacing" textLength="433" x="3666.5" y="859.3633">Optional&lt;ValidationError&gt; validate(TravelCalculatePremiumRequest)</text></g><!--class TravelAgreementFieldValidationImpl--><g id="elem_TravelAgreementFieldValidationImpl"><rect codeLine="57" fill="#F1F1F1" height="85.2422" id="TravelAgreementFieldValidationImpl" rx="2.5" ry="2.5" style="stroke:#181818;stroke-width:0.5;" width="459" x="4656.5" y="506.5137"/><ellipse cx="4768.25" cy="522.5137" fill="#A9DCDF" rx="11" ry="11" style="stroke:#181818;stroke-width:1.0;"/><path d="M4770.4375,524.2793 L4766.2969,524.2793 L4765.875,525.3105 L4766.2969,525.3105 Q4766.9063,525.3105 4767.1719,525.5449 Q4767.4375,525.7793 4767.4375,526.1699 Q4767.4375,526.5449 4767.1719,526.7793 Q4766.9063,527.0137 4766.2969,527.0137 L4764,527.0137 Q4763.3906,527.0137 4763.1406,526.7793 Q4762.875,526.5449 4762.875,526.1543 Q4762.875,525.7793 4763.1563,525.5449 Q4763.4219,525.2949 4764.0469,525.3105 L4766.7188,518.6543 L4765.6094,518.6543 Q4765,518.6543 4764.7344,518.4199 Q4764.4688,518.1855 4764.4688,517.7949 Q4764.4688,517.4199 4764.7344,517.1855 Q4765,516.9512 4765.6094,516.9512 L4769.2813,516.9512 L4772.6719,525.3105 Q4773.2656,525.3105 4773.4531,525.4512 Q4773.8438,525.7168 4773.8438,526.1699 Q4773.8438,526.5449 4773.5781,526.7793 Q4773.3281,527.0137 4772.7188,527.0137 L4770.4219,527.0137 Q4769.8125,527.0137 4769.5469,526.7793 Q4769.2813,526.5449 4769.2813,526.1543 Q4769.2813,525.7793 4769.5469,525.5449 Q4769.8125,525.3105 4770.4219,525.3105 L4770.8438,525.3105 L4770.4375,524.2793 Z M4769.7188,522.5762 L4768.3594,519.2012 L4766.9844,522.5762 L4769.7188,522.5762 Z " fill="#000000"/><text fill="#000000" font-family="sans-serif" font-size="14" font-style="italic" lengthAdjust="spacing" textLength="227" x="4788.75" y="528.3105">TravelAgreementFieldValidationImpl</text><line style="stroke:#181818;stroke-width:0.5;" x1="4657.5" x2="5114.5" y1="538.5137" y2="538.5137"/><line style="stroke:#181818;stroke-width:0.5;" x1="4657.5" x2="5114.5" y1="546.5137" y2="546.5137"/><ellipse cx="4667.5" cy="561.3242" fill="#84BE84" rx="3" ry="3" style="stroke:#038048;stroke-width:1.0;"/><text fill="#000000" font-family="sans-serif" font-size="14" lengthAdjust="spacing" textLength="433" x="4676.5" y="565.6211">Optional&lt;ValidationError&gt; validate(TravelCalculatePremiumRequest)</text><ellipse cx="4667.5" cy="579.9453" fill="#84BE84" rx="3" ry="3" style="stroke:#038048;stroke-width:1.0;"/><text fill="#000000" font-family="sans-serif" font-size="14" lengthAdjust="spacing" textLength="424" x="4676.5" y="584.2422">List&lt;ValidationError&gt; validateList(TravelCalculatePremiumRequest)</text></g><!--class EmptySelectedRisksValidation--><g id="elem_EmptySelectedRisksValidation"><rect codeLine="69" fill="#F1F1F1" height="85.2422" id="EmptySelectedRisksValidation" rx="2.5" ry="2.5" style="stroke:#181818;stroke-width:0.5;" width="459" x="4140.5" y="772.5137"/><ellipse cx="4270.75" cy="788.5137" fill="#ADD1B2" rx="11" ry="11" style="stroke:#181818;stroke-width:1.0;"/><path d="M4273.5156,784.3887 Q4273.6719,784.1699 4273.8594,784.0605 Q4274.0469,783.9512 4274.2656,783.9512 Q4274.6406,783.9512 4274.875,784.2168 Q4275.1094,784.4668 4275.1094,785.0762 L4275.1094,786.5293 Q4275.1094,787.1387 4274.875,787.4043 Q4274.6406,787.6699 4274.2656,787.6699 Q4273.9219,787.6699 4273.7188,787.4668 Q4273.5156,787.2793 4273.4063,786.7637 Q4273.3594,786.4043 4273.1719,786.2168 Q4272.8438,785.8418 4272.2344,785.623 Q4271.625,785.4043 4271,785.4043 Q4270.2344,785.4043 4269.5938,785.7324 Q4268.9688,786.0605 4268.4688,786.8105 Q4267.9844,787.5605 4267.9844,788.5918 L4267.9844,789.6855 Q4267.9844,790.9199 4268.875,791.748 Q4269.7656,792.5605 4271.3594,792.5605 Q4272.2969,792.5605 4272.9531,792.3105 Q4273.3438,792.1543 4273.7656,791.7168 Q4274.0313,791.4512 4274.1719,791.373 Q4274.3281,791.2949 4274.5313,791.2949 Q4274.8594,791.2949 4275.1094,791.5605 Q4275.375,791.8105 4275.375,792.1543 Q4275.375,792.498 4275.0313,792.9043 Q4274.5313,793.4824 4273.7344,793.8105 Q4272.6563,794.2637 4271.3594,794.2637 Q4269.8438,794.2637 4268.6406,793.6387 Q4267.6563,793.1387 4266.9688,792.0762 Q4266.2813,790.998 4266.2813,789.7168 L4266.2813,788.5605 Q4266.2813,787.2324 4266.8906,786.0918 Q4267.5156,784.9355 4268.6094,784.3262 Q4269.7031,783.7012 4270.9375,783.7012 Q4271.6719,783.7012 4272.3125,783.873 Q4272.9688,784.0293 4273.5156,784.3887 Z " fill="#000000"/><text fill="#000000" font-family="sans-serif" font-size="14" lengthAdjust="spacing" textLength="190" x="4291.25" y="794.3105">EmptySelectedRisksValidation</text><line style="stroke:#181818;stroke-width:0.5;" x1="4141.5" x2="4598.5" y1="804.5137" y2="804.5137"/><rect fill="none" height="6" style="stroke:#C82930;stroke-width:1.0;" width="6" x="4148.5" y="816.3242"/><text fill="#000000" font-family="sans-serif" font-size="14" lengthAdjust="spacing" textLength="225" x="4160.5" y="823.6211">ValidationErrorFactory errorFactory</text><line style="stroke:#181818;stroke-width:0.5;" x1="4141.5" x2="4598.5" y1="831.1348" y2="831.1348"/><ellipse cx="4151.5" cy="845.9453" fill="#84BE84" rx="3" ry="3" style="stroke:#038048;stroke-width:1.0;"/><text fill="#000000" font-family="sans-serif" font-size="14" lengthAdjust="spacing" textLength="433" x="4160.5" y="850.2422">Optional&lt;ValidationError&gt; validate(TravelCalculatePremiumRequest)</text></g><!--class MedicalRiskLimitLevelValidation--><g id="elem_MedicalRiskLimitLevelValidation"><rect codeLine="82" fill="#F1F1F1" height="141.1055" id="MedicalRiskLimitLevelValidation" rx="2.5" ry="2.5" style="stroke:#181818;stroke-width:0.5;" width="502" x="4635" y="744.5137"/><ellipse cx="4781.75" cy="760.5137" fill="#ADD1B2" rx="11" ry="11" style="stroke:#181818;stroke-width:1.0;"/><path d="M4784.5156,756.3887 Q4784.6719,756.1699 4784.8594,756.0605 Q4785.0469,755.9512 4785.2656,755.9512 Q4785.6406,755.9512 4785.875,756.2168 Q4786.1094,756.4668 4786.1094,757.0762 L4786.1094,758.5293 Q4786.1094,759.1387 4785.875,759.4043 Q4785.6406,759.6699 4785.2656,759.6699 Q4784.9219,759.6699 4784.7188,759.4668 Q4784.5156,759.2793 4784.4063,758.7637 Q4784.3594,758.4043 4784.1719,758.2168 Q4783.8438,757.8418 4783.2344,757.623 Q4782.625,757.4043 4782,757.4043 Q4781.2344,757.4043 4780.5938,757.7324 Q4779.9688,758.0605 4779.4688,758.8105 Q4778.9844,759.5605 4778.9844,760.5918 L4778.9844,761.6855 Q4778.9844,762.9199 4779.875,763.748 Q4780.7656,764.5605 4782.3594,764.5605 Q4783.2969,764.5605 4783.9531,764.3105 Q4784.3438,764.1543 4784.7656,763.7168 Q4785.0313,763.4512 4785.1719,763.373 Q4785.3281,763.2949 4785.5313,763.2949 Q4785.8594,763.2949 4786.1094,763.5605 Q4786.375,763.8105 4786.375,764.1543 Q4786.375,764.498 4786.0313,764.9043 Q4785.5313,765.4824 4784.7344,765.8105 Q4783.6563,766.2637 4782.3594,766.2637 Q4780.8438,766.2637 4779.6406,765.6387 Q4778.6563,765.1387 4777.9688,764.0762 Q4777.2813,762.998 4777.2813,761.7168 L4777.2813,760.5605 Q4777.2813,759.2324 4777.8906,758.0918 Q4778.5156,756.9355 4779.6094,756.3262 Q4780.7031,755.7012 4781.9375,755.7012 Q4782.6719,755.7012 4783.3125,755.873 Q4783.9688,756.0293 4784.5156,756.3887 Z " fill="#000000"/><text fill="#000000" font-family="sans-serif" font-size="14" lengthAdjust="spacing" textLength="200" x="4802.25" y="766.3105">MedicalRiskLimitLevelValidation</text><line style="stroke:#181818;stroke-width:0.5;" x1="4636" x2="5136" y1="776.5137" y2="776.5137"/><rect fill="none" height="6" style="stroke:#C82930;stroke-width:1.0;" width="6" x="4643" y="788.3242"/><text fill="#000000" font-family="sans-serif" font-size="14" lengthAdjust="spacing" textLength="325" x="4655" y="795.6211">ClassifierValueRepository classifierValueRepository</text><rect fill="none" height="6" style="stroke:#C82930;stroke-width:1.0;" width="6" x="4643" y="806.9453"/><text fill="#000000" font-family="sans-serif" font-size="14" lengthAdjust="spacing" textLength="225" x="4655" y="814.2422">ValidationErrorFactory errorFactory</text><line style="stroke:#181818;stroke-width:0.5;" x1="4636" x2="5136" y1="821.7559" y2="821.7559"/><ellipse cx="4646" cy="836.5664" fill="#84BE84" rx="3" ry="3" style="stroke:#038048;stroke-width:1.0;"/><text fill="#000000" font-family="sans-serif" font-size="14" lengthAdjust="spacing" textLength="433" x="4655" y="840.8633">Optional&lt;ValidationError&gt; validate(TravelCalculatePremiumRequest)</text><rect fill="#F24D5C" height="6" style="stroke:#C82930;stroke-width:1.0;" width="6" x="4643" y="852.1875"/><text fill="#000000" font-family="sans-serif" font-size="14" lengthAdjust="spacing" textLength="476" x="4655" y="859.4844">boolean isMedicalRiskLimitLevelNotBlank(TravelCalculatePremiumRequest)</text><rect fill="#F24D5C" height="6" style="stroke:#C82930;stroke-width:1.0;" width="6" x="4643" y="870.8086"/><text fill="#000000" font-family="sans-serif" font-size="14" lengthAdjust="spacing" textLength="202" x="4655" y="878.1055">boolean existInDatabase(String)</text></g><!--class SelectedRisksValidation--><g id="elem_SelectedRisksValidation"><rect codeLine="91" fill="#F1F1F1" height="178.3477" id="SelectedRisksValidation" rx="2.5" ry="2.5" style="stroke:#181818;stroke-width:0.5;" width="517" x="5172.5" y="726.0137"/><ellipse cx="5351.25" cy="742.0137" fill="#ADD1B2" rx="11" ry="11" style="stroke:#181818;stroke-width:1.0;"/><path d="M5354.0156,737.8887 Q5354.1719,737.6699 5354.3594,737.5605 Q5354.5469,737.4512 5354.7656,737.4512 Q5355.1406,737.4512 5355.375,737.7168 Q5355.6094,737.9668 5355.6094,738.5762 L5355.6094,740.0293 Q5355.6094,740.6387 5355.375,740.9043 Q5355.1406,741.1699 5354.7656,741.1699 Q5354.4219,741.1699 5354.2188,740.9668 Q5354.0156,740.7793 5353.9063,740.2637 Q5353.8594,739.9043 5353.6719,739.7168 Q5353.3438,739.3418 5352.7344,739.123 Q5352.125,738.9043 5351.5,738.9043 Q5350.7344,738.9043 5350.0938,739.2324 Q5349.4688,739.5605 5348.9688,740.3105 Q5348.4844,741.0605 5348.4844,742.0918 L5348.4844,743.1855 Q5348.4844,744.4199 5349.375,745.248 Q5350.2656,746.0605 5351.8594,746.0605 Q5352.7969,746.0605 5353.4531,745.8105 Q5353.8438,745.6543 5354.2656,745.2168 Q5354.5313,744.9512 5354.6719,744.873 Q5354.8281,744.7949 5355.0313,744.7949 Q5355.3594,744.7949 5355.6094,745.0605 Q5355.875,745.3105 5355.875,745.6543 Q5355.875,745.998 5355.5313,746.4043 Q5355.0313,746.9824 5354.2344,747.3105 Q5353.1563,747.7637 5351.8594,747.7637 Q5350.3438,747.7637 5349.1406,747.1387 Q5348.1563,746.6387 5347.4688,745.5762 Q5346.7813,744.498 5346.7813,743.2168 L5346.7813,742.0605 Q5346.7813,740.7324 5347.3906,739.5918 Q5348.0156,738.4355 5349.1094,737.8262 Q5350.2031,737.2012 5351.4375,737.2012 Q5352.1719,737.2012 5352.8125,737.373 Q5353.4688,737.5293 5354.0156,737.8887 Z " fill="#000000"/><text fill="#000000" font-family="sans-serif" font-size="14" lengthAdjust="spacing" textLength="151" x="5371.75" y="747.8105">SelectedRisksValidation</text><line style="stroke:#181818;stroke-width:0.5;" x1="5173.5" x2="5688.5" y1="758.0137" y2="758.0137"/><rect fill="none" height="6" style="stroke:#C82930;stroke-width:1.0;" width="6" x="5180.5" y="769.8242"/><text fill="#000000" font-family="sans-serif" font-size="14" lengthAdjust="spacing" textLength="325" x="5192.5" y="777.1211">ClassifierValueRepository classifierValueRepository</text><rect fill="none" height="6" style="stroke:#C82930;stroke-width:1.0;" width="6" x="5180.5" y="788.4453"/><text fill="#000000" font-family="sans-serif" font-size="14" lengthAdjust="spacing" textLength="225" x="5192.5" y="795.7422">ValidationErrorFactory errorFactory</text><line style="stroke:#181818;stroke-width:0.5;" x1="5173.5" x2="5688.5" y1="803.2559" y2="803.2559"/><ellipse cx="5183.5" cy="818.0664" fill="#84BE84" rx="3" ry="3" style="stroke:#038048;stroke-width:1.0;"/><text fill="#000000" font-family="sans-serif" font-size="14" lengthAdjust="spacing" textLength="424" x="5192.5" y="822.3633">List&lt;ValidationError&gt; validateList(TravelCalculatePremiumRequest)</text><rect fill="#F24D5C" height="6" style="stroke:#C82930;stroke-width:1.0;" width="6" x="5180.5" y="833.6875"/><text fill="#000000" font-family="sans-serif" font-size="14" lengthAdjust="spacing" textLength="491" x="5192.5" y="840.9844">List&lt;ValidationError&gt; validateSelectedRisks(TravelCalculatePremiumRequest)</text><rect fill="#F24D5C" height="6" style="stroke:#C82930;stroke-width:1.0;" width="6" x="5180.5" y="852.3086"/><text fill="#000000" font-family="sans-serif" font-size="14" lengthAdjust="spacing" textLength="300" x="5192.5" y="859.6055">Optional&lt;ValidationError&gt; validateRiskIc(String)</text><rect fill="#F24D5C" height="6" style="stroke:#C82930;stroke-width:1.0;" width="6" x="5180.5" y="870.9297"/><text fill="#000000" font-family="sans-serif" font-size="14" lengthAdjust="spacing" textLength="269" x="5192.5" y="878.2266">ValidationError buildValidationError(String)</text><rect fill="#F24D5C" height="6" style="stroke:#C82930;stroke-width:1.0;" width="6" x="5180.5" y="889.5508"/><text fill="#000000" font-family="sans-serif" font-size="14" lengthAdjust="spacing" textLength="202" x="5192.5" y="896.8477">boolean existInDatabase(String)</text></g><!--class EmptyCountryValidation--><g id="elem_EmptyCountryValidation"><rect codeLine="102" fill="#F1F1F1" height="103.8633" id="EmptyCountryValidation" rx="2.5" ry="2.5" style="stroke:#181818;stroke-width:0.5;" width="459" x="5724.5" y="763.0137"/><ellipse cx="5874.25" cy="779.0137" fill="#ADD1B2" rx="11" ry="11" style="stroke:#181818;stroke-width:1.0;"/><path d="M5877.0156,774.8887 Q5877.1719,774.6699 5877.3594,774.5605 Q5877.5469,774.4512 5877.7656,774.4512 Q5878.1406,774.4512 5878.375,774.7168 Q5878.6094,774.9668 5878.6094,775.5762 L5878.6094,777.0293 Q5878.6094,777.6387 5878.375,777.9043 Q5878.1406,778.1699 5877.7656,778.1699 Q5877.4219,778.1699 5877.2188,777.9668 Q5877.0156,777.7793 5876.9063,777.2637 Q5876.8594,776.9043 5876.6719,776.7168 Q5876.3438,776.3418 5875.7344,776.123 Q5875.125,775.9043 5874.5,775.9043 Q5873.7344,775.9043 5873.0938,776.2324 Q5872.4688,776.5605 5871.9688,777.3105 Q5871.4844,778.0605 5871.4844,779.0918 L5871.4844,780.1855 Q5871.4844,781.4199 5872.375,782.248 Q5873.2656,783.0605 5874.8594,783.0605 Q5875.7969,783.0605 5876.4531,782.8105 Q5876.8438,782.6543 5877.2656,782.2168 Q5877.5313,781.9512 5877.6719,781.873 Q5877.8281,781.7949 5878.0313,781.7949 Q5878.3594,781.7949 5878.6094,782.0605 Q5878.875,782.3105 5878.875,782.6543 Q5878.875,782.998 5878.5313,783.4043 Q5878.0313,783.9824 5877.2344,784.3105 Q5876.1563,784.7637 5874.8594,784.7637 Q5873.3438,784.7637 5872.1406,784.1387 Q5871.1563,783.6387 5870.4688,782.5762 Q5869.7813,781.498 5869.7813,780.2168 L5869.7813,779.0605 Q5869.7813,777.7324 5870.3906,776.5918 Q5871.0156,775.4355 5872.1094,774.8262 Q5873.2031,774.2012 5874.4375,774.2012 Q5875.1719,774.2012 5875.8125,774.373 Q5876.4688,774.5293 5877.0156,774.8887 Z " fill="#000000"/><text fill="#000000" font-family="sans-serif" font-size="14" lengthAdjust="spacing" textLength="151" x="5894.75" y="784.8105">EmptyCountryValidation</text><line style="stroke:#181818;stroke-width:0.5;" x1="5725.5" x2="6182.5" y1="795.0137" y2="795.0137"/><rect fill="none" height="6" style="stroke:#C82930;stroke-width:1.0;" width="6" x="5732.5" y="806.8242"/><text fill="#000000" font-family="sans-serif" font-size="14" lengthAdjust="spacing" textLength="225" x="5744.5" y="814.1211">ValidationErrorFactory errorFactory</text><line style="stroke:#181818;stroke-width:0.5;" x1="5725.5" x2="6182.5" y1="821.6348" y2="821.6348"/><ellipse cx="5735.5" cy="836.4453" fill="#84BE84" rx="3" ry="3" style="stroke:#038048;stroke-width:1.0;"/><text fill="#000000" font-family="sans-serif" font-size="14" lengthAdjust="spacing" textLength="433" x="5744.5" y="840.7422">Optional&lt;ValidationError&gt; validate(TravelCalculatePremiumRequest)</text><rect fill="#F24D5C" height="6" style="stroke:#C82930;stroke-width:1.0;" width="6" x="5732.5" y="852.0664"/><text fill="#000000" font-family="sans-serif" font-size="14" lengthAdjust="spacing" textLength="403" x="5744.5" y="859.3633">boolean countryIsNullOrBlank(TravelCalculatePremiumRequest)</text></g><!--class AgreementDateFromInFutureValidation--><g id="elem_AgreementDateFromInFutureValidation"><rect codeLine="109" fill="#F1F1F1" height="103.8633" id="AgreementDateFromInFutureValidation" rx="2.5" ry="2.5" style="stroke:#181818;stroke-width:0.5;" width="459" x="6218.5" y="763.0137"/><ellipse cx="6320.25" cy="779.0137" fill="#ADD1B2" rx="11" ry="11" style="stroke:#181818;stroke-width:1.0;"/><path d="M6323.0156,774.8887 Q6323.1719,774.6699 6323.3594,774.5605 Q6323.5469,774.4512 6323.7656,774.4512 Q6324.1406,774.4512 6324.375,774.7168 Q6324.6094,774.9668 6324.6094,775.5762 L6324.6094,777.0293 Q6324.6094,777.6387 6324.375,777.9043 Q6324.1406,778.1699 6323.7656,778.1699 Q6323.4219,778.1699 6323.2188,777.9668 Q6323.0156,777.7793 6322.9063,777.2637 Q6322.8594,776.9043 6322.6719,776.7168 Q6322.3438,776.3418 6321.7344,776.123 Q6321.125,775.9043 6320.5,775.9043 Q6319.7344,775.9043 6319.0938,776.2324 Q6318.4688,776.5605 6317.9688,777.3105 Q6317.4844,778.0605 6317.4844,779.0918 L6317.4844,780.1855 Q6317.4844,781.4199 6318.375,782.248 Q6319.2656,783.0605 6320.8594,783.0605 Q6321.7969,783.0605 6322.4531,782.8105 Q6322.8438,782.6543 6323.2656,782.2168 Q6323.5313,781.9512 6323.6719,781.873 Q6323.8281,781.7949 6324.0313,781.7949 Q6324.3594,781.7949 6324.6094,782.0605 Q6324.875,782.3105 6324.875,782.6543 Q6324.875,782.998 6324.5313,783.4043 Q6324.0313,783.9824 6323.2344,784.3105 Q6322.1563,784.7637 6320.8594,784.7637 Q6319.3438,784.7637 6318.1406,784.1387 Q6317.1563,783.6387 6316.4688,782.5762 Q6315.7813,781.498 6315.7813,780.2168 L6315.7813,779.0605 Q6315.7813,777.7324 6316.3906,776.5918 Q6317.0156,775.4355 6318.1094,774.8262 Q6319.2031,774.2012 6320.4375,774.2012 Q6321.1719,774.2012 6321.8125,774.373 Q6322.4688,774.5293 6323.0156,774.8887 Z " fill="#000000"/><text fill="#000000" font-family="sans-serif" font-size="14" lengthAdjust="spacing" textLength="247" x="6340.75" y="784.8105">AgreementDateFromInFutureValidation</text><line style="stroke:#181818;stroke-width:0.5;" x1="6219.5" x2="6676.5" y1="795.0137" y2="795.0137"/><rect fill="none" height="6" style="stroke:#C82930;stroke-width:1.0;" width="6" x="6226.5" y="806.8242"/><text fill="#000000" font-family="sans-serif" font-size="14" lengthAdjust="spacing" textLength="162" x="6238.5" y="814.1211">DateTimeUtil dateTimeUtil</text><rect fill="none" height="6" style="stroke:#C82930;stroke-width:1.0;" width="6" x="6226.5" y="825.4453"/><text fill="#000000" font-family="sans-serif" font-size="14" lengthAdjust="spacing" textLength="225" x="6238.5" y="832.7422">ValidationErrorFactory errorFactory</text><line style="stroke:#181818;stroke-width:0.5;" x1="6219.5" x2="6676.5" y1="840.2559" y2="840.2559"/><ellipse cx="6229.5" cy="855.0664" fill="#84BE84" rx="3" ry="3" style="stroke:#038048;stroke-width:1.0;"/><text fill="#000000" font-family="sans-serif" font-size="14" lengthAdjust="spacing" textLength="433" x="6238.5" y="859.3633">Optional&lt;ValidationError&gt; validate(TravelCalculatePremiumRequest)</text></g><!--class CountryValidation--><g id="elem_CountryValidation"><rect codeLine="116" fill="#F1F1F1" height="141.1055" id="CountryValidation" rx="2.5" ry="2.5" style="stroke:#181818;stroke-width:0.5;" width="459" x="6712.5" y="744.5137"/><ellipse cx="6881.75" cy="760.5137" fill="#ADD1B2" rx="11" ry="11" style="stroke:#181818;stroke-width:1.0;"/><path d="M6884.5156,756.3887 Q6884.6719,756.1699 6884.8594,756.0605 Q6885.0469,755.9512 6885.2656,755.9512 Q6885.6406,755.9512 6885.875,756.2168 Q6886.1094,756.4668 6886.1094,757.0762 L6886.1094,758.5293 Q6886.1094,759.1387 6885.875,759.4043 Q6885.6406,759.6699 6885.2656,759.6699 Q6884.9219,759.6699 6884.7188,759.4668 Q6884.5156,759.2793 6884.4063,758.7637 Q6884.3594,758.4043 6884.1719,758.2168 Q6883.8438,757.8418 6883.2344,757.623 Q6882.625,757.4043 6882,757.4043 Q6881.2344,757.4043 6880.5938,757.7324 Q6879.9688,758.0605 6879.4688,758.8105 Q6878.9844,759.5605 6878.9844,760.5918 L6878.9844,761.6855 Q6878.9844,762.9199 6879.875,763.748 Q6880.7656,764.5605 6882.3594,764.5605 Q6883.2969,764.5605 6883.9531,764.3105 Q6884.3438,764.1543 6884.7656,763.7168 Q6885.0313,763.4512 6885.1719,763.373 Q6885.3281,763.2949 6885.5313,763.2949 Q6885.8594,763.2949 6886.1094,763.5605 Q6886.375,763.8105 6886.375,764.1543 Q6886.375,764.498 6886.0313,764.9043 Q6885.5313,765.4824 6884.7344,765.8105 Q6883.6563,766.2637 6882.3594,766.2637 Q6880.8438,766.2637 6879.6406,765.6387 Q6878.6563,765.1387 6877.9688,764.0762 Q6877.2813,762.998 6877.2813,761.7168 L6877.2813,760.5605 Q6877.2813,759.2324 6877.8906,758.0918 Q6878.5156,756.9355 6879.6094,756.3262 Q6880.7031,755.7012 6881.9375,755.7012 Q6882.6719,755.7012 6883.3125,755.873 Q6883.9688,756.0293 6884.5156,756.3887 Z " fill="#000000"/><text fill="#000000" font-family="sans-serif" font-size="14" lengthAdjust="spacing" textLength="112" x="6902.25" y="766.3105">CountryValidation</text><line style="stroke:#181818;stroke-width:0.5;" x1="6713.5" x2="7170.5" y1="776.5137" y2="776.5137"/><rect fill="none" height="6" style="stroke:#C82930;stroke-width:1.0;" width="6" x="6720.5" y="788.3242"/><text fill="#000000" font-family="sans-serif" font-size="14" lengthAdjust="spacing" textLength="325" x="6732.5" y="795.6211">ClassifierValueRepository classifierValueRepository</text><rect fill="none" height="6" style="stroke:#C82930;stroke-width:1.0;" width="6" x="6720.5" y="806.9453"/><text fill="#000000" font-family="sans-serif" font-size="14" lengthAdjust="spacing" textLength="225" x="6732.5" y="814.2422">ValidationErrorFactory errorFactory</text><line style="stroke:#181818;stroke-width:0.5;" x1="6713.5" x2="7170.5" y1="821.7559" y2="821.7559"/><ellipse cx="6723.5" cy="836.5664" fill="#84BE84" rx="3" ry="3" style="stroke:#038048;stroke-width:1.0;"/><text fill="#000000" font-family="sans-serif" font-size="14" lengthAdjust="spacing" textLength="433" x="6732.5" y="840.8633">Optional&lt;ValidationError&gt; validate(TravelCalculatePremiumRequest)</text><rect fill="#F24D5C" height="6" style="stroke:#C82930;stroke-width:1.0;" width="6" x="6720.5" y="852.1875"/><text fill="#000000" font-family="sans-serif" font-size="14" lengthAdjust="spacing" textLength="388" x="6732.5" y="859.4844">boolean isCountryNotBlank(TravelCalculatePremiumRequest)</text><rect fill="#F24D5C" height="6" style="stroke:#C82930;stroke-width:1.0;" width="6" x="6720.5" y="870.8086"/><text fill="#000000" font-family="sans-serif" font-size="14" lengthAdjust="spacing" textLength="202" x="6732.5" y="878.1055">boolean existInDatabase(String)</text></g><!--class EmptyMedicalRiskLimitLevelValidation--><g id="elem_EmptyMedicalRiskLimitLevelValidation"><rect codeLine="146" fill="#F1F1F1" height="159.7266" id="EmptyMedicalRiskLimitLevelValidation" rx="2.5" ry="2.5" style="stroke:#181818;stroke-width:0.5;" width="530" x="7207" y="735.0137"/><ellipse cx="7348.25" cy="751.0137" fill="#ADD1B2" rx="11" ry="11" style="stroke:#181818;stroke-width:1.0;"/><path d="M7351.0156,746.8887 Q7351.1719,746.6699 7351.3594,746.5605 Q7351.5469,746.4512 7351.7656,746.4512 Q7352.1406,746.4512 7352.375,746.7168 Q7352.6094,746.9668 7352.6094,747.5762 L7352.6094,749.0293 Q7352.6094,749.6387 7352.375,749.9043 Q7352.1406,750.1699 7351.7656,750.1699 Q7351.4219,750.1699 7351.2188,749.9668 Q7351.0156,749.7793 7350.9063,749.2637 Q7350.8594,748.9043 7350.6719,748.7168 Q7350.3438,748.3418 7349.7344,748.123 Q7349.125,747.9043 7348.5,747.9043 Q7347.7344,747.9043 7347.0938,748.2324 Q7346.4688,748.5605 7345.9688,749.3105 Q7345.4844,750.0605 7345.4844,751.0918 L7345.4844,752.1855 Q7345.4844,753.4199 7346.375,754.248 Q7347.2656,755.0605 7348.8594,755.0605 Q7349.7969,755.0605 7350.4531,754.8105 Q7350.8438,754.6543 7351.2656,754.2168 Q7351.5313,753.9512 7351.6719,753.873 Q7351.8281,753.7949 7352.0313,753.7949 Q7352.3594,753.7949 7352.6094,754.0605 Q7352.875,754.3105 7352.875,754.6543 Q7352.875,754.998 7352.5313,755.4043 Q7352.0313,755.9824 7351.2344,756.3105 Q7350.1563,756.7637 7348.8594,756.7637 Q7347.3438,756.7637 7346.1406,756.1387 Q7345.1563,755.6387 7344.4688,754.5762 Q7343.7813,753.498 7343.7813,752.2168 L7343.7813,751.0605 Q7343.7813,749.7324 7344.3906,748.5918 Q7345.0156,747.4355 7346.1094,746.8262 Q7347.2031,746.2012 7348.4375,746.2012 Q7349.1719,746.2012 7349.8125,746.373 Q7350.4688,746.5293 7351.0156,746.8887 Z " fill="#000000"/><text fill="#000000" font-family="sans-serif" font-size="14" lengthAdjust="spacing" textLength="239" x="7368.75" y="756.8105">EmptyMedicalRiskLimitLevelValidation</text><line style="stroke:#181818;stroke-width:0.5;" x1="7208" x2="7736" y1="767.0137" y2="767.0137"/><rect fill="none" height="6" style="stroke:#C82930;stroke-width:1.0;" width="6" x="7215" y="778.8242"/><text fill="#000000" font-family="sans-serif" font-size="14" lengthAdjust="spacing" textLength="246" x="7227" y="786.1211">Boolean medicalRiskLimitLevelEnabled</text><rect fill="none" height="6" style="stroke:#C82930;stroke-width:1.0;" width="6" x="7215" y="797.4453"/><text fill="#000000" font-family="sans-serif" font-size="14" lengthAdjust="spacing" textLength="225" x="7227" y="804.7422">ValidationErrorFactory errorFactory</text><line style="stroke:#181818;stroke-width:0.5;" x1="7208" x2="7736" y1="812.2559" y2="812.2559"/><ellipse cx="7218" cy="827.0664" fill="#84BE84" rx="3" ry="3" style="stroke:#038048;stroke-width:1.0;"/><text fill="#000000" font-family="sans-serif" font-size="14" lengthAdjust="spacing" textLength="433" x="7227" y="831.3633">Optional&lt;ValidationError&gt; validate(TravelCalculatePremiumRequest)</text><rect fill="#F24D5C" height="6" style="stroke:#C82930;stroke-width:1.0;" width="6" x="7215" y="842.6875"/><text fill="#000000" font-family="sans-serif" font-size="14" lengthAdjust="spacing" textLength="265" x="7227" y="849.9844">boolean isMedicalRiskLimitLevelEnabled()</text><rect fill="#F24D5C" height="6" style="stroke:#C82930;stroke-width:1.0;" width="6" x="7215" y="861.3086"/><text fill="#000000" font-family="sans-serif" font-size="14" lengthAdjust="spacing" textLength="413" x="7227" y="868.6055">boolean containsTravelMedical(TravelCalculatePremiumRequest)</text><rect fill="#F24D5C" height="6" style="stroke:#C82930;stroke-width:1.0;" width="6" x="7215" y="879.9297"/><text fill="#000000" font-family="sans-serif" font-size="14" lengthAdjust="spacing" textLength="504" x="7227" y="887.2266">boolean isMedicalRiskLimitLevelIsNullOrBlank(TravelCalculatePremiumRequest)</text></g><!--class EmptyPersonBirthDateValidation--><g id="elem_EmptyPersonBirthDateValidation"><rect codeLine="33" fill="#F1F1F1" height="103.8633" id="EmptyPersonBirthDateValidation" rx="2.5" ry="2.5" style="stroke:#181818;stroke-width:0.5;" width="459" x="166.5" y="763.0137"/><ellipse cx="289.25" cy="779.0137" fill="#ADD1B2" rx="11" ry="11" style="stroke:#181818;stroke-width:1.0;"/><path d="M292.0156,774.8887 Q292.1719,774.6699 292.3594,774.5605 Q292.5469,774.4512 292.7656,774.4512 Q293.1406,774.4512 293.375,774.7168 Q293.6094,774.9668 293.6094,775.5762 L293.6094,777.0293 Q293.6094,777.6387 293.375,777.9043 Q293.1406,778.1699 292.7656,778.1699 Q292.4219,778.1699 292.2188,777.9668 Q292.0156,777.7793 291.9063,777.2637 Q291.8594,776.9043 291.6719,776.7168 Q291.3438,776.3418 290.7344,776.123 Q290.125,775.9043 289.5,775.9043 Q288.7344,775.9043 288.0938,776.2324 Q287.4688,776.5605 286.9688,777.3105 Q286.4844,778.0605 286.4844,779.0918 L286.4844,780.1855 Q286.4844,781.4199 287.375,782.248 Q288.2656,783.0605 289.8594,783.0605 Q290.7969,783.0605 291.4531,782.8105 Q291.8438,782.6543 292.2656,782.2168 Q292.5313,781.9512 292.6719,781.873 Q292.8281,781.7949 293.0313,781.7949 Q293.3594,781.7949 293.6094,782.0605 Q293.875,782.3105 293.875,782.6543 Q293.875,782.998 293.5313,783.4043 Q293.0313,783.9824 292.2344,784.3105 Q291.1563,784.7637 289.8594,784.7637 Q288.3438,784.7637 287.1406,784.1387 Q286.1563,783.6387 285.4688,782.5762 Q284.7813,781.498 284.7813,780.2168 L284.7813,779.0605 Q284.7813,777.7324 285.3906,776.5918 Q286.0156,775.4355 287.1094,774.8262 Q288.2031,774.2012 289.4375,774.2012 Q290.1719,774.2012 290.8125,774.373 Q291.4688,774.5293 292.0156,774.8887 Z " fill="#000000"/><text fill="#000000" font-family="sans-serif" font-size="14" lengthAdjust="spacing" textLength="205" x="309.75" y="784.8105">EmptyPersonBirthDateValidation</text><line style="stroke:#181818;stroke-width:0.5;" x1="167.5" x2="624.5" y1="795.0137" y2="795.0137"/><rect fill="none" height="6" style="stroke:#C82930;stroke-width:1.0;" width="6" x="174.5" y="806.8242"/><text fill="#000000" font-family="sans-serif" font-size="14" lengthAdjust="spacing" textLength="225" x="186.5" y="814.1211">ValidationErrorFactory errorFactory</text><line style="stroke:#181818;stroke-width:0.5;" x1="167.5" x2="624.5" y1="821.6348" y2="821.6348"/><ellipse cx="177.5" cy="836.4453" fill="#84BE84" rx="3" ry="3" style="stroke:#038048;stroke-width:1.0;"/><text fill="#000000" font-family="sans-serif" font-size="14" lengthAdjust="spacing" textLength="433" x="186.5" y="840.7422">Optional&lt;ValidationError&gt; validate(TravelCalculatePremiumRequest)</text><rect fill="#F24D5C" height="6" style="stroke:#C82930;stroke-width:1.0;" width="6" x="174.5" y="852.0664"/><text fill="#000000" font-family="sans-serif" font-size="14" lengthAdjust="spacing" textLength="408" x="186.5" y="859.3633">boolean personBirthDateIsNull(TravelCalculatePremiumRequest)</text></g><!--class PersonFirstNameValidation--><g id="elem_PersonFirstNameValidation"><rect codeLine="40" fill="#F1F1F1" height="85.2422" id="PersonFirstNameValidation" rx="2.5" ry="2.5" style="stroke:#181818;stroke-width:0.5;" width="459" x="660.5" y="772.5137"/><ellipse cx="800.25" cy="788.5137" fill="#ADD1B2" rx="11" ry="11" style="stroke:#181818;stroke-width:1.0;"/><path d="M803.0156,784.3887 Q803.1719,784.1699 803.3594,784.0605 Q803.5469,783.9512 803.7656,783.9512 Q804.1406,783.9512 804.375,784.2168 Q804.6094,784.4668 804.6094,785.0762 L804.6094,786.5293 Q804.6094,787.1387 804.375,787.4043 Q804.1406,787.6699 803.7656,787.6699 Q803.4219,787.6699 803.2188,787.4668 Q803.0156,787.2793 802.9063,786.7637 Q802.8594,786.4043 802.6719,786.2168 Q802.3438,785.8418 801.7344,785.623 Q801.125,785.4043 800.5,785.4043 Q799.7344,785.4043 799.0938,785.7324 Q798.4688,786.0605 797.9688,786.8105 Q797.4844,787.5605 797.4844,788.5918 L797.4844,789.6855 Q797.4844,790.9199 798.375,791.748 Q799.2656,792.5605 800.8594,792.5605 Q801.7969,792.5605 802.4531,792.3105 Q802.8438,792.1543 803.2656,791.7168 Q803.5313,791.4512 803.6719,791.373 Q803.8281,791.2949 804.0313,791.2949 Q804.3594,791.2949 804.6094,791.5605 Q804.875,791.8105 804.875,792.1543 Q804.875,792.498 804.5313,792.9043 Q804.0313,793.4824 803.2344,793.8105 Q802.1563,794.2637 800.8594,794.2637 Q799.3438,794.2637 798.1406,793.6387 Q797.1563,793.1387 796.4688,792.0762 Q795.7813,790.998 795.7813,789.7168 L795.7813,788.5605 Q795.7813,787.2324 796.3906,786.0918 Q797.0156,784.9355 798.1094,784.3262 Q799.2031,783.7012 800.4375,783.7012 Q801.1719,783.7012 801.8125,783.873 Q802.4688,784.0293 803.0156,784.3887 Z " fill="#000000"/><text fill="#000000" font-family="sans-serif" font-size="14" lengthAdjust="spacing" textLength="171" x="820.75" y="794.3105">PersonFirstNameValidation</text><line style="stroke:#181818;stroke-width:0.5;" x1="661.5" x2="1118.5" y1="804.5137" y2="804.5137"/><rect fill="none" height="6" style="stroke:#C82930;stroke-width:1.0;" width="6" x="668.5" y="816.3242"/><text fill="#000000" font-family="sans-serif" font-size="14" lengthAdjust="spacing" textLength="225" x="680.5" y="823.6211">ValidationErrorFactory errorFactory</text><line style="stroke:#181818;stroke-width:0.5;" x1="661.5" x2="1118.5" y1="831.1348" y2="831.1348"/><ellipse cx="671.5" cy="845.9453" fill="#84BE84" rx="3" ry="3" style="stroke:#038048;stroke-width:1.0;"/><text fill="#000000" font-family="sans-serif" font-size="14" lengthAdjust="spacing" textLength="433" x="680.5" y="850.2422">Optional&lt;ValidationError&gt; validate(TravelCalculatePremiumRequest)</text></g><!--class PersonBirthDateInThePastValidation--><g id="elem_PersonBirthDateInThePastValidation"><rect codeLine="62" fill="#F1F1F1" height="103.8633" id="PersonBirthDateInThePastValidation" rx="2.5" ry="2.5" style="stroke:#181818;stroke-width:0.5;" width="459" x="1154.5" y="763.0137"/><ellipse cx="1264.75" cy="779.0137" fill="#ADD1B2" rx="11" ry="11" style="stroke:#181818;stroke-width:1.0;"/><path d="M1267.5156,774.8887 Q1267.6719,774.6699 1267.8594,774.5605 Q1268.0469,774.4512 1268.2656,774.4512 Q1268.6406,774.4512 1268.875,774.7168 Q1269.1094,774.9668 1269.1094,775.5762 L1269.1094,777.0293 Q1269.1094,777.6387 1268.875,777.9043 Q1268.6406,778.1699 1268.2656,778.1699 Q1267.9219,778.1699 1267.7188,777.9668 Q1267.5156,777.7793 1267.4063,777.2637 Q1267.3594,776.9043 1267.1719,776.7168 Q1266.8438,776.3418 1266.2344,776.123 Q1265.625,775.9043 1265,775.9043 Q1264.2344,775.9043 1263.5938,776.2324 Q1262.9688,776.5605 1262.4688,777.3105 Q1261.9844,778.0605 1261.9844,779.0918 L1261.9844,780.1855 Q1261.9844,781.4199 1262.875,782.248 Q1263.7656,783.0605 1265.3594,783.0605 Q1266.2969,783.0605 1266.9531,782.8105 Q1267.3438,782.6543 1267.7656,782.2168 Q1268.0313,781.9512 1268.1719,781.873 Q1268.3281,781.7949 1268.5313,781.7949 Q1268.8594,781.7949 1269.1094,782.0605 Q1269.375,782.3105 1269.375,782.6543 Q1269.375,782.998 1269.0313,783.4043 Q1268.5313,783.9824 1267.7344,784.3105 Q1266.6563,784.7637 1265.3594,784.7637 Q1263.8438,784.7637 1262.6406,784.1387 Q1261.6563,783.6387 1260.9688,782.5762 Q1260.2813,781.498 1260.2813,780.2168 L1260.2813,779.0605 Q1260.2813,777.7324 1260.8906,776.5918 Q1261.5156,775.4355 1262.6094,774.8262 Q1263.7031,774.2012 1264.9375,774.2012 Q1265.6719,774.2012 1266.3125,774.373 Q1266.9688,774.5293 1267.5156,774.8887 Z " fill="#000000"/><text fill="#000000" font-family="sans-serif" font-size="14" lengthAdjust="spacing" textLength="230" x="1285.25" y="784.8105">PersonBirthDateInThePastValidation</text><line style="stroke:#181818;stroke-width:0.5;" x1="1155.5" x2="1612.5" y1="795.0137" y2="795.0137"/><rect fill="none" height="6" style="stroke:#C82930;stroke-width:1.0;" width="6" x="1162.5" y="806.8242"/><text fill="#000000" font-family="sans-serif" font-size="14" lengthAdjust="spacing" textLength="162" x="1174.5" y="814.1211">DateTimeUtil dateTimeUtil</text><rect fill="none" height="6" style="stroke:#C82930;stroke-width:1.0;" width="6" x="1162.5" y="825.4453"/><text fill="#000000" font-family="sans-serif" font-size="14" lengthAdjust="spacing" textLength="225" x="1174.5" y="832.7422">ValidationErrorFactory errorFactory</text><line style="stroke:#181818;stroke-width:0.5;" x1="1155.5" x2="1612.5" y1="840.2559" y2="840.2559"/><ellipse cx="1165.5" cy="855.0664" fill="#84BE84" rx="3" ry="3" style="stroke:#038048;stroke-width:1.0;"/><text fill="#000000" font-family="sans-serif" font-size="14" lengthAdjust="spacing" textLength="433" x="1174.5" y="859.3633">Optional&lt;ValidationError&gt; validate(TravelCalculatePremiumRequest)</text></g><!--class PersonLastNameValidation--><g id="elem_PersonLastNameValidation"><rect codeLine="125" fill="#F1F1F1" height="85.2422" id="PersonLastNameValidation" rx="2.5" ry="2.5" style="stroke:#181818;stroke-width:0.5;" width="459" x="1648.5" y="772.5137"/><ellipse cx="1788.75" cy="788.5137" fill="#ADD1B2" rx="11" ry="11" style="stroke:#181818;stroke-width:1.0;"/><path d="M1791.5156,784.3887 Q1791.6719,784.1699 1791.8594,784.0605 Q1792.0469,783.9512 1792.2656,783.9512 Q1792.6406,783.9512 1792.875,784.2168 Q1793.1094,784.4668 1793.1094,785.0762 L1793.1094,786.5293 Q1793.1094,787.1387 1792.875,787.4043 Q1792.6406,787.6699 1792.2656,787.6699 Q1791.9219,787.6699 1791.7188,787.4668 Q1791.5156,787.2793 1791.4063,786.7637 Q1791.3594,786.4043 1791.1719,786.2168 Q1790.8438,785.8418 1790.2344,785.623 Q1789.625,785.4043 1789,785.4043 Q1788.2344,785.4043 1787.5938,785.7324 Q1786.9688,786.0605 1786.4688,786.8105 Q1785.9844,787.5605 1785.9844,788.5918 L1785.9844,789.6855 Q1785.9844,790.9199 1786.875,791.748 Q1787.7656,792.5605 1789.3594,792.5605 Q1790.2969,792.5605 1790.9531,792.3105 Q1791.3438,792.1543 1791.7656,791.7168 Q1792.0313,791.4512 1792.1719,791.373 Q1792.3281,791.2949 1792.5313,791.2949 Q1792.8594,791.2949 1793.1094,791.5605 Q1793.375,791.8105 1793.375,792.1543 Q1793.375,792.498 1793.0313,792.9043 Q1792.5313,793.4824 1791.7344,793.8105 Q1790.6563,794.2637 1789.3594,794.2637 Q1787.8438,794.2637 1786.6406,793.6387 Q1785.6563,793.1387 1784.9688,792.0762 Q1784.2813,790.998 1784.2813,789.7168 L1784.2813,788.5605 Q1784.2813,787.2324 1784.8906,786.0918 Q1785.5156,784.9355 1786.6094,784.3262 Q1787.7031,783.7012 1788.9375,783.7012 Q1789.6719,783.7012 1790.3125,783.873 Q1790.9688,784.0293 1791.5156,784.3887 Z " fill="#000000"/><text fill="#000000" font-family="sans-serif" font-size="14" lengthAdjust="spacing" textLength="170" x="1809.25" y="794.3105">PersonLastNameValidation</text><line style="stroke:#181818;stroke-width:0.5;" x1="1649.5" x2="2106.5" y1="804.5137" y2="804.5137"/><rect fill="none" height="6" style="stroke:#C82930;stroke-width:1.0;" width="6" x="1656.5" y="816.3242"/><text fill="#000000" font-family="sans-serif" font-size="14" lengthAdjust="spacing" textLength="225" x="1668.5" y="823.6211">ValidationErrorFactory errorFactory</text><line style="stroke:#181818;stroke-width:0.5;" x1="1649.5" x2="2106.5" y1="831.1348" y2="831.1348"/><ellipse cx="1659.5" cy="845.9453" fill="#84BE84" rx="3" ry="3" style="stroke:#038048;stroke-width:1.0;"/><text fill="#000000" font-family="sans-serif" font-size="14" lengthAdjust="spacing" textLength="433" x="1668.5" y="850.2422">Optional&lt;ValidationError&gt; validate(TravelCalculatePremiumRequest)</text></g><!--class TravelPersonFieldValidationImpl--><g id="elem_TravelPersonFieldValidationImpl"><rect codeLine="136" fill="#F1F1F1" height="85.2422" id="TravelPersonFieldValidationImpl" rx="2.5" ry="2.5" style="stroke:#181818;stroke-width:0.5;" width="459" x="907.5" y="506.5137"/><ellipse cx="1031.25" cy="522.5137" fill="#A9DCDF" rx="11" ry="11" style="stroke:#181818;stroke-width:1.0;"/><path d="M1033.4375,524.2793 L1029.2969,524.2793 L1028.875,525.3105 L1029.2969,525.3105 Q1029.9063,525.3105 1030.1719,525.5449 Q1030.4375,525.7793 1030.4375,526.1699 Q1030.4375,526.5449 1030.1719,526.7793 Q1029.9063,527.0137 1029.2969,527.0137 L1027,527.0137 Q1026.3906,527.0137 1026.1406,526.7793 Q1025.875,526.5449 1025.875,526.1543 Q1025.875,525.7793 1026.1563,525.5449 Q1026.4219,525.2949 1027.0469,525.3105 L1029.7188,518.6543 L1028.6094,518.6543 Q1028,518.6543 1027.7344,518.4199 Q1027.4688,518.1855 1027.4688,517.7949 Q1027.4688,517.4199 1027.7344,517.1855 Q1028,516.9512 1028.6094,516.9512 L1032.2813,516.9512 L1035.6719,525.3105 Q1036.2656,525.3105 1036.4531,525.4512 Q1036.8438,525.7168 1036.8438,526.1699 Q1036.8438,526.5449 1036.5781,526.7793 Q1036.3281,527.0137 1035.7188,527.0137 L1033.4219,527.0137 Q1032.8125,527.0137 1032.5469,526.7793 Q1032.2813,526.5449 1032.2813,526.1543 Q1032.2813,525.7793 1032.5469,525.5449 Q1032.8125,525.3105 1033.4219,525.3105 L1033.8438,525.3105 L1033.4375,524.2793 Z M1032.7188,522.5762 L1031.3594,519.2012 L1029.9844,522.5762 L1032.7188,522.5762 Z " fill="#000000"/><text fill="#000000" font-family="sans-serif" font-size="14" font-style="italic" lengthAdjust="spacing" textLength="203" x="1051.75" y="528.3105">TravelPersonFieldValidationImpl</text><line style="stroke:#181818;stroke-width:0.5;" x1="908.5" x2="1365.5" y1="538.5137" y2="538.5137"/><line style="stroke:#181818;stroke-width:0.5;" x1="908.5" x2="1365.5" y1="546.5137" y2="546.5137"/><ellipse cx="918.5" cy="561.3242" fill="#84BE84" rx="3" ry="3" style="stroke:#038048;stroke-width:1.0;"/><text fill="#000000" font-family="sans-serif" font-size="14" lengthAdjust="spacing" textLength="433" x="927.5" y="565.6211">Optional&lt;ValidationError&gt; validate(TravelCalculatePremiumRequest)</text><ellipse cx="918.5" cy="579.9453" fill="#84BE84" rx="3" ry="3" style="stroke:#038048;stroke-width:1.0;"/><text fill="#000000" font-family="sans-serif" font-size="14" lengthAdjust="spacing" textLength="424" x="927.5" y="584.2422">List&lt;ValidationError&gt; validateList(TravelCalculatePremiumRequest)</text></g><!--reverse link TravelCalculatePremiumRequestValidator to TravelCalculatePremiumRequestValidatorImpl--><g id="link_TravelCalculatePremiumRequestValidator_TravelCalculatePremiumRequestValidatorImpl"><path codeLine="158" d="M8052,371.5337 C8052,392.4437 8052,402.9837 8052,431.7737 " fill="none" id="TravelCalculatePremiumRequestValidator-backto-TravelCalculatePremiumRequestValidatorImpl" style="stroke:#181818;stroke-width:1.0;stroke-dasharray:7.0,7.0;"/><polygon fill="none" points="8052,353.5337,8046,371.5337,8058,371.5337,8052,353.5337" style="stroke:#181818;stroke-width:1.0;"/></g><!--reverse link TravelAgreementFieldValidationImpl to AgreementDateToValidation--><g id="link_TravelAgreementFieldValidationImpl_AgreementDateToValidation"><path codeLine="159" d="M4638.4202,561.1665 C4146.1302,584.5165 3020.95,644.9337 2641,726.0137 C2590.58,736.7737 2536.43,755.2337 2491.72,772.4737 " fill="none" id="TravelAgreementFieldValidationImpl-backto-AgreementDateToValidation" style="stroke:#181818;stroke-width:1.0;"/><polygon fill="none" points="4656.4,560.3137,4638.1359,555.1732,4638.7045,567.1597,4656.4,560.3137" style="stroke:#181818;stroke-width:1.0;"/></g><!--reverse link TravelAgreementFieldValidationImpl to DateFromLessThenDateToValidation--><g id="link_TravelAgreementFieldValidationImpl_DateFromLessThenDateToValidation"><path codeLine="160" d="M4638.1813,556.0803 C4300.8013,568.0203 3671.36,605.3937 3135,726.0137 C3085.26,737.2037 3031.76,755.4437 2987.32,772.4237 " fill="none" id="TravelAgreementFieldValidationImpl-backto-DateFromLessThenDateToValidation" style="stroke:#181818;stroke-width:1.0;"/><polygon fill="none" points="4656.17,555.4437,4637.9691,550.0841,4638.3935,562.0765,4656.17,555.4437" style="stroke:#181818;stroke-width:1.0;"/></g><!--reverse link TravelAgreementFieldValidationImpl to AgreementDateFromValidation--><g id="link_TravelAgreementFieldValidationImpl_AgreementDateFromValidation"><path codeLine="161" d="M4638.3547,569.702 C4384.2947,592.922 3982.11,639.3437 3629,726.0137 C3580.37,737.9537 3527.93,755.8737 3483.93,772.4437 " fill="none" id="TravelAgreementFieldValidationImpl-backto-AgreementDateFromValidation" style="stroke:#181818;stroke-width:1.0;"/><polygon fill="none" points="4656.28,568.0637,4637.8086,563.7269,4638.9008,575.6771,4656.28,568.0637" style="stroke:#181818;stroke-width:1.0;"/></g><!--reverse link TravelPersonFieldValidationImpl to EmptyPersonBirthDateValidation--><g id="link_TravelPersonFieldValidationImpl_EmptyPersonBirthDateValidation"><path codeLine="162" d="M1003.4438,597.5942 C873.2238,643.9842 679.34,713.0637 539.2,762.9937 " fill="none" id="TravelPersonFieldValidationImpl-backto-EmptyPersonBirthDateValidation" style="stroke:#181818;stroke-width:1.0;"/><polygon fill="none" points="1020.4,591.5537,1001.4303,591.9421,1005.4573,603.2463,1020.4,591.5537" style="stroke:#181818;stroke-width:1.0;"/></g><!--reverse link TravelPersonFieldValidationImpl to PersonFirstNameValidation--><g id="link_TravelPersonFieldValidationImpl_PersonFirstNameValidation"><path codeLine="163" d="M1085.8324,604.6979 C1039.6424,654.0679 975.32,722.8237 929.05,772.2837 " fill="none" id="TravelPersonFieldValidationImpl-backto-PersonFirstNameValidation" style="stroke:#181818;stroke-width:1.0;"/><polygon fill="none" points="1098.13,591.5537,1081.451,600.5987,1090.2138,608.7971,1098.13,591.5537" style="stroke:#181818;stroke-width:1.0;"/></g><!--reverse link TravelAgreementFieldValidationImpl to AgreementDateToInFutureValidation--><g id="link_TravelAgreementFieldValidationImpl_AgreementDateToInFutureValidation"><path codeLine="164" d="M4658.6302,595.2535 C4504.4002,627.4635 4307.96,671.9337 4123,726.0137 C4086.08,736.8137 4046.62,750.0637 4010.32,762.9837 " fill="none" id="TravelAgreementFieldValidationImpl-backto-AgreementDateToInFutureValidation" style="stroke:#181818;stroke-width:1.0;"/><polygon fill="none" points="4676.25,591.5737,4657.4036,589.3802,4659.8568,601.1268,4676.25,591.5737" style="stroke:#181818;stroke-width:1.0;"/></g><!--reverse link TravelAgreementFieldValidation to TravelAgreementFieldValidationImpl--><g id="link_TravelAgreementFieldValidation_TravelAgreementFieldValidationImpl"><path codeLine="165" d="M4886,380.6537 C4886,421.4837 4886,465.3837 4886,506.2537 " fill="none" id="TravelAgreementFieldValidation-backto-TravelAgreementFieldValidationImpl" style="stroke:#181818;stroke-width:1.0;stroke-dasharray:7.0,7.0;"/><polygon fill="none" points="4886,362.6537,4880,380.6537,4892,380.6537,4886,362.6537" style="stroke:#181818;stroke-width:1.0;"/></g><!--reverse link TravelPersonFieldValidationImpl to PersonBirthDateInThePastValidation--><g id="link_TravelPersonFieldValidationImpl_PersonBirthDateInThePastValidation"><path codeLine="166" d="M1188.1666,604.6988 C1231.4966,651.0188 1289.33,712.8337 1336.05,762.7637 " fill="none" id="TravelPersonFieldValidationImpl-backto-PersonBirthDateInThePastValidation" style="stroke:#181818;stroke-width:1.0;"/><polygon fill="none" points="1175.87,591.5537,1183.7849,608.7976,1192.5483,600.5999,1175.87,591.5537" style="stroke:#181818;stroke-width:1.0;"/></g><!--reverse link TravelAgreementFieldValidationImpl to EmptySelectedRisksValidation--><g id="link_TravelAgreementFieldValidationImpl_EmptySelectedRisksValidation"><path codeLine="167" d="M4788.7853,599.7517 C4692.1453,649.1917 4547.76,723.0637 4451.14,772.4937 " fill="none" id="TravelAgreementFieldValidationImpl-backto-EmptySelectedRisksValidation" style="stroke:#181818;stroke-width:1.0;"/><polygon fill="none" points="4804.81,591.5537,4786.0526,594.4102,4791.518,605.0933,4804.81,591.5537" style="stroke:#181818;stroke-width:1.0;"/></g><!--reverse link TravelAgreementFieldValidationImpl to MedicalRiskLimitLevelValidation--><g id="link_TravelAgreementFieldValidationImpl_MedicalRiskLimitLevelValidation"><path codeLine="168" d="M4886,609.5537 C4886,650.5037 4886,695.8337 4886,744.4637 " fill="none" id="TravelAgreementFieldValidationImpl-backto-MedicalRiskLimitLevelValidation" style="stroke:#181818;stroke-width:1.0;"/><polygon fill="none" points="4886,591.5537,4880,609.5537,4892,609.5537,4886,591.5537" style="stroke:#181818;stroke-width:1.0;"/></g><!--reverse link TravelAgreementFieldValidationImpl to SelectedRisksValidation--><g id="link_TravelAgreementFieldValidationImpl_SelectedRisksValidation"><path codeLine="169" d="M4985.0705,599.5719 C5029.7405,621.8319 5069.73,641.5937 5120,666.0137 C5160.2,685.5437 5203.45,706.2837 5244.52,725.8737 " fill="none" id="TravelAgreementFieldValidationImpl-backto-SelectedRisksValidation" style="stroke:#181818;stroke-width:1.0;"/><polygon fill="none" points="4968.96,591.5437,4982.3944,604.942,4987.7466,594.2017,4968.96,591.5437" style="stroke:#181818;stroke-width:1.0;"/></g><!--reverse link TravelAgreementFieldValidationImpl to EmptyCountryValidation--><g id="link_TravelAgreementFieldValidationImpl_EmptyCountryValidation"><path codeLine="170" d="M4969.126,600.5108 C5014.506,626.3908 5060.97,648.9737 5120,666.0137 C5371.96,738.7537 5451.19,668.2537 5707,726.0137 C5747.52,735.1637 5790.53,748.9737 5829.12,762.9537 " fill="none" id="TravelAgreementFieldValidationImpl-backto-EmptyCountryValidation" style="stroke:#181818;stroke-width:1.0;"/><polygon fill="none" points="4953.49,591.5937,4966.1536,605.7228,4972.0984,595.2988,4953.49,591.5937" style="stroke:#181818;stroke-width:1.0;"/></g><!--reverse link TravelAgreementFieldValidationImpl to AgreementDateFromInFutureValidation--><g id="link_TravelAgreementFieldValidationImpl_AgreementDateFromInFutureValidation"><path codeLine="171" d="M4967.296,600.6897 C5012.696,627.1197 5059.93,650.1737 5120,666.0137 C5585.28,788.7137 5729.3,630.9637 6201,726.0137 C6242.84,734.4437 6287.16,748.5037 6326.53,762.9337 " fill="none" id="TravelAgreementFieldValidationImpl-backto-AgreementDateFromInFutureValidation" style="stroke:#181818;stroke-width:1.0;"/><polygon fill="none" points="4951.74,591.6337,4964.2773,605.875,4970.3146,595.5044,4951.74,591.6337" style="stroke:#181818;stroke-width:1.0;"/></g><!--reverse link TravelAgreementFieldValidationImpl to CountryValidation--><g id="link_TravelAgreementFieldValidationImpl_CountryValidation"><path codeLine="172" d="M4966.6861,600.7907 C5012.0861,627.4207 5059.58,650.6437 5120,666.0137 C5459.44,752.3837 6351.06,659.8037 6695,726.0137 C6718.8,730.5937 6743.39,737.0837 6767.41,744.4737 " fill="none" id="TravelAgreementFieldValidationImpl-backto-CountryValidation" style="stroke:#181818;stroke-width:1.0;"/><polygon fill="none" points="4951.16,591.6837,4963.6505,605.9661,4969.7218,595.6154,4951.16,591.6837" style="stroke:#181818;stroke-width:1.0;"/></g><!--reverse link TravelPersonFieldValidationImpl to PersonLastNameValidation--><g id="link_TravelPersonFieldValidationImpl_PersonLastNameValidation"><path codeLine="173" d="M1270.556,597.5946 C1409.326,647.0346 1622.73,723.0637 1761.47,772.4937 " fill="none" id="TravelPersonFieldValidationImpl-backto-PersonLastNameValidation" style="stroke:#181818;stroke-width:1.0;"/><polygon fill="none" points="1253.6,591.5537,1268.5424,603.2467,1272.5697,591.9426,1253.6,591.5537" style="stroke:#181818;stroke-width:1.0;"/></g><!--reverse link TravelPersonFieldValidation to TravelPersonFieldValidationImpl--><g id="link_TravelPersonFieldValidation_TravelPersonFieldValidationImpl"><path codeLine="174" d="M1137,380.6537 C1137,421.4837 1137,465.3837 1137,506.2537 " fill="none" id="TravelPersonFieldValidation-backto-TravelPersonFieldValidationImpl" style="stroke:#181818;stroke-width:1.0;stroke-dasharray:7.0,7.0;"/><polygon fill="none" points="1137,362.6537,1131,380.6537,1143,380.6537,1137,362.6537" style="stroke:#181818;stroke-width:1.0;"/></g><!--reverse link TravelAgreementFieldValidationImpl to EmptyMedicalRiskLimitLevelValidation--><g id="link_TravelAgreementFieldValidationImpl_EmptyMedicalRiskLimitLevelValidation"><path codeLine="175" d="M4966.1276,600.7123 C5011.5376,627.4723 5059.29,650.8637 5120,666.0137 C5566.28,777.4037 6735.29,650.3537 7189,726.0137 C7203.72,728.4637 7218.73,731.4937 7233.79,734.9337 " fill="none" id="TravelAgreementFieldValidationImpl-backto-EmptyMedicalRiskLimitLevelValidation" style="stroke:#181818;stroke-width:1.0;"/><polygon fill="none" points="4950.62,591.5737,4963.0814,605.8815,4969.1738,595.5431,4950.62,591.5737" style="stroke:#181818;stroke-width:1.0;"/></g><!--SRC=[tLbTJzim57tFhyXZqTRy0eGqEYfLwg22ZdVNkHI3OtUsWuR6-Espav1-fKsedTRP0nBnn_Kvz_fU7xkO8Yb3BkRH4tf1yrIaaHBe1MX4c4m5OXWYp0L4BuYI62d2cOocsOW1eZYbIC54G4BIv1P-fI3LVJwGYr6oeE6Ve1-EYLJd-PnlSm6G05D30ZI-BsrUX6X7ZrmtC04XETkQlQXgbi6NVEgowKe8BYx2WWpqzZ8v-rXwQpxcb09M9PkiMLfQowavCNL7s9o2MtYcqwt57AL3sgRJZJc6zN2c_ym0sQiSzhMozIpu6mG1FYIjoXI8IZz_rn2cVBb6bayRImuHrjds6iBAXzxvDmip0j73Txy38WR_KF1a359E7u5rdSzQO0onhb792sLqbIpKQvugbqIeHqFdH5JwuOnp2eWLHRp4CvBNAQLjU-BZG15INQC4_fEjEUKZDanLAZO9PPqaWP-Aq31U-JWoMS8KY0U4eHtjeRc-Mvxz6YMQIGq8gz0oDFkrJw6JN7YsJk-OtWQyxVDfcSHCb_q9AaFZspwqZ6nMH-_0Y0-8Rubybbqh83i06knPmu37UP1WzKjZtfWOpb92u-pVtfqIMjgTDHcKYwW9rPNWaTCO70ce7n0JZAY9o9WaH8r1Jzq8pS0iGHu82DsHmYqik2GPURohvoJ78f6LRAwvkgI8FJSt1B-rhqT6Ww4Pab26oO6_zwL0ctwsBtVz6XjhpEgDrGVU61hXqldzwXpPQ5mPVeHePbLjm5EcnEl9LI7ESUHgy4OqslDjA7tF1PKbtUfeTwT45lWzA8fhEcYCJdwji5JQkrHhfh3j4RwxKQnsIhq8sPuNHlyqkcLOArdw5LCNXrWJ7NXPL8AaQkmLGpCAiK_2hu3KMpyacKBQBRdjOfhrIfy-SuEWdTly-LiKjVSZHT3cnVxyhTzluI7OOynrRxvTSVVwysxGpfbo2Dv6RxZ-uTtvqjgT_Dk-0mHkHTKXXUupxl1rL-nxB_HuU-nx_lCOTeqgyXXvztnT_PRIfJFGlkWT4RsrfuzLyRPV1WA75xb3pf5cp7rFjPhQzWy0]--></g></svg>