<?xml version="1.0" encoding="us-ascii" standalone="no"?><svg xmlns="http://www.w3.org/2000/svg" xmlns:xlink="http://www.w3.org/1999/xlink" contentStyleType="text/css" height="1341px" preserveAspectRatio="none" style="width:3776px;height:1341px;background:#FFFFFF;" version="1.1" viewBox="0 0 3776 1341" width="3776px" zoomAndPan="magnify"><defs/><g><!--cluster org--><g id="cluster_org"><path d="M8.5,338.0137 L33.5,338.0137 A3.75,3.75 0 0 1 36,340.5137 L43,362.6348 L3766.5,362.6348 A2.5,2.5 0 0 1 3769,365.1348 L3769,1331.5137 A2.5,2.5 0 0 1 3766.5,1334.0137 L8.5,1334.0137 A2.5,2.5 0 0 1 6,1331.5137 L6,340.5137 A2.5,2.5 0 0 1 8.5,338.0137 " fill="none" style="stroke:#000000;stroke-width:1.5;"/><line style="stroke:#000000;stroke-width:1.5;" x1="6" x2="43" y1="362.6348" y2="362.6348"/><text fill="#000000" font-family="sans-serif" font-size="14" font-weight="bold" lengthAdjust="spacing" textLength="24" x="10" y="355.1211">org</text></g><!--cluster javaguru--><g id="cluster_javaguru"><path d="M32.5,383.0137 L95.5,383.0137 A3.75,3.75 0 0 1 98,385.5137 L105,407.6348 L3742.5,407.6348 A2.5,2.5 0 0 1 3745,410.1348 L3745,1307.5137 A2.5,2.5 0 0 1 3742.5,1310.0137 L32.5,1310.0137 A2.5,2.5 0 0 1 30,1307.5137 L30,385.5137 A2.5,2.5 0 0 1 32.5,383.0137 " fill="none" style="stroke:#000000;stroke-width:1.5;"/><line style="stroke:#000000;stroke-width:1.5;" x1="30" x2="105" y1="407.6348" y2="407.6348"/><text fill="#000000" font-family="sans-serif" font-size="14" font-weight="bold" lengthAdjust="spacing" textLength="62" x="34" y="400.1211">javaguru</text></g><!--cluster travel--><g id="cluster_travel"><path d="M56.5,428.0137 L98.5,428.0137 A3.75,3.75 0 0 1 101,430.5137 L108,452.6348 L3718.5,452.6348 A2.5,2.5 0 0 1 3721,455.1348 L3721,1283.5137 A2.5,2.5 0 0 1 3718.5,1286.0137 L56.5,1286.0137 A2.5,2.5 0 0 1 54,1283.5137 L54,430.5137 A2.5,2.5 0 0 1 56.5,428.0137 " fill="none" style="stroke:#000000;stroke-width:1.5;"/><line style="stroke:#000000;stroke-width:1.5;" x1="54" x2="108" y1="452.6348" y2="452.6348"/><text fill="#000000" font-family="sans-serif" font-size="14" font-weight="bold" lengthAdjust="spacing" textLength="41" x="58" y="445.1211">travel</text></g><!--cluster insurance--><g id="cluster_insurance"><path d="M80.5,473.0137 L151.5,473.0137 A3.75,3.75 0 0 1 154,475.5137 L161,497.6348 L3694.5,497.6348 A2.5,2.5 0 0 1 3697,500.1348 L3697,1259.5137 A2.5,2.5 0 0 1 3694.5,1262.0137 L80.5,1262.0137 A2.5,2.5 0 0 1 78,1259.5137 L78,475.5137 A2.5,2.5 0 0 1 80.5,473.0137 " fill="none" style="stroke:#000000;stroke-width:1.5;"/><line style="stroke:#000000;stroke-width:1.5;" x1="78" x2="161" y1="497.6348" y2="497.6348"/><text fill="#000000" font-family="sans-serif" font-size="14" font-weight="bold" lengthAdjust="spacing" textLength="70" x="82" y="490.1211">insurance</text></g><!--cluster dto--><g id="cluster_dto"><path d="M104.5,518.0137 L128.5,518.0137 A3.75,3.75 0 0 1 131,520.5137 L138,542.6348 L3670.5,542.6348 A2.5,2.5 0 0 1 3673,545.1348 L3673,1235.5137 A2.5,2.5 0 0 1 3670.5,1238.0137 L104.5,1238.0137 A2.5,2.5 0 0 1 102,1235.5137 L102,520.5137 A2.5,2.5 0 0 1 104.5,518.0137 " fill="none" style="stroke:#000000;stroke-width:1.5;"/><line style="stroke:#000000;stroke-width:1.5;" x1="102" x2="138" y1="542.6348" y2="542.6348"/><text fill="#000000" font-family="sans-serif" font-size="14" font-weight="bold" lengthAdjust="spacing" textLength="23" x="106" y="535.1211">dto</text></g><!--cluster v2--><g id="cluster_v2"><path d="M128.5,725.5137 L146.5,725.5137 A3.75,3.75 0 0 1 149,728.0137 L156,750.1348 L1383.5,750.1348 A2.5,2.5 0 0 1 1386,752.6348 L1386,1211.5137 A2.5,2.5 0 0 1 1383.5,1214.0137 L128.5,1214.0137 A2.5,2.5 0 0 1 126,1211.5137 L126,728.0137 A2.5,2.5 0 0 1 128.5,725.5137 " fill="none" style="stroke:#000000;stroke-width:1.5;"/><line style="stroke:#000000;stroke-width:1.5;" x1="126" x2="156" y1="750.1348" y2="750.1348"/><text fill="#000000" font-family="sans-serif" font-size="14" font-weight="bold" lengthAdjust="spacing" textLength="17" x="130" y="742.6211">v2</text></g><!--cluster v1--><g id="cluster_v1"><path d="M1412.5,707.0137 L1430.5,707.0137 A3.75,3.75 0 0 1 1433,709.5137 L1440,731.6348 L2695.5,731.6348 A2.5,2.5 0 0 1 2698,734.1348 L2698,1010.5137 A2.5,2.5 0 0 1 2695.5,1013.0137 L1412.5,1013.0137 A2.5,2.5 0 0 1 1410,1010.5137 L1410,709.5137 A2.5,2.5 0 0 1 1412.5,707.0137 " fill="none" style="stroke:#000000;stroke-width:1.5;"/><line style="stroke:#000000;stroke-width:1.5;" x1="1410" x2="1440" y1="731.6348" y2="731.6348"/><text fill="#000000" font-family="sans-serif" font-size="14" font-weight="bold" lengthAdjust="spacing" textLength="17" x="1414" y="724.1211">v1</text></g><!--cluster util--><g id="cluster_util"><path d="M3071.5,563.0137 L3094.5,563.0137 A3.75,3.75 0 0 1 3097,565.5137 L3104,587.6348 L3498.5,587.6348 A2.5,2.5 0 0 1 3501,590.1348 L3501,680.5137 A2.5,2.5 0 0 1 3498.5,683.0137 L3071.5,683.0137 A2.5,2.5 0 0 1 3069,680.5137 L3069,565.5137 A2.5,2.5 0 0 1 3071.5,563.0137 " fill="none" style="stroke:#000000;stroke-width:1.5;"/><line style="stroke:#000000;stroke-width:1.5;" x1="3069" x2="3104" y1="587.6348" y2="587.6348"/><text fill="#000000" font-family="sans-serif" font-size="14" font-weight="bold" lengthAdjust="spacing" textLength="22" x="3073" y="580.1211">util</text></g><!--cluster internal--><g id="cluster_internal"><path d="M2724.5,753.5137 L2779.5,753.5137 A3.75,3.75 0 0 1 2782,756.0137 L2789,778.1348 L3646.5,778.1348 A2.5,2.5 0 0 1 3649,780.6348 L3649,964.0137 A2.5,2.5 0 0 1 3646.5,966.5137 L2724.5,966.5137 A2.5,2.5 0 0 1 2722,964.0137 L2722,756.0137 A2.5,2.5 0 0 1 2724.5,753.5137 " fill="none" style="stroke:#000000;stroke-width:1.5;"/><line style="stroke:#000000;stroke-width:1.5;" x1="2722" x2="2789" y1="778.1348" y2="778.1348"/><text fill="#000000" font-family="sans-serif" font-size="14" font-weight="bold" lengthAdjust="spacing" textLength="54" x="2726" y="770.6211">internal</text></g><!--cluster com--><g id="cluster_com"><path d="M3139.5,6.0137 L3169.5,6.0137 A3.75,3.75 0 0 1 3172,8.5137 L3179,30.6348 L3430.5,30.6348 A2.5,2.5 0 0 1 3433,33.1348 L3433,311.5137 A2.5,2.5 0 0 1 3430.5,314.0137 L3139.5,314.0137 A2.5,2.5 0 0 1 3137,311.5137 L3137,8.5137 A2.5,2.5 0 0 1 3139.5,6.0137 " fill="none" style="stroke:#000000;stroke-width:1.5;"/><line style="stroke:#000000;stroke-width:1.5;" x1="3137" x2="3179" y1="30.6348" y2="30.6348"/><text fill="#000000" font-family="sans-serif" font-size="14" font-weight="bold" lengthAdjust="spacing" textLength="29" x="3141" y="23.1211">com</text></g><!--cluster fasterxml--><g id="cluster_fasterxml"><path d="M3163.5,51.0137 L3229.5,51.0137 A3.75,3.75 0 0 1 3232,53.5137 L3239,75.6348 L3406.5,75.6348 A2.5,2.5 0 0 1 3409,78.1348 L3409,287.5137 A2.5,2.5 0 0 1 3406.5,290.0137 L3163.5,290.0137 A2.5,2.5 0 0 1 3161,287.5137 L3161,53.5137 A2.5,2.5 0 0 1 3163.5,51.0137 " fill="none" style="stroke:#000000;stroke-width:1.5;"/><line style="stroke:#000000;stroke-width:1.5;" x1="3161" x2="3239" y1="75.6348" y2="75.6348"/><text fill="#000000" font-family="sans-serif" font-size="14" font-weight="bold" lengthAdjust="spacing" textLength="65" x="3165" y="68.1211">fasterxml</text></g><!--cluster jackson--><g id="cluster_jackson"><path d="M3187.5,96.0137 L3242.5,96.0137 A3.75,3.75 0 0 1 3245,98.5137 L3252,120.6348 L3382.5,120.6348 A2.5,2.5 0 0 1 3385,123.1348 L3385,263.5137 A2.5,2.5 0 0 1 3382.5,266.0137 L3187.5,266.0137 A2.5,2.5 0 0 1 3185,263.5137 L3185,98.5137 A2.5,2.5 0 0 1 3187.5,96.0137 " fill="none" style="stroke:#000000;stroke-width:1.5;"/><line style="stroke:#000000;stroke-width:1.5;" x1="3185" x2="3252" y1="120.6348" y2="120.6348"/><text fill="#000000" font-family="sans-serif" font-size="14" font-weight="bold" lengthAdjust="spacing" textLength="54" x="3189" y="113.1211">jackson</text></g><!--cluster databind--><g id="cluster_databind"><path d="M3211.5,141.0137 L3273.5,141.0137 A3.75,3.75 0 0 1 3276,143.5137 L3283,165.6348 L3358.5,165.6348 A2.5,2.5 0 0 1 3361,168.1348 L3361,239.5137 A2.5,2.5 0 0 1 3358.5,242.0137 L3211.5,242.0137 A2.5,2.5 0 0 1 3209,239.5137 L3209,143.5137 A2.5,2.5 0 0 1 3211.5,141.0137 " fill="none" style="stroke:#000000;stroke-width:1.5;"/><line style="stroke:#000000;stroke-width:1.5;" x1="3209" x2="3283" y1="165.6348" y2="165.6348"/><text fill="#000000" font-family="sans-serif" font-size="14" font-weight="bold" lengthAdjust="spacing" textLength="61" x="3213" y="158.1211">databind</text></g><!--class RiskPremium--><g id="elem_RiskPremium"><rect codeLine="1" fill="#F1F1F1" height="85.2422" id="RiskPremium" rx="2.5" ry="2.5" style="stroke:#181818;stroke-width:0.5;" width="154" x="2749" y="591.0137"/><ellipse cx="2782" cy="607.0137" fill="#ADD1B2" rx="11" ry="11" style="stroke:#181818;stroke-width:1.0;"/><path d="M2784.7656,602.8887 Q2784.9219,602.6699 2785.1094,602.5605 Q2785.2969,602.4512 2785.5156,602.4512 Q2785.8906,602.4512 2786.125,602.7168 Q2786.3594,602.9668 2786.3594,603.5762 L2786.3594,605.0293 Q2786.3594,605.6387 2786.125,605.9043 Q2785.8906,606.1699 2785.5156,606.1699 Q2785.1719,606.1699 2784.9688,605.9668 Q2784.7656,605.7793 2784.6563,605.2637 Q2784.6094,604.9043 2784.4219,604.7168 Q2784.0938,604.3418 2783.4844,604.123 Q2782.875,603.9043 2782.25,603.9043 Q2781.4844,603.9043 2780.8438,604.2324 Q2780.2188,604.5605 2779.7188,605.3105 Q2779.2344,606.0605 2779.2344,607.0918 L2779.2344,608.1855 Q2779.2344,609.4199 2780.125,610.248 Q2781.0156,611.0605 2782.6094,611.0605 Q2783.5469,611.0605 2784.2031,610.8105 Q2784.5938,610.6543 2785.0156,610.2168 Q2785.2813,609.9512 2785.4219,609.873 Q2785.5781,609.7949 2785.7813,609.7949 Q2786.1094,609.7949 2786.3594,610.0605 Q2786.625,610.3105 2786.625,610.6543 Q2786.625,610.998 2786.2813,611.4043 Q2785.7813,611.9824 2784.9844,612.3105 Q2783.9063,612.7637 2782.6094,612.7637 Q2781.0938,612.7637 2779.8906,612.1387 Q2778.9063,611.6387 2778.2188,610.5762 Q2777.5313,609.498 2777.5313,608.2168 L2777.5313,607.0605 Q2777.5313,605.7324 2778.1406,604.5918 Q2778.7656,603.4355 2779.8594,602.8262 Q2780.9531,602.2012 2782.1875,602.2012 Q2782.9219,602.2012 2783.5625,602.373 Q2784.2188,602.5293 2784.7656,602.8887 Z " fill="#000000"/><text fill="#000000" font-family="sans-serif" font-size="14" lengthAdjust="spacing" textLength="82" x="2800" y="612.8105">RiskPremium</text><line style="stroke:#181818;stroke-width:0.5;" x1="2750" x2="2902" y1="623.0137" y2="623.0137"/><rect fill="none" height="6" style="stroke:#C82930;stroke-width:1.0;" width="6" x="2757" y="634.8242"/><text fill="#000000" font-family="sans-serif" font-size="14" lengthAdjust="spacing" textLength="73" x="2769" y="642.1211">String riskIc</text><rect fill="none" height="6" style="stroke:#C82930;stroke-width:1.0;" width="6" x="2757" y="653.4453"/><text fill="#000000" font-family="sans-serif" font-size="14" lengthAdjust="spacing" textLength="128" x="2769" y="660.7422">BigDecimal premium</text><line style="stroke:#181818;stroke-width:0.5;" x1="2750" x2="2902" y1="668.2559" y2="668.2559"/></g><!--class ValidationError--><g id="elem_ValidationError"><rect codeLine="16" fill="#F1F1F1" height="85.2422" id="ValidationError" rx="2.5" ry="2.5" style="stroke:#181818;stroke-width:0.5;" width="136" x="2284" y="591.0137"/><ellipse cx="2303.5" cy="607.0137" fill="#ADD1B2" rx="11" ry="11" style="stroke:#181818;stroke-width:1.0;"/><path d="M2306.2656,602.8887 Q2306.4219,602.6699 2306.6094,602.5605 Q2306.7969,602.4512 2307.0156,602.4512 Q2307.3906,602.4512 2307.625,602.7168 Q2307.8594,602.9668 2307.8594,603.5762 L2307.8594,605.0293 Q2307.8594,605.6387 2307.625,605.9043 Q2307.3906,606.1699 2307.0156,606.1699 Q2306.6719,606.1699 2306.4688,605.9668 Q2306.2656,605.7793 2306.1563,605.2637 Q2306.1094,604.9043 2305.9219,604.7168 Q2305.5938,604.3418 2304.9844,604.123 Q2304.375,603.9043 2303.75,603.9043 Q2302.9844,603.9043 2302.3438,604.2324 Q2301.7188,604.5605 2301.2188,605.3105 Q2300.7344,606.0605 2300.7344,607.0918 L2300.7344,608.1855 Q2300.7344,609.4199 2301.625,610.248 Q2302.5156,611.0605 2304.1094,611.0605 Q2305.0469,611.0605 2305.7031,610.8105 Q2306.0938,610.6543 2306.5156,610.2168 Q2306.7813,609.9512 2306.9219,609.873 Q2307.0781,609.7949 2307.2813,609.7949 Q2307.6094,609.7949 2307.8594,610.0605 Q2308.125,610.3105 2308.125,610.6543 Q2308.125,610.998 2307.7813,611.4043 Q2307.2813,611.9824 2306.4844,612.3105 Q2305.4063,612.7637 2304.1094,612.7637 Q2302.5938,612.7637 2301.3906,612.1387 Q2300.4063,611.6387 2299.7188,610.5762 Q2299.0313,609.498 2299.0313,608.2168 L2299.0313,607.0605 Q2299.0313,605.7324 2299.6406,604.5918 Q2300.2656,603.4355 2301.3594,602.8262 Q2302.4531,602.2012 2303.6875,602.2012 Q2304.4219,602.2012 2305.0625,602.373 Q2305.7188,602.5293 2306.2656,602.8887 Z " fill="#000000"/><text fill="#000000" font-family="sans-serif" font-size="14" lengthAdjust="spacing" textLength="94" x="2318.5" y="612.8105">ValidationError</text><line style="stroke:#181818;stroke-width:0.5;" x1="2285" x2="2419" y1="623.0137" y2="623.0137"/><rect fill="none" height="6" style="stroke:#C82930;stroke-width:1.0;" width="6" x="2292" y="634.8242"/><text fill="#000000" font-family="sans-serif" font-size="14" lengthAdjust="spacing" textLength="106" x="2304" y="642.1211">String errorCode</text><rect fill="none" height="6" style="stroke:#C82930;stroke-width:1.0;" width="6" x="2292" y="653.4453"/><text fill="#000000" font-family="sans-serif" font-size="14" lengthAdjust="spacing" textLength="110" x="2304" y="660.7422">String description</text><line style="stroke:#181818;stroke-width:0.5;" x1="2285" x2="2419" y1="668.2559" y2="668.2559"/></g><!--class CoreResponse--><g id="elem_CoreResponse"><rect codeLine="54" fill="#F1F1F1" height="85.2422" id="CoreResponse" rx="2.5" ry="2.5" style="stroke:#181818;stroke-width:0.5;" width="200" x="1460" y="591.0137"/><ellipse cx="1508.25" cy="607.0137" fill="#ADD1B2" rx="11" ry="11" style="stroke:#181818;stroke-width:1.0;"/><path d="M1511.0156,602.8887 Q1511.1719,602.6699 1511.3594,602.5605 Q1511.5469,602.4512 1511.7656,602.4512 Q1512.1406,602.4512 1512.375,602.7168 Q1512.6094,602.9668 1512.6094,603.5762 L1512.6094,605.0293 Q1512.6094,605.6387 1512.375,605.9043 Q1512.1406,606.1699 1511.7656,606.1699 Q1511.4219,606.1699 1511.2188,605.9668 Q1511.0156,605.7793 1510.9063,605.2637 Q1510.8594,604.9043 1510.6719,604.7168 Q1510.3438,604.3418 1509.7344,604.123 Q1509.125,603.9043 1508.5,603.9043 Q1507.7344,603.9043 1507.0938,604.2324 Q1506.4688,604.5605 1505.9688,605.3105 Q1505.4844,606.0605 1505.4844,607.0918 L1505.4844,608.1855 Q1505.4844,609.4199 1506.375,610.248 Q1507.2656,611.0605 1508.8594,611.0605 Q1509.7969,611.0605 1510.4531,610.8105 Q1510.8438,610.6543 1511.2656,610.2168 Q1511.5313,609.9512 1511.6719,609.873 Q1511.8281,609.7949 1512.0313,609.7949 Q1512.3594,609.7949 1512.6094,610.0605 Q1512.875,610.3105 1512.875,610.6543 Q1512.875,610.998 1512.5313,611.4043 Q1512.0313,611.9824 1511.2344,612.3105 Q1510.1563,612.7637 1508.8594,612.7637 Q1507.3438,612.7637 1506.1406,612.1387 Q1505.1563,611.6387 1504.4688,610.5762 Q1503.7813,609.498 1503.7813,608.2168 L1503.7813,607.0605 Q1503.7813,605.7324 1504.3906,604.5918 Q1505.0156,603.4355 1506.1094,602.8262 Q1507.2031,602.2012 1508.4375,602.2012 Q1509.1719,602.2012 1509.8125,602.373 Q1510.4688,602.5293 1511.0156,602.8887 Z " fill="#000000"/><text fill="#000000" font-family="sans-serif" font-size="14" lengthAdjust="spacing" textLength="95" x="1528.75" y="612.8105">CoreResponse</text><line style="stroke:#181818;stroke-width:0.5;" x1="1461" x2="1659" y1="623.0137" y2="623.0137"/><rect fill="none" height="6" style="stroke:#C82930;stroke-width:1.0;" width="6" x="1468" y="634.8242"/><text fill="#000000" font-family="sans-serif" font-size="14" lengthAdjust="spacing" textLength="174" x="1480" y="642.1211">List&lt;ValidationError&gt; errors</text><line style="stroke:#181818;stroke-width:0.5;" x1="1461" x2="1659" y1="649.6348" y2="649.6348"/><ellipse cx="1471" cy="664.4453" fill="#84BE84" rx="3" ry="3" style="stroke:#038048;stroke-width:1.0;"/><text fill="#000000" font-family="sans-serif" font-size="14" lengthAdjust="spacing" textLength="127" x="1480" y="668.7422">boolean hasErrors()</text></g><!--class PersonResponseDTO--><g id="elem_PersonResponseDTO"><rect codeLine="6" fill="#F1F1F1" height="178.3477" id="PersonResponseDTO" rx="2.5" ry="2.5" style="stroke:#181818;stroke-width:0.5;" width="228" x="445" y="781.5137"/><ellipse cx="485.65" cy="797.5137" fill="#ADD1B2" rx="11" ry="11" style="stroke:#181818;stroke-width:1.0;"/><path d="M488.4156,793.3887 Q488.5719,793.1699 488.7594,793.0605 Q488.9469,792.9512 489.1656,792.9512 Q489.5406,792.9512 489.775,793.2168 Q490.0094,793.4668 490.0094,794.0762 L490.0094,795.5293 Q490.0094,796.1387 489.775,796.4043 Q489.5406,796.6699 489.1656,796.6699 Q488.8219,796.6699 488.6188,796.4668 Q488.4156,796.2793 488.3063,795.7637 Q488.2594,795.4043 488.0719,795.2168 Q487.7438,794.8418 487.1344,794.623 Q486.525,794.4043 485.9,794.4043 Q485.1344,794.4043 484.4938,794.7324 Q483.8688,795.0605 483.3688,795.8105 Q482.8844,796.5605 482.8844,797.5918 L482.8844,798.6855 Q482.8844,799.9199 483.775,800.748 Q484.6656,801.5605 486.2594,801.5605 Q487.1969,801.5605 487.8531,801.3105 Q488.2438,801.1543 488.6656,800.7168 Q488.9313,800.4512 489.0719,800.373 Q489.2281,800.2949 489.4313,800.2949 Q489.7594,800.2949 490.0094,800.5605 Q490.275,800.8105 490.275,801.1543 Q490.275,801.498 489.9313,801.9043 Q489.4313,802.4824 488.6344,802.8105 Q487.5563,803.2637 486.2594,803.2637 Q484.7438,803.2637 483.5406,802.6387 Q482.5563,802.1387 481.8688,801.0762 Q481.1813,799.998 481.1813,798.7168 L481.1813,797.5605 Q481.1813,796.2324 481.7906,795.0918 Q482.4156,793.9355 483.5094,793.3262 Q484.6031,792.7012 485.8375,792.7012 Q486.5719,792.7012 487.2125,792.873 Q487.8688,793.0293 488.4156,793.3887 Z " fill="#000000"/><text fill="#000000" font-family="sans-serif" font-size="14" lengthAdjust="spacing" textLength="139" x="505.35" y="803.3105">PersonResponseDTO</text><line style="stroke:#181818;stroke-width:0.5;" x1="446" x2="672" y1="813.5137" y2="813.5137"/><rect fill="none" height="6" style="stroke:#C82930;stroke-width:1.0;" width="6" x="453" y="825.3242"/><text fill="#000000" font-family="sans-serif" font-size="14" lengthAdjust="spacing" textLength="149" x="465" y="832.6211">String personFirstName</text><rect fill="none" height="6" style="stroke:#C82930;stroke-width:1.0;" width="6" x="453" y="843.9453"/><text fill="#000000" font-family="sans-serif" font-size="14" lengthAdjust="spacing" textLength="148" x="465" y="851.2422">String personLastName</text><rect fill="none" height="6" style="stroke:#C82930;stroke-width:1.0;" width="6" x="453" y="862.5664"/><text fill="#000000" font-family="sans-serif" font-size="14" lengthAdjust="spacing" textLength="119" x="465" y="869.8633">String personCode</text><rect fill="none" height="6" style="stroke:#C82930;stroke-width:1.0;" width="6" x="453" y="881.1875"/><text fill="#000000" font-family="sans-serif" font-size="14" lengthAdjust="spacing" textLength="137" x="465" y="888.4844">Date personBirthDate</text><rect fill="none" height="6" style="stroke:#C82930;stroke-width:1.0;" width="6" x="453" y="899.8086"/><text fill="#000000" font-family="sans-serif" font-size="14" lengthAdjust="spacing" textLength="179" x="465" y="907.1055">String medicalRiskLimitLevel</text><rect fill="none" height="6" style="stroke:#C82930;stroke-width:1.0;" width="6" x="453" y="918.4297"/><text fill="#000000" font-family="sans-serif" font-size="14" lengthAdjust="spacing" textLength="173" x="465" y="925.7266">BigDecimal personPremium</text><rect fill="none" height="6" style="stroke:#C82930;stroke-width:1.0;" width="6" x="453" y="937.0508"/><text fill="#000000" font-family="sans-serif" font-size="14" lengthAdjust="spacing" textLength="202" x="465" y="944.3477">List&lt;RiskPremium&gt; personRisks</text><line style="stroke:#181818;stroke-width:0.5;" x1="446" x2="672" y1="951.8613" y2="951.8613"/></g><!--class DtoV2Converter--><g id="elem_DtoV2Converter"><rect codeLine="33" fill="#F1F1F1" height="215.5898" id="DtoV2Converter" rx="2.5" ry="2.5" style="stroke:#181818;stroke-width:0.5;" width="662" x="708" y="762.5137"/><ellipse cx="983.75" cy="778.5137" fill="#ADD1B2" rx="11" ry="11" style="stroke:#181818;stroke-width:1.0;"/><path d="M986.5156,774.3887 Q986.6719,774.1699 986.8594,774.0605 Q987.0469,773.9512 987.2656,773.9512 Q987.6406,773.9512 987.875,774.2168 Q988.1094,774.4668 988.1094,775.0762 L988.1094,776.5293 Q988.1094,777.1387 987.875,777.4043 Q987.6406,777.6699 987.2656,777.6699 Q986.9219,777.6699 986.7188,777.4668 Q986.5156,777.2793 986.4063,776.7637 Q986.3594,776.4043 986.1719,776.2168 Q985.8438,775.8418 985.2344,775.623 Q984.625,775.4043 984,775.4043 Q983.2344,775.4043 982.5938,775.7324 Q981.9688,776.0605 981.4688,776.8105 Q980.9844,777.5605 980.9844,778.5918 L980.9844,779.6855 Q980.9844,780.9199 981.875,781.748 Q982.7656,782.5605 984.3594,782.5605 Q985.2969,782.5605 985.9531,782.3105 Q986.3438,782.1543 986.7656,781.7168 Q987.0313,781.4512 987.1719,781.373 Q987.3281,781.2949 987.5313,781.2949 Q987.8594,781.2949 988.1094,781.5605 Q988.375,781.8105 988.375,782.1543 Q988.375,782.498 988.0313,782.9043 Q987.5313,783.4824 986.7344,783.8105 Q985.6563,784.2637 984.3594,784.2637 Q982.8438,784.2637 981.6406,783.6387 Q980.6563,783.1387 979.9688,782.0762 Q979.2813,780.998 979.2813,779.7168 L979.2813,778.5605 Q979.2813,777.2324 979.8906,776.0918 Q980.5156,774.9355 981.6094,774.3262 Q982.7031,773.7012 983.9375,773.7012 Q984.6719,773.7012 985.3125,773.873 Q985.9688,774.0293 986.5156,774.3887 Z " fill="#000000"/><text fill="#000000" font-family="sans-serif" font-size="14" lengthAdjust="spacing" textLength="102" x="1004.25" y="784.3105">DtoV2Converter</text><line style="stroke:#181818;stroke-width:0.5;" x1="709" x2="1369" y1="794.5137" y2="794.5137"/><line style="stroke:#181818;stroke-width:0.5;" x1="709" x2="1369" y1="802.5137" y2="802.5137"/><ellipse cx="719" cy="817.3242" fill="#84BE84" rx="3" ry="3" style="stroke:#038048;stroke-width:1.0;"/><text fill="#000000" font-family="sans-serif" font-size="14" lengthAdjust="spacing" textLength="612" x="728" y="821.6211">TravelCalculatePremiumCoreCommand buildCoreCommand(TravelCalculatePremiumRequestV2)</text><ellipse cx="719" cy="835.9453" fill="#84BE84" rx="3" ry="3" style="stroke:#038048;stroke-width:1.0;"/><text fill="#000000" font-family="sans-serif" font-size="14" lengthAdjust="spacing" textLength="568" x="728" y="840.2422">TravelCalculatePremiumResponseV2 buildResponse(TravelCalculatePremiumCoreResult)</text><rect fill="#F24D5C" height="6" style="stroke:#C82930;stroke-width:1.0;" width="6" x="716" y="851.5664"/><text fill="#000000" font-family="sans-serif" font-size="14" lengthAdjust="spacing" textLength="572" x="728" y="858.8633">TravelCalculatePremiumResponseV2 buildResponseWithErrors(List&lt;ValidationErrorDTO&gt;)</text><rect fill="#F24D5C" height="6" style="stroke:#C82930;stroke-width:1.0;" width="6" x="716" y="870.1875"/><text fill="#000000" font-family="sans-serif" font-size="14" lengthAdjust="spacing" textLength="503" x="728" y="877.4844">List&lt;ValidationError&gt; transformValidationErrorsToV2(List&lt;ValidationErrorDTO&gt;)</text><rect fill="#F24D5C" height="6" style="stroke:#C82930;stroke-width:1.0;" width="6" x="716" y="888.8086"/><text fill="#000000" font-family="sans-serif" font-size="14" lengthAdjust="spacing" textLength="636" x="728" y="896.1055">TravelCalculatePremiumResponseV2 buildSuccessfulResponse(TravelCalculatePremiumCoreResult)</text><rect fill="#F24D5C" height="6" style="stroke:#C82930;stroke-width:1.0;" width="6" x="716" y="907.4297"/><text fill="#000000" font-family="sans-serif" font-size="14" lengthAdjust="spacing" textLength="400" x="728" y="914.7266">PersonResponseDTO buildPersonFromResponse(PersonDTO)</text><rect fill="#F24D5C" height="6" style="stroke:#C82930;stroke-width:1.0;" width="6" x="716" y="926.0508"/><text fill="#000000" font-family="sans-serif" font-size="14" lengthAdjust="spacing" textLength="378" x="728" y="933.3477">PersonDTO buildPersonFromRequest(PersonRequestDTO)</text><rect fill="#F24D5C" height="6" style="stroke:#C82930;stroke-width:1.0;" width="6" x="716" y="944.6719"/><text fill="#000000" font-family="sans-serif" font-size="14" lengthAdjust="spacing" textLength="436" x="728" y="951.9688">AgreementDTO buildAgreement(TravelCalculatePremiumRequestV2)</text><rect fill="#F24D5C" height="6" style="stroke:#C82930;stroke-width:1.0;" width="6" x="716" y="963.293"/><text fill="#000000" font-family="sans-serif" font-size="14" lengthAdjust="spacing" textLength="542" x="728" y="970.5898">List&lt;PersonDTO&gt; buildPersonDTOFromRequest(TravelCalculatePremiumRequestV2)</text></g><!--class TravelCalculatePremiumResponseV2--><g id="elem_TravelCalculatePremiumResponseV2"><rect codeLine="45" fill="#F1F1F1" height="159.7266" id="TravelCalculatePremiumResponseV2" rx="2.5" ry="2.5" style="stroke:#181818;stroke-width:0.5;" width="267" x="142.5" y="790.5137"/><ellipse cx="157.5" cy="806.5137" fill="#ADD1B2" rx="11" ry="11" style="stroke:#181818;stroke-width:1.0;"/><path d="M160.2656,802.3887 Q160.4219,802.1699 160.6094,802.0605 Q160.7969,801.9512 161.0156,801.9512 Q161.3906,801.9512 161.625,802.2168 Q161.8594,802.4668 161.8594,803.0762 L161.8594,804.5293 Q161.8594,805.1387 161.625,805.4043 Q161.3906,805.6699 161.0156,805.6699 Q160.6719,805.6699 160.4688,805.4668 Q160.2656,805.2793 160.1563,804.7637 Q160.1094,804.4043 159.9219,804.2168 Q159.5938,803.8418 158.9844,803.623 Q158.375,803.4043 157.75,803.4043 Q156.9844,803.4043 156.3438,803.7324 Q155.7188,804.0605 155.2188,804.8105 Q154.7344,805.5605 154.7344,806.5918 L154.7344,807.6855 Q154.7344,808.9199 155.625,809.748 Q156.5156,810.5605 158.1094,810.5605 Q159.0469,810.5605 159.7031,810.3105 Q160.0938,810.1543 160.5156,809.7168 Q160.7813,809.4512 160.9219,809.373 Q161.0781,809.2949 161.2813,809.2949 Q161.6094,809.2949 161.8594,809.5605 Q162.125,809.8105 162.125,810.1543 Q162.125,810.498 161.7813,810.9043 Q161.2813,811.4824 160.4844,811.8105 Q159.4063,812.2637 158.1094,812.2637 Q156.5938,812.2637 155.3906,811.6387 Q154.4063,811.1387 153.7188,810.0762 Q153.0313,808.998 153.0313,807.7168 L153.0313,806.5605 Q153.0313,805.2324 153.6406,804.0918 Q154.2656,802.9355 155.3594,802.3262 Q156.4531,801.7012 157.6875,801.7012 Q158.4219,801.7012 159.0625,801.873 Q159.7188,802.0293 160.2656,802.3887 Z " fill="#000000"/><text fill="#000000" font-family="sans-serif" font-size="14" lengthAdjust="spacing" textLength="235" x="171.5" y="812.3105">TravelCalculatePremiumResponseV2</text><line style="stroke:#181818;stroke-width:0.5;" x1="143.5" x2="408.5" y1="822.5137" y2="822.5137"/><rect fill="none" height="6" style="stroke:#C82930;stroke-width:1.0;" width="6" x="150.5" y="834.3242"/><text fill="#000000" font-family="sans-serif" font-size="14" lengthAdjust="spacing" textLength="68" x="162.5" y="841.6211">String uuid</text><rect fill="none" height="6" style="stroke:#C82930;stroke-width:1.0;" width="6" x="150.5" y="852.9453"/><text fill="#000000" font-family="sans-serif" font-size="14" lengthAdjust="spacing" textLength="165" x="162.5" y="860.2422">Date agreementDateFrom</text><rect fill="none" height="6" style="stroke:#C82930;stroke-width:1.0;" width="6" x="150.5" y="871.5664"/><text fill="#000000" font-family="sans-serif" font-size="14" lengthAdjust="spacing" textLength="149" x="162.5" y="878.8633">Date agreementDateTo</text><rect fill="none" height="6" style="stroke:#C82930;stroke-width:1.0;" width="6" x="150.5" y="890.1875"/><text fill="#000000" font-family="sans-serif" font-size="14" lengthAdjust="spacing" textLength="88" x="162.5" y="897.4844">String country</text><rect fill="none" height="6" style="stroke:#C82930;stroke-width:1.0;" width="6" x="150.5" y="908.8086"/><text fill="#000000" font-family="sans-serif" font-size="14" lengthAdjust="spacing" textLength="197" x="162.5" y="916.1055">BigDecimal agreementPremium</text><rect fill="none" height="6" style="stroke:#C82930;stroke-width:1.0;" width="6" x="150.5" y="927.4297"/><text fill="#000000" font-family="sans-serif" font-size="14" lengthAdjust="spacing" textLength="232" x="162.5" y="934.7266">List&lt;PersonResponseDTO&gt; persons</text><line style="stroke:#181818;stroke-width:0.5;" x1="143.5" x2="408.5" y1="942.2402" y2="942.2402"/></g><!--class TravelCalculatePremiumRequestV2--><g id="elem_TravelCalculatePremiumRequestV2"><rect codeLine="97" fill="#F1F1F1" height="141.1055" id="TravelCalculatePremiumRequestV2" rx="2.5" ry="2.5" style="stroke:#181818;stroke-width:0.5;" width="256" x="431" y="1057.0137"/><ellipse cx="446" cy="1073.0137" fill="#ADD1B2" rx="11" ry="11" style="stroke:#181818;stroke-width:1.0;"/><path d="M448.7656,1068.8887 Q448.9219,1068.6699 449.1094,1068.5605 Q449.2969,1068.4512 449.5156,1068.4512 Q449.8906,1068.4512 450.125,1068.7168 Q450.3594,1068.9668 450.3594,1069.5762 L450.3594,1071.0293 Q450.3594,1071.6387 450.125,1071.9043 Q449.8906,1072.1699 449.5156,1072.1699 Q449.1719,1072.1699 448.9688,1071.9668 Q448.7656,1071.7793 448.6563,1071.2637 Q448.6094,1070.9043 448.4219,1070.7168 Q448.0938,1070.3418 447.4844,1070.123 Q446.875,1069.9043 446.25,1069.9043 Q445.4844,1069.9043 444.8438,1070.2324 Q444.2188,1070.5605 443.7188,1071.3105 Q443.2344,1072.0605 443.2344,1073.0918 L443.2344,1074.1855 Q443.2344,1075.4199 444.125,1076.248 Q445.0156,1077.0605 446.6094,1077.0605 Q447.5469,1077.0605 448.2031,1076.8105 Q448.5938,1076.6543 449.0156,1076.2168 Q449.2813,1075.9512 449.4219,1075.873 Q449.5781,1075.7949 449.7813,1075.7949 Q450.1094,1075.7949 450.3594,1076.0605 Q450.625,1076.3105 450.625,1076.6543 Q450.625,1076.998 450.2813,1077.4043 Q449.7813,1077.9824 448.9844,1078.3105 Q447.9063,1078.7637 446.6094,1078.7637 Q445.0938,1078.7637 443.8906,1078.1387 Q442.9063,1077.6387 442.2188,1076.5762 Q441.5313,1075.498 441.5313,1074.2168 L441.5313,1073.0605 Q441.5313,1071.7324 442.1406,1070.5918 Q442.7656,1069.4355 443.8594,1068.8262 Q444.9531,1068.2012 446.1875,1068.2012 Q446.9219,1068.2012 447.5625,1068.373 Q448.2188,1068.5293 448.7656,1068.8887 Z " fill="#000000"/><text fill="#000000" font-family="sans-serif" font-size="14" lengthAdjust="spacing" textLength="224" x="460" y="1078.8105">TravelCalculatePremiumRequestV2</text><line style="stroke:#181818;stroke-width:0.5;" x1="432" x2="686" y1="1089.0137" y2="1089.0137"/><rect fill="none" height="6" style="stroke:#C82930;stroke-width:1.0;" width="6" x="439" y="1100.8242"/><text fill="#000000" font-family="sans-serif" font-size="14" lengthAdjust="spacing" textLength="165" x="451" y="1108.1211">Date agreementDateFrom</text><rect fill="none" height="6" style="stroke:#C82930;stroke-width:1.0;" width="6" x="439" y="1119.4453"/><text fill="#000000" font-family="sans-serif" font-size="14" lengthAdjust="spacing" textLength="149" x="451" y="1126.7422">Date agreementDateTo</text><rect fill="none" height="6" style="stroke:#C82930;stroke-width:1.0;" width="6" x="439" y="1138.0664"/><text fill="#000000" font-family="sans-serif" font-size="14" lengthAdjust="spacing" textLength="88" x="451" y="1145.3633">String country</text><rect fill="none" height="6" style="stroke:#C82930;stroke-width:1.0;" width="6" x="439" y="1156.6875"/><text fill="#000000" font-family="sans-serif" font-size="14" lengthAdjust="spacing" textLength="166" x="451" y="1163.9844">List&lt;String&gt; selectedRisks</text><rect fill="none" height="6" style="stroke:#C82930;stroke-width:1.0;" width="6" x="439" y="1175.3086"/><text fill="#000000" font-family="sans-serif" font-size="14" lengthAdjust="spacing" textLength="221" x="451" y="1182.6055">List&lt;PersonRequestDTO&gt; persons</text><line style="stroke:#181818;stroke-width:0.5;" x1="432" x2="686" y1="1190.1191" y2="1190.1191"/></g><!--class PersonRequestDTO--><g id="elem_PersonRequestDTO"><rect codeLine="114" fill="#F1F1F1" height="141.1055" id="PersonRequestDTO" rx="2.5" ry="2.5" style="stroke:#181818;stroke-width:0.5;" width="205" x="722.5" y="1057.0137"/><ellipse cx="757.75" cy="1073.0137" fill="#ADD1B2" rx="11" ry="11" style="stroke:#181818;stroke-width:1.0;"/><path d="M760.5156,1068.8887 Q760.6719,1068.6699 760.8594,1068.5605 Q761.0469,1068.4512 761.2656,1068.4512 Q761.6406,1068.4512 761.875,1068.7168 Q762.1094,1068.9668 762.1094,1069.5762 L762.1094,1071.0293 Q762.1094,1071.6387 761.875,1071.9043 Q761.6406,1072.1699 761.2656,1072.1699 Q760.9219,1072.1699 760.7188,1071.9668 Q760.5156,1071.7793 760.4063,1071.2637 Q760.3594,1070.9043 760.1719,1070.7168 Q759.8438,1070.3418 759.2344,1070.123 Q758.625,1069.9043 758,1069.9043 Q757.2344,1069.9043 756.5938,1070.2324 Q755.9688,1070.5605 755.4688,1071.3105 Q754.9844,1072.0605 754.9844,1073.0918 L754.9844,1074.1855 Q754.9844,1075.4199 755.875,1076.248 Q756.7656,1077.0605 758.3594,1077.0605 Q759.2969,1077.0605 759.9531,1076.8105 Q760.3438,1076.6543 760.7656,1076.2168 Q761.0313,1075.9512 761.1719,1075.873 Q761.3281,1075.7949 761.5313,1075.7949 Q761.8594,1075.7949 762.1094,1076.0605 Q762.375,1076.3105 762.375,1076.6543 Q762.375,1076.998 762.0313,1077.4043 Q761.5313,1077.9824 760.7344,1078.3105 Q759.6563,1078.7637 758.3594,1078.7637 Q756.8438,1078.7637 755.6406,1078.1387 Q754.6563,1077.6387 753.9688,1076.5762 Q753.2813,1075.498 753.2813,1074.2168 L753.2813,1073.0605 Q753.2813,1071.7324 753.8906,1070.5918 Q754.5156,1069.4355 755.6094,1068.8262 Q756.7031,1068.2012 757.9375,1068.2012 Q758.6719,1068.2012 759.3125,1068.373 Q759.9688,1068.5293 760.5156,1068.8887 Z " fill="#000000"/><text fill="#000000" font-family="sans-serif" font-size="14" lengthAdjust="spacing" textLength="128" x="776.25" y="1078.8105">PersonRequestDTO</text><line style="stroke:#181818;stroke-width:0.5;" x1="723.5" x2="926.5" y1="1089.0137" y2="1089.0137"/><rect fill="none" height="6" style="stroke:#C82930;stroke-width:1.0;" width="6" x="730.5" y="1100.8242"/><text fill="#000000" font-family="sans-serif" font-size="14" lengthAdjust="spacing" textLength="149" x="742.5" y="1108.1211">String personFirstName</text><rect fill="none" height="6" style="stroke:#C82930;stroke-width:1.0;" width="6" x="730.5" y="1119.4453"/><text fill="#000000" font-family="sans-serif" font-size="14" lengthAdjust="spacing" textLength="148" x="742.5" y="1126.7422">String personLastName</text><rect fill="none" height="6" style="stroke:#C82930;stroke-width:1.0;" width="6" x="730.5" y="1138.0664"/><text fill="#000000" font-family="sans-serif" font-size="14" lengthAdjust="spacing" textLength="119" x="742.5" y="1145.3633">String personCode</text><rect fill="none" height="6" style="stroke:#C82930;stroke-width:1.0;" width="6" x="730.5" y="1156.6875"/><text fill="#000000" font-family="sans-serif" font-size="14" lengthAdjust="spacing" textLength="137" x="742.5" y="1163.9844">Date personBirthDate</text><rect fill="none" height="6" style="stroke:#C82930;stroke-width:1.0;" width="6" x="730.5" y="1175.3086"/><text fill="#000000" font-family="sans-serif" font-size="14" lengthAdjust="spacing" textLength="179" x="742.5" y="1182.6055">String medicalRiskLimitLevel</text><line style="stroke:#181818;stroke-width:0.5;" x1="723.5" x2="926.5" y1="1190.1191" y2="1190.1191"/></g><!--class TravelCalculatePremiumRequestV1--><g id="elem_TravelCalculatePremiumRequestV1"><rect codeLine="21" fill="#F1F1F1" height="215.5898" id="TravelCalculatePremiumRequestV1" rx="2.5" ry="2.5" style="stroke:#181818;stroke-width:0.5;" width="256" x="2426" y="762.5137"/><ellipse cx="2441" cy="778.5137" fill="#ADD1B2" rx="11" ry="11" style="stroke:#181818;stroke-width:1.0;"/><path d="M2443.7656,774.3887 Q2443.9219,774.1699 2444.1094,774.0605 Q2444.2969,773.9512 2444.5156,773.9512 Q2444.8906,773.9512 2445.125,774.2168 Q2445.3594,774.4668 2445.3594,775.0762 L2445.3594,776.5293 Q2445.3594,777.1387 2445.125,777.4043 Q2444.8906,777.6699 2444.5156,777.6699 Q2444.1719,777.6699 2443.9688,777.4668 Q2443.7656,777.2793 2443.6563,776.7637 Q2443.6094,776.4043 2443.4219,776.2168 Q2443.0938,775.8418 2442.4844,775.623 Q2441.875,775.4043 2441.25,775.4043 Q2440.4844,775.4043 2439.8438,775.7324 Q2439.2188,776.0605 2438.7188,776.8105 Q2438.2344,777.5605 2438.2344,778.5918 L2438.2344,779.6855 Q2438.2344,780.9199 2439.125,781.748 Q2440.0156,782.5605 2441.6094,782.5605 Q2442.5469,782.5605 2443.2031,782.3105 Q2443.5938,782.1543 2444.0156,781.7168 Q2444.2813,781.4512 2444.4219,781.373 Q2444.5781,781.2949 2444.7813,781.2949 Q2445.1094,781.2949 2445.3594,781.5605 Q2445.625,781.8105 2445.625,782.1543 Q2445.625,782.498 2445.2813,782.9043 Q2444.7813,783.4824 2443.9844,783.8105 Q2442.9063,784.2637 2441.6094,784.2637 Q2440.0938,784.2637 2438.8906,783.6387 Q2437.9063,783.1387 2437.2188,782.0762 Q2436.5313,780.998 2436.5313,779.7168 L2436.5313,778.5605 Q2436.5313,777.2324 2437.1406,776.0918 Q2437.7656,774.9355 2438.8594,774.3262 Q2439.9531,773.7012 2441.1875,773.7012 Q2441.9219,773.7012 2442.5625,773.873 Q2443.2188,774.0293 2443.7656,774.3887 Z " fill="#000000"/><text fill="#000000" font-family="sans-serif" font-size="14" lengthAdjust="spacing" textLength="224" x="2455" y="784.3105">TravelCalculatePremiumRequestV1</text><line style="stroke:#181818;stroke-width:0.5;" x1="2427" x2="2681" y1="794.5137" y2="794.5137"/><rect fill="none" height="6" style="stroke:#C82930;stroke-width:1.0;" width="6" x="2434" y="806.3242"/><text fill="#000000" font-family="sans-serif" font-size="14" lengthAdjust="spacing" textLength="149" x="2446" y="813.6211">String personFirstName</text><rect fill="none" height="6" style="stroke:#C82930;stroke-width:1.0;" width="6" x="2434" y="824.9453"/><text fill="#000000" font-family="sans-serif" font-size="14" lengthAdjust="spacing" textLength="148" x="2446" y="832.2422">String personLastName</text><rect fill="none" height="6" style="stroke:#C82930;stroke-width:1.0;" width="6" x="2434" y="843.5664"/><text fill="#000000" font-family="sans-serif" font-size="14" lengthAdjust="spacing" textLength="119" x="2446" y="850.8633">String personCode</text><rect fill="none" height="6" style="stroke:#C82930;stroke-width:1.0;" width="6" x="2434" y="862.1875"/><text fill="#000000" font-family="sans-serif" font-size="14" lengthAdjust="spacing" textLength="137" x="2446" y="869.4844">Date personBirthDate</text><rect fill="none" height="6" style="stroke:#C82930;stroke-width:1.0;" width="6" x="2434" y="880.8086"/><text fill="#000000" font-family="sans-serif" font-size="14" lengthAdjust="spacing" textLength="165" x="2446" y="888.1055">Date agreementDateFrom</text><rect fill="none" height="6" style="stroke:#C82930;stroke-width:1.0;" width="6" x="2434" y="899.4297"/><text fill="#000000" font-family="sans-serif" font-size="14" lengthAdjust="spacing" textLength="149" x="2446" y="906.7266">Date agreementDateTo</text><rect fill="none" height="6" style="stroke:#C82930;stroke-width:1.0;" width="6" x="2434" y="918.0508"/><text fill="#000000" font-family="sans-serif" font-size="14" lengthAdjust="spacing" textLength="88" x="2446" y="925.3477">String country</text><rect fill="none" height="6" style="stroke:#C82930;stroke-width:1.0;" width="6" x="2434" y="936.6719"/><text fill="#000000" font-family="sans-serif" font-size="14" lengthAdjust="spacing" textLength="179" x="2446" y="943.9688">String medicalRiskLimitLevel</text><rect fill="none" height="6" style="stroke:#C82930;stroke-width:1.0;" width="6" x="2434" y="955.293"/><text fill="#000000" font-family="sans-serif" font-size="14" lengthAdjust="spacing" textLength="166" x="2446" y="962.5898">List&lt;String&gt; selectedRisks</text><line style="stroke:#181818;stroke-width:0.5;" x1="2427" x2="2681" y1="970.1035" y2="970.1035"/></g><!--class DtoV1Converter--><g id="elem_DtoV1Converter"><rect codeLine="64" fill="#F1F1F1" height="178.3477" id="DtoV1Converter" rx="2.5" ry="2.5" style="stroke:#181818;stroke-width:0.5;" width="662" x="1729" y="781.5137"/><ellipse cx="2004.75" cy="797.5137" fill="#ADD1B2" rx="11" ry="11" style="stroke:#181818;stroke-width:1.0;"/><path d="M2007.5156,793.3887 Q2007.6719,793.1699 2007.8594,793.0605 Q2008.0469,792.9512 2008.2656,792.9512 Q2008.6406,792.9512 2008.875,793.2168 Q2009.1094,793.4668 2009.1094,794.0762 L2009.1094,795.5293 Q2009.1094,796.1387 2008.875,796.4043 Q2008.6406,796.6699 2008.2656,796.6699 Q2007.9219,796.6699 2007.7188,796.4668 Q2007.5156,796.2793 2007.4063,795.7637 Q2007.3594,795.4043 2007.1719,795.2168 Q2006.8438,794.8418 2006.2344,794.623 Q2005.625,794.4043 2005,794.4043 Q2004.2344,794.4043 2003.5938,794.7324 Q2002.9688,795.0605 2002.4688,795.8105 Q2001.9844,796.5605 2001.9844,797.5918 L2001.9844,798.6855 Q2001.9844,799.9199 2002.875,800.748 Q2003.7656,801.5605 2005.3594,801.5605 Q2006.2969,801.5605 2006.9531,801.3105 Q2007.3438,801.1543 2007.7656,800.7168 Q2008.0313,800.4512 2008.1719,800.373 Q2008.3281,800.2949 2008.5313,800.2949 Q2008.8594,800.2949 2009.1094,800.5605 Q2009.375,800.8105 2009.375,801.1543 Q2009.375,801.498 2009.0313,801.9043 Q2008.5313,802.4824 2007.7344,802.8105 Q2006.6563,803.2637 2005.3594,803.2637 Q2003.8438,803.2637 2002.6406,802.6387 Q2001.6563,802.1387 2000.9688,801.0762 Q2000.2813,799.998 2000.2813,798.7168 L2000.2813,797.5605 Q2000.2813,796.2324 2000.8906,795.0918 Q2001.5156,793.9355 2002.6094,793.3262 Q2003.7031,792.7012 2004.9375,792.7012 Q2005.6719,792.7012 2006.3125,792.873 Q2006.9688,793.0293 2007.5156,793.3887 Z " fill="#000000"/><text fill="#000000" font-family="sans-serif" font-size="14" lengthAdjust="spacing" textLength="102" x="2025.25" y="803.3105">DtoV1Converter</text><line style="stroke:#181818;stroke-width:0.5;" x1="1730" x2="2390" y1="813.5137" y2="813.5137"/><line style="stroke:#181818;stroke-width:0.5;" x1="1730" x2="2390" y1="821.5137" y2="821.5137"/><ellipse cx="1740" cy="836.3242" fill="#84BE84" rx="3" ry="3" style="stroke:#038048;stroke-width:1.0;"/><text fill="#000000" font-family="sans-serif" font-size="14" lengthAdjust="spacing" textLength="612" x="1749" y="840.6211">TravelCalculatePremiumCoreCommand buildCoreCommand(TravelCalculatePremiumRequestV1)</text><ellipse cx="1740" cy="854.9453" fill="#84BE84" rx="3" ry="3" style="stroke:#038048;stroke-width:1.0;"/><text fill="#000000" font-family="sans-serif" font-size="14" lengthAdjust="spacing" textLength="568" x="1749" y="859.2422">TravelCalculatePremiumResponseV1 buildResponse(TravelCalculatePremiumCoreResult)</text><rect fill="#F24D5C" height="6" style="stroke:#C82930;stroke-width:1.0;" width="6" x="1737" y="870.5664"/><text fill="#000000" font-family="sans-serif" font-size="14" lengthAdjust="spacing" textLength="572" x="1749" y="877.8633">TravelCalculatePremiumResponseV1 buildResponseWithErrors(List&lt;ValidationErrorDTO&gt;)</text><rect fill="#F24D5C" height="6" style="stroke:#C82930;stroke-width:1.0;" width="6" x="1737" y="889.1875"/><text fill="#000000" font-family="sans-serif" font-size="14" lengthAdjust="spacing" textLength="503" x="1749" y="896.4844">List&lt;ValidationError&gt; transformValidationErrorsToV1(List&lt;ValidationErrorDTO&gt;)</text><rect fill="#F24D5C" height="6" style="stroke:#C82930;stroke-width:1.0;" width="6" x="1737" y="907.8086"/><text fill="#000000" font-family="sans-serif" font-size="14" lengthAdjust="spacing" textLength="636" x="1749" y="915.1055">TravelCalculatePremiumResponseV1 buildSuccessfulResponse(TravelCalculatePremiumCoreResult)</text><rect fill="#F24D5C" height="6" style="stroke:#C82930;stroke-width:1.0;" width="6" x="1737" y="926.4297"/><text fill="#000000" font-family="sans-serif" font-size="14" lengthAdjust="spacing" textLength="388" x="1749" y="933.7266">PersonDTO buildPerson(TravelCalculatePremiumRequestV1)</text><rect fill="#F24D5C" height="6" style="stroke:#C82930;stroke-width:1.0;" width="6" x="1737" y="945.0508"/><text fill="#000000" font-family="sans-serif" font-size="14" lengthAdjust="spacing" textLength="436" x="1749" y="952.3477">AgreementDTO buildAgreement(TravelCalculatePremiumRequestV1)</text></g><!--class TravelCalculatePremiumResponseV1--><g id="elem_TravelCalculatePremiumResponseV1"><rect codeLine="83" fill="#F1F1F1" height="252.832" id="TravelCalculatePremiumResponseV1" rx="2.5" ry="2.5" style="stroke:#181818;stroke-width:0.5;" width="267" x="1426.5" y="744.0137"/><ellipse cx="1441.5" cy="760.0137" fill="#ADD1B2" rx="11" ry="11" style="stroke:#181818;stroke-width:1.0;"/><path d="M1444.2656,755.8887 Q1444.4219,755.6699 1444.6094,755.5605 Q1444.7969,755.4512 1445.0156,755.4512 Q1445.3906,755.4512 1445.625,755.7168 Q1445.8594,755.9668 1445.8594,756.5762 L1445.8594,758.0293 Q1445.8594,758.6387 1445.625,758.9043 Q1445.3906,759.1699 1445.0156,759.1699 Q1444.6719,759.1699 1444.4688,758.9668 Q1444.2656,758.7793 1444.1563,758.2637 Q1444.1094,757.9043 1443.9219,757.7168 Q1443.5938,757.3418 1442.9844,757.123 Q1442.375,756.9043 1441.75,756.9043 Q1440.9844,756.9043 1440.3438,757.2324 Q1439.7188,757.5605 1439.2188,758.3105 Q1438.7344,759.0605 1438.7344,760.0918 L1438.7344,761.1855 Q1438.7344,762.4199 1439.625,763.248 Q1440.5156,764.0605 1442.1094,764.0605 Q1443.0469,764.0605 1443.7031,763.8105 Q1444.0938,763.6543 1444.5156,763.2168 Q1444.7813,762.9512 1444.9219,762.873 Q1445.0781,762.7949 1445.2813,762.7949 Q1445.6094,762.7949 1445.8594,763.0605 Q1446.125,763.3105 1446.125,763.6543 Q1446.125,763.998 1445.7813,764.4043 Q1445.2813,764.9824 1444.4844,765.3105 Q1443.4063,765.7637 1442.1094,765.7637 Q1440.5938,765.7637 1439.3906,765.1387 Q1438.4063,764.6387 1437.7188,763.5762 Q1437.0313,762.498 1437.0313,761.2168 L1437.0313,760.0605 Q1437.0313,758.7324 1437.6406,757.5918 Q1438.2656,756.4355 1439.3594,755.8262 Q1440.4531,755.2012 1441.6875,755.2012 Q1442.4219,755.2012 1443.0625,755.373 Q1443.7188,755.5293 1444.2656,755.8887 Z " fill="#000000"/><text fill="#000000" font-family="sans-serif" font-size="14" lengthAdjust="spacing" textLength="235" x="1455.5" y="765.8105">TravelCalculatePremiumResponseV1</text><line style="stroke:#181818;stroke-width:0.5;" x1="1427.5" x2="1692.5" y1="776.0137" y2="776.0137"/><rect fill="none" height="6" style="stroke:#C82930;stroke-width:1.0;" width="6" x="1434.5" y="787.8242"/><text fill="#000000" font-family="sans-serif" font-size="14" lengthAdjust="spacing" textLength="68" x="1446.5" y="795.1211">String uuid</text><rect fill="none" height="6" style="stroke:#C82930;stroke-width:1.0;" width="6" x="1434.5" y="806.4453"/><text fill="#000000" font-family="sans-serif" font-size="14" lengthAdjust="spacing" textLength="149" x="1446.5" y="813.7422">String personFirstName</text><rect fill="none" height="6" style="stroke:#C82930;stroke-width:1.0;" width="6" x="1434.5" y="825.0664"/><text fill="#000000" font-family="sans-serif" font-size="14" lengthAdjust="spacing" textLength="148" x="1446.5" y="832.3633">String personLastName</text><rect fill="none" height="6" style="stroke:#C82930;stroke-width:1.0;" width="6" x="1434.5" y="843.6875"/><text fill="#000000" font-family="sans-serif" font-size="14" lengthAdjust="spacing" textLength="119" x="1446.5" y="850.9844">String personCode</text><rect fill="none" height="6" style="stroke:#C82930;stroke-width:1.0;" width="6" x="1434.5" y="862.3086"/><text fill="#000000" font-family="sans-serif" font-size="14" lengthAdjust="spacing" textLength="137" x="1446.5" y="869.6055">Date personBirthDate</text><rect fill="none" height="6" style="stroke:#C82930;stroke-width:1.0;" width="6" x="1434.5" y="880.9297"/><text fill="#000000" font-family="sans-serif" font-size="14" lengthAdjust="spacing" textLength="165" x="1446.5" y="888.2266">Date agreementDateFrom</text><rect fill="none" height="6" style="stroke:#C82930;stroke-width:1.0;" width="6" x="1434.5" y="899.5508"/><text fill="#000000" font-family="sans-serif" font-size="14" lengthAdjust="spacing" textLength="149" x="1446.5" y="906.8477">Date agreementDateTo</text><rect fill="none" height="6" style="stroke:#C82930;stroke-width:1.0;" width="6" x="1434.5" y="918.1719"/><text fill="#000000" font-family="sans-serif" font-size="14" lengthAdjust="spacing" textLength="88" x="1446.5" y="925.4688">String country</text><rect fill="none" height="6" style="stroke:#C82930;stroke-width:1.0;" width="6" x="1434.5" y="936.793"/><text fill="#000000" font-family="sans-serif" font-size="14" lengthAdjust="spacing" textLength="179" x="1446.5" y="944.0898">String medicalRiskLimitLevel</text><rect fill="none" height="6" style="stroke:#C82930;stroke-width:1.0;" width="6" x="1434.5" y="955.4141"/><text fill="#000000" font-family="sans-serif" font-size="14" lengthAdjust="spacing" textLength="197" x="1446.5" y="962.7109">BigDecimal agreementPremium</text><rect fill="none" height="6" style="stroke:#C82930;stroke-width:1.0;" width="6" x="1434.5" y="974.0352"/><text fill="#000000" font-family="sans-serif" font-size="14" lengthAdjust="spacing" textLength="153" x="1446.5" y="981.332">List&lt;RiskPremium&gt; risks</text><line style="stroke:#181818;stroke-width:0.5;" x1="1427.5" x2="1692.5" y1="988.8457" y2="988.8457"/></g><!--class BigDecimalSerializer--><g id="elem_BigDecimalSerializer"><rect codeLine="60" fill="#F1F1F1" height="66.6211" id="BigDecimalSerializer" rx="2.5" ry="2.5" style="stroke:#181818;stroke-width:0.5;" width="400" x="3085" y="600.0137"/><ellipse cx="3216.75" cy="616.0137" fill="#ADD1B2" rx="11" ry="11" style="stroke:#181818;stroke-width:1.0;"/><path d="M3219.5156,611.8887 Q3219.6719,611.6699 3219.8594,611.5605 Q3220.0469,611.4512 3220.2656,611.4512 Q3220.6406,611.4512 3220.875,611.7168 Q3221.1094,611.9668 3221.1094,612.5762 L3221.1094,614.0293 Q3221.1094,614.6387 3220.875,614.9043 Q3220.6406,615.1699 3220.2656,615.1699 Q3219.9219,615.1699 3219.7188,614.9668 Q3219.5156,614.7793 3219.4063,614.2637 Q3219.3594,613.9043 3219.1719,613.7168 Q3218.8438,613.3418 3218.2344,613.123 Q3217.625,612.9043 3217,612.9043 Q3216.2344,612.9043 3215.5938,613.2324 Q3214.9688,613.5605 3214.4688,614.3105 Q3213.9844,615.0605 3213.9844,616.0918 L3213.9844,617.1855 Q3213.9844,618.4199 3214.875,619.248 Q3215.7656,620.0605 3217.3594,620.0605 Q3218.2969,620.0605 3218.9531,619.8105 Q3219.3438,619.6543 3219.7656,619.2168 Q3220.0313,618.9512 3220.1719,618.873 Q3220.3281,618.7949 3220.5313,618.7949 Q3220.8594,618.7949 3221.1094,619.0605 Q3221.375,619.3105 3221.375,619.6543 Q3221.375,619.998 3221.0313,620.4043 Q3220.5313,620.9824 3219.7344,621.3105 Q3218.6563,621.7637 3217.3594,621.7637 Q3215.8438,621.7637 3214.6406,621.1387 Q3213.6563,620.6387 3212.9688,619.5762 Q3212.2813,618.498 3212.2813,617.2168 L3212.2813,616.0605 Q3212.2813,614.7324 3212.8906,613.5918 Q3213.5156,612.4355 3214.6094,611.8262 Q3215.7031,611.2012 3216.9375,611.2012 Q3217.6719,611.2012 3218.3125,611.373 Q3218.9688,611.5293 3219.5156,611.8887 Z " fill="#000000"/><text fill="#000000" font-family="sans-serif" font-size="14" lengthAdjust="spacing" textLength="128" x="3237.25" y="621.8105">BigDecimalSerializer</text><line style="stroke:#181818;stroke-width:0.5;" x1="3086" x2="3484" y1="632.0137" y2="632.0137"/><line style="stroke:#181818;stroke-width:0.5;" x1="3086" x2="3484" y1="640.0137" y2="640.0137"/><ellipse cx="3096" cy="654.8242" fill="#84BE84" rx="3" ry="3" style="stroke:#038048;stroke-width:1.0;"/><text fill="#000000" font-family="sans-serif" font-size="14" lengthAdjust="spacing" textLength="374" x="3105" y="659.1211">void serialize(BigDecimal,JsonGenerator,SerializerProvider)</text></g><!--class TravelGetAgreementResponse--><g id="elem_TravelGetAgreementResponse"><rect codeLine="74" fill="#F1F1F1" height="159.7266" id="TravelGetAgreementResponse" rx="2.5" ry="2.5" style="stroke:#181818;stroke-width:0.5;" width="258" x="3375" y="790.5137"/><ellipse cx="3403.5" cy="806.5137" fill="#ADD1B2" rx="11" ry="11" style="stroke:#181818;stroke-width:1.0;"/><path d="M3406.2656,802.3887 Q3406.4219,802.1699 3406.6094,802.0605 Q3406.7969,801.9512 3407.0156,801.9512 Q3407.3906,801.9512 3407.625,802.2168 Q3407.8594,802.4668 3407.8594,803.0762 L3407.8594,804.5293 Q3407.8594,805.1387 3407.625,805.4043 Q3407.3906,805.6699 3407.0156,805.6699 Q3406.6719,805.6699 3406.4688,805.4668 Q3406.2656,805.2793 3406.1563,804.7637 Q3406.1094,804.4043 3405.9219,804.2168 Q3405.5938,803.8418 3404.9844,803.623 Q3404.375,803.4043 3403.75,803.4043 Q3402.9844,803.4043 3402.3438,803.7324 Q3401.7188,804.0605 3401.2188,804.8105 Q3400.7344,805.5605 3400.7344,806.5918 L3400.7344,807.6855 Q3400.7344,808.9199 3401.625,809.748 Q3402.5156,810.5605 3404.1094,810.5605 Q3405.0469,810.5605 3405.7031,810.3105 Q3406.0938,810.1543 3406.5156,809.7168 Q3406.7813,809.4512 3406.9219,809.373 Q3407.0781,809.2949 3407.2813,809.2949 Q3407.6094,809.2949 3407.8594,809.5605 Q3408.125,809.8105 3408.125,810.1543 Q3408.125,810.498 3407.7813,810.9043 Q3407.2813,811.4824 3406.4844,811.8105 Q3405.4063,812.2637 3404.1094,812.2637 Q3402.5938,812.2637 3401.3906,811.6387 Q3400.4063,811.1387 3399.7188,810.0762 Q3399.0313,808.998 3399.0313,807.7168 L3399.0313,806.5605 Q3399.0313,805.2324 3399.6406,804.0918 Q3400.2656,802.9355 3401.3594,802.3262 Q3402.4531,801.7012 3403.6875,801.7012 Q3404.4219,801.7012 3405.0625,801.873 Q3405.7188,802.0293 3406.2656,802.3887 Z " fill="#000000"/><text fill="#000000" font-family="sans-serif" font-size="14" lengthAdjust="spacing" textLength="196" x="3420.5" y="812.3105">TravelGetAgreementResponse</text><line style="stroke:#181818;stroke-width:0.5;" x1="3376" x2="3632" y1="822.5137" y2="822.5137"/><rect fill="none" height="6" style="stroke:#C82930;stroke-width:1.0;" width="6" x="3383" y="834.3242"/><text fill="#000000" font-family="sans-serif" font-size="14" lengthAdjust="spacing" textLength="68" x="3395" y="841.6211">String uuid</text><rect fill="none" height="6" style="stroke:#C82930;stroke-width:1.0;" width="6" x="3383" y="852.9453"/><text fill="#000000" font-family="sans-serif" font-size="14" lengthAdjust="spacing" textLength="165" x="3395" y="860.2422">Date agreementDateFrom</text><rect fill="none" height="6" style="stroke:#C82930;stroke-width:1.0;" width="6" x="3383" y="871.5664"/><text fill="#000000" font-family="sans-serif" font-size="14" lengthAdjust="spacing" textLength="149" x="3395" y="878.8633">Date agreementDateTo</text><rect fill="none" height="6" style="stroke:#C82930;stroke-width:1.0;" width="6" x="3383" y="890.1875"/><text fill="#000000" font-family="sans-serif" font-size="14" lengthAdjust="spacing" textLength="88" x="3395" y="897.4844">String country</text><rect fill="none" height="6" style="stroke:#C82930;stroke-width:1.0;" width="6" x="3383" y="908.8086"/><text fill="#000000" font-family="sans-serif" font-size="14" lengthAdjust="spacing" textLength="197" x="3395" y="916.1055">BigDecimal agreementPremium</text><rect fill="none" height="6" style="stroke:#C82930;stroke-width:1.0;" width="6" x="3383" y="927.4297"/><text fill="#000000" font-family="sans-serif" font-size="14" lengthAdjust="spacing" textLength="232" x="3395" y="934.7266">List&lt;PersonResponseDTO&gt; persons</text><line style="stroke:#181818;stroke-width:0.5;" x1="3376" x2="3632" y1="942.2402" y2="942.2402"/></g><!--class GetAgreementDtoConverter--><g id="elem_GetAgreementDtoConverter"><rect codeLine="105" fill="#F1F1F1" height="159.7266" id="GetAgreementDtoConverter" rx="2.5" ry="2.5" style="stroke:#181818;stroke-width:0.5;" width="601" x="2738.5" y="790.5137"/><ellipse cx="2946.25" cy="806.5137" fill="#ADD1B2" rx="11" ry="11" style="stroke:#181818;stroke-width:1.0;"/><path d="M2949.0156,802.3887 Q2949.1719,802.1699 2949.3594,802.0605 Q2949.5469,801.9512 2949.7656,801.9512 Q2950.1406,801.9512 2950.375,802.2168 Q2950.6094,802.4668 2950.6094,803.0762 L2950.6094,804.5293 Q2950.6094,805.1387 2950.375,805.4043 Q2950.1406,805.6699 2949.7656,805.6699 Q2949.4219,805.6699 2949.2188,805.4668 Q2949.0156,805.2793 2948.9063,804.7637 Q2948.8594,804.4043 2948.6719,804.2168 Q2948.3438,803.8418 2947.7344,803.623 Q2947.125,803.4043 2946.5,803.4043 Q2945.7344,803.4043 2945.0938,803.7324 Q2944.4688,804.0605 2943.9688,804.8105 Q2943.4844,805.5605 2943.4844,806.5918 L2943.4844,807.6855 Q2943.4844,808.9199 2944.375,809.748 Q2945.2656,810.5605 2946.8594,810.5605 Q2947.7969,810.5605 2948.4531,810.3105 Q2948.8438,810.1543 2949.2656,809.7168 Q2949.5313,809.4512 2949.6719,809.373 Q2949.8281,809.2949 2950.0313,809.2949 Q2950.3594,809.2949 2950.6094,809.5605 Q2950.875,809.8105 2950.875,810.1543 Q2950.875,810.498 2950.5313,810.9043 Q2950.0313,811.4824 2949.2344,811.8105 Q2948.1563,812.2637 2946.8594,812.2637 Q2945.3438,812.2637 2944.1406,811.6387 Q2943.1563,811.1387 2942.4688,810.0762 Q2941.7813,808.998 2941.7813,807.7168 L2941.7813,806.5605 Q2941.7813,805.2324 2942.3906,804.0918 Q2943.0156,802.9355 2944.1094,802.3262 Q2945.2031,801.7012 2946.4375,801.7012 Q2947.1719,801.7012 2947.8125,801.873 Q2948.4688,802.0293 2949.0156,802.3887 Z " fill="#000000"/><text fill="#000000" font-family="sans-serif" font-size="14" lengthAdjust="spacing" textLength="177" x="2966.75" y="812.3105">GetAgreementDtoConverter</text><line style="stroke:#181818;stroke-width:0.5;" x1="2739.5" x2="3338.5" y1="822.5137" y2="822.5137"/><line style="stroke:#181818;stroke-width:0.5;" x1="2739.5" x2="3338.5" y1="830.5137" y2="830.5137"/><ellipse cx="2749.5" cy="845.3242" fill="#84BE84" rx="3" ry="3" style="stroke:#038048;stroke-width:1.0;"/><text fill="#000000" font-family="sans-serif" font-size="14" lengthAdjust="spacing" textLength="403" x="2758.5" y="849.6211">TravelGetAgreementCoreCommand buildCoreCommand(String)</text><ellipse cx="2749.5" cy="863.9453" fill="#84BE84" rx="3" ry="3" style="stroke:#038048;stroke-width:1.0;"/><text fill="#000000" font-family="sans-serif" font-size="14" lengthAdjust="spacing" textLength="507" x="2758.5" y="868.2422">TravelGetAgreementResponse buildResponse(TravelGetAgreementCoreResult)</text><rect fill="#F24D5C" height="6" style="stroke:#C82930;stroke-width:1.0;" width="6" x="2746.5" y="879.5664"/><text fill="#000000" font-family="sans-serif" font-size="14" lengthAdjust="spacing" textLength="533" x="2758.5" y="886.8633">TravelGetAgreementResponse buildResponseWithErrors(List&lt;ValidationErrorDTO&gt;)</text><rect fill="#F24D5C" height="6" style="stroke:#C82930;stroke-width:1.0;" width="6" x="2746.5" y="898.1875"/><text fill="#000000" font-family="sans-serif" font-size="14" lengthAdjust="spacing" textLength="469" x="2758.5" y="905.4844">List&lt;ValidationError&gt; transformValidationErrors(List&lt;ValidationErrorDTO&gt;)</text><rect fill="#F24D5C" height="6" style="stroke:#C82930;stroke-width:1.0;" width="6" x="2746.5" y="916.8086"/><text fill="#000000" font-family="sans-serif" font-size="14" lengthAdjust="spacing" textLength="575" x="2758.5" y="924.1055">TravelGetAgreementResponse buildSuccessfulResponse(TravelGetAgreementCoreResult)</text><rect fill="#F24D5C" height="6" style="stroke:#C82930;stroke-width:1.0;" width="6" x="2746.5" y="935.4297"/><text fill="#000000" font-family="sans-serif" font-size="14" lengthAdjust="spacing" textLength="400" x="2758.5" y="942.7266">PersonResponseDTO buildPersonFromResponse(PersonDTO)</text></g><!--class JsonSerializer--><g id="elem_JsonSerializer"><rect fill="#F1F1F1" height="48" id="JsonSerializer" rx="2.5" ry="2.5" style="stroke:#181818;stroke-width:0.5;" width="119" x="3225.5" y="178.0137"/><ellipse cx="3240.5" cy="194.0137" fill="#ADD1B2" rx="11" ry="11" style="stroke:#181818;stroke-width:1.0;"/><path d="M3243.2656,189.8887 Q3243.4219,189.6699 3243.6094,189.5605 Q3243.7969,189.4512 3244.0156,189.4512 Q3244.3906,189.4512 3244.625,189.7168 Q3244.8594,189.9668 3244.8594,190.5762 L3244.8594,192.0293 Q3244.8594,192.6387 3244.625,192.9043 Q3244.3906,193.1699 3244.0156,193.1699 Q3243.6719,193.1699 3243.4688,192.9668 Q3243.2656,192.7793 3243.1563,192.2637 Q3243.1094,191.9043 3242.9219,191.7168 Q3242.5938,191.3418 3241.9844,191.123 Q3241.375,190.9043 3240.75,190.9043 Q3239.9844,190.9043 3239.3438,191.2324 Q3238.7188,191.5605 3238.2188,192.3105 Q3237.7344,193.0605 3237.7344,194.0918 L3237.7344,195.1855 Q3237.7344,196.4199 3238.625,197.248 Q3239.5156,198.0605 3241.1094,198.0605 Q3242.0469,198.0605 3242.7031,197.8105 Q3243.0938,197.6543 3243.5156,197.2168 Q3243.7813,196.9512 3243.9219,196.873 Q3244.0781,196.7949 3244.2813,196.7949 Q3244.6094,196.7949 3244.8594,197.0605 Q3245.125,197.3105 3245.125,197.6543 Q3245.125,197.998 3244.7813,198.4043 Q3244.2813,198.9824 3243.4844,199.3105 Q3242.4063,199.7637 3241.1094,199.7637 Q3239.5938,199.7637 3238.3906,199.1387 Q3237.4063,198.6387 3236.7188,197.5762 Q3236.0313,196.498 3236.0313,195.2168 L3236.0313,194.0605 Q3236.0313,192.7324 3236.6406,191.5918 Q3237.2656,190.4355 3238.3594,189.8262 Q3239.4531,189.2012 3240.6875,189.2012 Q3241.4219,189.2012 3242.0625,189.373 Q3242.7188,189.5293 3243.2656,189.8887 Z " fill="#000000"/><text fill="#000000" font-family="sans-serif" font-size="14" lengthAdjust="spacing" textLength="87" x="3254.5" y="199.8105">JsonSerializer</text><line style="stroke:#181818;stroke-width:0.5;" x1="3226.5" x2="3343.5" y1="210.0137" y2="210.0137"/><line style="stroke:#181818;stroke-width:0.5;" x1="3226.5" x2="3343.5" y1="218.0137" y2="218.0137"/></g><!--reverse link CoreResponse to TravelCalculatePremiumResponseV2--><g id="link_CoreResponse_TravelCalculatePremiumResponseV2"><path codeLine="124" d="M1441.6622,636.1471 C1181.9522,640.2371 519.51,654.8337 428,699.0137 C386.58,719.0137 351.48,755.8937 325.49,790.2537 " fill="none" id="CoreResponse-backto-TravelCalculatePremiumResponseV2" style="stroke:#181818;stroke-width:1.0;"/><polygon fill="none" points="1459.66,635.8637,1441.5678,630.1479,1441.7567,642.1464,1459.66,635.8637" style="stroke:#181818;stroke-width:1.0;"/></g><!--reverse link JsonSerializer to BigDecimalSerializer--><g id="link_JsonSerializer_BigDecimalSerializer"><path codeLine="125" d="M3285,244.1037 C3285,315.8037 3285,516.7737 3285,599.9737 " fill="none" id="JsonSerializer-backto-BigDecimalSerializer" style="stroke:#181818;stroke-width:1.0;"/><polygon fill="none" points="3285,226.1037,3279,244.1037,3291,244.1037,3285,226.1037" style="stroke:#181818;stroke-width:1.0;"/></g><!--reverse link CoreResponse to TravelGetAgreementResponse--><g id="link_CoreResponse_TravelGetAgreementResponse"><path codeLine="126" d="M1678.1623,646.5979 C1815.0623,660.1579 2050.34,681.5737 2267,691.0137 C2282.12,691.6737 3343.26,692.6537 3357,699.0137 C3398.5,718.2137 3432.77,755.4737 3457.75,790.2837 " fill="none" id="CoreResponse-backto-TravelGetAgreementResponse" style="stroke:#181818;stroke-width:1.0;"/><polygon fill="none" points="1660.25,644.8237,1677.5709,652.5687,1678.7538,640.6271,1660.25,644.8237" style="stroke:#181818;stroke-width:1.0;"/></g><!--reverse link CoreResponse to TravelCalculatePremiumResponseV1--><g id="link_CoreResponse_TravelCalculatePremiumResponseV1"><path codeLine="127" d="M1560,694.2537 C1560,713.5137 1560,719.5037 1560,743.9537 " fill="none" id="CoreResponse-backto-TravelCalculatePremiumResponseV1" style="stroke:#181818;stroke-width:1.0;"/><polygon fill="none" points="1560,676.2537,1554,694.2537,1566,694.2537,1560,676.2537" style="stroke:#181818;stroke-width:1.0;"/></g><!--SRC=[rLTBRzim3BxdL_YOOAq1vrm4M9Ess11iHHjaPqLcKwrwP9GKxFdV9okouxfERAV9XXv5KNny93_Jb1Ej8uNB-2jPawL56niaQ-0nazeYaHJYrAZuZkcdMmJ1h8X-zSwZUuDCBYDquW_KdI_PSWAK2SAZrKQjzwVNeosjhuVnBQ1MyWxqIaaDazddifkLlxncgCqd8g1wCINryh5ACzc460YIIuRcCJjlLGMaZ1AU9JXbWfafkFWg6Vct8NrtDMNQN9GG6GMDJAIxv3qddAN4C2Ml41MMKuPC4188eXGqHRRAr3k1cyGpBnyJJYrtoOUmx-2R1MtcoScXzcAoH001qcIdQrIYzcAcjgQfijBWZ-PQ-O9iT4QH1WxKGDgv6guB9qRDXsCbru06idgyY-gn6ok4iHA2o3HQMCRJag2_7-xXOAVLlFtdmutH_DpV7OHJiTmC70ZTJ7vXvj4tdUvxz2gjw0PmDCYHhToD8WUVr0yAHUL6pnnyU-sr2_BUKWfQFrZU2O6N7EAjRSHPnnNMDYAdiNrMg-uhri_j-bDuzBveslnT8MckVy2rS3mgUtRdilD6OzqwlB409IwmbgN7cDuIbHRQ5JPzKRgSKpjDS6W7RyCdKj- -dbkrcyA5KXo8Z1w93hFWuMpjpnh6usrszu3C-VePc6EjMEhOACZwMxspZown6v20n2WyspwxHRLcAU2W8xzdj9MScBQI5hIL79-sadz4MybhQ2iv0crL-AUv6g_XeAHJXp7fkaeI7iZZ1apXvzcqlLNQsBCX5GL-cTzRNfXQGFjilyK3Tgc63vT7zDLvxjdyAYsIVxmFwf1Y0igzxrYtZdFBAdlvTXFseFPXCLTrX5hrK2NJPaEdeT4M5Bexj9takJlRW_QzmtvBy-xvlt-bsMxIwxW6NVm-Fp_EQjYZIiGFBYl0xu8xU_J91H-xMfC5ascSRJMb5QYbuvqxr8aIRV4nEnN4pP-Plm00]--></g></svg>