<?xml version="1.0" encoding="us-ascii" standalone="no"?><svg xmlns="http://www.w3.org/2000/svg" xmlns:xlink="http://www.w3.org/1999/xlink" contentStyleType="text/css" height="263.7px" preserveAspectRatio="none" style="width:1803px;height:263px;background:#FFFFFF;" version="1.1" viewBox="0 0 1803 263" width="1803.3px" zoomAndPan="magnify"><defs/><g><!--cluster org--><g id="cluster_org"><path d="M2.55,1.8041 L10.05,1.8041 A1.125,1.125 0 0 1 10.8,2.5541 L12.9,9.1904 L1800.45,9.1904 A0.75,0.75 0 0 1 1801.2,9.9404 L1801.2,260.8541 A0.75,0.75 0 0 1 1800.45,261.6041 L2.55,261.6041 A0.75,0.75 0 0 1 1.8,260.8541 L1.8,2.5541 A0.75,0.75 0 0 1 2.55,1.8041 " fill="none" style="stroke:#000000;stroke-width:0.44999999999999996;"/><line style="stroke:#000000;stroke-width:0.44999999999999996;" x1="1.8" x2="12.9" y1="9.1904" y2="9.1904"/><text fill="#000000" font-family="sans-serif" font-size="4.2" font-weight="bold" lengthAdjust="spacing" textLength="7.2" x="3" y="6.9363">org</text></g><!--cluster javaguru--><g id="cluster_javaguru"><path d="M9.75,114.9041 L28.65,114.9041 A1.125,1.125 0 0 1 29.4,115.6541 L31.5,122.2904 L1793.25,122.2904 A0.75,0.75 0 0 1 1794,123.0404 L1794,253.6541 A0.75,0.75 0 0 1 1793.25,254.4041 L9.75,254.4041 A0.75,0.75 0 0 1 9,253.6541 L9,115.6541 A0.75,0.75 0 0 1 9.75,114.9041 " fill="none" style="stroke:#000000;stroke-width:0.44999999999999996;"/><line style="stroke:#000000;stroke-width:0.44999999999999996;" x1="9" x2="31.5" y1="122.2904" y2="122.2904"/><text fill="#000000" font-family="sans-serif" font-size="4.2" font-weight="bold" lengthAdjust="spacing" textLength="18.6" x="10.2" y="120.0363">javaguru</text></g><!--cluster travel--><g id="cluster_travel"><path d="M16.95,128.4041 L29.55,128.4041 A1.125,1.125 0 0 1 30.3,129.1541 L32.4,135.7904 L1786.05,135.7904 A0.75,0.75 0 0 1 1786.8,136.5404 L1786.8,246.4541 A0.75,0.75 0 0 1 1786.05,247.2041 L16.95,247.2041 A0.75,0.75 0 0 1 16.2,246.4541 L16.2,129.1541 A0.75,0.75 0 0 1 16.95,128.4041 " fill="none" style="stroke:#000000;stroke-width:0.44999999999999996;"/><line style="stroke:#000000;stroke-width:0.44999999999999996;" x1="16.2" x2="32.4" y1="135.7904" y2="135.7904"/><text fill="#000000" font-family="sans-serif" font-size="4.2" font-weight="bold" lengthAdjust="spacing" textLength="12.3" x="17.4" y="133.5363">travel</text></g><!--cluster insurance--><g id="cluster_insurance"><path d="M24.15,141.9041 L45.45,141.9041 A1.125,1.125 0 0 1 46.2,142.6541 L48.3,149.2904 L1778.85,149.2904 A0.75,0.75 0 0 1 1779.6,150.0404 L1779.6,239.2541 A0.75,0.75 0 0 1 1778.85,240.0041 L24.15,240.0041 A0.75,0.75 0 0 1 23.4,239.2541 L23.4,142.6541 A0.75,0.75 0 0 1 24.15,141.9041 " fill="none" style="stroke:#000000;stroke-width:0.44999999999999996;"/><line style="stroke:#000000;stroke-width:0.44999999999999996;" x1="23.4" x2="48.3" y1="149.2904" y2="149.2904"/><text fill="#000000" font-family="sans-serif" font-size="4.2" font-weight="bold" lengthAdjust="spacing" textLength="21" x="24.6" y="147.0363">insurance</text></g><!--cluster core--><g id="cluster_core"><path d="M31.35,155.4041 L41.25,155.4041 A1.125,1.125 0 0 1 42,156.1541 L44.1,162.7904 L1771.65,162.7904 A0.75,0.75 0 0 1 1772.4,163.5404 L1772.4,232.0541 A0.75,0.75 0 0 1 1771.65,232.8041 L31.35,232.8041 A0.75,0.75 0 0 1 30.6,232.0541 L30.6,156.1541 A0.75,0.75 0 0 1 31.35,155.4041 " fill="none" style="stroke:#000000;stroke-width:0.44999999999999996;"/><line style="stroke:#000000;stroke-width:0.44999999999999996;" x1="30.6" x2="44.1" y1="162.7904" y2="162.7904"/><text fill="#000000" font-family="sans-serif" font-size="4.2" font-weight="bold" lengthAdjust="spacing" textLength="9.6" x="31.8" y="160.5363">core</text></g><!--cluster repositories--><g id="cluster_repositories"><path d="M38.55,168.9041 L64.65,168.9041 A1.125,1.125 0 0 1 65.4,169.6541 L67.5,176.2904 L1764.45,176.2904 A0.75,0.75 0 0 1 1765.2,177.0404 L1765.2,224.8541 A0.75,0.75 0 0 1 1764.45,225.6041 L38.55,225.6041 A0.75,0.75 0 0 1 37.8,224.8541 L37.8,169.6541 A0.75,0.75 0 0 1 38.55,168.9041 " fill="none" style="stroke:#000000;stroke-width:0.44999999999999996;"/><line style="stroke:#000000;stroke-width:0.44999999999999996;" x1="37.8" x2="67.5" y1="176.2904" y2="176.2904"/><text fill="#000000" font-family="sans-serif" font-size="4.2" font-weight="bold" lengthAdjust="spacing" textLength="25.8" x="39" y="174.0363">repositories</text></g><!--cluster entities--><g id="cluster_entities"><path d="M1086.75,182.4041 L1102.95,182.4041 A1.125,1.125 0 0 1 1103.7,183.1541 L1105.8,189.7904 L1757.25,189.7904 A0.75,0.75 0 0 1 1758,190.5404 L1758,217.6541 A0.75,0.75 0 0 1 1757.25,218.4041 L1086.75,218.4041 A0.75,0.75 0 0 1 1086,217.6541 L1086,183.1541 A0.75,0.75 0 0 1 1086.75,182.4041 " fill="none" style="stroke:#000000;stroke-width:0.44999999999999996;"/><line style="stroke:#000000;stroke-width:0.44999999999999996;" x1="1086" x2="1105.8" y1="189.7904" y2="189.7904"/><text fill="#000000" font-family="sans-serif" font-size="4.2" font-weight="bold" lengthAdjust="spacing" textLength="15.9" x="1087.2" y="187.5363">entities</text></g><!--cluster springframework--><g id="cluster_springframework"><path d="M850.35,15.3041 L886.35,15.3041 A1.125,1.125 0 0 1 887.1,16.0541 L889.2,22.6904 L938.25,22.6904 A0.75,0.75 0 0 1 939,23.4404 L939,106.9541 A0.75,0.75 0 0 1 938.25,107.7041 L850.35,107.7041 A0.75,0.75 0 0 1 849.6,106.9541 L849.6,16.0541 A0.75,0.75 0 0 1 850.35,15.3041 " fill="none" style="stroke:#000000;stroke-width:0.44999999999999996;"/><line style="stroke:#000000;stroke-width:0.44999999999999996;" x1="849.6" x2="889.2" y1="22.6904" y2="22.6904"/><text fill="#000000" font-family="sans-serif" font-size="4.2" font-weight="bold" lengthAdjust="spacing" textLength="35.7" x="850.8" y="20.4363">springframework</text></g><!--cluster data--><g id="cluster_data"><path d="M857.55,28.8041 L866.85,28.8041 A1.125,1.125 0 0 1 867.6,29.5541 L869.7,36.1904 L931.05,36.1904 A0.75,0.75 0 0 1 931.8,36.9404 L931.8,99.7541 A0.75,0.75 0 0 1 931.05,100.5041 L857.55,100.5041 A0.75,0.75 0 0 1 856.8,99.7541 L856.8,29.5541 A0.75,0.75 0 0 1 857.55,28.8041 " fill="none" style="stroke:#000000;stroke-width:0.44999999999999996;"/><line style="stroke:#000000;stroke-width:0.44999999999999996;" x1="856.8" x2="869.7" y1="36.1904" y2="36.1904"/><text fill="#000000" font-family="sans-serif" font-size="4.2" font-weight="bold" lengthAdjust="spacing" textLength="9" x="858" y="33.9363">data</text></g><!--cluster jpa--><g id="cluster_jpa"><path d="M864.75,42.3041 L871.35,42.3041 A1.125,1.125 0 0 1 872.1,43.0541 L874.2,49.6904 L923.85,49.6904 A0.75,0.75 0 0 1 924.6,50.4404 L924.6,92.5541 A0.75,0.75 0 0 1 923.85,93.3041 L864.75,93.3041 A0.75,0.75 0 0 1 864,92.5541 L864,43.0541 A0.75,0.75 0 0 1 864.75,42.3041 " fill="none" style="stroke:#000000;stroke-width:0.44999999999999996;"/><line style="stroke:#000000;stroke-width:0.44999999999999996;" x1="864" x2="874.2" y1="49.6904" y2="49.6904"/><text fill="#000000" font-family="sans-serif" font-size="4.2" font-weight="bold" lengthAdjust="spacing" textLength="6.3" x="865.2" y="47.4363">jpa</text></g><!--cluster repository--><g id="cluster_repository"><path d="M871.95,55.8041 L893.85,55.8041 A1.125,1.125 0 0 1 894.6,56.5541 L896.7,63.1904 L916.65,63.1904 A0.75,0.75 0 0 1 917.4,63.9404 L917.4,85.3541 A0.75,0.75 0 0 1 916.65,86.1041 L871.95,86.1041 A0.75,0.75 0 0 1 871.2,85.3541 L871.2,56.5541 A0.75,0.75 0 0 1 871.95,55.8041 " fill="none" style="stroke:#000000;stroke-width:0.44999999999999996;"/><line style="stroke:#000000;stroke-width:0.44999999999999996;" x1="871.2" x2="896.7" y1="63.1904" y2="63.1904"/><text fill="#000000" font-family="sans-serif" font-size="4.2" font-weight="bold" lengthAdjust="spacing" textLength="21.6" x="872.4" y="60.9363">repository</text></g><!--class TCAgeCoefficientRepository--><g id="elem_TCAgeCoefficientRepository"><rect codeLine="1" fill="#F1F1F1" height="19.9863" id="TCAgeCoefficientRepository" rx="0.75" ry="0.75" style="stroke:#181818;stroke-width:0.15;" width="106.2" x="974.1" y="193.5041"/><ellipse cx="999.075" cy="198.3041" fill="#B4A7E5" rx="3.3" ry="3.3" style="stroke:#181818;stroke-width:0.3;"/><path d="M999.3609,197.2963 L999.3609,199.2932 L999.8766,199.2932 Q1000.0594,199.2932 1000.1391,199.3635 Q1000.2188,199.4338 1000.2188,199.551 Q1000.2188,199.6635 1000.1391,199.7338 Q1000.0594,199.8041 999.8766,199.8041 L998.3344,199.8041 Q998.1516,199.8041 998.0719,199.7338 Q997.9922,199.6635 997.9922,199.5463 Q997.9922,199.4338 998.0719,199.3635 Q998.1516,199.2932 998.3344,199.2932 L998.85,199.2932 L998.85,197.2963 L998.3344,197.2963 Q998.1516,197.2963 998.0719,197.226 Q997.9922,197.1557 997.9922,197.0385 Q997.9922,196.926 998.0719,196.8557 Q998.1516,196.7854 998.3344,196.7854 L999.8766,196.7854 Q1000.0594,196.7854 1000.1391,196.8557 Q1000.2188,196.926 1000.2188,197.0385 Q1000.2188,197.1557 1000.1391,197.226 Q1000.0594,197.2963 999.8766,197.2963 L999.3609,197.2963 Z " fill="#000000"/><text fill="#000000" font-family="sans-serif" font-size="4.2" font-style="italic" lengthAdjust="spacing" textLength="53.7" x="1005.225" y="200.0432">TCAgeCoefficientRepository</text><line style="stroke:#181818;stroke-width:0.15;" x1="974.4" x2="1080" y1="203.1041" y2="203.1041"/><line style="stroke:#181818;stroke-width:0.15;" x1="974.4" x2="1080" y1="205.5041" y2="205.5041"/><polygon fill="#4177AF" points="977.4,208.7473,976.2,210.5473,978.6,210.5473" style="stroke:#1963A0;stroke-width:0.3;"/><text fill="#000000" font-family="sans-serif" font-size="4.2" lengthAdjust="spacing" textLength="98.4" x="980.1" y="211.2363">Optional&lt;TCAgeCoefficient&gt; findCoefficient(Integer)</text></g><!--class TCCountrySafetyRatingCoefficientRepository--><g id="elem_TCCountrySafetyRatingCoefficientRepository"><rect codeLine="5" fill="#F1F1F1" height="19.9863" id="TCCountrySafetyRatingCoefficientRepository" rx="0.75" ry="0.75" style="stroke:#181818;stroke-width:0.15;" width="138.6" x="825" y="193.5041"/><ellipse cx="850.275" cy="198.3041" fill="#B4A7E5" rx="3.3" ry="3.3" style="stroke:#181818;stroke-width:0.3;"/><path d="M850.5609,197.2963 L850.5609,199.2932 L851.0766,199.2932 Q851.2594,199.2932 851.3391,199.3635 Q851.4187,199.4338 851.4187,199.551 Q851.4187,199.6635 851.3391,199.7338 Q851.2594,199.8041 851.0766,199.8041 L849.5344,199.8041 Q849.3516,199.8041 849.2719,199.7338 Q849.1922,199.6635 849.1922,199.5463 Q849.1922,199.4338 849.2719,199.3635 Q849.3516,199.2932 849.5344,199.2932 L850.05,199.2932 L850.05,197.2963 L849.5344,197.2963 Q849.3516,197.2963 849.2719,197.226 Q849.1922,197.1557 849.1922,197.0385 Q849.1922,196.926 849.2719,196.8557 Q849.3516,196.7854 849.5344,196.7854 L851.0766,196.7854 Q851.2594,196.7854 851.3391,196.8557 Q851.4187,196.926 851.4187,197.0385 Q851.4187,197.1557 851.3391,197.226 Q851.2594,197.2963 851.0766,197.2963 L850.5609,197.2963 Z " fill="#000000"/><text fill="#000000" font-family="sans-serif" font-size="4.2" font-style="italic" lengthAdjust="spacing" textLength="85.5" x="856.425" y="200.0432">TCCountrySafetyRatingCoefficientRepository</text><line style="stroke:#181818;stroke-width:0.15;" x1="825.3" x2="963.3" y1="203.1041" y2="203.1041"/><line style="stroke:#181818;stroke-width:0.15;" x1="825.3" x2="963.3" y1="205.5041" y2="205.5041"/><polygon fill="#4177AF" points="828.3,208.7473,827.1,210.5473,829.5,210.5473" style="stroke:#1963A0;stroke-width:0.3;"/><text fill="#000000" font-family="sans-serif" font-size="4.2" lengthAdjust="spacing" textLength="130.8" x="831" y="211.2363">Optional&lt;TCCountrySafetyRatingCoefficient&gt; findByCountryIc(String)</text></g><!--class TMAgeCoefficientRepository--><g id="elem_TMAgeCoefficientRepository"><rect codeLine="17" fill="#F1F1F1" height="19.9863" id="TMAgeCoefficientRepository" rx="0.75" ry="0.75" style="stroke:#181818;stroke-width:0.15;" width="106.5" x="707.85" y="193.5041"/><ellipse cx="732.675" cy="198.3041" fill="#B4A7E5" rx="3.3" ry="3.3" style="stroke:#181818;stroke-width:0.3;"/><path d="M732.9609,197.2963 L732.9609,199.2932 L733.4766,199.2932 Q733.6594,199.2932 733.7391,199.3635 Q733.8188,199.4338 733.8188,199.551 Q733.8188,199.6635 733.7391,199.7338 Q733.6594,199.8041 733.4766,199.8041 L731.9344,199.8041 Q731.7516,199.8041 731.6719,199.7338 Q731.5922,199.6635 731.5922,199.5463 Q731.5922,199.4338 731.6719,199.3635 Q731.7516,199.2932 731.9344,199.2932 L732.45,199.2932 L732.45,197.2963 L731.9344,197.2963 Q731.7516,197.2963 731.6719,197.226 Q731.5922,197.1557 731.5922,197.0385 Q731.5922,196.926 731.6719,196.8557 Q731.7516,196.7854 731.9344,196.7854 L733.4766,196.7854 Q733.6594,196.7854 733.7391,196.8557 Q733.8188,196.926 733.8188,197.0385 Q733.8188,197.1557 733.7391,197.226 Q733.6594,197.2963 733.4766,197.2963 L732.9609,197.2963 Z " fill="#000000"/><text fill="#000000" font-family="sans-serif" font-size="4.2" font-style="italic" lengthAdjust="spacing" textLength="54.3" x="738.825" y="200.0432">TMAgeCoefficientRepository</text><line style="stroke:#181818;stroke-width:0.15;" x1="708.15" x2="814.05" y1="203.1041" y2="203.1041"/><line style="stroke:#181818;stroke-width:0.15;" x1="708.15" x2="814.05" y1="205.5041" y2="205.5041"/><polygon fill="#4177AF" points="711.15,208.7473,709.95,210.5473,712.35,210.5473" style="stroke:#1963A0;stroke-width:0.3;"/><text fill="#000000" font-family="sans-serif" font-size="4.2" lengthAdjust="spacing" textLength="98.7" x="713.85" y="211.2363">Optional&lt;TMAgeCoefficient&gt; findCoefficient(Integer)</text></g><!--class ClassifierValueRepository--><g id="elem_ClassifierValueRepository"><rect codeLine="21" fill="#F1F1F1" height="19.9863" id="ClassifierValueRepository" rx="0.75" ry="0.75" style="stroke:#181818;stroke-width:0.15;" width="132" x="565.2" y="193.5041"/><ellipse cx="605.625" cy="198.3041" fill="#B4A7E5" rx="3.3" ry="3.3" style="stroke:#181818;stroke-width:0.3;"/><path d="M605.9109,197.2963 L605.9109,199.2932 L606.4266,199.2932 Q606.6094,199.2932 606.6891,199.3635 Q606.7688,199.4338 606.7688,199.551 Q606.7688,199.6635 606.6891,199.7338 Q606.6094,199.8041 606.4266,199.8041 L604.8844,199.8041 Q604.7016,199.8041 604.6219,199.7338 Q604.5422,199.6635 604.5422,199.5463 Q604.5422,199.4338 604.6219,199.3635 Q604.7016,199.2932 604.8844,199.2932 L605.4,199.2932 L605.4,197.2963 L604.8844,197.2963 Q604.7016,197.2963 604.6219,197.226 Q604.5422,197.1557 604.5422,197.0385 Q604.5422,196.926 604.6219,196.8557 Q604.7016,196.7854 604.8844,196.7854 L606.4266,196.7854 Q606.6094,196.7854 606.6891,196.8557 Q606.7688,196.926 606.7688,197.0385 Q606.7688,197.1557 606.6891,197.226 Q606.6094,197.2963 606.4266,197.2963 L605.9109,197.2963 Z " fill="#000000"/><text fill="#000000" font-family="sans-serif" font-size="4.2" font-style="italic" lengthAdjust="spacing" textLength="48.6" x="611.775" y="200.0432">ClassifierValueRepository</text><line style="stroke:#181818;stroke-width:0.15;" x1="565.5" x2="696.9" y1="203.1041" y2="203.1041"/><line style="stroke:#181818;stroke-width:0.15;" x1="565.5" x2="696.9" y1="205.5041" y2="205.5041"/><polygon fill="#4177AF" points="568.5,208.7473,567.3,210.5473,569.7,210.5473" style="stroke:#1963A0;stroke-width:0.3;"/><text fill="#000000" font-family="sans-serif" font-size="4.2" lengthAdjust="spacing" textLength="124.2" x="571.2" y="211.2363">Optional&lt;ClassifierValue&gt; findByClassifierTitleAndIc(String,String)</text></g><!--class TMCountryDefaultDayRateRepository--><g id="elem_TMCountryDefaultDayRateRepository"><rect codeLine="29" fill="#F1F1F1" height="19.9863" id="TMCountryDefaultDayRateRepository" rx="0.75" ry="0.75" style="stroke:#181818;stroke-width:0.15;" width="124.5" x="430.05" y="193.5041"/><ellipse cx="455.175" cy="198.3041" fill="#B4A7E5" rx="3.3" ry="3.3" style="stroke:#181818;stroke-width:0.3;"/><path d="M455.4609,197.2963 L455.4609,199.2932 L455.9766,199.2932 Q456.1594,199.2932 456.2391,199.3635 Q456.3187,199.4338 456.3187,199.551 Q456.3187,199.6635 456.2391,199.7338 Q456.1594,199.8041 455.9766,199.8041 L454.4344,199.8041 Q454.2516,199.8041 454.1719,199.7338 Q454.0922,199.6635 454.0922,199.5463 Q454.0922,199.4338 454.1719,199.3635 Q454.2516,199.2932 454.4344,199.2932 L454.95,199.2932 L454.95,197.2963 L454.4344,197.2963 Q454.2516,197.2963 454.1719,197.226 Q454.0922,197.1557 454.0922,197.0385 Q454.0922,196.926 454.1719,196.8557 Q454.2516,196.7854 454.4344,196.7854 L455.9766,196.7854 Q456.1594,196.7854 456.2391,196.8557 Q456.3187,196.926 456.3187,197.0385 Q456.3187,197.1557 456.2391,197.226 Q456.1594,197.2963 455.9766,197.2963 L455.4609,197.2963 Z " fill="#000000"/><text fill="#000000" font-family="sans-serif" font-size="4.2" font-style="italic" lengthAdjust="spacing" textLength="71.7" x="461.325" y="200.0432">TMCountryDefaultDayRateRepository</text><line style="stroke:#181818;stroke-width:0.15;" x1="430.35" x2="554.25" y1="203.1041" y2="203.1041"/><line style="stroke:#181818;stroke-width:0.15;" x1="430.35" x2="554.25" y1="205.5041" y2="205.5041"/><polygon fill="#4177AF" points="433.35,208.7473,432.15,210.5473,434.55,210.5473" style="stroke:#1963A0;stroke-width:0.3;"/><text fill="#000000" font-family="sans-serif" font-size="4.2" lengthAdjust="spacing" textLength="116.7" x="436.05" y="211.2363">Optional&lt;TMCountryDefaultDayRate&gt; findByCountryIc(String)</text></g><!--class ClassifierRepository--><g id="elem_ClassifierRepository"><rect codeLine="33" fill="#F1F1F1" height="19.9863" id="ClassifierRepository" rx="0.75" ry="0.75" style="stroke:#181818;stroke-width:0.15;" width="81" x="338.4" y="193.5041"/><ellipse cx="358.725" cy="198.3041" fill="#B4A7E5" rx="3.3" ry="3.3" style="stroke:#181818;stroke-width:0.3;"/><path d="M359.0109,197.2963 L359.0109,199.2932 L359.5266,199.2932 Q359.7094,199.2932 359.7891,199.3635 Q359.8688,199.4338 359.8688,199.551 Q359.8688,199.6635 359.7891,199.7338 Q359.7094,199.8041 359.5266,199.8041 L357.9844,199.8041 Q357.8016,199.8041 357.7219,199.7338 Q357.6422,199.6635 357.6422,199.5463 Q357.6422,199.4338 357.7219,199.3635 Q357.8016,199.2932 357.9844,199.2932 L358.5,199.2932 L358.5,197.2963 L357.9844,197.2963 Q357.8016,197.2963 357.7219,197.226 Q357.6422,197.1557 357.6422,197.0385 Q357.6422,196.926 357.7219,196.8557 Q357.8016,196.7854 357.9844,196.7854 L359.5266,196.7854 Q359.7094,196.7854 359.7891,196.8557 Q359.8688,196.926 359.8688,197.0385 Q359.8688,197.1557 359.7891,197.226 Q359.7094,197.2963 359.5266,197.2963 L359.0109,197.2963 Z " fill="#000000"/><text fill="#000000" font-family="sans-serif" font-size="4.2" font-style="italic" lengthAdjust="spacing" textLength="37.8" x="364.875" y="200.0432">ClassifierRepository</text><line style="stroke:#181818;stroke-width:0.15;" x1="338.7" x2="419.1" y1="203.1041" y2="203.1041"/><line style="stroke:#181818;stroke-width:0.15;" x1="338.7" x2="419.1" y1="205.5041" y2="205.5041"/><polygon fill="#4177AF" points="341.7,208.7473,340.5,210.5473,342.9,210.5473" style="stroke:#1963A0;stroke-width:0.3;"/><text fill="#000000" font-family="sans-serif" font-size="4.2" lengthAdjust="spacing" textLength="73.2" x="344.4" y="211.2363">Optional&lt;Classifier&gt; findByTitle(String)</text></g><!--class TMMedicalRiskLimitLevelRepository--><g id="elem_TMMedicalRiskLimitLevelRepository"><rect codeLine="45" fill="#F1F1F1" height="19.9863" id="TMMedicalRiskLimitLevelRepository" rx="0.75" ry="0.75" style="stroke:#181818;stroke-width:0.15;" width="147.3" x="180.45" y="193.5041"/><ellipse cx="218.625" cy="198.3041" fill="#B4A7E5" rx="3.3" ry="3.3" style="stroke:#181818;stroke-width:0.3;"/><path d="M218.9109,197.2963 L218.9109,199.2932 L219.4266,199.2932 Q219.6094,199.2932 219.6891,199.3635 Q219.7687,199.4338 219.7687,199.551 Q219.7687,199.6635 219.6891,199.7338 Q219.6094,199.8041 219.4266,199.8041 L217.8844,199.8041 Q217.7016,199.8041 217.6219,199.7338 Q217.5422,199.6635 217.5422,199.5463 Q217.5422,199.4338 217.6219,199.3635 Q217.7016,199.2932 217.8844,199.2932 L218.4,199.2932 L218.4,197.2963 L217.8844,197.2963 Q217.7016,197.2963 217.6219,197.226 Q217.5422,197.1557 217.5422,197.0385 Q217.5422,196.926 217.6219,196.8557 Q217.7016,196.7854 217.8844,196.7854 L219.4266,196.7854 Q219.6094,196.7854 219.6891,196.8557 Q219.7687,196.926 219.7687,197.0385 Q219.7687,197.1557 219.6891,197.226 Q219.6094,197.2963 219.4266,197.2963 L218.9109,197.2963 Z " fill="#000000"/><text fill="#000000" font-family="sans-serif" font-size="4.2" font-style="italic" lengthAdjust="spacing" textLength="68.4" x="224.775" y="200.0432">TMMedicalRiskLimitLevelRepository</text><line style="stroke:#181818;stroke-width:0.15;" x1="180.75" x2="327.45" y1="203.1041" y2="203.1041"/><line style="stroke:#181818;stroke-width:0.15;" x1="180.75" x2="327.45" y1="205.5041" y2="205.5041"/><polygon fill="#4177AF" points="183.75,208.7473,182.55,210.5473,184.95,210.5473" style="stroke:#1963A0;stroke-width:0.3;"/><text fill="#000000" font-family="sans-serif" font-size="4.2" lengthAdjust="spacing" textLength="139.5" x="186.45" y="211.2363">Optional&lt;TMMedicalRiskLimitLevel&gt; findByMedicalRiskLimitLevelIc(String)</text></g><!--class TCTravelCostCoefficientRepository--><g id="elem_TCTravelCostCoefficientRepository"><rect codeLine="49" fill="#F1F1F1" height="19.9863" id="TCTravelCostCoefficientRepository" rx="0.75" ry="0.75" style="stroke:#181818;stroke-width:0.15;" width="127.2" x="42.6" y="193.5041"/><ellipse cx="71.625" cy="198.3041" fill="#B4A7E5" rx="3.3" ry="3.3" style="stroke:#181818;stroke-width:0.3;"/><path d="M71.9109,197.2963 L71.9109,199.2932 L72.4266,199.2932 Q72.6094,199.2932 72.6891,199.3635 Q72.7688,199.4338 72.7688,199.551 Q72.7688,199.6635 72.6891,199.7338 Q72.6094,199.8041 72.4266,199.8041 L70.8844,199.8041 Q70.7016,199.8041 70.6219,199.7338 Q70.5422,199.6635 70.5422,199.5463 Q70.5422,199.4338 70.6219,199.3635 Q70.7016,199.2932 70.8844,199.2932 L71.4,199.2932 L71.4,197.2963 L70.8844,197.2963 Q70.7016,197.2963 70.6219,197.226 Q70.5422,197.1557 70.5422,197.0385 Q70.5422,196.926 70.6219,196.8557 Q70.7016,196.7854 70.8844,196.7854 L72.4266,196.7854 Q72.6094,196.7854 72.6891,196.8557 Q72.7688,196.926 72.7688,197.0385 Q72.7688,197.1557 72.6891,197.226 Q72.6094,197.2963 72.4266,197.2963 L71.9109,197.2963 Z " fill="#000000"/><text fill="#000000" font-family="sans-serif" font-size="4.2" font-style="italic" lengthAdjust="spacing" textLength="66.6" x="77.775" y="200.0432">TCTravelCostCoefficientRepository</text><line style="stroke:#181818;stroke-width:0.15;" x1="42.9" x2="169.5" y1="203.1041" y2="203.1041"/><line style="stroke:#181818;stroke-width:0.15;" x1="42.9" x2="169.5" y1="205.5041" y2="205.5041"/><polygon fill="#4177AF" points="45.9,208.7473,44.7,210.5473,47.1,210.5473" style="stroke:#1963A0;stroke-width:0.3;"/><text fill="#000000" font-family="sans-serif" font-size="4.2" lengthAdjust="spacing" textLength="119.4" x="48.6" y="211.2363">Optional&lt;TCTravelCostCoefficient&gt; findCoefficient(BigDecimal)</text></g><!--class AgreementEntityRepository--><g id="elem_AgreementEntityRepository"><rect codeLine="9" fill="#F1F1F1" height="19.9863" id="AgreementEntityRepository" rx="0.75" ry="0.75" style="stroke:#181818;stroke-width:0.15;" width="95.1" x="1657.95" y="193.5041"/><ellipse cx="1678.425" cy="198.3041" fill="#B4A7E5" rx="3.3" ry="3.3" style="stroke:#181818;stroke-width:0.3;"/><path d="M1678.7109,197.2963 L1678.7109,199.2932 L1679.2266,199.2932 Q1679.4094,199.2932 1679.4891,199.3635 Q1679.5688,199.4338 1679.5688,199.551 Q1679.5688,199.6635 1679.4891,199.7338 Q1679.4094,199.8041 1679.2266,199.8041 L1677.6844,199.8041 Q1677.5016,199.8041 1677.4219,199.7338 Q1677.3422,199.6635 1677.3422,199.5463 Q1677.3422,199.4338 1677.4219,199.3635 Q1677.5016,199.2932 1677.6844,199.2932 L1678.2,199.2932 L1678.2,197.2963 L1677.6844,197.2963 Q1677.5016,197.2963 1677.4219,197.226 Q1677.3422,197.1557 1677.3422,197.0385 Q1677.3422,196.926 1677.4219,196.8557 Q1677.5016,196.7854 1677.6844,196.7854 L1679.2266,196.7854 Q1679.4094,196.7854 1679.4891,196.8557 Q1679.5688,196.926 1679.5688,197.0385 Q1679.5688,197.1557 1679.4891,197.226 Q1679.4094,197.2963 1679.2266,197.2963 L1678.7109,197.2963 Z " fill="#000000"/><text fill="#000000" font-family="sans-serif" font-size="4.2" font-style="italic" lengthAdjust="spacing" textLength="51.6" x="1684.575" y="200.0432">AgreementEntityRepository</text><line style="stroke:#181818;stroke-width:0.15;" x1="1658.25" x2="1752.75" y1="203.1041" y2="203.1041"/><line style="stroke:#181818;stroke-width:0.15;" x1="1658.25" x2="1752.75" y1="205.5041" y2="205.5041"/><polygon fill="#4177AF" points="1661.25,208.7473,1660.05,210.5473,1662.45,210.5473" style="stroke:#1963A0;stroke-width:0.3;"/><text fill="#000000" font-family="sans-serif" font-size="4.2" lengthAdjust="spacing" textLength="87.3" x="1663.95" y="211.2363">Optional&lt;AgreementEntity&gt; findByUuid(String)</text></g><!--class AgreementPersonEntityRepository--><g id="elem_AgreementPersonEntityRepository"><rect codeLine="13" fill="#F1F1F1" height="19.9863" id="AgreementPersonEntityRepository" rx="0.75" ry="0.75" style="stroke:#181818;stroke-width:0.15;" width="131.7" x="1515.75" y="193.5041"/><ellipse cx="1547.775" cy="198.3041" fill="#B4A7E5" rx="3.3" ry="3.3" style="stroke:#181818;stroke-width:0.3;"/><path d="M1548.0609,197.2963 L1548.0609,199.2932 L1548.5766,199.2932 Q1548.7594,199.2932 1548.8391,199.3635 Q1548.9188,199.4338 1548.9188,199.551 Q1548.9188,199.6635 1548.8391,199.7338 Q1548.7594,199.8041 1548.5766,199.8041 L1547.0344,199.8041 Q1546.8516,199.8041 1546.7719,199.7338 Q1546.6922,199.6635 1546.6922,199.5463 Q1546.6922,199.4338 1546.7719,199.3635 Q1546.8516,199.2932 1547.0344,199.2932 L1547.55,199.2932 L1547.55,197.2963 L1547.0344,197.2963 Q1546.8516,197.2963 1546.7719,197.226 Q1546.6922,197.1557 1546.6922,197.0385 Q1546.6922,196.926 1546.7719,196.8557 Q1546.8516,196.7854 1547.0344,196.7854 L1548.5766,196.7854 Q1548.7594,196.7854 1548.8391,196.8557 Q1548.9188,196.926 1548.9188,197.0385 Q1548.9188,197.1557 1548.8391,197.226 Q1548.7594,197.2963 1548.5766,197.2963 L1548.0609,197.2963 Z " fill="#000000"/><text fill="#000000" font-family="sans-serif" font-size="4.2" font-style="italic" lengthAdjust="spacing" textLength="65.1" x="1553.925" y="200.0432">AgreementPersonEntityRepository</text><line style="stroke:#181818;stroke-width:0.15;" x1="1516.05" x2="1647.15" y1="203.1041" y2="203.1041"/><line style="stroke:#181818;stroke-width:0.15;" x1="1516.05" x2="1647.15" y1="205.5041" y2="205.5041"/><polygon fill="#4177AF" points="1519.05,208.7473,1517.85,210.5473,1520.25,210.5473" style="stroke:#1963A0;stroke-width:0.3;"/><text fill="#000000" font-family="sans-serif" font-size="4.2" lengthAdjust="spacing" textLength="123.9" x="1521.75" y="211.2363">List&lt;AgreementPersonEntity&gt; findByAgreement(AgreementEntity)</text></g><!--class AgreementPersonRiskEntityRepository--><g id="elem_AgreementPersonRiskEntityRepository"><rect codeLine="25" fill="#F1F1F1" height="19.9863" id="AgreementPersonRiskEntityRepository" rx="0.75" ry="0.75" style="stroke:#181818;stroke-width:0.15;" width="166.8" x="1338.3" y="193.5041"/><ellipse cx="1383.675" cy="198.3041" fill="#B4A7E5" rx="3.3" ry="3.3" style="stroke:#181818;stroke-width:0.3;"/><path d="M1383.9609,197.2963 L1383.9609,199.2932 L1384.4766,199.2932 Q1384.6594,199.2932 1384.7391,199.3635 Q1384.8188,199.4338 1384.8188,199.551 Q1384.8188,199.6635 1384.7391,199.7338 Q1384.6594,199.8041 1384.4766,199.8041 L1382.9344,199.8041 Q1382.7516,199.8041 1382.6719,199.7338 Q1382.5922,199.6635 1382.5922,199.5463 Q1382.5922,199.4338 1382.6719,199.3635 Q1382.7516,199.2932 1382.9344,199.2932 L1383.45,199.2932 L1383.45,197.2963 L1382.9344,197.2963 Q1382.7516,197.2963 1382.6719,197.226 Q1382.5922,197.1557 1382.5922,197.0385 Q1382.5922,196.926 1382.6719,196.8557 Q1382.7516,196.7854 1382.9344,196.7854 L1384.4766,196.7854 Q1384.6594,196.7854 1384.7391,196.8557 Q1384.8188,196.926 1384.8188,197.0385 Q1384.8188,197.1557 1384.7391,197.226 Q1384.6594,197.2963 1384.4766,197.2963 L1383.9609,197.2963 Z " fill="#000000"/><text fill="#000000" font-family="sans-serif" font-size="4.2" font-style="italic" lengthAdjust="spacing" textLength="73.5" x="1389.825" y="200.0432">AgreementPersonRiskEntityRepository</text><line style="stroke:#181818;stroke-width:0.15;" x1="1338.6" x2="1504.8" y1="203.1041" y2="203.1041"/><line style="stroke:#181818;stroke-width:0.15;" x1="1338.6" x2="1504.8" y1="205.5041" y2="205.5041"/><polygon fill="#4177AF" points="1341.6,208.7473,1340.4,210.5473,1342.8,210.5473" style="stroke:#1963A0;stroke-width:0.3;"/><text fill="#000000" font-family="sans-serif" font-size="4.2" lengthAdjust="spacing" textLength="159" x="1344.3" y="211.2363">List&lt;AgreementPersonRiskEntity&gt; findByAgreementPerson(AgreementPersonEntity)</text></g><!--class SelectedRiskEntityRepository--><g id="elem_SelectedRiskEntityRepository"><rect codeLine="37" fill="#F1F1F1" height="19.9863" id="SelectedRiskEntityRepository" rx="0.75" ry="0.75" style="stroke:#181818;stroke-width:0.15;" width="122.1" x="1205.55" y="193.5041"/><ellipse cx="1237.425" cy="198.3041" fill="#B4A7E5" rx="3.3" ry="3.3" style="stroke:#181818;stroke-width:0.3;"/><path d="M1237.7109,197.2963 L1237.7109,199.2932 L1238.2266,199.2932 Q1238.4094,199.2932 1238.4891,199.3635 Q1238.5688,199.4338 1238.5688,199.551 Q1238.5688,199.6635 1238.4891,199.7338 Q1238.4094,199.8041 1238.2266,199.8041 L1236.6844,199.8041 Q1236.5016,199.8041 1236.4219,199.7338 Q1236.3422,199.6635 1236.3422,199.5463 Q1236.3422,199.4338 1236.4219,199.3635 Q1236.5016,199.2932 1236.6844,199.2932 L1237.2,199.2932 L1237.2,197.2963 L1236.6844,197.2963 Q1236.5016,197.2963 1236.4219,197.226 Q1236.3422,197.1557 1236.3422,197.0385 Q1236.3422,196.926 1236.4219,196.8557 Q1236.5016,196.7854 1236.6844,196.7854 L1238.2266,196.7854 Q1238.4094,196.7854 1238.4891,196.8557 Q1238.5688,196.926 1238.5688,197.0385 Q1238.5688,197.1557 1238.4891,197.226 Q1238.4094,197.2963 1238.2266,197.2963 L1237.7109,197.2963 Z " fill="#000000"/><text fill="#000000" font-family="sans-serif" font-size="4.2" font-style="italic" lengthAdjust="spacing" textLength="55.8" x="1243.575" y="200.0432">SelectedRiskEntityRepository</text><line style="stroke:#181818;stroke-width:0.15;" x1="1205.85" x2="1327.35" y1="203.1041" y2="203.1041"/><line style="stroke:#181818;stroke-width:0.15;" x1="1205.85" x2="1327.35" y1="205.5041" y2="205.5041"/><polygon fill="#4177AF" points="1208.85,208.7473,1207.65,210.5473,1210.05,210.5473" style="stroke:#1963A0;stroke-width:0.3;"/><text fill="#000000" font-family="sans-serif" font-size="4.2" lengthAdjust="spacing" textLength="114.3" x="1211.55" y="211.2363">List&lt;SelectedRiskEntity&gt; findByAgreement(AgreementEntity)</text></g><!--class PersonEntityRepository--><g id="elem_PersonEntityRepository"><rect codeLine="41" fill="#F1F1F1" height="19.9863" id="PersonEntityRepository" rx="0.75" ry="0.75" style="stroke:#181818;stroke-width:0.15;" width="104.1" x="1090.95" y="193.5041"/><ellipse cx="1119.525" cy="198.3041" fill="#B4A7E5" rx="3.3" ry="3.3" style="stroke:#181818;stroke-width:0.3;"/><path d="M1119.8109,197.2963 L1119.8109,199.2932 L1120.3266,199.2932 Q1120.5094,199.2932 1120.5891,199.3635 Q1120.6688,199.4338 1120.6688,199.551 Q1120.6688,199.6635 1120.5891,199.7338 Q1120.5094,199.8041 1120.3266,199.8041 L1118.7844,199.8041 Q1118.6016,199.8041 1118.5219,199.7338 Q1118.4422,199.6635 1118.4422,199.5463 Q1118.4422,199.4338 1118.5219,199.3635 Q1118.6016,199.2932 1118.7844,199.2932 L1119.3,199.2932 L1119.3,197.2963 L1118.7844,197.2963 Q1118.6016,197.2963 1118.5219,197.226 Q1118.4422,197.1557 1118.4422,197.0385 Q1118.4422,196.926 1118.5219,196.8557 Q1118.6016,196.7854 1118.7844,196.7854 L1120.3266,196.7854 Q1120.5094,196.7854 1120.5891,196.8557 Q1120.6688,196.926 1120.6688,197.0385 Q1120.6688,197.1557 1120.5891,197.226 Q1120.5094,197.2963 1120.3266,197.2963 L1119.8109,197.2963 Z " fill="#000000"/><text fill="#000000" font-family="sans-serif" font-size="4.2" font-style="italic" lengthAdjust="spacing" textLength="44.4" x="1125.675" y="200.0432">PersonEntityRepository</text><line style="stroke:#181818;stroke-width:0.15;" x1="1091.25" x2="1194.75" y1="203.1041" y2="203.1041"/><line style="stroke:#181818;stroke-width:0.15;" x1="1091.25" x2="1194.75" y1="205.5041" y2="205.5041"/><polygon fill="#4177AF" points="1094.25,208.7473,1093.05,210.5473,1095.45,210.5473" style="stroke:#1963A0;stroke-width:0.3;"/><text fill="#000000" font-family="sans-serif" font-size="4.2" lengthAdjust="spacing" textLength="96.3" x="1096.95" y="211.2363">Optional&lt;PersonEntity&gt; findBy(String,String,String)</text></g><!--class JpaRepository--><g id="elem_JpaRepository"><rect fill="#F1F1F1" height="14.4" id="JpaRepository" rx="0.75" ry="0.75" style="stroke:#181818;stroke-width:0.15;" width="36.6" x="876" y="66.9041"/><ellipse cx="880.5" cy="71.7041" fill="#ADD1B2" rx="3.3" ry="3.3" style="stroke:#181818;stroke-width:0.3;"/><path d="M881.3297,70.4666 Q881.3766,70.401 881.4328,70.3682 Q881.4891,70.3354 881.5547,70.3354 Q881.6672,70.3354 881.7375,70.415 Q881.8078,70.49 881.8078,70.6729 L881.8078,71.1088 Q881.8078,71.2916 881.7375,71.3713 Q881.6672,71.451 881.5547,71.451 Q881.4516,71.451 881.3906,71.39 Q881.3297,71.3338 881.2969,71.1791 Q881.2828,71.0713 881.2266,71.015 Q881.1281,70.9025 880.9453,70.8369 Q880.7625,70.7713 880.575,70.7713 Q880.3453,70.7713 880.1531,70.8697 Q879.9656,70.9682 879.8156,71.1932 Q879.6703,71.4182 879.6703,71.7275 L879.6703,72.0557 Q879.6703,72.426 879.9375,72.6744 Q880.2047,72.9182 880.6828,72.9182 Q880.9641,72.9182 881.1609,72.8432 Q881.2781,72.7963 881.4047,72.665 Q881.4844,72.5854 881.5266,72.5619 Q881.5734,72.5385 881.6344,72.5385 Q881.7328,72.5385 881.8078,72.6182 Q881.8875,72.6932 881.8875,72.7963 Q881.8875,72.8994 881.7844,73.0213 Q881.6344,73.1947 881.3953,73.2932 Q881.0719,73.4291 880.6828,73.4291 Q880.2281,73.4291 879.8672,73.2416 Q879.5719,73.0916 879.3656,72.7729 Q879.1594,72.4494 879.1594,72.065 L879.1594,71.7182 Q879.1594,71.3197 879.3422,70.9775 Q879.5297,70.6307 879.8578,70.4479 Q880.1859,70.2604 880.5563,70.2604 Q880.7766,70.2604 880.9688,70.3119 Q881.1656,70.3588 881.3297,70.4666 Z " fill="#000000"/><text fill="#000000" font-family="sans-serif" font-size="4.2" lengthAdjust="spacing" textLength="27" x="884.7" y="73.4432">JpaRepository</text><line style="stroke:#181818;stroke-width:0.15;" x1="876.3" x2="912.3" y1="76.5041" y2="76.5041"/><line style="stroke:#181818;stroke-width:0.15;" x1="876.3" x2="912.3" y1="78.9041" y2="78.9041"/></g><!--reverse link JpaRepository to TCAgeCoefficientRepository--><g id="link_JpaRepository_TCAgeCoefficientRepository"><path codeLine="55" d="M917.7186,82.5414 C933.9276,88.7124 952.44,97.5011 969,112.5041 C995.562,136.5701 1014.951,175.4111 1023.036,193.4561 " fill="none" id="JpaRepository-backto-TCAgeCoefficientRepository" style="stroke:#181818;stroke-width:0.3;"/><polygon fill="none" points="912.672,80.6201,917.0782,84.2236,918.3591,80.8592,912.672,80.6201" style="stroke:#181818;stroke-width:0.3;"/></g><!--reverse link JpaRepository to TCCountrySafetyRatingCoefficientRepository--><g id="link_JpaRepository_TCCountrySafetyRatingCoefficientRepository"><path codeLine="56" d="M894.3,86.7311 C894.3,108.2411 894.3,168.5321 894.3,193.4921 " fill="none" id="JpaRepository-backto-TCCountrySafetyRatingCoefficientRepository" style="stroke:#181818;stroke-width:0.3;"/><polygon fill="none" points="894.3,81.3311,892.5,86.7311,896.1,86.7311,894.3,81.3311" style="stroke:#181818;stroke-width:0.3;"/></g><!--reverse link JpaRepository to AgreementEntityRepository--><g id="link_JpaRepository_AgreementEntityRepository"><path codeLine="57" d="M918.0359,74.2633 C1027.5869,73.7203 1587.66,72.8921 1652.7,112.5041 C1683.057,130.9931 1697.802,173.9681 1703.106,193.4021 " fill="none" id="JpaRepository-backto-AgreementEntityRepository" style="stroke:#181818;stroke-width:0.3;"/><polygon fill="none" points="912.636,74.2901,918.0449,76.0633,918.027,72.4634,912.636,74.2901" style="stroke:#181818;stroke-width:0.3;"/></g><!--reverse link JpaRepository to AgreementPersonEntityRepository--><g id="link_JpaRepository_AgreementPersonEntityRepository"><path codeLine="58" d="M918.0234,74.7256 C1014.5574,76.1296 1456.377,84.0521 1510.5,112.5041 C1545.135,130.7111 1568.337,174.0341 1577.367,193.4951 " fill="none" id="JpaRepository-backto-AgreementPersonEntityRepository" style="stroke:#181818;stroke-width:0.3;"/><polygon fill="none" points="912.624,74.6471,917.9973,76.5254,918.0496,72.9258,912.624,74.6471" style="stroke:#181818;stroke-width:0.3;"/></g><!--reverse link JpaRepository to TMAgeCoefficientRepository--><g id="link_JpaRepository_TMAgeCoefficientRepository"><path codeLine="59" d="M870.8994,82.6232 C854.7714,88.8212 836.403,97.5971 819.9,112.5041 C793.221,136.6001 773.553,175.4291 765.336,193.4621 " fill="none" id="JpaRepository-backto-TMAgeCoefficientRepository" style="stroke:#181818;stroke-width:0.3;"/><polygon fill="none" points="875.94,80.6861,870.2537,80.943,871.5451,84.3034,875.94,80.6861" style="stroke:#181818;stroke-width:0.3;"/></g><!--reverse link JpaRepository to ClassifierValueRepository--><g id="link_JpaRepository_ClassifierValueRepository"><path codeLine="60" d="M870.6117,77.0307 C828.5367,81.8907 731.76,94.6181 702.6,112.5041 C669.447,132.8381 645.537,174.4691 635.901,193.4411 " fill="none" id="JpaRepository-backto-ClassifierValueRepository" style="stroke:#181818;stroke-width:0.3;"/><polygon fill="none" points="875.976,76.4111,870.4051,75.2426,870.8182,78.8188,875.976,76.4111" style="stroke:#181818;stroke-width:0.3;"/></g><!--reverse link JpaRepository to AgreementPersonRiskEntityRepository--><g id="link_JpaRepository_AgreementPersonRiskEntityRepository"><path codeLine="61" d="M918.018,74.3176 C991.164,74.2426 1256.625,76.4591 1332.9,112.5041 C1371.762,130.8701 1402.944,173.9111 1415.598,193.3811 " fill="none" id="JpaRepository-backto-AgreementPersonRiskEntityRepository" style="stroke:#181818;stroke-width:0.3;"/><polygon fill="none" points="912.618,74.3231,918.0198,76.1176,918.0162,72.5176,912.618,74.3231" style="stroke:#181818;stroke-width:0.3;"/></g><!--reverse link JpaRepository to TMCountryDefaultDayRateRepository--><g id="link_JpaRepository_TMCountryDefaultDayRateRepository"><path codeLine="62" d="M870.5497,74.6966 C808.7857,75.6746 614.664,81.1661 560.1,112.5041 C526.929,131.5541 505.026,174.0431 496.416,193.3571 " fill="none" id="JpaRepository-backto-TMCountryDefaultDayRateRepository" style="stroke:#181818;stroke-width:0.3;"/><polygon fill="none" points="875.949,74.6111,870.5212,72.8968,870.5782,76.4964,875.949,74.6111" style="stroke:#181818;stroke-width:0.3;"/></g><!--reverse link JpaRepository to ClassifierRepository--><g id="link_JpaRepository_ClassifierRepository"><path codeLine="63" d="M870.5088,74.9833 C788.3658,77.0863 462.81,86.9591 424.8,112.5041 C396.3,131.6591 384.609,174.0941 380.64,193.3751 " fill="none" id="JpaRepository-backto-ClassifierRepository" style="stroke:#181818;stroke-width:0.3;"/><polygon fill="none" points="875.907,74.8451,870.4627,73.1839,870.5548,76.7827,875.907,74.8451" style="stroke:#181818;stroke-width:0.3;"/></g><!--reverse link JpaRepository to SelectedRiskEntityRepository--><g id="link_JpaRepository_SelectedRiskEntityRepository"><path codeLine="64" d="M918.0251,74.9512 C976.3001,76.5172 1151.016,83.5061 1200.3,112.5041 C1233.009,131.7491 1254.288,174.1361 1262.622,193.3901 " fill="none" id="JpaRepository-backto-SelectedRiskEntityRepository" style="stroke:#181818;stroke-width:0.3;"/><polygon fill="none" points="912.627,74.8061,917.9767,76.7505,918.0734,73.1518,912.627,74.8061" style="stroke:#181818;stroke-width:0.3;"/></g><!--reverse link JpaRepository to PersonEntityRepository--><g id="link_JpaRepository_PersonEntityRepository"><path codeLine="65" d="M917.99,76.5643 C960.944,80.7133 1061.328,92.2391 1089.9,112.5041 C1118.787,132.9911 1134.387,174.5441 1140.249,193.4681 " fill="none" id="JpaRepository-backto-PersonEntityRepository" style="stroke:#181818;stroke-width:0.3;"/><polygon fill="none" points="912.615,76.0451,917.8169,78.3559,918.163,74.7726,912.615,76.0451" style="stroke:#181818;stroke-width:0.3;"/></g><!--reverse link JpaRepository to TMMedicalRiskLimitLevelRepository--><g id="link_JpaRepository_TMMedicalRiskLimitLevelRepository"><path codeLine="66" d="M870.5445,74.9469 C779.3565,77.1219 382.872,87.9101 333.3,112.5041 C296.676,130.6721 269.802,174.0161 259.143,193.4891 " fill="none" id="JpaRepository-backto-TMMedicalRiskLimitLevelRepository" style="stroke:#181818;stroke-width:0.3;"/><polygon fill="none" points="875.943,74.8181,870.5016,73.1474,870.5875,76.7464,875.943,74.8181" style="stroke:#181818;stroke-width:0.3;"/></g><!--reverse link JpaRepository to TCTravelCostCoefficientRepository--><g id="link_JpaRepository_TCTravelCostCoefficientRepository"><path codeLine="67" d="M870.555,74.4839 C764.595,74.9309 238.821,78.8291 175.2,112.5041 C141.003,130.6061 118.797,173.9861 110.211,193.4771 " fill="none" id="JpaRepository-backto-TCTravelCostCoefficientRepository" style="stroke:#181818;stroke-width:0.3;"/><polygon fill="none" points="875.955,74.4611,870.5475,72.6839,870.5626,76.2839,875.955,74.4611" style="stroke:#181818;stroke-width:0.3;"/></g><!--SRC=[pPR1RgCm48RlF4MEgRJr4qILKhA7La5T9RJt4GneKiT6zj0Lsjq-Uo4jf9kOW9I4v0RsR_ZaVtwFIJ6Q128SQPEA5Rn1cfjSi84tb8AKpGse24Ma3Gg3cRR4sX1Q4VhJ57sDIK8HeU95FLcC_dZlewUCIIkGartTtIWX5NyR63-K32cQ6- -Vvz4HFBxE5PjY2GboiG0cbVRYExpka_U- -58zHECbcr9o96xvPUBgOPeQn7Nv-hCQATemTsGrrNDEyRc0Vg6nMZcnvcHvuXJMOCtaU8VyM9k3dcKN35DslWHhAI4qBo1pRCFPaJL5rGo7n1AdAcxgwyTPNLsGVUtjx5Qyv-wdOEmiXQET_ehS31F89S-W2YUs6-wKdoc-M-Ew7QyHDXQVEAnBb1WnneVzt5UTEwODu853fDagr_dnVmfE4uOm232c26Ir3tDQ4y-nNDDUKKvvJUYSF5LzXNwu4VdQSgycvfJl7thtbCumeZN83Q3dLM0sguWJ0slyhSshY851h3BO8XNYCODlFv_ylRqzuOrXM8g-zuGXgRgl0vUbSSTuKD-2QwYUrdP_3VQuci2m5dLqxCiuTM6J3hNeYm1TGvOx6l6m3Q6ZrNu0]--></g></svg>