<?xml version="1.0" encoding="us-ascii" standalone="no"?><svg xmlns="http://www.w3.org/2000/svg" xmlns:xlink="http://www.w3.org/1999/xlink" contentStyleType="text/css" height="829.8px" preserveAspectRatio="none" style="width:4488px;height:829px;background:#FFFFFF;" version="1.1" viewBox="0 0 4488 829" width="4488.3px" zoomAndPan="magnify"><defs/><g><!--cluster org--><g id="cluster_org"><path d="M7.65,5.4123 L30.15,5.4123 A3.375,3.375 0 0 1 32.4,7.6623 L38.7,27.5713 L4479.75,27.5713 A2.25,2.25 0 0 1 4482,29.8213 L4482,821.2623 A2.25,2.25 0 0 1 4479.75,823.5123 L7.65,823.5123 A2.25,2.25 0 0 1 5.4,821.2623 L5.4,7.6623 A2.25,2.25 0 0 1 7.65,5.4123 " fill="none" style="stroke:#000000;stroke-width:1.35;"/><line style="stroke:#000000;stroke-width:1.35;" x1="5.4" x2="38.7" y1="27.5713" y2="27.5713"/><text fill="#000000" font-family="sans-serif" font-size="12.6" font-weight="bold" lengthAdjust="spacing" textLength="21.6" x="9" y="20.809">org</text></g><!--cluster javaguru--><g id="cluster_javaguru"><path d="M29.25,45.9123 L85.95,45.9123 A3.375,3.375 0 0 1 88.2,48.1623 L94.5,68.0713 L4458.15,68.0713 A2.25,2.25 0 0 1 4460.4,70.3213 L4460.4,799.6623 A2.25,2.25 0 0 1 4458.15,801.9123 L29.25,801.9123 A2.25,2.25 0 0 1 27,799.6623 L27,48.1623 A2.25,2.25 0 0 1 29.25,45.9123 " fill="none" style="stroke:#000000;stroke-width:1.35;"/><line style="stroke:#000000;stroke-width:1.35;" x1="27" x2="94.5" y1="68.0713" y2="68.0713"/><text fill="#000000" font-family="sans-serif" font-size="12.6" font-weight="bold" lengthAdjust="spacing" textLength="55.8" x="30.6" y="61.309">javaguru</text></g><!--cluster travel--><g id="cluster_travel"><path d="M50.85,86.4123 L88.65,86.4123 A3.375,3.375 0 0 1 90.9,88.6623 L97.2,108.5713 L4436.55,108.5713 A2.25,2.25 0 0 1 4438.8,110.8213 L4438.8,778.0623 A2.25,2.25 0 0 1 4436.55,780.3123 L50.85,780.3123 A2.25,2.25 0 0 1 48.6,778.0623 L48.6,88.6623 A2.25,2.25 0 0 1 50.85,86.4123 " fill="none" style="stroke:#000000;stroke-width:1.35;"/><line style="stroke:#000000;stroke-width:1.35;" x1="48.6" x2="97.2" y1="108.5713" y2="108.5713"/><text fill="#000000" font-family="sans-serif" font-size="12.6" font-weight="bold" lengthAdjust="spacing" textLength="36.9" x="52.2" y="101.809">travel</text></g><!--cluster insurance--><g id="cluster_insurance"><path d="M72.45,126.9123 L136.35,126.9123 A3.375,3.375 0 0 1 138.6,129.1623 L144.9,149.0713 L4414.95,149.0713 A2.25,2.25 0 0 1 4417.2,151.3213 L4417.2,756.4623 A2.25,2.25 0 0 1 4414.95,758.7123 L72.45,758.7123 A2.25,2.25 0 0 1 70.2,756.4623 L70.2,129.1623 A2.25,2.25 0 0 1 72.45,126.9123 " fill="none" style="stroke:#000000;stroke-width:1.35;"/><line style="stroke:#000000;stroke-width:1.35;" x1="70.2" x2="144.9" y1="149.0713" y2="149.0713"/><text fill="#000000" font-family="sans-serif" font-size="12.6" font-weight="bold" lengthAdjust="spacing" textLength="63" x="73.8" y="142.309">insurance</text></g><!--cluster core--><g id="cluster_core"><path d="M94.05,167.4123 L123.75,167.4123 A3.375,3.375 0 0 1 126,169.6623 L132.3,189.5713 L4393.35,189.5713 A2.25,2.25 0 0 1 4395.6,191.8213 L4395.6,734.8623 A2.25,2.25 0 0 1 4393.35,737.1123 L94.05,737.1123 A2.25,2.25 0 0 1 91.8,734.8623 L91.8,169.6623 A2.25,2.25 0 0 1 94.05,167.4123 " fill="none" style="stroke:#000000;stroke-width:1.35;"/><line style="stroke:#000000;stroke-width:1.35;" x1="91.8" x2="132.3" y1="189.5713" y2="189.5713"/><text fill="#000000" font-family="sans-serif" font-size="12.6" font-weight="bold" lengthAdjust="spacing" textLength="28.8" x="95.4" y="182.809">core</text></g><!--cluster validations--><g id="cluster_validations"><path d="M115.65,207.9123 L185.85,207.9123 A3.375,3.375 0 0 1 188.1,210.1623 L194.4,230.0713 L4371.75,230.0713 A2.25,2.25 0 0 1 4374,232.3213 L4374,713.2623 A2.25,2.25 0 0 1 4371.75,715.5123 L115.65,715.5123 A2.25,2.25 0 0 1 113.4,713.2623 L113.4,210.1623 A2.25,2.25 0 0 1 115.65,207.9123 " fill="none" style="stroke:#000000;stroke-width:1.35;"/><line style="stroke:#000000;stroke-width:1.35;" x1="113.4" x2="194.4" y1="230.0713" y2="230.0713"/><text fill="#000000" font-family="sans-serif" font-size="12.6" font-weight="bold" lengthAdjust="spacing" textLength="69.3" x="117" y="223.309">validations</text></g><!--cluster agreement--><g id="cluster_agreement"><path d="M137.25,355.5123 L206.55,355.5123 A3.375,3.375 0 0 1 208.8,357.7623 L215.1,377.6713 L4350.15,377.6713 A2.25,2.25 0 0 1 4352.4,379.9213 L4352.4,691.6623 A2.25,2.25 0 0 1 4350.15,693.9123 L137.25,693.9123 A2.25,2.25 0 0 1 135,691.6623 L135,357.7623 A2.25,2.25 0 0 1 137.25,355.5123 " fill="none" style="stroke:#000000;stroke-width:1.35;"/><line style="stroke:#000000;stroke-width:1.35;" x1="135" x2="215.1" y1="377.6713" y2="377.6713"/><text fill="#000000" font-family="sans-serif" font-size="12.6" font-weight="bold" lengthAdjust="spacing" textLength="68.4" x="138.6" y="370.909">agreement</text></g><!--class TravelAgreementFieldValidation--><g id="elem_TravelAgreementFieldValidation"><rect codeLine="15" fill="#F1F1F1" height="76.718" id="TravelAgreementFieldValidation" rx="2.25" ry="2.25" style="stroke:#181818;stroke-width:0.45;" width="342.9" x="2059.65" y="249.7623"/><ellipse cx="2136.825" cy="264.1623" fill="#B4A7E5" rx="9.9" ry="9.9" style="stroke:#181818;stroke-width:0.9;"/><path d="M2137.6828,261.1389 L2137.6828,267.1295 L2139.2297,267.1295 Q2139.7781,267.1295 2140.0172,267.3404 Q2140.2563,267.5514 2140.2563,267.9029 Q2140.2563,268.2404 2140.0172,268.4514 Q2139.7781,268.6623 2139.2297,268.6623 L2134.6031,268.6623 Q2134.0547,268.6623 2133.8156,268.4514 Q2133.5766,268.2404 2133.5766,267.8889 Q2133.5766,267.5514 2133.8156,267.3404 Q2134.0547,267.1295 2134.6031,267.1295 L2136.15,267.1295 L2136.15,261.1389 L2134.6031,261.1389 Q2134.0547,261.1389 2133.8156,260.9279 Q2133.5766,260.717 2133.5766,260.3654 Q2133.5766,260.0279 2133.8156,259.817 Q2134.0547,259.6061 2134.6031,259.6061 L2139.2297,259.6061 Q2139.7781,259.6061 2140.0172,259.817 Q2140.2563,260.0279 2140.2563,260.3654 Q2140.2563,260.717 2140.0172,260.9279 Q2139.7781,261.1389 2139.2297,261.1389 L2137.6828,261.1389 Z " fill="#000000"/><text fill="#000000" font-family="sans-serif" font-size="12.6" font-style="italic" lengthAdjust="spacing" textLength="180.9" x="2155.275" y="269.3795">TravelAgreementFieldValidation</text><line style="stroke:#181818;stroke-width:0.45;" x1="2060.55" x2="2401.65" y1="278.5623" y2="278.5623"/><line style="stroke:#181818;stroke-width:0.45;" x1="2060.55" x2="2401.65" y1="285.7623" y2="285.7623"/><polygon fill="#4177AF" points="2069.55,295.4918,2065.95,300.8918,2073.15,300.8918" style="stroke:#1963A0;stroke-width:0.9;"/><text fill="#000000" font-family="sans-serif" font-size="12.6" lengthAdjust="spacing" textLength="319.5" x="2077.65" y="302.959">Optional&lt;ValidationErrorDTO&gt; validate(AgreementDTO)</text><polygon fill="#4177AF" points="2069.55,312.2508,2065.95,317.6508,2073.15,317.6508" style="stroke:#1963A0;stroke-width:0.9;"/><text fill="#000000" font-family="sans-serif" font-size="12.6" lengthAdjust="spacing" textLength="311.4" x="2077.65" y="319.718">List&lt;ValidationErrorDTO&gt; validateList(AgreementDTO)</text></g><!--class ValidationErrorFactory--><g id="elem_ValidationErrorFactory"><rect codeLine="40" fill="#F1F1F1" height="93.477" id="ValidationErrorFactory" rx="2.25" ry="2.25" style="stroke:#181818;stroke-width:0.45;" width="342" x="907.2" y="241.2123"/><ellipse cx="1010.475" cy="255.6123" fill="#ADD1B2" rx="9.9" ry="9.9" style="stroke:#181818;stroke-width:0.9;"/><path d="M1012.9641,251.8998 Q1013.1047,251.7029 1013.2734,251.6045 Q1013.4422,251.5061 1013.6391,251.5061 Q1013.9766,251.5061 1014.1875,251.7451 Q1014.3984,251.9701 1014.3984,252.5186 L1014.3984,253.8264 Q1014.3984,254.3748 1014.1875,254.6139 Q1013.9766,254.8529 1013.6391,254.8529 Q1013.3297,254.8529 1013.1469,254.6701 Q1012.9641,254.5014 1012.8656,254.0373 Q1012.8234,253.7139 1012.6547,253.5451 Q1012.3594,253.2076 1011.8109,253.0107 Q1011.2625,252.8139 1010.7,252.8139 Q1010.0109,252.8139 1009.4344,253.1092 Q1008.8719,253.4045 1008.4219,254.0795 Q1007.9859,254.7545 1007.9859,255.6826 L1007.9859,256.667 Q1007.9859,257.7779 1008.7875,258.5232 Q1009.5891,259.2545 1011.0234,259.2545 Q1011.8672,259.2545 1012.4578,259.0295 Q1012.8094,258.8889 1013.1891,258.4951 Q1013.4281,258.2561 1013.5547,258.1857 Q1013.6953,258.1154 1013.8781,258.1154 Q1014.1734,258.1154 1014.3984,258.3545 Q1014.6375,258.5795 1014.6375,258.8889 Q1014.6375,259.1982 1014.3281,259.5639 Q1013.8781,260.0842 1013.1609,260.3795 Q1012.1906,260.7873 1011.0234,260.7873 Q1009.6594,260.7873 1008.5766,260.2248 Q1007.6906,259.7748 1007.0719,258.8186 Q1006.4531,257.8482 1006.4531,256.6951 L1006.4531,255.6545 Q1006.4531,254.4592 1007.0016,253.4326 Q1007.5641,252.392 1008.5484,251.8436 Q1009.5328,251.2811 1010.6438,251.2811 Q1011.3047,251.2811 1011.8813,251.4357 Q1012.4719,251.5764 1012.9641,251.8998 Z " fill="#000000"/><text fill="#000000" font-family="sans-serif" font-size="12.6" lengthAdjust="spacing" textLength="127.8" x="1028.925" y="260.8295">ValidationErrorFactory</text><line style="stroke:#181818;stroke-width:0.45;" x1="908.1" x2="1248.3" y1="270.0123" y2="270.0123"/><rect fill="none" height="5.4" style="stroke:#C82930;stroke-width:0.9;" width="5.4" x="914.4" y="280.6418"/><text fill="#000000" font-family="sans-serif" font-size="12.6" lengthAdjust="spacing" textLength="155.7" x="925.2" y="287.209">ErrorCodeUtil errorCodeUtil</text><line style="stroke:#181818;stroke-width:0.45;" x1="908.1" x2="1248.3" y1="293.9713" y2="293.9713"/><ellipse cx="917.1" cy="307.3008" fill="#84BE84" rx="2.7" ry="2.7" style="stroke:#038048;stroke-width:0.9;"/><text fill="#000000" font-family="sans-serif" font-size="12.6" lengthAdjust="spacing" textLength="213.3" x="925.2" y="311.168">ValidationErrorDTO buildError(String)</text><ellipse cx="917.1" cy="324.0598" fill="#84BE84" rx="2.7" ry="2.7" style="stroke:#038048;stroke-width:0.9;"/><text fill="#000000" font-family="sans-serif" font-size="12.6" lengthAdjust="spacing" textLength="318.6" x="925.2" y="327.927">ValidationErrorDTO buildError(String,List&lt;Placeholder&gt;)</text></g><!--class TravelAgreementFieldValidationImpl--><g id="elem_TravelAgreementFieldValidationImpl"><rect codeLine="1" fill="#F1F1F1" height="76.718" id="TravelAgreementFieldValidationImpl" rx="2.25" ry="2.25" style="stroke:#181818;stroke-width:0.45;" width="342.9" x="2059.65" y="388.8123"/><ellipse cx="2125.125" cy="403.2123" fill="#A9DCDF" rx="9.9" ry="9.9" style="stroke:#181818;stroke-width:0.9;"/><path d="M2127.0938,404.8014 L2123.3672,404.8014 L2122.9875,405.7295 L2123.3672,405.7295 Q2123.9156,405.7295 2124.1547,405.9404 Q2124.3938,406.1514 2124.3938,406.5029 Q2124.3938,406.8404 2124.1547,407.0514 Q2123.9156,407.2623 2123.3672,407.2623 L2121.3,407.2623 Q2120.7516,407.2623 2120.5266,407.0514 Q2120.2875,406.8404 2120.2875,406.4889 Q2120.2875,406.1514 2120.5406,405.9404 Q2120.7797,405.7154 2121.3422,405.7295 L2123.7469,399.7389 L2122.7484,399.7389 Q2122.2,399.7389 2121.9609,399.5279 Q2121.7219,399.317 2121.7219,398.9654 Q2121.7219,398.6279 2121.9609,398.417 Q2122.2,398.2061 2122.7484,398.2061 L2126.0531,398.2061 L2129.1047,405.7295 Q2129.6391,405.7295 2129.8078,405.8561 Q2130.1594,406.0951 2130.1594,406.5029 Q2130.1594,406.8404 2129.9203,407.0514 Q2129.6953,407.2623 2129.1469,407.2623 L2127.0797,407.2623 Q2126.5313,407.2623 2126.2922,407.0514 Q2126.0531,406.8404 2126.0531,406.4889 Q2126.0531,406.1514 2126.2922,405.9404 Q2126.5313,405.7295 2127.0797,405.7295 L2127.4594,405.7295 L2127.0938,404.8014 Z M2126.4469,403.2686 L2125.2234,400.2311 L2123.9859,403.2686 L2126.4469,403.2686 Z " fill="#000000"/><text fill="#000000" font-family="sans-serif" font-size="12.6" font-style="italic" lengthAdjust="spacing" textLength="204.3" x="2143.575" y="408.4295">TravelAgreementFieldValidationImpl</text><line style="stroke:#181818;stroke-width:0.45;" x1="2060.55" x2="2401.65" y1="417.6123" y2="417.6123"/><line style="stroke:#181818;stroke-width:0.45;" x1="2060.55" x2="2401.65" y1="424.8123" y2="424.8123"/><ellipse cx="2069.55" cy="438.1418" fill="#84BE84" rx="2.7" ry="2.7" style="stroke:#038048;stroke-width:0.9;"/><text fill="#000000" font-family="sans-serif" font-size="12.6" lengthAdjust="spacing" textLength="319.5" x="2077.65" y="442.009">Optional&lt;ValidationErrorDTO&gt; validate(AgreementDTO)</text><ellipse cx="2069.55" cy="454.9008" fill="#84BE84" rx="2.7" ry="2.7" style="stroke:#038048;stroke-width:0.9;"/><text fill="#000000" font-family="sans-serif" font-size="12.6" lengthAdjust="spacing" textLength="311.4" x="2077.65" y="458.768">List&lt;ValidationErrorDTO&gt; validateList(AgreementDTO)</text></g><!--class MedicalRiskLimitLevelValidation--><g id="elem_MedicalRiskLimitLevelValidation"><rect codeLine="6" fill="#F1F1F1" height="126.9949" id="MedicalRiskLimitLevelValidation" rx="2.25" ry="2.25" style="stroke:#181818;stroke-width:0.45;" width="354.6" x="149.4" y="535.9623"/><ellipse cx="232.875" cy="550.3623" fill="#ADD1B2" rx="9.9" ry="9.9" style="stroke:#181818;stroke-width:0.9;"/><path d="M235.3641,546.6498 Q235.5047,546.4529 235.6734,546.3545 Q235.8422,546.2561 236.0391,546.2561 Q236.3766,546.2561 236.5875,546.4951 Q236.7984,546.7201 236.7984,547.2686 L236.7984,548.5764 Q236.7984,549.1248 236.5875,549.3639 Q236.3766,549.6029 236.0391,549.6029 Q235.7297,549.6029 235.5469,549.4201 Q235.3641,549.2514 235.2656,548.7873 Q235.2234,548.4639 235.0547,548.2951 Q234.7594,547.9576 234.2109,547.7607 Q233.6625,547.5639 233.1,547.5639 Q232.4109,547.5639 231.8344,547.8592 Q231.2719,548.1545 230.8219,548.8295 Q230.3859,549.5045 230.3859,550.4326 L230.3859,551.417 Q230.3859,552.5279 231.1875,553.2732 Q231.9891,554.0045 233.4234,554.0045 Q234.2672,554.0045 234.8578,553.7795 Q235.2094,553.6389 235.5891,553.2451 Q235.8281,553.0061 235.9547,552.9357 Q236.0953,552.8654 236.2781,552.8654 Q236.5734,552.8654 236.7984,553.1045 Q237.0375,553.3295 237.0375,553.6389 Q237.0375,553.9482 236.7281,554.3139 Q236.2781,554.8342 235.5609,555.1295 Q234.5906,555.5373 233.4234,555.5373 Q232.0594,555.5373 230.9766,554.9748 Q230.0906,554.5248 229.4719,553.5686 Q228.8531,552.5982 228.8531,551.4451 L228.8531,550.4045 Q228.8531,549.2092 229.4016,548.1826 Q229.9641,547.142 230.9484,546.5936 Q231.9328,546.0311 233.0438,546.0311 Q233.7047,546.0311 234.2813,546.1857 Q234.8719,546.3264 235.3641,546.6498 Z " fill="#000000"/><text fill="#000000" font-family="sans-serif" font-size="12.6" lengthAdjust="spacing" textLength="180" x="251.325" y="555.5795">MedicalRiskLimitLevelValidation</text><line style="stroke:#181818;stroke-width:0.45;" x1="150.3" x2="503.1" y1="564.7623" y2="564.7623"/><rect fill="none" height="5.4" style="stroke:#C82930;stroke-width:0.9;" width="5.4" x="156.6" y="575.3918"/><text fill="#000000" font-family="sans-serif" font-size="12.6" lengthAdjust="spacing" textLength="292.5" x="167.4" y="581.959">ClassifierValueRepository classifierValueRepository</text><rect fill="none" height="5.4" style="stroke:#C82930;stroke-width:0.9;" width="5.4" x="156.6" y="592.1508"/><text fill="#000000" font-family="sans-serif" font-size="12.6" lengthAdjust="spacing" textLength="202.5" x="167.4" y="598.718">ValidationErrorFactory errorFactory</text><line style="stroke:#181818;stroke-width:0.45;" x1="150.3" x2="503.1" y1="605.4803" y2="605.4803"/><ellipse cx="159.3" cy="618.8098" fill="#84BE84" rx="2.7" ry="2.7" style="stroke:#038048;stroke-width:0.9;"/><text fill="#000000" font-family="sans-serif" font-size="12.6" lengthAdjust="spacing" textLength="319.5" x="167.4" y="622.677">Optional&lt;ValidationErrorDTO&gt; validate(AgreementDTO)</text><rect fill="#F24D5C" height="5.4" style="stroke:#C82930;stroke-width:0.9;" width="5.4" x="156.6" y="632.8688"/><text fill="#000000" font-family="sans-serif" font-size="12.6" lengthAdjust="spacing" textLength="331.2" x="167.4" y="639.4359">boolean isMedicalRiskLimitLevelNotBlank(AgreementDTO)</text><rect fill="#F24D5C" height="5.4" style="stroke:#C82930;stroke-width:0.9;" width="5.4" x="156.6" y="649.6277"/><text fill="#000000" font-family="sans-serif" font-size="12.6" lengthAdjust="spacing" textLength="181.8" x="167.4" y="656.1949">boolean existInDatabase(String)</text></g><!--class AgreementDateFromInFutureValidation--><g id="elem_AgreementDateFromInFutureValidation"><rect codeLine="20" fill="#F1F1F1" height="93.477" id="AgreementDateFromInFutureValidation" rx="2.25" ry="2.25" style="stroke:#181818;stroke-width:0.45;" width="342.9" x="535.95" y="552.6123"/><ellipse cx="592.425" cy="567.0123" fill="#ADD1B2" rx="9.9" ry="9.9" style="stroke:#181818;stroke-width:0.9;"/><path d="M594.9141,563.2998 Q595.0547,563.1029 595.2234,563.0045 Q595.3922,562.9061 595.5891,562.9061 Q595.9266,562.9061 596.1375,563.1451 Q596.3484,563.3701 596.3484,563.9186 L596.3484,565.2264 Q596.3484,565.7748 596.1375,566.0139 Q595.9266,566.2529 595.5891,566.2529 Q595.2797,566.2529 595.0969,566.0701 Q594.9141,565.9014 594.8156,565.4373 Q594.7734,565.1139 594.6047,564.9451 Q594.3094,564.6076 593.7609,564.4107 Q593.2125,564.2139 592.65,564.2139 Q591.9609,564.2139 591.3844,564.5092 Q590.8219,564.8045 590.3719,565.4795 Q589.9359,566.1545 589.9359,567.0826 L589.9359,568.067 Q589.9359,569.1779 590.7375,569.9232 Q591.5391,570.6545 592.9734,570.6545 Q593.8172,570.6545 594.4078,570.4295 Q594.7594,570.2889 595.1391,569.8951 Q595.3781,569.6561 595.5047,569.5857 Q595.6453,569.5154 595.8281,569.5154 Q596.1234,569.5154 596.3484,569.7545 Q596.5875,569.9795 596.5875,570.2889 Q596.5875,570.5982 596.2781,570.9639 Q595.8281,571.4842 595.1109,571.7795 Q594.1406,572.1873 592.9734,572.1873 Q591.6094,572.1873 590.5266,571.6248 Q589.6406,571.1748 589.0219,570.2186 Q588.4031,569.2482 588.4031,568.0951 L588.4031,567.0545 Q588.4031,565.8592 588.9516,564.8326 Q589.5141,563.792 590.4984,563.2436 Q591.4828,562.6811 592.5938,562.6811 Q593.2547,562.6811 593.8313,562.8357 Q594.4219,562.9764 594.9141,563.2998 Z " fill="#000000"/><text fill="#000000" font-family="sans-serif" font-size="12.6" lengthAdjust="spacing" textLength="222.3" x="610.875" y="572.2295">AgreementDateFromInFutureValidation</text><line style="stroke:#181818;stroke-width:0.45;" x1="536.85" x2="877.95" y1="581.4123" y2="581.4123"/><rect fill="none" height="5.4" style="stroke:#C82930;stroke-width:0.9;" width="5.4" x="543.15" y="592.0418"/><text fill="#000000" font-family="sans-serif" font-size="12.6" lengthAdjust="spacing" textLength="145.8" x="553.95" y="598.609">DateTimeUtil dateTimeUtil</text><rect fill="none" height="5.4" style="stroke:#C82930;stroke-width:0.9;" width="5.4" x="543.15" y="608.8008"/><text fill="#000000" font-family="sans-serif" font-size="12.6" lengthAdjust="spacing" textLength="202.5" x="553.95" y="615.368">ValidationErrorFactory errorFactory</text><line style="stroke:#181818;stroke-width:0.45;" x1="536.85" x2="877.95" y1="622.1303" y2="622.1303"/><ellipse cx="545.85" cy="635.4598" fill="#84BE84" rx="2.7" ry="2.7" style="stroke:#038048;stroke-width:0.9;"/><text fill="#000000" font-family="sans-serif" font-size="12.6" lengthAdjust="spacing" textLength="319.5" x="553.95" y="639.327">Optional&lt;ValidationErrorDTO&gt; validate(AgreementDTO)</text></g><!--class AgreementDateToInFutureValidation--><g id="elem_AgreementDateToInFutureValidation"><rect codeLine="27" fill="#F1F1F1" height="93.477" id="AgreementDateToInFutureValidation" rx="2.25" ry="2.25" style="stroke:#181818;stroke-width:0.45;" width="342.9" x="910.35" y="552.6123"/><ellipse cx="974.025" cy="567.0123" fill="#ADD1B2" rx="9.9" ry="9.9" style="stroke:#181818;stroke-width:0.9;"/><path d="M976.5141,563.2998 Q976.6547,563.1029 976.8234,563.0045 Q976.9922,562.9061 977.1891,562.9061 Q977.5266,562.9061 977.7375,563.1451 Q977.9484,563.3701 977.9484,563.9186 L977.9484,565.2264 Q977.9484,565.7748 977.7375,566.0139 Q977.5266,566.2529 977.1891,566.2529 Q976.8797,566.2529 976.6969,566.0701 Q976.5141,565.9014 976.4156,565.4373 Q976.3734,565.1139 976.2047,564.9451 Q975.9094,564.6076 975.3609,564.4107 Q974.8125,564.2139 974.25,564.2139 Q973.5609,564.2139 972.9844,564.5092 Q972.4219,564.8045 971.9719,565.4795 Q971.5359,566.1545 971.5359,567.0826 L971.5359,568.067 Q971.5359,569.1779 972.3375,569.9232 Q973.1391,570.6545 974.5734,570.6545 Q975.4172,570.6545 976.0078,570.4295 Q976.3594,570.2889 976.7391,569.8951 Q976.9781,569.6561 977.1047,569.5857 Q977.2453,569.5154 977.4281,569.5154 Q977.7234,569.5154 977.9484,569.7545 Q978.1875,569.9795 978.1875,570.2889 Q978.1875,570.5982 977.8781,570.9639 Q977.4281,571.4842 976.7109,571.7795 Q975.7406,572.1873 974.5734,572.1873 Q973.2094,572.1873 972.1266,571.6248 Q971.2406,571.1748 970.6219,570.2186 Q970.0031,569.2482 970.0031,568.0951 L970.0031,567.0545 Q970.0031,565.8592 970.5516,564.8326 Q971.1141,563.792 972.0984,563.2436 Q973.0828,562.6811 974.1938,562.6811 Q974.8547,562.6811 975.4313,562.8357 Q976.0219,562.9764 976.5141,563.2998 Z " fill="#000000"/><text fill="#000000" font-family="sans-serif" font-size="12.6" lengthAdjust="spacing" textLength="207.9" x="992.475" y="572.2295">AgreementDateToInFutureValidation</text><line style="stroke:#181818;stroke-width:0.45;" x1="911.25" x2="1252.35" y1="581.4123" y2="581.4123"/><rect fill="none" height="5.4" style="stroke:#C82930;stroke-width:0.9;" width="5.4" x="917.55" y="592.0418"/><text fill="#000000" font-family="sans-serif" font-size="12.6" lengthAdjust="spacing" textLength="145.8" x="928.35" y="598.609">DateTimeUtil dateTimeUtil</text><rect fill="none" height="5.4" style="stroke:#C82930;stroke-width:0.9;" width="5.4" x="917.55" y="608.8008"/><text fill="#000000" font-family="sans-serif" font-size="12.6" lengthAdjust="spacing" textLength="202.5" x="928.35" y="615.368">ValidationErrorFactory errorFactory</text><line style="stroke:#181818;stroke-width:0.45;" x1="911.25" x2="1252.35" y1="622.1303" y2="622.1303"/><ellipse cx="920.25" cy="635.4598" fill="#84BE84" rx="2.7" ry="2.7" style="stroke:#038048;stroke-width:0.9;"/><text fill="#000000" font-family="sans-serif" font-size="12.6" lengthAdjust="spacing" textLength="319.5" x="928.35" y="639.327">Optional&lt;ValidationErrorDTO&gt; validate(AgreementDTO)</text></g><!--class EmptySelectedRisksValidation--><g id="elem_EmptySelectedRisksValidation"><rect codeLine="34" fill="#F1F1F1" height="76.718" id="EmptySelectedRisksValidation" rx="2.25" ry="2.25" style="stroke:#181818;stroke-width:0.45;" width="342.9" x="1284.75" y="561.1623"/><ellipse cx="1366.875" cy="575.5623" fill="#ADD1B2" rx="9.9" ry="9.9" style="stroke:#181818;stroke-width:0.9;"/><path d="M1369.3641,571.8498 Q1369.5047,571.6529 1369.6734,571.5545 Q1369.8422,571.4561 1370.0391,571.4561 Q1370.3766,571.4561 1370.5875,571.6951 Q1370.7984,571.9201 1370.7984,572.4686 L1370.7984,573.7764 Q1370.7984,574.3248 1370.5875,574.5639 Q1370.3766,574.8029 1370.0391,574.8029 Q1369.7297,574.8029 1369.5469,574.6201 Q1369.3641,574.4514 1369.2656,573.9873 Q1369.2234,573.6639 1369.0547,573.4951 Q1368.7594,573.1576 1368.2109,572.9607 Q1367.6625,572.7639 1367.1,572.7639 Q1366.4109,572.7639 1365.8344,573.0592 Q1365.2719,573.3545 1364.8219,574.0295 Q1364.3859,574.7045 1364.3859,575.6326 L1364.3859,576.617 Q1364.3859,577.7279 1365.1875,578.4732 Q1365.9891,579.2045 1367.4234,579.2045 Q1368.2672,579.2045 1368.8578,578.9795 Q1369.2094,578.8389 1369.5891,578.4451 Q1369.8281,578.2061 1369.9547,578.1357 Q1370.0953,578.0654 1370.2781,578.0654 Q1370.5734,578.0654 1370.7984,578.3045 Q1371.0375,578.5295 1371.0375,578.8389 Q1371.0375,579.1482 1370.7281,579.5139 Q1370.2781,580.0342 1369.5609,580.3295 Q1368.5906,580.7373 1367.4234,580.7373 Q1366.0594,580.7373 1364.9766,580.1748 Q1364.0906,579.7248 1363.4719,578.7686 Q1362.8531,577.7982 1362.8531,576.6451 L1362.8531,575.6045 Q1362.8531,574.4092 1363.4016,573.3826 Q1363.9641,572.342 1364.9484,571.7936 Q1365.9328,571.2311 1367.0438,571.2311 Q1367.7047,571.2311 1368.2813,571.3857 Q1368.8719,571.5264 1369.3641,571.8498 Z " fill="#000000"/><text fill="#000000" font-family="sans-serif" font-size="12.6" lengthAdjust="spacing" textLength="171" x="1385.325" y="580.7795">EmptySelectedRisksValidation</text><line style="stroke:#181818;stroke-width:0.45;" x1="1285.65" x2="1626.75" y1="589.9623" y2="589.9623"/><rect fill="none" height="5.4" style="stroke:#C82930;stroke-width:0.9;" width="5.4" x="1291.95" y="600.5918"/><text fill="#000000" font-family="sans-serif" font-size="12.6" lengthAdjust="spacing" textLength="202.5" x="1302.75" y="607.159">ValidationErrorFactory errorFactory</text><line style="stroke:#181818;stroke-width:0.45;" x1="1285.65" x2="1626.75" y1="613.9213" y2="613.9213"/><ellipse cx="1294.65" cy="627.2508" fill="#84BE84" rx="2.7" ry="2.7" style="stroke:#038048;stroke-width:0.9;"/><text fill="#000000" font-family="sans-serif" font-size="12.6" lengthAdjust="spacing" textLength="319.5" x="1302.75" y="631.118">Optional&lt;ValidationErrorDTO&gt; validate(AgreementDTO)</text></g><!--class CountryValidation--><g id="elem_CountryValidation"><rect codeLine="47" fill="#F1F1F1" height="126.9949" id="CountryValidation" rx="2.25" ry="2.25" style="stroke:#181818;stroke-width:0.45;" width="342.9" x="1659.15" y="535.9623"/><ellipse cx="1776.375" cy="550.3623" fill="#ADD1B2" rx="9.9" ry="9.9" style="stroke:#181818;stroke-width:0.9;"/><path d="M1778.8641,546.6498 Q1779.0047,546.4529 1779.1734,546.3545 Q1779.3422,546.2561 1779.5391,546.2561 Q1779.8766,546.2561 1780.0875,546.4951 Q1780.2984,546.7201 1780.2984,547.2686 L1780.2984,548.5764 Q1780.2984,549.1248 1780.0875,549.3639 Q1779.8766,549.6029 1779.5391,549.6029 Q1779.2297,549.6029 1779.0469,549.4201 Q1778.8641,549.2514 1778.7656,548.7873 Q1778.7234,548.4639 1778.5547,548.2951 Q1778.2594,547.9576 1777.7109,547.7607 Q1777.1625,547.5639 1776.6,547.5639 Q1775.9109,547.5639 1775.3344,547.8592 Q1774.7719,548.1545 1774.3219,548.8295 Q1773.8859,549.5045 1773.8859,550.4326 L1773.8859,551.417 Q1773.8859,552.5279 1774.6875,553.2732 Q1775.4891,554.0045 1776.9234,554.0045 Q1777.7672,554.0045 1778.3578,553.7795 Q1778.7094,553.6389 1779.0891,553.2451 Q1779.3281,553.0061 1779.4547,552.9357 Q1779.5953,552.8654 1779.7781,552.8654 Q1780.0734,552.8654 1780.2984,553.1045 Q1780.5375,553.3295 1780.5375,553.6389 Q1780.5375,553.9482 1780.2281,554.3139 Q1779.7781,554.8342 1779.0609,555.1295 Q1778.0906,555.5373 1776.9234,555.5373 Q1775.5594,555.5373 1774.4766,554.9748 Q1773.5906,554.5248 1772.9719,553.5686 Q1772.3531,552.5982 1772.3531,551.4451 L1772.3531,550.4045 Q1772.3531,549.2092 1772.9016,548.1826 Q1773.4641,547.142 1774.4484,546.5936 Q1775.4328,546.0311 1776.5438,546.0311 Q1777.2047,546.0311 1777.7813,546.1857 Q1778.3719,546.3264 1778.8641,546.6498 Z " fill="#000000"/><text fill="#000000" font-family="sans-serif" font-size="12.6" lengthAdjust="spacing" textLength="100.8" x="1794.825" y="555.5795">CountryValidation</text><line style="stroke:#181818;stroke-width:0.45;" x1="1660.05" x2="2001.15" y1="564.7623" y2="564.7623"/><rect fill="none" height="5.4" style="stroke:#C82930;stroke-width:0.9;" width="5.4" x="1666.35" y="575.3918"/><text fill="#000000" font-family="sans-serif" font-size="12.6" lengthAdjust="spacing" textLength="292.5" x="1677.15" y="581.959">ClassifierValueRepository classifierValueRepository</text><rect fill="none" height="5.4" style="stroke:#C82930;stroke-width:0.9;" width="5.4" x="1666.35" y="592.1508"/><text fill="#000000" font-family="sans-serif" font-size="12.6" lengthAdjust="spacing" textLength="202.5" x="1677.15" y="598.718">ValidationErrorFactory errorFactory</text><line style="stroke:#181818;stroke-width:0.45;" x1="1660.05" x2="2001.15" y1="605.4803" y2="605.4803"/><ellipse cx="1669.05" cy="618.8098" fill="#84BE84" rx="2.7" ry="2.7" style="stroke:#038048;stroke-width:0.9;"/><text fill="#000000" font-family="sans-serif" font-size="12.6" lengthAdjust="spacing" textLength="319.5" x="1677.15" y="622.677">Optional&lt;ValidationErrorDTO&gt; validate(AgreementDTO)</text><rect fill="#F24D5C" height="5.4" style="stroke:#C82930;stroke-width:0.9;" width="5.4" x="1666.35" y="632.8688"/><text fill="#000000" font-family="sans-serif" font-size="12.6" lengthAdjust="spacing" textLength="252" x="1677.15" y="639.4359">boolean isCountryNotBlank(AgreementDTO)</text><rect fill="#F24D5C" height="5.4" style="stroke:#C82930;stroke-width:0.9;" width="5.4" x="1666.35" y="649.6277"/><text fill="#000000" font-family="sans-serif" font-size="12.6" lengthAdjust="spacing" textLength="181.8" x="1677.15" y="656.1949">boolean existInDatabase(String)</text></g><!--class SelectedRisksValidation--><g id="elem_SelectedRisksValidation"><rect codeLine="56" fill="#F1F1F1" height="160.5129" id="SelectedRisksValidation" rx="2.25" ry="2.25" style="stroke:#181818;stroke-width:0.45;" width="395.1" x="2033.55" y="519.3123"/><ellipse cx="2159.325" cy="533.7123" fill="#ADD1B2" rx="9.9" ry="9.9" style="stroke:#181818;stroke-width:0.9;"/><path d="M2161.8141,529.9998 Q2161.9547,529.8029 2162.1234,529.7045 Q2162.2922,529.6061 2162.4891,529.6061 Q2162.8266,529.6061 2163.0375,529.8451 Q2163.2484,530.0701 2163.2484,530.6186 L2163.2484,531.9264 Q2163.2484,532.4748 2163.0375,532.7139 Q2162.8266,532.9529 2162.4891,532.9529 Q2162.1797,532.9529 2161.9969,532.7701 Q2161.8141,532.6014 2161.7156,532.1373 Q2161.6734,531.8139 2161.5047,531.6451 Q2161.2094,531.3076 2160.6609,531.1107 Q2160.1125,530.9139 2159.55,530.9139 Q2158.8609,530.9139 2158.2844,531.2092 Q2157.7219,531.5045 2157.2719,532.1795 Q2156.8359,532.8545 2156.8359,533.7826 L2156.8359,534.767 Q2156.8359,535.8779 2157.6375,536.6232 Q2158.4391,537.3545 2159.8734,537.3545 Q2160.7172,537.3545 2161.3078,537.1295 Q2161.6594,536.9889 2162.0391,536.5951 Q2162.2781,536.3561 2162.4047,536.2857 Q2162.5453,536.2154 2162.7281,536.2154 Q2163.0234,536.2154 2163.2484,536.4545 Q2163.4875,536.6795 2163.4875,536.9889 Q2163.4875,537.2982 2163.1781,537.6639 Q2162.7281,538.1842 2162.0109,538.4795 Q2161.0406,538.8873 2159.8734,538.8873 Q2158.5094,538.8873 2157.4266,538.3248 Q2156.5406,537.8748 2155.9219,536.9186 Q2155.3031,535.9482 2155.3031,534.7951 L2155.3031,533.7545 Q2155.3031,532.5592 2155.8516,531.5326 Q2156.4141,530.492 2157.3984,529.9436 Q2158.3828,529.3811 2159.4938,529.3811 Q2160.1547,529.3811 2160.7313,529.5357 Q2161.3219,529.6764 2161.8141,529.9998 Z " fill="#000000"/><text fill="#000000" font-family="sans-serif" font-size="12.6" lengthAdjust="spacing" textLength="135.9" x="2177.775" y="538.9295">SelectedRisksValidation</text><line style="stroke:#181818;stroke-width:0.45;" x1="2034.45" x2="2427.75" y1="548.1123" y2="548.1123"/><rect fill="none" height="5.4" style="stroke:#C82930;stroke-width:0.9;" width="5.4" x="2040.75" y="558.7418"/><text fill="#000000" font-family="sans-serif" font-size="12.6" lengthAdjust="spacing" textLength="292.5" x="2051.55" y="565.309">ClassifierValueRepository classifierValueRepository</text><rect fill="none" height="5.4" style="stroke:#C82930;stroke-width:0.9;" width="5.4" x="2040.75" y="575.5008"/><text fill="#000000" font-family="sans-serif" font-size="12.6" lengthAdjust="spacing" textLength="202.5" x="2051.55" y="582.068">ValidationErrorFactory errorFactory</text><line style="stroke:#181818;stroke-width:0.45;" x1="2034.45" x2="2427.75" y1="588.8303" y2="588.8303"/><ellipse cx="2043.45" cy="602.1598" fill="#84BE84" rx="2.7" ry="2.7" style="stroke:#038048;stroke-width:0.9;"/><text fill="#000000" font-family="sans-serif" font-size="12.6" lengthAdjust="spacing" textLength="311.4" x="2051.55" y="606.027">List&lt;ValidationErrorDTO&gt; validateList(AgreementDTO)</text><rect fill="#F24D5C" height="5.4" style="stroke:#C82930;stroke-width:0.9;" width="5.4" x="2040.75" y="616.2188"/><text fill="#000000" font-family="sans-serif" font-size="12.6" lengthAdjust="spacing" textLength="371.7" x="2051.55" y="622.7859">List&lt;ValidationErrorDTO&gt; validateSelectedRisks(AgreementDTO)</text><rect fill="#F24D5C" height="5.4" style="stroke:#C82930;stroke-width:0.9;" width="5.4" x="2040.75" y="632.9777"/><text fill="#000000" font-family="sans-serif" font-size="12.6" lengthAdjust="spacing" textLength="297" x="2051.55" y="639.5449">Optional&lt;ValidationErrorDTO&gt; validateRiskIc(String)</text><rect fill="#F24D5C" height="5.4" style="stroke:#C82930;stroke-width:0.9;" width="5.4" x="2040.75" y="649.7367"/><text fill="#000000" font-family="sans-serif" font-size="12.6" lengthAdjust="spacing" textLength="269.1" x="2051.55" y="656.3039">ValidationErrorDTO buildValidationError(String)</text><rect fill="#F24D5C" height="5.4" style="stroke:#C82930;stroke-width:0.9;" width="5.4" x="2040.75" y="666.4957"/><text fill="#000000" font-family="sans-serif" font-size="12.6" lengthAdjust="spacing" textLength="181.8" x="2051.55" y="673.0629">boolean existInDatabase(String)</text></g><!--class EmptyCountryValidation--><g id="elem_EmptyCountryValidation"><rect codeLine="67" fill="#F1F1F1" height="93.477" id="EmptyCountryValidation" rx="2.25" ry="2.25" style="stroke:#181818;stroke-width:0.45;" width="342.9" x="2460.15" y="552.6123"/><ellipse cx="2559.825" cy="567.0123" fill="#ADD1B2" rx="9.9" ry="9.9" style="stroke:#181818;stroke-width:0.9;"/><path d="M2562.3141,563.2998 Q2562.4547,563.1029 2562.6234,563.0045 Q2562.7922,562.9061 2562.9891,562.9061 Q2563.3266,562.9061 2563.5375,563.1451 Q2563.7484,563.3701 2563.7484,563.9186 L2563.7484,565.2264 Q2563.7484,565.7748 2563.5375,566.0139 Q2563.3266,566.2529 2562.9891,566.2529 Q2562.6797,566.2529 2562.4969,566.0701 Q2562.3141,565.9014 2562.2156,565.4373 Q2562.1734,565.1139 2562.0047,564.9451 Q2561.7094,564.6076 2561.1609,564.4107 Q2560.6125,564.2139 2560.05,564.2139 Q2559.3609,564.2139 2558.7844,564.5092 Q2558.2219,564.8045 2557.7719,565.4795 Q2557.3359,566.1545 2557.3359,567.0826 L2557.3359,568.067 Q2557.3359,569.1779 2558.1375,569.9232 Q2558.9391,570.6545 2560.3734,570.6545 Q2561.2172,570.6545 2561.8078,570.4295 Q2562.1594,570.2889 2562.5391,569.8951 Q2562.7781,569.6561 2562.9047,569.5857 Q2563.0453,569.5154 2563.2281,569.5154 Q2563.5234,569.5154 2563.7484,569.7545 Q2563.9875,569.9795 2563.9875,570.2889 Q2563.9875,570.5982 2563.6781,570.9639 Q2563.2281,571.4842 2562.5109,571.7795 Q2561.5406,572.1873 2560.3734,572.1873 Q2559.0094,572.1873 2557.9266,571.6248 Q2557.0406,571.1748 2556.4219,570.2186 Q2555.8031,569.2482 2555.8031,568.0951 L2555.8031,567.0545 Q2555.8031,565.8592 2556.3516,564.8326 Q2556.9141,563.792 2557.8984,563.2436 Q2558.8828,562.6811 2559.9938,562.6811 Q2560.6547,562.6811 2561.2313,562.8357 Q2561.8219,562.9764 2562.3141,563.2998 Z " fill="#000000"/><text fill="#000000" font-family="sans-serif" font-size="12.6" lengthAdjust="spacing" textLength="135.9" x="2578.275" y="572.2295">EmptyCountryValidation</text><line style="stroke:#181818;stroke-width:0.45;" x1="2461.05" x2="2802.15" y1="581.4123" y2="581.4123"/><rect fill="none" height="5.4" style="stroke:#C82930;stroke-width:0.9;" width="5.4" x="2467.35" y="592.0418"/><text fill="#000000" font-family="sans-serif" font-size="12.6" lengthAdjust="spacing" textLength="202.5" x="2478.15" y="598.609">ValidationErrorFactory errorFactory</text><line style="stroke:#181818;stroke-width:0.45;" x1="2461.05" x2="2802.15" y1="605.3713" y2="605.3713"/><ellipse cx="2470.05" cy="618.7008" fill="#84BE84" rx="2.7" ry="2.7" style="stroke:#038048;stroke-width:0.9;"/><text fill="#000000" font-family="sans-serif" font-size="12.6" lengthAdjust="spacing" textLength="319.5" x="2478.15" y="622.568">Optional&lt;ValidationErrorDTO&gt; validate(AgreementDTO)</text><rect fill="#F24D5C" height="5.4" style="stroke:#C82930;stroke-width:0.9;" width="5.4" x="2467.35" y="632.7598"/><text fill="#000000" font-family="sans-serif" font-size="12.6" lengthAdjust="spacing" textLength="265.5" x="2478.15" y="639.327">boolean countryIsNullOrBlank(AgreementDTO)</text></g><!--class DateFromLessThenDateToValidation--><g id="elem_DateFromLessThenDateToValidation"><rect codeLine="74" fill="#F1F1F1" height="76.718" id="DateFromLessThenDateToValidation" rx="2.25" ry="2.25" style="stroke:#181818;stroke-width:0.45;" width="342.9" x="2834.55" y="561.1623"/><ellipse cx="2896.425" cy="575.5623" fill="#ADD1B2" rx="9.9" ry="9.9" style="stroke:#181818;stroke-width:0.9;"/><path d="M2898.9141,571.8498 Q2899.0547,571.6529 2899.2234,571.5545 Q2899.3922,571.4561 2899.5891,571.4561 Q2899.9266,571.4561 2900.1375,571.6951 Q2900.3484,571.9201 2900.3484,572.4686 L2900.3484,573.7764 Q2900.3484,574.3248 2900.1375,574.5639 Q2899.9266,574.8029 2899.5891,574.8029 Q2899.2797,574.8029 2899.0969,574.6201 Q2898.9141,574.4514 2898.8156,573.9873 Q2898.7734,573.6639 2898.6047,573.4951 Q2898.3094,573.1576 2897.7609,572.9607 Q2897.2125,572.7639 2896.65,572.7639 Q2895.9609,572.7639 2895.3844,573.0592 Q2894.8219,573.3545 2894.3719,574.0295 Q2893.9359,574.7045 2893.9359,575.6326 L2893.9359,576.617 Q2893.9359,577.7279 2894.7375,578.4732 Q2895.5391,579.2045 2896.9734,579.2045 Q2897.8172,579.2045 2898.4078,578.9795 Q2898.7594,578.8389 2899.1391,578.4451 Q2899.3781,578.2061 2899.5047,578.1357 Q2899.6453,578.0654 2899.8281,578.0654 Q2900.1234,578.0654 2900.3484,578.3045 Q2900.5875,578.5295 2900.5875,578.8389 Q2900.5875,579.1482 2900.2781,579.5139 Q2899.8281,580.0342 2899.1109,580.3295 Q2898.1406,580.7373 2896.9734,580.7373 Q2895.6094,580.7373 2894.5266,580.1748 Q2893.6406,579.7248 2893.0219,578.7686 Q2892.4031,577.7982 2892.4031,576.6451 L2892.4031,575.6045 Q2892.4031,574.4092 2892.9516,573.3826 Q2893.5141,572.342 2894.4984,571.7936 Q2895.4828,571.2311 2896.5938,571.2311 Q2897.2547,571.2311 2897.8313,571.3857 Q2898.4219,571.5264 2898.9141,571.8498 Z " fill="#000000"/><text fill="#000000" font-family="sans-serif" font-size="12.6" lengthAdjust="spacing" textLength="211.5" x="2914.875" y="580.7795">DateFromLessThenDateToValidation</text><line style="stroke:#181818;stroke-width:0.45;" x1="2835.45" x2="3176.55" y1="589.9623" y2="589.9623"/><rect fill="none" height="5.4" style="stroke:#C82930;stroke-width:0.9;" width="5.4" x="2841.75" y="600.5918"/><text fill="#000000" font-family="sans-serif" font-size="12.6" lengthAdjust="spacing" textLength="202.5" x="2852.55" y="607.159">ValidationErrorFactory errorFactory</text><line style="stroke:#181818;stroke-width:0.45;" x1="2835.45" x2="3176.55" y1="613.9213" y2="613.9213"/><ellipse cx="2844.45" cy="627.2508" fill="#84BE84" rx="2.7" ry="2.7" style="stroke:#038048;stroke-width:0.9;"/><text fill="#000000" font-family="sans-serif" font-size="12.6" lengthAdjust="spacing" textLength="319.5" x="2852.55" y="631.118">Optional&lt;ValidationErrorDTO&gt; validate(AgreementDTO)</text></g><!--class AgreementDateFromValidation--><g id="elem_AgreementDateFromValidation"><rect codeLine="80" fill="#F1F1F1" height="76.718" id="AgreementDateFromValidation" rx="2.25" ry="2.25" style="stroke:#181818;stroke-width:0.45;" width="342.9" x="3208.95" y="561.1623"/><ellipse cx="3289.275" cy="575.5623" fill="#ADD1B2" rx="9.9" ry="9.9" style="stroke:#181818;stroke-width:0.9;"/><path d="M3291.7641,571.8498 Q3291.9047,571.6529 3292.0734,571.5545 Q3292.2422,571.4561 3292.4391,571.4561 Q3292.7766,571.4561 3292.9875,571.6951 Q3293.1984,571.9201 3293.1984,572.4686 L3293.1984,573.7764 Q3293.1984,574.3248 3292.9875,574.5639 Q3292.7766,574.8029 3292.4391,574.8029 Q3292.1297,574.8029 3291.9469,574.6201 Q3291.7641,574.4514 3291.6656,573.9873 Q3291.6234,573.6639 3291.4547,573.4951 Q3291.1594,573.1576 3290.6109,572.9607 Q3290.0625,572.7639 3289.5,572.7639 Q3288.8109,572.7639 3288.2344,573.0592 Q3287.6719,573.3545 3287.2219,574.0295 Q3286.7859,574.7045 3286.7859,575.6326 L3286.7859,576.617 Q3286.7859,577.7279 3287.5875,578.4732 Q3288.3891,579.2045 3289.8234,579.2045 Q3290.6672,579.2045 3291.2578,578.9795 Q3291.6094,578.8389 3291.9891,578.4451 Q3292.2281,578.2061 3292.3547,578.1357 Q3292.4953,578.0654 3292.6781,578.0654 Q3292.9734,578.0654 3293.1984,578.3045 Q3293.4375,578.5295 3293.4375,578.8389 Q3293.4375,579.1482 3293.1281,579.5139 Q3292.6781,580.0342 3291.9609,580.3295 Q3290.9906,580.7373 3289.8234,580.7373 Q3288.4594,580.7373 3287.3766,580.1748 Q3286.4906,579.7248 3285.8719,578.7686 Q3285.2531,577.7982 3285.2531,576.6451 L3285.2531,575.6045 Q3285.2531,574.4092 3285.8016,573.3826 Q3286.3641,572.342 3287.3484,571.7936 Q3288.3328,571.2311 3289.4438,571.2311 Q3290.1047,571.2311 3290.6813,571.3857 Q3291.2719,571.5264 3291.7641,571.8498 Z " fill="#000000"/><text fill="#000000" font-family="sans-serif" font-size="12.6" lengthAdjust="spacing" textLength="174.6" x="3307.725" y="580.7795">AgreementDateFromValidation</text><line style="stroke:#181818;stroke-width:0.45;" x1="3209.85" x2="3550.95" y1="589.9623" y2="589.9623"/><rect fill="none" height="5.4" style="stroke:#C82930;stroke-width:0.9;" width="5.4" x="3216.15" y="600.5918"/><text fill="#000000" font-family="sans-serif" font-size="12.6" lengthAdjust="spacing" textLength="202.5" x="3226.95" y="607.159">ValidationErrorFactory errorFactory</text><line style="stroke:#181818;stroke-width:0.45;" x1="3209.85" x2="3550.95" y1="613.9213" y2="613.9213"/><ellipse cx="3218.85" cy="627.2508" fill="#84BE84" rx="2.7" ry="2.7" style="stroke:#038048;stroke-width:0.9;"/><text fill="#000000" font-family="sans-serif" font-size="12.6" lengthAdjust="spacing" textLength="319.5" x="3226.95" y="631.118">Optional&lt;ValidationErrorDTO&gt; validate(AgreementDTO)</text></g><!--class AgreementDateToValidation--><g id="elem_AgreementDateToValidation"><rect codeLine="86" fill="#F1F1F1" height="76.718" id="AgreementDateToValidation" rx="2.25" ry="2.25" style="stroke:#181818;stroke-width:0.45;" width="342.9" x="3583.35" y="561.1623"/><ellipse cx="3670.875" cy="575.5623" fill="#ADD1B2" rx="9.9" ry="9.9" style="stroke:#181818;stroke-width:0.9;"/><path d="M3673.3641,571.8498 Q3673.5047,571.6529 3673.6734,571.5545 Q3673.8422,571.4561 3674.0391,571.4561 Q3674.3766,571.4561 3674.5875,571.6951 Q3674.7984,571.9201 3674.7984,572.4686 L3674.7984,573.7764 Q3674.7984,574.3248 3674.5875,574.5639 Q3674.3766,574.8029 3674.0391,574.8029 Q3673.7297,574.8029 3673.5469,574.6201 Q3673.3641,574.4514 3673.2656,573.9873 Q3673.2234,573.6639 3673.0547,573.4951 Q3672.7594,573.1576 3672.2109,572.9607 Q3671.6625,572.7639 3671.1,572.7639 Q3670.4109,572.7639 3669.8344,573.0592 Q3669.2719,573.3545 3668.8219,574.0295 Q3668.3859,574.7045 3668.3859,575.6326 L3668.3859,576.617 Q3668.3859,577.7279 3669.1875,578.4732 Q3669.9891,579.2045 3671.4234,579.2045 Q3672.2672,579.2045 3672.8578,578.9795 Q3673.2094,578.8389 3673.5891,578.4451 Q3673.8281,578.2061 3673.9547,578.1357 Q3674.0953,578.0654 3674.2781,578.0654 Q3674.5734,578.0654 3674.7984,578.3045 Q3675.0375,578.5295 3675.0375,578.8389 Q3675.0375,579.1482 3674.7281,579.5139 Q3674.2781,580.0342 3673.5609,580.3295 Q3672.5906,580.7373 3671.4234,580.7373 Q3670.0594,580.7373 3668.9766,580.1748 Q3668.0906,579.7248 3667.4719,578.7686 Q3666.8531,577.7982 3666.8531,576.6451 L3666.8531,575.6045 Q3666.8531,574.4092 3667.4016,573.3826 Q3667.9641,572.342 3668.9484,571.7936 Q3669.9328,571.2311 3671.0438,571.2311 Q3671.7047,571.2311 3672.2813,571.3857 Q3672.8719,571.5264 3673.3641,571.8498 Z " fill="#000000"/><text fill="#000000" font-family="sans-serif" font-size="12.6" lengthAdjust="spacing" textLength="160.2" x="3689.325" y="580.7795">AgreementDateToValidation</text><line style="stroke:#181818;stroke-width:0.45;" x1="3584.25" x2="3925.35" y1="589.9623" y2="589.9623"/><rect fill="none" height="5.4" style="stroke:#C82930;stroke-width:0.9;" width="5.4" x="3590.55" y="600.5918"/><text fill="#000000" font-family="sans-serif" font-size="12.6" lengthAdjust="spacing" textLength="202.5" x="3601.35" y="607.159">ValidationErrorFactory errorFactory</text><line style="stroke:#181818;stroke-width:0.45;" x1="3584.25" x2="3925.35" y1="613.9213" y2="613.9213"/><ellipse cx="3593.25" cy="627.2508" fill="#84BE84" rx="2.7" ry="2.7" style="stroke:#038048;stroke-width:0.9;"/><text fill="#000000" font-family="sans-serif" font-size="12.6" lengthAdjust="spacing" textLength="319.5" x="3601.35" y="631.118">Optional&lt;ValidationErrorDTO&gt; validate(AgreementDTO)</text></g><!--class EmptyMedicalRiskLimitLevelValidation--><g id="elem_EmptyMedicalRiskLimitLevelValidation"><rect codeLine="92" fill="#F1F1F1" height="143.7539" id="EmptyMedicalRiskLimitLevelValidation" rx="2.25" ry="2.25" style="stroke:#181818;stroke-width:0.45;" width="379.8" x="3958.2" y="527.4123"/><ellipse cx="4036.725" cy="541.8123" fill="#ADD1B2" rx="9.9" ry="9.9" style="stroke:#181818;stroke-width:0.9;"/><path d="M4039.2141,538.0998 Q4039.3547,537.9029 4039.5234,537.8045 Q4039.6922,537.7061 4039.8891,537.7061 Q4040.2266,537.7061 4040.4375,537.9451 Q4040.6484,538.1701 4040.6484,538.7186 L4040.6484,540.0264 Q4040.6484,540.5748 4040.4375,540.8139 Q4040.2266,541.0529 4039.8891,541.0529 Q4039.5797,541.0529 4039.3969,540.8701 Q4039.2141,540.7014 4039.1156,540.2373 Q4039.0734,539.9139 4038.9047,539.7451 Q4038.6094,539.4076 4038.0609,539.2107 Q4037.5125,539.0139 4036.95,539.0139 Q4036.2609,539.0139 4035.6844,539.3092 Q4035.1219,539.6045 4034.6719,540.2795 Q4034.2359,540.9545 4034.2359,541.8826 L4034.2359,542.867 Q4034.2359,543.9779 4035.0375,544.7232 Q4035.8391,545.4545 4037.2734,545.4545 Q4038.1172,545.4545 4038.7078,545.2295 Q4039.0594,545.0889 4039.4391,544.6951 Q4039.6781,544.4561 4039.8047,544.3857 Q4039.9453,544.3154 4040.1281,544.3154 Q4040.4234,544.3154 4040.6484,544.5545 Q4040.8875,544.7795 4040.8875,545.0889 Q4040.8875,545.3982 4040.5781,545.7639 Q4040.1281,546.2842 4039.4109,546.5795 Q4038.4406,546.9873 4037.2734,546.9873 Q4035.9094,546.9873 4034.8266,546.4248 Q4033.9406,545.9748 4033.3219,545.0186 Q4032.7031,544.0482 4032.7031,542.8951 L4032.7031,541.8545 Q4032.7031,540.6592 4033.2516,539.6326 Q4033.8141,538.592 4034.7984,538.0436 Q4035.7828,537.4811 4036.8938,537.4811 Q4037.5547,537.4811 4038.1313,537.6357 Q4038.7219,537.7764 4039.2141,538.0998 Z " fill="#000000"/><text fill="#000000" font-family="sans-serif" font-size="12.6" lengthAdjust="spacing" textLength="215.1" x="4055.175" y="547.0295">EmptyMedicalRiskLimitLevelValidation</text><line style="stroke:#181818;stroke-width:0.45;" x1="3959.1" x2="4337.1" y1="556.2123" y2="556.2123"/><rect fill="none" height="5.4" style="stroke:#C82930;stroke-width:0.9;" width="5.4" x="3965.4" y="566.8418"/><text fill="#000000" font-family="sans-serif" font-size="12.6" lengthAdjust="spacing" textLength="221.4" x="3976.2" y="573.409">Boolean medicalRiskLimitLevelEnabled</text><rect fill="none" height="5.4" style="stroke:#C82930;stroke-width:0.9;" width="5.4" x="3965.4" y="583.6008"/><text fill="#000000" font-family="sans-serif" font-size="12.6" lengthAdjust="spacing" textLength="202.5" x="3976.2" y="590.168">ValidationErrorFactory errorFactory</text><line style="stroke:#181818;stroke-width:0.45;" x1="3959.1" x2="4337.1" y1="596.9303" y2="596.9303"/><ellipse cx="3968.1" cy="610.2598" fill="#84BE84" rx="2.7" ry="2.7" style="stroke:#038048;stroke-width:0.9;"/><text fill="#000000" font-family="sans-serif" font-size="12.6" lengthAdjust="spacing" textLength="319.5" x="3976.2" y="614.127">Optional&lt;ValidationErrorDTO&gt; validate(AgreementDTO)</text><rect fill="#F24D5C" height="5.4" style="stroke:#C82930;stroke-width:0.9;" width="5.4" x="3965.4" y="624.3188"/><text fill="#000000" font-family="sans-serif" font-size="12.6" lengthAdjust="spacing" textLength="238.5" x="3976.2" y="630.8859">boolean isMedicalRiskLimitLevelEnabled()</text><rect fill="#F24D5C" height="5.4" style="stroke:#C82930;stroke-width:0.9;" width="5.4" x="3965.4" y="641.0777"/><text fill="#000000" font-family="sans-serif" font-size="12.6" lengthAdjust="spacing" textLength="274.5" x="3976.2" y="647.6449">boolean containsTravelMedical(AgreementDTO)</text><rect fill="#F24D5C" height="5.4" style="stroke:#C82930;stroke-width:0.9;" width="5.4" x="3965.4" y="657.8367"/><text fill="#000000" font-family="sans-serif" font-size="12.6" lengthAdjust="spacing" textLength="356.4" x="3976.2" y="664.4039">boolean isMedicalRiskLimitLevelIsNullOrBlank(AgreementDTO)</text></g><!--reverse link TravelAgreementFieldValidation to TravelAgreementFieldValidationImpl--><g id="link_TravelAgreementFieldValidation_TravelAgreementFieldValidationImpl"><path codeLine="104" d="M2231.1,342.6153 C2231.1,361.9833 2231.1,369.3453 2231.1,388.7043 " fill="none" id="TravelAgreementFieldValidation-backto-TravelAgreementFieldValidationImpl" style="stroke:#181818;stroke-width:0.9;stroke-dasharray:7.0,7.0;"/><polygon fill="none" points="2231.1,326.4153,2225.7,342.6153,2236.5,342.6153,2231.1,326.4153" style="stroke:#181818;stroke-width:0.9;"/></g><!--reverse link TravelAgreementFieldValidationImpl to MedicalRiskLimitLevelValidation--><g id="link_TravelAgreementFieldValidationImpl_MedicalRiskLimitLevelValidation"><path codeLine="105" d="M2043.2806,430.0826 C1669.7266,435.3926 809.514,454.3323 520.2,519.3123 C501.516,523.5063 482.319,529.3383 463.608,535.9533 " fill="none" id="TravelAgreementFieldValidationImpl-backto-MedicalRiskLimitLevelValidation" style="stroke:#181818;stroke-width:0.9;"/><polygon fill="none" points="2059.479,429.8523,2043.2039,424.6831,2043.3574,435.482,2059.479,429.8523" style="stroke:#181818;stroke-width:0.9;"/></g><!--reverse link TravelAgreementFieldValidationImpl to AgreementDateFromInFutureValidation--><g id="link_TravelAgreementFieldValidationImpl_AgreementDateFromInFutureValidation"><path codeLine="106" d="M2043.1788,433.1349 C1733.7588,442.7199 1110.924,467.6883 894.6,519.3123 C862.506,526.9713 828.882,539.5983 799.128,552.5493 " fill="none" id="TravelAgreementFieldValidationImpl-backto-AgreementDateFromInFutureValidation" style="stroke:#181818;stroke-width:0.9;"/><polygon fill="none" points="2059.371,432.6333,2043.0116,427.7375,2043.346,438.5323,2059.371,432.6333" style="stroke:#181818;stroke-width:0.9;"/></g><!--reverse link TravelAgreementFieldValidationImpl to AgreementDateToInFutureValidation--><g id="link_TravelAgreementFieldValidationImpl_AgreementDateToInFutureValidation"><path codeLine="107" d="M2043.2199,428.931 C1848.6759,433.215 1539.648,450.9393 1269,519.3123 C1237.437,527.2863 1204.317,539.7963 1174.851,552.5403 " fill="none" id="TravelAgreementFieldValidationImpl-backto-AgreementDateToInFutureValidation" style="stroke:#181818;stroke-width:0.9;"/><polygon fill="none" points="2059.416,428.5743,2043.101,423.5323,2043.3388,434.3296,2059.416,428.5743" style="stroke:#181818;stroke-width:0.9;"/></g><!--reverse link TravelAgreementFieldValidationImpl to EmptySelectedRisksValidation--><g id="link_TravelAgreementFieldValidationImpl_EmptySelectedRisksValidation"><path codeLine="108" d="M2043.5159,445.1845 C1925.0039,458.5405 1780.704,480.2433 1643.4,519.3123 C1605.978,529.9593 1566.072,546.1233 1532.754,561.0813 " fill="none" id="TravelAgreementFieldValidationImpl-backto-EmptySelectedRisksValidation" style="stroke:#181818;stroke-width:0.9;"/><polygon fill="none" points="2059.614,443.3703,2042.9112,439.8185,2044.1206,450.5506,2059.614,443.3703" style="stroke:#181818;stroke-width:0.9;"/></g><!--reverse link TravelAgreementFieldValidationImpl to CountryValidation--><g id="link_TravelAgreementFieldValidationImpl_CountryValidation"><path codeLine="109" d="M2128.301,471.74 C2079.836,492.377 2033.28,512.2023 1977.714,535.8633 " fill="none" id="TravelAgreementFieldValidationImpl-backto-CountryValidation" style="stroke:#181818;stroke-width:0.9;"/><polygon fill="none" points="2143.206,465.3933,2126.1854,466.7717,2130.4166,476.7084,2143.206,465.3933" style="stroke:#181818;stroke-width:0.9;"/></g><!--reverse link TravelAgreementFieldValidationImpl to SelectedRisksValidation--><g id="link_TravelAgreementFieldValidationImpl_SelectedRisksValidation"><path codeLine="110" d="M2231.1,481.5933 C2231.1,497.4783 2231.1,500.4393 2231.1,519.2043 " fill="none" id="TravelAgreementFieldValidationImpl-backto-SelectedRisksValidation" style="stroke:#181818;stroke-width:0.9;"/><polygon fill="none" points="2231.1,465.3933,2225.7,481.5933,2236.5,481.5933,2231.1,465.3933" style="stroke:#181818;stroke-width:0.9;"/></g><!--reverse link TravelAgreementFieldValidationImpl to EmptyCountryValidation--><g id="link_TravelAgreementFieldValidationImpl_EmptyCountryValidation"><path codeLine="111" d="M2333.8987,471.7406 C2394.1087,497.3816 2459.457,525.2073 2523.573,552.5133 " fill="none" id="TravelAgreementFieldValidationImpl-backto-EmptyCountryValidation" style="stroke:#181818;stroke-width:0.9;"/><polygon fill="none" points="2318.994,465.3933,2331.783,476.7089,2336.0145,466.7724,2318.994,465.3933" style="stroke:#181818;stroke-width:0.9;"/></g><!--reverse link TravelAgreementFieldValidationImpl to DateFromLessThenDateToValidation--><g id="link_TravelAgreementFieldValidationImpl_DateFromLessThenDateToValidation"><path codeLine="112" d="M2418.6841,445.1845 C2537.1961,458.5405 2681.496,480.2433 2818.8,519.3123 C2856.222,529.9593 2896.128,546.1233 2929.446,561.0813 " fill="none" id="TravelAgreementFieldValidationImpl-backto-DateFromLessThenDateToValidation" style="stroke:#181818;stroke-width:0.9;"/><polygon fill="none" points="2402.586,443.3703,2418.0794,450.5506,2419.2888,439.8185,2402.586,443.3703" style="stroke:#181818;stroke-width:0.9;"/></g><!--reverse link TravelAgreementFieldValidationImpl to AgreementDateFromValidation--><g id="link_TravelAgreementFieldValidationImpl_AgreementDateFromValidation"><path codeLine="113" d="M2418.9801,428.931 C2613.5241,433.215 2922.552,450.9393 3193.2,519.3123 C3231.864,529.0773 3272.868,545.6553 3306.609,561.1263 " fill="none" id="TravelAgreementFieldValidationImpl-backto-AgreementDateFromValidation" style="stroke:#181818;stroke-width:0.9;"/><polygon fill="none" points="2402.784,428.5743,2418.8612,434.3296,2419.099,423.5323,2402.784,428.5743" style="stroke:#181818;stroke-width:0.9;"/></g><!--reverse link TravelAgreementFieldValidationImpl to AgreementDateToValidation--><g id="link_TravelAgreementFieldValidationImpl_AgreementDateToValidation"><path codeLine="114" d="M2419.0212,433.1349 C2728.4412,442.7199 3351.276,467.6883 3567.6,519.3123 C3606.732,528.6453 3648.132,545.3763 3682.026,561.0633 " fill="none" id="TravelAgreementFieldValidationImpl-backto-AgreementDateToValidation" style="stroke:#181818;stroke-width:0.9;"/><polygon fill="none" points="2402.829,432.6333,2418.854,438.5323,2419.1884,427.7375,2402.829,432.6333" style="stroke:#181818;stroke-width:0.9;"/></g><!--reverse link TravelAgreementFieldValidationImpl to EmptyMedicalRiskLimitLevelValidation--><g id="link_TravelAgreementFieldValidationImpl_EmptyMedicalRiskLimitLevelValidation"><path codeLine="115" d="M2418.8197,430.5819 C2792.1667,436.8189 3651.993,457.4643 3942,519.3123 C3952.593,521.5713 3963.357,524.2983 3974.121,527.3583 " fill="none" id="TravelAgreementFieldValidationImpl-backto-EmptyMedicalRiskLimitLevelValidation" style="stroke:#181818;stroke-width:0.9;"/><polygon fill="none" points="2402.622,430.3113,2418.7295,435.9811,2418.9099,425.1827,2402.622,430.3113" style="stroke:#181818;stroke-width:0.9;"/></g><!--SRC=[tLVRJkCm47tFL_YngoN-WWe9IYj5wb84WVT9CXGlZbtPJhNLidmxpeMsf6bQsWQIVVJbs6UEPyOp46YZ83GavA0raMfAVyCSfebAg5sO8wTCw4I12966KY6T0sSH62Q5fZ1LY34AG_rixyNxUCIGHm_BdLuyu-IlyvDCPkaGU7-rDbHAgYj_SawAax6tFCPE_x2eCTEc5f5kAA7-ESwH9lt2Y8N0Rvb-7hEOcJ5Qw8g5jSSbW_GAziXGsOK4Rt4cDJDIBN8zgrOigcJAoEgVGd1jSA1MBWcav0Y2C5t9_rgQImxYUIiE_rWjFN451WBGsBipYebffgV3X47r225-LjHwxx1AlXvaxUitUSRgF7l3ICdO4wF490fBtf4k-op6UyCuYTO6ZVf0-bAdDD2N_vjvmtXc5dV8CJGOfV6XIvQraFqMIYdRR68We_mXS7raMMwI8q72U9IDbk6ztxwpBDvkk4q1Jv97gCvFyXu3cGYZ5XtAhGNZexBfaQBL-M-JqXsISjtTg0_cRC3tUgyKweLBZTsjBbsQNqDymRjboQVQux_2TyFyPazV9vnFL9Nxdi38zuznZ5hxJoZoVwJzMRRcZ-yi-MxfdeN7FgNtPU7GSTNUeO20O_IzjNP1elSn_8G1AqHU4HUmpnwyAtWTvxJrUV-5qYPRGwV9jhF_uhgDDO4jPhv7az8LzbKTI8kvrxKNBQQzKPEqc6ltrAqk-rfCU5S9rwNKryMKrnsltl57lW40]--></g></svg>