<?xml version="1.0" encoding="us-ascii" standalone="no"?><svg xmlns="http://www.w3.org/2000/svg" xmlns:xlink="http://www.w3.org/1999/xlink" contentStyleType="text/css" height="1034px" preserveAspectRatio="none" style="width:7871px;height:1034px;background:#FFFFFF;" version="1.1" viewBox="0 0 7871 1034" width="7871px" zoomAndPan="magnify"><defs/><g><!--cluster org--><g id="cluster_org"><path d="M8.5,6.0137 L33.5,6.0137 A3.75,3.75 0 0 1 36,8.5137 L43,30.6348 L7861.5,30.6348 A2.5,2.5 0 0 1 7864,33.1348 L7864,1024.5137 A2.5,2.5 0 0 1 7861.5,1027.0137 L8.5,1027.0137 A2.5,2.5 0 0 1 6,1024.5137 L6,8.5137 A2.5,2.5 0 0 1 8.5,6.0137 " fill="none" style="stroke:#000000;stroke-width:1.5;"/><line style="stroke:#000000;stroke-width:1.5;" x1="6" x2="43" y1="30.6348" y2="30.6348"/><text fill="#000000" font-family="sans-serif" font-size="14" font-weight="bold" lengthAdjust="spacing" textLength="24" x="10" y="23.1211">org</text></g><!--cluster javaguru--><g id="cluster_javaguru"><path d="M32.5,51.0137 L95.5,51.0137 A3.75,3.75 0 0 1 98,53.5137 L105,75.6348 L7837.5,75.6348 A2.5,2.5 0 0 1 7840,78.1348 L7840,1000.5137 A2.5,2.5 0 0 1 7837.5,1003.0137 L32.5,1003.0137 A2.5,2.5 0 0 1 30,1000.5137 L30,53.5137 A2.5,2.5 0 0 1 32.5,51.0137 " fill="none" style="stroke:#000000;stroke-width:1.5;"/><line style="stroke:#000000;stroke-width:1.5;" x1="30" x2="105" y1="75.6348" y2="75.6348"/><text fill="#000000" font-family="sans-serif" font-size="14" font-weight="bold" lengthAdjust="spacing" textLength="62" x="34" y="68.1211">javaguru</text></g><!--cluster travel--><g id="cluster_travel"><path d="M56.5,96.0137 L98.5,96.0137 A3.75,3.75 0 0 1 101,98.5137 L108,120.6348 L7813.5,120.6348 A2.5,2.5 0 0 1 7816,123.1348 L7816,976.5137 A2.5,2.5 0 0 1 7813.5,979.0137 L56.5,979.0137 A2.5,2.5 0 0 1 54,976.5137 L54,98.5137 A2.5,2.5 0 0 1 56.5,96.0137 " fill="none" style="stroke:#000000;stroke-width:1.5;"/><line style="stroke:#000000;stroke-width:1.5;" x1="54" x2="108" y1="120.6348" y2="120.6348"/><text fill="#000000" font-family="sans-serif" font-size="14" font-weight="bold" lengthAdjust="spacing" textLength="41" x="58" y="113.1211">travel</text></g><!--cluster insurance--><g id="cluster_insurance"><path d="M80.5,141.0137 L151.5,141.0137 A3.75,3.75 0 0 1 154,143.5137 L161,165.6348 L7789.5,165.6348 A2.5,2.5 0 0 1 7792,168.1348 L7792,952.5137 A2.5,2.5 0 0 1 7789.5,955.0137 L80.5,955.0137 A2.5,2.5 0 0 1 78,952.5137 L78,143.5137 A2.5,2.5 0 0 1 80.5,141.0137 " fill="none" style="stroke:#000000;stroke-width:1.5;"/><line style="stroke:#000000;stroke-width:1.5;" x1="78" x2="161" y1="165.6348" y2="165.6348"/><text fill="#000000" font-family="sans-serif" font-size="14" font-weight="bold" lengthAdjust="spacing" textLength="70" x="82" y="158.1211">insurance</text></g><!--cluster core--><g id="cluster_core"><path d="M104.5,186.0137 L137.5,186.0137 A3.75,3.75 0 0 1 140,188.5137 L147,210.6348 L7765.5,210.6348 A2.5,2.5 0 0 1 7768,213.1348 L7768,928.5137 A2.5,2.5 0 0 1 7765.5,931.0137 L104.5,931.0137 A2.5,2.5 0 0 1 102,928.5137 L102,188.5137 A2.5,2.5 0 0 1 104.5,186.0137 " fill="none" style="stroke:#000000;stroke-width:1.5;"/><line style="stroke:#000000;stroke-width:1.5;" x1="102" x2="147" y1="210.6348" y2="210.6348"/><text fill="#000000" font-family="sans-serif" font-size="14" font-weight="bold" lengthAdjust="spacing" textLength="32" x="106" y="203.1211">core</text></g><!--cluster validations--><g id="cluster_validations"><path d="M128.5,231.0137 L206.5,231.0137 A3.75,3.75 0 0 1 209,233.5137 L216,255.6348 L7741.5,255.6348 A2.5,2.5 0 0 1 7744,258.1348 L7744,904.5137 A2.5,2.5 0 0 1 7741.5,907.0137 L128.5,907.0137 A2.5,2.5 0 0 1 126,904.5137 L126,233.5137 A2.5,2.5 0 0 1 128.5,231.0137 " fill="none" style="stroke:#000000;stroke-width:1.5;"/><line style="stroke:#000000;stroke-width:1.5;" x1="126" x2="216" y1="255.6348" y2="255.6348"/><text fill="#000000" font-family="sans-serif" font-size="14" font-weight="bold" lengthAdjust="spacing" textLength="77" x="130" y="248.1211">validations</text></g><!--cluster person--><g id="cluster_person"><path d="M798.5,469.5137 L849.5,469.5137 A3.75,3.75 0 0 1 852,472.0137 L859,494.1348 L2359.5,494.1348 A2.5,2.5 0 0 1 2362,496.6348 L2362,843.5137 A2.5,2.5 0 0 1 2359.5,846.0137 L798.5,846.0137 A2.5,2.5 0 0 1 796,843.5137 L796,472.0137 A2.5,2.5 0 0 1 798.5,469.5137 " fill="none" style="stroke:#000000;stroke-width:1.5;"/><line style="stroke:#000000;stroke-width:1.5;" x1="796" x2="859" y1="494.1348" y2="494.1348"/><text fill="#000000" font-family="sans-serif" font-size="14" font-weight="bold" lengthAdjust="spacing" textLength="50" x="800" y="486.6211">person</text></g><!--cluster agreement--><g id="cluster_agreement"><path d="M2388.5,469.5137 L2465.5,469.5137 A3.75,3.75 0 0 1 2468,472.0137 L2475,494.1348 L7071.5,494.1348 A2.5,2.5 0 0 1 7074,496.6348 L7074,880.5137 A2.5,2.5 0 0 1 7071.5,883.0137 L2388.5,883.0137 A2.5,2.5 0 0 1 2386,880.5137 L2386,472.0137 A2.5,2.5 0 0 1 2388.5,469.5137 " fill="none" style="stroke:#000000;stroke-width:1.5;"/><line style="stroke:#000000;stroke-width:1.5;" x1="2386" x2="2475" y1="494.1348" y2="494.1348"/><text fill="#000000" font-family="sans-serif" font-size="14" font-weight="bold" lengthAdjust="spacing" textLength="76" x="2390" y="486.6211">agreement</text></g><!--class TravelAgreementFieldValidator--><g id="elem_TravelAgreementFieldValidator"><rect codeLine="1" fill="#F1F1F1" height="141.1055" id="TravelAgreementFieldValidator" rx="2.5" ry="2.5" style="stroke:#181818;stroke-width:0.5;" width="637" x="6675.5" y="268.0137"/><ellipse cx="6891.75" cy="284.0137" fill="#ADD1B2" rx="11" ry="11" style="stroke:#181818;stroke-width:1.0;"/><path d="M6894.5156,279.8887 Q6894.6719,279.6699 6894.8594,279.5605 Q6895.0469,279.4512 6895.2656,279.4512 Q6895.6406,279.4512 6895.875,279.7168 Q6896.1094,279.9668 6896.1094,280.5762 L6896.1094,282.0293 Q6896.1094,282.6387 6895.875,282.9043 Q6895.6406,283.1699 6895.2656,283.1699 Q6894.9219,283.1699 6894.7188,282.9668 Q6894.5156,282.7793 6894.4063,282.2637 Q6894.3594,281.9043 6894.1719,281.7168 Q6893.8438,281.3418 6893.2344,281.123 Q6892.625,280.9043 6892,280.9043 Q6891.2344,280.9043 6890.5938,281.2324 Q6889.9688,281.5605 6889.4688,282.3105 Q6888.9844,283.0605 6888.9844,284.0918 L6888.9844,285.1855 Q6888.9844,286.4199 6889.875,287.248 Q6890.7656,288.0605 6892.3594,288.0605 Q6893.2969,288.0605 6893.9531,287.8105 Q6894.3438,287.6543 6894.7656,287.2168 Q6895.0313,286.9512 6895.1719,286.873 Q6895.3281,286.7949 6895.5313,286.7949 Q6895.8594,286.7949 6896.1094,287.0605 Q6896.375,287.3105 6896.375,287.6543 Q6896.375,287.998 6896.0313,288.4043 Q6895.5313,288.9824 6894.7344,289.3105 Q6893.6563,289.7637 6892.3594,289.7637 Q6890.8438,289.7637 6889.6406,289.1387 Q6888.6563,288.6387 6887.9688,287.5762 Q6887.2813,286.498 6887.2813,285.2168 L6887.2813,284.0605 Q6887.2813,282.7324 6887.8906,281.5918 Q6888.5156,280.4355 6889.6094,279.8262 Q6890.7031,279.2012 6891.9375,279.2012 Q6892.6719,279.2012 6893.3125,279.373 Q6893.9688,279.5293 6894.5156,279.8887 Z " fill="#000000"/><text fill="#000000" font-family="sans-serif" font-size="14" lengthAdjust="spacing" textLength="196" x="6912.25" y="289.8105">TravelAgreementFieldValidator</text><line style="stroke:#181818;stroke-width:0.5;" x1="6676.5" x2="7311.5" y1="300.0137" y2="300.0137"/><rect fill="none" height="6" style="stroke:#C82930;stroke-width:1.0;" width="6" x="6683.5" y="311.8242"/><text fill="#000000" font-family="sans-serif" font-size="14" lengthAdjust="spacing" textLength="412" x="6695.5" y="319.1211">List&lt;TravelAgreementFieldValidation&gt; agreementFieldValidations</text><line style="stroke:#181818;stroke-width:0.5;" x1="6676.5" x2="7311.5" y1="326.6348" y2="326.6348"/><polygon fill="#4177AF" points="6686.5,337.4453,6682.5,343.4453,6690.5,343.4453" style="stroke:#1963A0;stroke-width:1.0;"/><text fill="#000000" font-family="sans-serif" font-size="14" lengthAdjust="spacing" textLength="324" x="6695.5" y="345.7422">List&lt;ValidationErrorDTO&gt; validate(AgreementDTO)</text><rect fill="#F24D5C" height="6" style="stroke:#C82930;stroke-width:1.0;" width="6" x="6683.5" y="357.0664"/><text fill="#000000" font-family="sans-serif" font-size="14" lengthAdjust="spacing" textLength="462" x="6695.5" y="364.3633">List&lt;ValidationErrorDTO&gt; collectSingleAgreementErrors(AgreementDTO)</text><rect fill="#F24D5C" height="6" style="stroke:#C82930;stroke-width:1.0;" width="6" x="6683.5" y="375.6875"/><text fill="#000000" font-family="sans-serif" font-size="14" lengthAdjust="spacing" textLength="445" x="6695.5" y="382.9844">List&lt;ValidationErrorDTO&gt; collectListAgreementErrors(AgreementDTO)</text><rect fill="#F24D5C" height="6" style="stroke:#C82930;stroke-width:1.0;" width="6" x="6683.5" y="394.3086"/><text fill="#000000" font-family="sans-serif" font-size="14" lengthAdjust="spacing" textLength="611" x="6695.5" y="401.6055">List&lt;ValidationErrorDTO&gt; concatenateLists(List&lt;ValidationErrorDTO&gt;,List&lt;ValidationErrorDTO&gt;)</text></g><!--class TravelAgreementFieldValidation--><g id="elem_TravelAgreementFieldValidation"><rect codeLine="10" fill="#F1F1F1" height="85.2422" id="TravelAgreementFieldValidation" rx="2.5" ry="2.5" style="stroke:#181818;stroke-width:0.5;" width="381" x="4561.5" y="296.0137"/><ellipse cx="4647.25" cy="312.0137" fill="#B4A7E5" rx="11" ry="11" style="stroke:#181818;stroke-width:1.0;"/><path d="M4648.2031,308.6543 L4648.2031,315.3105 L4649.9219,315.3105 Q4650.5313,315.3105 4650.7969,315.5449 Q4651.0625,315.7793 4651.0625,316.1699 Q4651.0625,316.5449 4650.7969,316.7793 Q4650.5313,317.0137 4649.9219,317.0137 L4644.7813,317.0137 Q4644.1719,317.0137 4643.9063,316.7793 Q4643.6406,316.5449 4643.6406,316.1543 Q4643.6406,315.7793 4643.9063,315.5449 Q4644.1719,315.3105 4644.7813,315.3105 L4646.5,315.3105 L4646.5,308.6543 L4644.7813,308.6543 Q4644.1719,308.6543 4643.9063,308.4199 Q4643.6406,308.1855 4643.6406,307.7949 Q4643.6406,307.4199 4643.9063,307.1855 Q4644.1719,306.9512 4644.7813,306.9512 L4649.9219,306.9512 Q4650.5313,306.9512 4650.7969,307.1855 Q4651.0625,307.4199 4651.0625,307.7949 Q4651.0625,308.1855 4650.7969,308.4199 Q4650.5313,308.6543 4649.9219,308.6543 L4648.2031,308.6543 Z " fill="#000000"/><text fill="#000000" font-family="sans-serif" font-size="14" font-style="italic" lengthAdjust="spacing" textLength="201" x="4667.75" y="317.8105">TravelAgreementFieldValidation</text><line style="stroke:#181818;stroke-width:0.5;" x1="4562.5" x2="4941.5" y1="328.0137" y2="328.0137"/><line style="stroke:#181818;stroke-width:0.5;" x1="4562.5" x2="4941.5" y1="336.0137" y2="336.0137"/><polygon fill="#4177AF" points="4572.5,346.8242,4568.5,352.8242,4576.5,352.8242" style="stroke:#1963A0;stroke-width:1.0;"/><text fill="#000000" font-family="sans-serif" font-size="14" lengthAdjust="spacing" textLength="355" x="4581.5" y="355.1211">Optional&lt;ValidationErrorDTO&gt; validate(AgreementDTO)</text><polygon fill="#4177AF" points="4572.5,365.4453,4568.5,371.4453,4576.5,371.4453" style="stroke:#1963A0;stroke-width:1.0;"/><text fill="#000000" font-family="sans-serif" font-size="14" lengthAdjust="spacing" textLength="346" x="4581.5" y="373.7422">List&lt;ValidationErrorDTO&gt; validateList(AgreementDTO)</text></g><!--class TravelAgreementValidatorImpl--><g id="elem_TravelAgreementValidatorImpl"><rect codeLine="15" fill="#F1F1F1" height="122.4844" id="TravelAgreementValidatorImpl" rx="2.5" ry="2.5" style="stroke:#181818;stroke-width:0.5;" width="637" x="142.5" y="488.0137"/><ellipse cx="361.75" cy="504.0137" fill="#ADD1B2" rx="11" ry="11" style="stroke:#181818;stroke-width:1.0;"/><path d="M364.5156,499.8887 Q364.6719,499.6699 364.8594,499.5605 Q365.0469,499.4512 365.2656,499.4512 Q365.6406,499.4512 365.875,499.7168 Q366.1094,499.9668 366.1094,500.5762 L366.1094,502.0293 Q366.1094,502.6387 365.875,502.9043 Q365.6406,503.1699 365.2656,503.1699 Q364.9219,503.1699 364.7188,502.9668 Q364.5156,502.7793 364.4063,502.2637 Q364.3594,501.9043 364.1719,501.7168 Q363.8438,501.3418 363.2344,501.123 Q362.625,500.9043 362,500.9043 Q361.2344,500.9043 360.5938,501.2324 Q359.9688,501.5605 359.4688,502.3105 Q358.9844,503.0605 358.9844,504.0918 L358.9844,505.1855 Q358.9844,506.4199 359.875,507.248 Q360.7656,508.0605 362.3594,508.0605 Q363.2969,508.0605 363.9531,507.8105 Q364.3438,507.6543 364.7656,507.2168 Q365.0313,506.9512 365.1719,506.873 Q365.3281,506.7949 365.5313,506.7949 Q365.8594,506.7949 366.1094,507.0605 Q366.375,507.3105 366.375,507.6543 Q366.375,507.998 366.0313,508.4043 Q365.5313,508.9824 364.7344,509.3105 Q363.6563,509.7637 362.3594,509.7637 Q360.8438,509.7637 359.6406,509.1387 Q358.6563,508.6387 357.9688,507.5762 Q357.2813,506.498 357.2813,505.2168 L357.2813,504.0605 Q357.2813,502.7324 357.8906,501.5918 Q358.5156,500.4355 359.6094,499.8262 Q360.7031,499.2012 361.9375,499.2012 Q362.6719,499.2012 363.3125,499.373 Q363.9688,499.5293 364.5156,499.8887 Z " fill="#000000"/><text fill="#000000" font-family="sans-serif" font-size="14" lengthAdjust="spacing" textLength="190" x="382.25" y="509.8105">TravelAgreementValidatorImpl</text><line style="stroke:#181818;stroke-width:0.5;" x1="143.5" x2="778.5" y1="520.0137" y2="520.0137"/><rect fill="none" height="6" style="stroke:#C82930;stroke-width:1.0;" width="6" x="150.5" y="531.8242"/><text fill="#000000" font-family="sans-serif" font-size="14" lengthAdjust="spacing" textLength="355" x="162.5" y="539.1211">TravelAgreementFieldValidator agreementFieldValidator</text><rect fill="none" height="6" style="stroke:#C82930;stroke-width:1.0;" width="6" x="150.5" y="550.4453"/><text fill="#000000" font-family="sans-serif" font-size="14" lengthAdjust="spacing" textLength="307" x="162.5" y="557.7422">TravelPersonFieldValidator personFieldValidator</text><line style="stroke:#181818;stroke-width:0.5;" x1="143.5" x2="778.5" y1="565.2559" y2="565.2559"/><ellipse cx="153.5" cy="580.0664" fill="#84BE84" rx="3" ry="3" style="stroke:#038048;stroke-width:1.0;"/><text fill="#000000" font-family="sans-serif" font-size="14" lengthAdjust="spacing" textLength="324" x="162.5" y="584.3633">List&lt;ValidationErrorDTO&gt; validate(AgreementDTO)</text><rect fill="#F24D5C" height="6" style="stroke:#C82930;stroke-width:1.0;" width="6" x="150.5" y="595.6875"/><text fill="#000000" font-family="sans-serif" font-size="14" lengthAdjust="spacing" textLength="611" x="162.5" y="602.9844">List&lt;ValidationErrorDTO&gt; concatenateLists(List&lt;ValidationErrorDTO&gt;,List&lt;ValidationErrorDTO&gt;)</text></g><!--class ValidationErrorFactory--><g id="elem_ValidationErrorFactory"><rect codeLine="69" fill="#F1F1F1" height="103.8633" id="ValidationErrorFactory" rx="2.5" ry="2.5" style="stroke:#181818;stroke-width:0.5;" width="380" x="7348" y="286.5137"/><ellipse cx="7462.75" cy="302.5137" fill="#ADD1B2" rx="11" ry="11" style="stroke:#181818;stroke-width:1.0;"/><path d="M7465.5156,298.3887 Q7465.6719,298.1699 7465.8594,298.0605 Q7466.0469,297.9512 7466.2656,297.9512 Q7466.6406,297.9512 7466.875,298.2168 Q7467.1094,298.4668 7467.1094,299.0762 L7467.1094,300.5293 Q7467.1094,301.1387 7466.875,301.4043 Q7466.6406,301.6699 7466.2656,301.6699 Q7465.9219,301.6699 7465.7188,301.4668 Q7465.5156,301.2793 7465.4063,300.7637 Q7465.3594,300.4043 7465.1719,300.2168 Q7464.8438,299.8418 7464.2344,299.623 Q7463.625,299.4043 7463,299.4043 Q7462.2344,299.4043 7461.5938,299.7324 Q7460.9688,300.0605 7460.4688,300.8105 Q7459.9844,301.5605 7459.9844,302.5918 L7459.9844,303.6855 Q7459.9844,304.9199 7460.875,305.748 Q7461.7656,306.5605 7463.3594,306.5605 Q7464.2969,306.5605 7464.9531,306.3105 Q7465.3438,306.1543 7465.7656,305.7168 Q7466.0313,305.4512 7466.1719,305.373 Q7466.3281,305.2949 7466.5313,305.2949 Q7466.8594,305.2949 7467.1094,305.5605 Q7467.375,305.8105 7467.375,306.1543 Q7467.375,306.498 7467.0313,306.9043 Q7466.5313,307.4824 7465.7344,307.8105 Q7464.6563,308.2637 7463.3594,308.2637 Q7461.8438,308.2637 7460.6406,307.6387 Q7459.6563,307.1387 7458.9688,306.0762 Q7458.2813,304.998 7458.2813,303.7168 L7458.2813,302.5605 Q7458.2813,301.2324 7458.8906,300.0918 Q7459.5156,298.9355 7460.6094,298.3262 Q7461.7031,297.7012 7462.9375,297.7012 Q7463.6719,297.7012 7464.3125,297.873 Q7464.9688,298.0293 7465.5156,298.3887 Z " fill="#000000"/><text fill="#000000" font-family="sans-serif" font-size="14" lengthAdjust="spacing" textLength="142" x="7483.25" y="308.3105">ValidationErrorFactory</text><line style="stroke:#181818;stroke-width:0.5;" x1="7349" x2="7727" y1="318.5137" y2="318.5137"/><rect fill="none" height="6" style="stroke:#C82930;stroke-width:1.0;" width="6" x="7356" y="330.3242"/><text fill="#000000" font-family="sans-serif" font-size="14" lengthAdjust="spacing" textLength="173" x="7368" y="337.6211">ErrorCodeUtil errorCodeUtil</text><line style="stroke:#181818;stroke-width:0.5;" x1="7349" x2="7727" y1="345.1348" y2="345.1348"/><ellipse cx="7359" cy="359.9453" fill="#84BE84" rx="3" ry="3" style="stroke:#038048;stroke-width:1.0;"/><text fill="#000000" font-family="sans-serif" font-size="14" lengthAdjust="spacing" textLength="237" x="7368" y="364.2422">ValidationErrorDTO buildError(String)</text><ellipse cx="7359" cy="378.5664" fill="#84BE84" rx="3" ry="3" style="stroke:#038048;stroke-width:1.0;"/><text fill="#000000" font-family="sans-serif" font-size="14" lengthAdjust="spacing" textLength="354" x="7368" y="382.8633">ValidationErrorDTO buildError(String,List&lt;Placeholder&gt;)</text></g><!--class TravelPersonFieldValidation--><g id="elem_TravelPersonFieldValidation"><rect codeLine="92" fill="#F1F1F1" height="85.2422" id="TravelPersonFieldValidation" rx="2.5" ry="2.5" style="stroke:#181818;stroke-width:0.5;" width="357" x="1400.5" y="296.0137"/><ellipse cx="1486.25" cy="312.0137" fill="#B4A7E5" rx="11" ry="11" style="stroke:#181818;stroke-width:1.0;"/><path d="M1487.2031,308.6543 L1487.2031,315.3105 L1488.9219,315.3105 Q1489.5313,315.3105 1489.7969,315.5449 Q1490.0625,315.7793 1490.0625,316.1699 Q1490.0625,316.5449 1489.7969,316.7793 Q1489.5313,317.0137 1488.9219,317.0137 L1483.7813,317.0137 Q1483.1719,317.0137 1482.9063,316.7793 Q1482.6406,316.5449 1482.6406,316.1543 Q1482.6406,315.7793 1482.9063,315.5449 Q1483.1719,315.3105 1483.7813,315.3105 L1485.5,315.3105 L1485.5,308.6543 L1483.7813,308.6543 Q1483.1719,308.6543 1482.9063,308.4199 Q1482.6406,308.1855 1482.6406,307.7949 Q1482.6406,307.4199 1482.9063,307.1855 Q1483.1719,306.9512 1483.7813,306.9512 L1488.9219,306.9512 Q1489.5313,306.9512 1489.7969,307.1855 Q1490.0625,307.4199 1490.0625,307.7949 Q1490.0625,308.1855 1489.7969,308.4199 Q1489.5313,308.6543 1488.9219,308.6543 L1487.2031,308.6543 Z " fill="#000000"/><text fill="#000000" font-family="sans-serif" font-size="14" font-style="italic" lengthAdjust="spacing" textLength="177" x="1506.75" y="317.8105">TravelPersonFieldValidation</text><line style="stroke:#181818;stroke-width:0.5;" x1="1401.5" x2="1756.5" y1="328.0137" y2="328.0137"/><line style="stroke:#181818;stroke-width:0.5;" x1="1401.5" x2="1756.5" y1="336.0137" y2="336.0137"/><polygon fill="#4177AF" points="1411.5,346.8242,1407.5,352.8242,1415.5,352.8242" style="stroke:#1963A0;stroke-width:1.0;"/><text fill="#000000" font-family="sans-serif" font-size="14" lengthAdjust="spacing" textLength="331" x="1420.5" y="355.1211">Optional&lt;ValidationErrorDTO&gt; validate(PersonDTO)</text><polygon fill="#4177AF" points="1411.5,365.4453,1407.5,371.4453,1415.5,371.4453" style="stroke:#1963A0;stroke-width:1.0;"/><text fill="#000000" font-family="sans-serif" font-size="14" lengthAdjust="spacing" textLength="322" x="1420.5" y="373.7422">List&lt;ValidationErrorDTO&gt; validateList(PersonDTO)</text></g><!--class TravelPersonFieldValidator--><g id="elem_TravelPersonFieldValidator"><rect codeLine="102" fill="#F1F1F1" height="159.7266" id="TravelPersonFieldValidator" rx="2.5" ry="2.5" style="stroke:#181818;stroke-width:0.5;" width="637" x="7090.5" y="469.0137"/><ellipse cx="7318.75" cy="485.0137" fill="#ADD1B2" rx="11" ry="11" style="stroke:#181818;stroke-width:1.0;"/><path d="M7321.5156,480.8887 Q7321.6719,480.6699 7321.8594,480.5605 Q7322.0469,480.4512 7322.2656,480.4512 Q7322.6406,480.4512 7322.875,480.7168 Q7323.1094,480.9668 7323.1094,481.5762 L7323.1094,483.0293 Q7323.1094,483.6387 7322.875,483.9043 Q7322.6406,484.1699 7322.2656,484.1699 Q7321.9219,484.1699 7321.7188,483.9668 Q7321.5156,483.7793 7321.4063,483.2637 Q7321.3594,482.9043 7321.1719,482.7168 Q7320.8438,482.3418 7320.2344,482.123 Q7319.625,481.9043 7319,481.9043 Q7318.2344,481.9043 7317.5938,482.2324 Q7316.9688,482.5605 7316.4688,483.3105 Q7315.9844,484.0605 7315.9844,485.0918 L7315.9844,486.1855 Q7315.9844,487.4199 7316.875,488.248 Q7317.7656,489.0605 7319.3594,489.0605 Q7320.2969,489.0605 7320.9531,488.8105 Q7321.3438,488.6543 7321.7656,488.2168 Q7322.0313,487.9512 7322.1719,487.873 Q7322.3281,487.7949 7322.5313,487.7949 Q7322.8594,487.7949 7323.1094,488.0605 Q7323.375,488.3105 7323.375,488.6543 Q7323.375,488.998 7323.0313,489.4043 Q7322.5313,489.9824 7321.7344,490.3105 Q7320.6563,490.7637 7319.3594,490.7637 Q7317.8438,490.7637 7316.6406,490.1387 Q7315.6563,489.6387 7314.9688,488.5762 Q7314.2813,487.498 7314.2813,486.2168 L7314.2813,485.0605 Q7314.2813,483.7324 7314.8906,482.5918 Q7315.5156,481.4355 7316.6094,480.8262 Q7317.7031,480.2012 7318.9375,480.2012 Q7319.6719,480.2012 7320.3125,480.373 Q7320.9688,480.5293 7321.5156,480.8887 Z " fill="#000000"/><text fill="#000000" font-family="sans-serif" font-size="14" lengthAdjust="spacing" textLength="172" x="7339.25" y="490.8105">TravelPersonFieldValidator</text><line style="stroke:#181818;stroke-width:0.5;" x1="7091.5" x2="7726.5" y1="501.0137" y2="501.0137"/><rect fill="none" height="6" style="stroke:#C82930;stroke-width:1.0;" width="6" x="7098.5" y="512.8242"/><text fill="#000000" font-family="sans-serif" font-size="14" lengthAdjust="spacing" textLength="364" x="7110.5" y="520.1211">List&lt;TravelPersonFieldValidation&gt; personFieldValidations</text><line style="stroke:#181818;stroke-width:0.5;" x1="7091.5" x2="7726.5" y1="527.6348" y2="527.6348"/><polygon fill="#4177AF" points="7101.5,538.4453,7097.5,544.4453,7105.5,544.4453" style="stroke:#1963A0;stroke-width:1.0;"/><text fill="#000000" font-family="sans-serif" font-size="14" lengthAdjust="spacing" textLength="338" x="7110.5" y="546.7422">List&lt;ValidationErrorDTO&gt; validate(List&lt;PersonDTO&gt;)</text><rect fill="#F24D5C" height="6" style="stroke:#C82930;stroke-width:1.0;" width="6" x="7098.5" y="558.0664"/><text fill="#000000" font-family="sans-serif" font-size="14" lengthAdjust="spacing" textLength="375" x="7110.5" y="565.3633">List&lt;ValidationErrorDTO&gt; collectPersonErrors(PersonDTO)</text><rect fill="#F24D5C" height="6" style="stroke:#C82930;stroke-width:1.0;" width="6" x="7098.5" y="576.6875"/><text fill="#000000" font-family="sans-serif" font-size="14" lengthAdjust="spacing" textLength="414" x="7110.5" y="583.9844">List&lt;ValidationErrorDTO&gt; collectSinglePersonErrors(PersonDTO)</text><rect fill="#F24D5C" height="6" style="stroke:#C82930;stroke-width:1.0;" width="6" x="7098.5" y="595.3086"/><text fill="#000000" font-family="sans-serif" font-size="14" lengthAdjust="spacing" textLength="397" x="7110.5" y="602.6055">List&lt;ValidationErrorDTO&gt; collectListPersonErrors(PersonDTO)</text><rect fill="#F24D5C" height="6" style="stroke:#C82930;stroke-width:1.0;" width="6" x="7098.5" y="613.9297"/><text fill="#000000" font-family="sans-serif" font-size="14" lengthAdjust="spacing" textLength="611" x="7110.5" y="621.2266">List&lt;ValidationErrorDTO&gt; concatenateLists(List&lt;ValidationErrorDTO&gt;,List&lt;ValidationErrorDTO&gt;)</text></g><!--class TravelAgreementValidator--><g id="elem_TravelAgreementValidator"><rect codeLine="139" fill="#F1F1F1" height="66.6211" id="TravelAgreementValidator" rx="2.5" ry="2.5" style="stroke:#181818;stroke-width:0.5;" width="350" x="286" y="305.0137"/><ellipse cx="374.75" cy="321.0137" fill="#B4A7E5" rx="11" ry="11" style="stroke:#181818;stroke-width:1.0;"/><path d="M375.7031,317.6543 L375.7031,324.3105 L377.4219,324.3105 Q378.0313,324.3105 378.2969,324.5449 Q378.5625,324.7793 378.5625,325.1699 Q378.5625,325.5449 378.2969,325.7793 Q378.0313,326.0137 377.4219,326.0137 L372.2813,326.0137 Q371.6719,326.0137 371.4063,325.7793 Q371.1406,325.5449 371.1406,325.1543 Q371.1406,324.7793 371.4063,324.5449 Q371.6719,324.3105 372.2813,324.3105 L374,324.3105 L374,317.6543 L372.2813,317.6543 Q371.6719,317.6543 371.4063,317.4199 Q371.1406,317.1855 371.1406,316.7949 Q371.1406,316.4199 371.4063,316.1855 Q371.6719,315.9512 372.2813,315.9512 L377.4219,315.9512 Q378.0313,315.9512 378.2969,316.1855 Q378.5625,316.4199 378.5625,316.7949 Q378.5625,317.1855 378.2969,317.4199 Q378.0313,317.6543 377.4219,317.6543 L375.7031,317.6543 Z " fill="#000000"/><text fill="#000000" font-family="sans-serif" font-size="14" font-style="italic" lengthAdjust="spacing" textLength="164" x="395.25" y="326.8105">TravelAgreementValidator</text><line style="stroke:#181818;stroke-width:0.5;" x1="287" x2="635" y1="337.0137" y2="337.0137"/><line style="stroke:#181818;stroke-width:0.5;" x1="287" x2="635" y1="345.0137" y2="345.0137"/><polygon fill="#4177AF" points="297,355.8242,293,361.8242,301,361.8242" style="stroke:#1963A0;stroke-width:1.0;"/><text fill="#000000" font-family="sans-serif" font-size="14" lengthAdjust="spacing" textLength="324" x="306" y="364.1211">List&lt;ValidationErrorDTO&gt; validate(AgreementDTO)</text></g><!--class PersonLastNameValidation--><g id="elem_PersonLastNameValidation"><rect codeLine="23" fill="#F1F1F1" height="85.2422" id="PersonLastNameValidation" rx="2.5" ry="2.5" style="stroke:#181818;stroke-width:0.5;" width="357" x="812.5" y="735.5137"/><ellipse cx="901.75" cy="751.5137" fill="#ADD1B2" rx="11" ry="11" style="stroke:#181818;stroke-width:1.0;"/><path d="M904.5156,747.3887 Q904.6719,747.1699 904.8594,747.0605 Q905.0469,746.9512 905.2656,746.9512 Q905.6406,746.9512 905.875,747.2168 Q906.1094,747.4668 906.1094,748.0762 L906.1094,749.5293 Q906.1094,750.1387 905.875,750.4043 Q905.6406,750.6699 905.2656,750.6699 Q904.9219,750.6699 904.7188,750.4668 Q904.5156,750.2793 904.4063,749.7637 Q904.3594,749.4043 904.1719,749.2168 Q903.8438,748.8418 903.2344,748.623 Q902.625,748.4043 902,748.4043 Q901.2344,748.4043 900.5938,748.7324 Q899.9688,749.0605 899.4688,749.8105 Q898.9844,750.5605 898.9844,751.5918 L898.9844,752.6855 Q898.9844,753.9199 899.875,754.748 Q900.7656,755.5605 902.3594,755.5605 Q903.2969,755.5605 903.9531,755.3105 Q904.3438,755.1543 904.7656,754.7168 Q905.0313,754.4512 905.1719,754.373 Q905.3281,754.2949 905.5313,754.2949 Q905.8594,754.2949 906.1094,754.5605 Q906.375,754.8105 906.375,755.1543 Q906.375,755.498 906.0313,755.9043 Q905.5313,756.4824 904.7344,756.8105 Q903.6563,757.2637 902.3594,757.2637 Q900.8438,757.2637 899.6406,756.6387 Q898.6563,756.1387 897.9688,755.0762 Q897.2813,753.998 897.2813,752.7168 L897.2813,751.5605 Q897.2813,750.2324 897.8906,749.0918 Q898.5156,747.9355 899.6094,747.3262 Q900.7031,746.7012 901.9375,746.7012 Q902.6719,746.7012 903.3125,746.873 Q903.9688,747.0293 904.5156,747.3887 Z " fill="#000000"/><text fill="#000000" font-family="sans-serif" font-size="14" lengthAdjust="spacing" textLength="170" x="922.25" y="757.3105">PersonLastNameValidation</text><line style="stroke:#181818;stroke-width:0.5;" x1="813.5" x2="1168.5" y1="767.5137" y2="767.5137"/><rect fill="none" height="6" style="stroke:#C82930;stroke-width:1.0;" width="6" x="820.5" y="779.3242"/><text fill="#000000" font-family="sans-serif" font-size="14" lengthAdjust="spacing" textLength="225" x="832.5" y="786.6211">ValidationErrorFactory errorFactory</text><line style="stroke:#181818;stroke-width:0.5;" x1="813.5" x2="1168.5" y1="794.1348" y2="794.1348"/><ellipse cx="823.5" cy="808.9453" fill="#84BE84" rx="3" ry="3" style="stroke:#038048;stroke-width:1.0;"/><text fill="#000000" font-family="sans-serif" font-size="14" lengthAdjust="spacing" textLength="331" x="832.5" y="813.2422">Optional&lt;ValidationErrorDTO&gt; validate(PersonDTO)</text></g><!--class PersonBirthDateInThePastValidation--><g id="elem_PersonBirthDateInThePastValidation"><rect codeLine="49" fill="#F1F1F1" height="103.8633" id="PersonBirthDateInThePastValidation" rx="2.5" ry="2.5" style="stroke:#181818;stroke-width:0.5;" width="357" x="1204.5" y="726.0137"/><ellipse cx="1263.75" cy="742.0137" fill="#ADD1B2" rx="11" ry="11" style="stroke:#181818;stroke-width:1.0;"/><path d="M1266.5156,737.8887 Q1266.6719,737.6699 1266.8594,737.5605 Q1267.0469,737.4512 1267.2656,737.4512 Q1267.6406,737.4512 1267.875,737.7168 Q1268.1094,737.9668 1268.1094,738.5762 L1268.1094,740.0293 Q1268.1094,740.6387 1267.875,740.9043 Q1267.6406,741.1699 1267.2656,741.1699 Q1266.9219,741.1699 1266.7188,740.9668 Q1266.5156,740.7793 1266.4063,740.2637 Q1266.3594,739.9043 1266.1719,739.7168 Q1265.8438,739.3418 1265.2344,739.123 Q1264.625,738.9043 1264,738.9043 Q1263.2344,738.9043 1262.5938,739.2324 Q1261.9688,739.5605 1261.4688,740.3105 Q1260.9844,741.0605 1260.9844,742.0918 L1260.9844,743.1855 Q1260.9844,744.4199 1261.875,745.248 Q1262.7656,746.0605 1264.3594,746.0605 Q1265.2969,746.0605 1265.9531,745.8105 Q1266.3438,745.6543 1266.7656,745.2168 Q1267.0313,744.9512 1267.1719,744.873 Q1267.3281,744.7949 1267.5313,744.7949 Q1267.8594,744.7949 1268.1094,745.0605 Q1268.375,745.3105 1268.375,745.6543 Q1268.375,745.998 1268.0313,746.4043 Q1267.5313,746.9824 1266.7344,747.3105 Q1265.6563,747.7637 1264.3594,747.7637 Q1262.8438,747.7637 1261.6406,747.1387 Q1260.6563,746.6387 1259.9688,745.5762 Q1259.2813,744.498 1259.2813,743.2168 L1259.2813,742.0605 Q1259.2813,740.7324 1259.8906,739.5918 Q1260.5156,738.4355 1261.6094,737.8262 Q1262.7031,737.2012 1263.9375,737.2012 Q1264.6719,737.2012 1265.3125,737.373 Q1265.9688,737.5293 1266.5156,737.8887 Z " fill="#000000"/><text fill="#000000" font-family="sans-serif" font-size="14" lengthAdjust="spacing" textLength="230" x="1284.25" y="747.8105">PersonBirthDateInThePastValidation</text><line style="stroke:#181818;stroke-width:0.5;" x1="1205.5" x2="1560.5" y1="758.0137" y2="758.0137"/><rect fill="none" height="6" style="stroke:#C82930;stroke-width:1.0;" width="6" x="1212.5" y="769.8242"/><text fill="#000000" font-family="sans-serif" font-size="14" lengthAdjust="spacing" textLength="162" x="1224.5" y="777.1211">DateTimeUtil dateTimeUtil</text><rect fill="none" height="6" style="stroke:#C82930;stroke-width:1.0;" width="6" x="1212.5" y="788.4453"/><text fill="#000000" font-family="sans-serif" font-size="14" lengthAdjust="spacing" textLength="225" x="1224.5" y="795.7422">ValidationErrorFactory errorFactory</text><line style="stroke:#181818;stroke-width:0.5;" x1="1205.5" x2="1560.5" y1="803.2559" y2="803.2559"/><ellipse cx="1215.5" cy="818.0664" fill="#84BE84" rx="3" ry="3" style="stroke:#038048;stroke-width:1.0;"/><text fill="#000000" font-family="sans-serif" font-size="14" lengthAdjust="spacing" textLength="331" x="1224.5" y="822.3633">Optional&lt;ValidationErrorDTO&gt; validate(PersonDTO)</text></g><!--class TravelPersonFieldValidationImpl--><g id="elem_TravelPersonFieldValidationImpl"><rect codeLine="97" fill="#F1F1F1" height="85.2422" id="TravelPersonFieldValidationImpl" rx="2.5" ry="2.5" style="stroke:#181818;stroke-width:0.5;" width="357" x="1400.5" y="506.5137"/><ellipse cx="1473.25" cy="522.5137" fill="#A9DCDF" rx="11" ry="11" style="stroke:#181818;stroke-width:1.0;"/><path d="M1475.4375,524.2793 L1471.2969,524.2793 L1470.875,525.3105 L1471.2969,525.3105 Q1471.9063,525.3105 1472.1719,525.5449 Q1472.4375,525.7793 1472.4375,526.1699 Q1472.4375,526.5449 1472.1719,526.7793 Q1471.9063,527.0137 1471.2969,527.0137 L1469,527.0137 Q1468.3906,527.0137 1468.1406,526.7793 Q1467.875,526.5449 1467.875,526.1543 Q1467.875,525.7793 1468.1563,525.5449 Q1468.4219,525.2949 1469.0469,525.3105 L1471.7188,518.6543 L1470.6094,518.6543 Q1470,518.6543 1469.7344,518.4199 Q1469.4688,518.1855 1469.4688,517.7949 Q1469.4688,517.4199 1469.7344,517.1855 Q1470,516.9512 1470.6094,516.9512 L1474.2813,516.9512 L1477.6719,525.3105 Q1478.2656,525.3105 1478.4531,525.4512 Q1478.8438,525.7168 1478.8438,526.1699 Q1478.8438,526.5449 1478.5781,526.7793 Q1478.3281,527.0137 1477.7188,527.0137 L1475.4219,527.0137 Q1474.8125,527.0137 1474.5469,526.7793 Q1474.2813,526.5449 1474.2813,526.1543 Q1474.2813,525.7793 1474.5469,525.5449 Q1474.8125,525.3105 1475.4219,525.3105 L1475.8438,525.3105 L1475.4375,524.2793 Z M1474.7188,522.5762 L1473.3594,519.2012 L1471.9844,522.5762 L1474.7188,522.5762 Z " fill="#000000"/><text fill="#000000" font-family="sans-serif" font-size="14" font-style="italic" lengthAdjust="spacing" textLength="203" x="1493.75" y="528.3105">TravelPersonFieldValidationImpl</text><line style="stroke:#181818;stroke-width:0.5;" x1="1401.5" x2="1756.5" y1="538.5137" y2="538.5137"/><line style="stroke:#181818;stroke-width:0.5;" x1="1401.5" x2="1756.5" y1="546.5137" y2="546.5137"/><ellipse cx="1411.5" cy="561.3242" fill="#84BE84" rx="3" ry="3" style="stroke:#038048;stroke-width:1.0;"/><text fill="#000000" font-family="sans-serif" font-size="14" lengthAdjust="spacing" textLength="331" x="1420.5" y="565.6211">Optional&lt;ValidationErrorDTO&gt; validate(PersonDTO)</text><ellipse cx="1411.5" cy="579.9453" fill="#84BE84" rx="3" ry="3" style="stroke:#038048;stroke-width:1.0;"/><text fill="#000000" font-family="sans-serif" font-size="14" lengthAdjust="spacing" textLength="322" x="1420.5" y="584.2422">List&lt;ValidationErrorDTO&gt; validateList(PersonDTO)</text></g><!--class PersonFirstNameValidation--><g id="elem_PersonFirstNameValidation"><rect codeLine="119" fill="#F1F1F1" height="85.2422" id="PersonFirstNameValidation" rx="2.5" ry="2.5" style="stroke:#181818;stroke-width:0.5;" width="357" x="1596.5" y="735.5137"/><ellipse cx="1685.25" cy="751.5137" fill="#ADD1B2" rx="11" ry="11" style="stroke:#181818;stroke-width:1.0;"/><path d="M1688.0156,747.3887 Q1688.1719,747.1699 1688.3594,747.0605 Q1688.5469,746.9512 1688.7656,746.9512 Q1689.1406,746.9512 1689.375,747.2168 Q1689.6094,747.4668 1689.6094,748.0762 L1689.6094,749.5293 Q1689.6094,750.1387 1689.375,750.4043 Q1689.1406,750.6699 1688.7656,750.6699 Q1688.4219,750.6699 1688.2188,750.4668 Q1688.0156,750.2793 1687.9063,749.7637 Q1687.8594,749.4043 1687.6719,749.2168 Q1687.3438,748.8418 1686.7344,748.623 Q1686.125,748.4043 1685.5,748.4043 Q1684.7344,748.4043 1684.0938,748.7324 Q1683.4688,749.0605 1682.9688,749.8105 Q1682.4844,750.5605 1682.4844,751.5918 L1682.4844,752.6855 Q1682.4844,753.9199 1683.375,754.748 Q1684.2656,755.5605 1685.8594,755.5605 Q1686.7969,755.5605 1687.4531,755.3105 Q1687.8438,755.1543 1688.2656,754.7168 Q1688.5313,754.4512 1688.6719,754.373 Q1688.8281,754.2949 1689.0313,754.2949 Q1689.3594,754.2949 1689.6094,754.5605 Q1689.875,754.8105 1689.875,755.1543 Q1689.875,755.498 1689.5313,755.9043 Q1689.0313,756.4824 1688.2344,756.8105 Q1687.1563,757.2637 1685.8594,757.2637 Q1684.3438,757.2637 1683.1406,756.6387 Q1682.1563,756.1387 1681.4688,755.0762 Q1680.7813,753.998 1680.7813,752.7168 L1680.7813,751.5605 Q1680.7813,750.2324 1681.3906,749.0918 Q1682.0156,747.9355 1683.1094,747.3262 Q1684.2031,746.7012 1685.4375,746.7012 Q1686.1719,746.7012 1686.8125,746.873 Q1687.4688,747.0293 1688.0156,747.3887 Z " fill="#000000"/><text fill="#000000" font-family="sans-serif" font-size="14" lengthAdjust="spacing" textLength="171" x="1705.75" y="757.3105">PersonFirstNameValidation</text><line style="stroke:#181818;stroke-width:0.5;" x1="1597.5" x2="1952.5" y1="767.5137" y2="767.5137"/><rect fill="none" height="6" style="stroke:#C82930;stroke-width:1.0;" width="6" x="1604.5" y="779.3242"/><text fill="#000000" font-family="sans-serif" font-size="14" lengthAdjust="spacing" textLength="225" x="1616.5" y="786.6211">ValidationErrorFactory errorFactory</text><line style="stroke:#181818;stroke-width:0.5;" x1="1597.5" x2="1952.5" y1="794.1348" y2="794.1348"/><ellipse cx="1607.5" cy="808.9453" fill="#84BE84" rx="3" ry="3" style="stroke:#038048;stroke-width:1.0;"/><text fill="#000000" font-family="sans-serif" font-size="14" lengthAdjust="spacing" textLength="331" x="1616.5" y="813.2422">Optional&lt;ValidationErrorDTO&gt; validate(PersonDTO)</text></g><!--class EmptyPersonBirthDateValidation--><g id="elem_EmptyPersonBirthDateValidation"><rect codeLine="149" fill="#F1F1F1" height="103.8633" id="EmptyPersonBirthDateValidation" rx="2.5" ry="2.5" style="stroke:#181818;stroke-width:0.5;" width="357" x="1988.5" y="726.0137"/><ellipse cx="2060.25" cy="742.0137" fill="#ADD1B2" rx="11" ry="11" style="stroke:#181818;stroke-width:1.0;"/><path d="M2063.0156,737.8887 Q2063.1719,737.6699 2063.3594,737.5605 Q2063.5469,737.4512 2063.7656,737.4512 Q2064.1406,737.4512 2064.375,737.7168 Q2064.6094,737.9668 2064.6094,738.5762 L2064.6094,740.0293 Q2064.6094,740.6387 2064.375,740.9043 Q2064.1406,741.1699 2063.7656,741.1699 Q2063.4219,741.1699 2063.2188,740.9668 Q2063.0156,740.7793 2062.9063,740.2637 Q2062.8594,739.9043 2062.6719,739.7168 Q2062.3438,739.3418 2061.7344,739.123 Q2061.125,738.9043 2060.5,738.9043 Q2059.7344,738.9043 2059.0938,739.2324 Q2058.4688,739.5605 2057.9688,740.3105 Q2057.4844,741.0605 2057.4844,742.0918 L2057.4844,743.1855 Q2057.4844,744.4199 2058.375,745.248 Q2059.2656,746.0605 2060.8594,746.0605 Q2061.7969,746.0605 2062.4531,745.8105 Q2062.8438,745.6543 2063.2656,745.2168 Q2063.5313,744.9512 2063.6719,744.873 Q2063.8281,744.7949 2064.0313,744.7949 Q2064.3594,744.7949 2064.6094,745.0605 Q2064.875,745.3105 2064.875,745.6543 Q2064.875,745.998 2064.5313,746.4043 Q2064.0313,746.9824 2063.2344,747.3105 Q2062.1563,747.7637 2060.8594,747.7637 Q2059.3438,747.7637 2058.1406,747.1387 Q2057.1563,746.6387 2056.4688,745.5762 Q2055.7813,744.498 2055.7813,743.2168 L2055.7813,742.0605 Q2055.7813,740.7324 2056.3906,739.5918 Q2057.0156,738.4355 2058.1094,737.8262 Q2059.2031,737.2012 2060.4375,737.2012 Q2061.1719,737.2012 2061.8125,737.373 Q2062.4688,737.5293 2063.0156,737.8887 Z " fill="#000000"/><text fill="#000000" font-family="sans-serif" font-size="14" lengthAdjust="spacing" textLength="205" x="2080.75" y="747.8105">EmptyPersonBirthDateValidation</text><line style="stroke:#181818;stroke-width:0.5;" x1="1989.5" x2="2344.5" y1="758.0137" y2="758.0137"/><rect fill="none" height="6" style="stroke:#C82930;stroke-width:1.0;" width="6" x="1996.5" y="769.8242"/><text fill="#000000" font-family="sans-serif" font-size="14" lengthAdjust="spacing" textLength="225" x="2008.5" y="777.1211">ValidationErrorFactory errorFactory</text><line style="stroke:#181818;stroke-width:0.5;" x1="1989.5" x2="2344.5" y1="784.6348" y2="784.6348"/><ellipse cx="1999.5" cy="799.4453" fill="#84BE84" rx="3" ry="3" style="stroke:#038048;stroke-width:1.0;"/><text fill="#000000" font-family="sans-serif" font-size="14" lengthAdjust="spacing" textLength="331" x="2008.5" y="803.7422">Optional&lt;ValidationErrorDTO&gt; validate(PersonDTO)</text><rect fill="#F24D5C" height="6" style="stroke:#C82930;stroke-width:1.0;" width="6" x="1996.5" y="815.0664"/><text fill="#000000" font-family="sans-serif" font-size="14" lengthAdjust="spacing" textLength="276" x="2008.5" y="822.3633">boolean personBirthDateIsNull(PersonDTO)</text></g><!--class SelectedRisksValidation--><g id="elem_SelectedRisksValidation"><rect codeLine="29" fill="#F1F1F1" height="178.3477" id="SelectedRisksValidation" rx="2.5" ry="2.5" style="stroke:#181818;stroke-width:0.5;" width="439" x="2402.5" y="689.0137"/><ellipse cx="2542.25" cy="705.0137" fill="#ADD1B2" rx="11" ry="11" style="stroke:#181818;stroke-width:1.0;"/><path d="M2545.0156,700.8887 Q2545.1719,700.6699 2545.3594,700.5605 Q2545.5469,700.4512 2545.7656,700.4512 Q2546.1406,700.4512 2546.375,700.7168 Q2546.6094,700.9668 2546.6094,701.5762 L2546.6094,703.0293 Q2546.6094,703.6387 2546.375,703.9043 Q2546.1406,704.1699 2545.7656,704.1699 Q2545.4219,704.1699 2545.2188,703.9668 Q2545.0156,703.7793 2544.9063,703.2637 Q2544.8594,702.9043 2544.6719,702.7168 Q2544.3438,702.3418 2543.7344,702.123 Q2543.125,701.9043 2542.5,701.9043 Q2541.7344,701.9043 2541.0938,702.2324 Q2540.4688,702.5605 2539.9688,703.3105 Q2539.4844,704.0605 2539.4844,705.0918 L2539.4844,706.1855 Q2539.4844,707.4199 2540.375,708.248 Q2541.2656,709.0605 2542.8594,709.0605 Q2543.7969,709.0605 2544.4531,708.8105 Q2544.8438,708.6543 2545.2656,708.2168 Q2545.5313,707.9512 2545.6719,707.873 Q2545.8281,707.7949 2546.0313,707.7949 Q2546.3594,707.7949 2546.6094,708.0605 Q2546.875,708.3105 2546.875,708.6543 Q2546.875,708.998 2546.5313,709.4043 Q2546.0313,709.9824 2545.2344,710.3105 Q2544.1563,710.7637 2542.8594,710.7637 Q2541.3438,710.7637 2540.1406,710.1387 Q2539.1563,709.6387 2538.4688,708.5762 Q2537.7813,707.498 2537.7813,706.2168 L2537.7813,705.0605 Q2537.7813,703.7324 2538.3906,702.5918 Q2539.0156,701.4355 2540.1094,700.8262 Q2541.2031,700.2012 2542.4375,700.2012 Q2543.1719,700.2012 2543.8125,700.373 Q2544.4688,700.5293 2545.0156,700.8887 Z " fill="#000000"/><text fill="#000000" font-family="sans-serif" font-size="14" lengthAdjust="spacing" textLength="151" x="2562.75" y="710.8105">SelectedRisksValidation</text><line style="stroke:#181818;stroke-width:0.5;" x1="2403.5" x2="2840.5" y1="721.0137" y2="721.0137"/><rect fill="none" height="6" style="stroke:#C82930;stroke-width:1.0;" width="6" x="2410.5" y="732.8242"/><text fill="#000000" font-family="sans-serif" font-size="14" lengthAdjust="spacing" textLength="325" x="2422.5" y="740.1211">ClassifierValueRepository classifierValueRepository</text><rect fill="none" height="6" style="stroke:#C82930;stroke-width:1.0;" width="6" x="2410.5" y="751.4453"/><text fill="#000000" font-family="sans-serif" font-size="14" lengthAdjust="spacing" textLength="225" x="2422.5" y="758.7422">ValidationErrorFactory errorFactory</text><line style="stroke:#181818;stroke-width:0.5;" x1="2403.5" x2="2840.5" y1="766.2559" y2="766.2559"/><ellipse cx="2413.5" cy="781.0664" fill="#84BE84" rx="3" ry="3" style="stroke:#038048;stroke-width:1.0;"/><text fill="#000000" font-family="sans-serif" font-size="14" lengthAdjust="spacing" textLength="346" x="2422.5" y="785.3633">List&lt;ValidationErrorDTO&gt; validateList(AgreementDTO)</text><rect fill="#F24D5C" height="6" style="stroke:#C82930;stroke-width:1.0;" width="6" x="2410.5" y="796.6875"/><text fill="#000000" font-family="sans-serif" font-size="14" lengthAdjust="spacing" textLength="413" x="2422.5" y="803.9844">List&lt;ValidationErrorDTO&gt; validateSelectedRisks(AgreementDTO)</text><rect fill="#F24D5C" height="6" style="stroke:#C82930;stroke-width:1.0;" width="6" x="2410.5" y="815.3086"/><text fill="#000000" font-family="sans-serif" font-size="14" lengthAdjust="spacing" textLength="330" x="2422.5" y="822.6055">Optional&lt;ValidationErrorDTO&gt; validateRiskIc(String)</text><rect fill="#F24D5C" height="6" style="stroke:#C82930;stroke-width:1.0;" width="6" x="2410.5" y="833.9297"/><text fill="#000000" font-family="sans-serif" font-size="14" lengthAdjust="spacing" textLength="299" x="2422.5" y="841.2266">ValidationErrorDTO buildValidationError(String)</text><rect fill="#F24D5C" height="6" style="stroke:#C82930;stroke-width:1.0;" width="6" x="2410.5" y="852.5508"/><text fill="#000000" font-family="sans-serif" font-size="14" lengthAdjust="spacing" textLength="202" x="2422.5" y="859.8477">boolean existInDatabase(String)</text></g><!--class CountryValidation--><g id="elem_CountryValidation"><rect codeLine="40" fill="#F1F1F1" height="141.1055" id="CountryValidation" rx="2.5" ry="2.5" style="stroke:#181818;stroke-width:0.5;" width="381" x="2876.5" y="707.5137"/><ellipse cx="3006.75" cy="723.5137" fill="#ADD1B2" rx="11" ry="11" style="stroke:#181818;stroke-width:1.0;"/><path d="M3009.5156,719.3887 Q3009.6719,719.1699 3009.8594,719.0605 Q3010.0469,718.9512 3010.2656,718.9512 Q3010.6406,718.9512 3010.875,719.2168 Q3011.1094,719.4668 3011.1094,720.0762 L3011.1094,721.5293 Q3011.1094,722.1387 3010.875,722.4043 Q3010.6406,722.6699 3010.2656,722.6699 Q3009.9219,722.6699 3009.7188,722.4668 Q3009.5156,722.2793 3009.4063,721.7637 Q3009.3594,721.4043 3009.1719,721.2168 Q3008.8438,720.8418 3008.2344,720.623 Q3007.625,720.4043 3007,720.4043 Q3006.2344,720.4043 3005.5938,720.7324 Q3004.9688,721.0605 3004.4688,721.8105 Q3003.9844,722.5605 3003.9844,723.5918 L3003.9844,724.6855 Q3003.9844,725.9199 3004.875,726.748 Q3005.7656,727.5605 3007.3594,727.5605 Q3008.2969,727.5605 3008.9531,727.3105 Q3009.3438,727.1543 3009.7656,726.7168 Q3010.0313,726.4512 3010.1719,726.373 Q3010.3281,726.2949 3010.5313,726.2949 Q3010.8594,726.2949 3011.1094,726.5605 Q3011.375,726.8105 3011.375,727.1543 Q3011.375,727.498 3011.0313,727.9043 Q3010.5313,728.4824 3009.7344,728.8105 Q3008.6563,729.2637 3007.3594,729.2637 Q3005.8438,729.2637 3004.6406,728.6387 Q3003.6563,728.1387 3002.9688,727.0762 Q3002.2813,725.998 3002.2813,724.7168 L3002.2813,723.5605 Q3002.2813,722.2324 3002.8906,721.0918 Q3003.5156,719.9355 3004.6094,719.3262 Q3005.7031,718.7012 3006.9375,718.7012 Q3007.6719,718.7012 3008.3125,718.873 Q3008.9688,719.0293 3009.5156,719.3887 Z " fill="#000000"/><text fill="#000000" font-family="sans-serif" font-size="14" lengthAdjust="spacing" textLength="112" x="3027.25" y="729.3105">CountryValidation</text><line style="stroke:#181818;stroke-width:0.5;" x1="2877.5" x2="3256.5" y1="739.5137" y2="739.5137"/><rect fill="none" height="6" style="stroke:#C82930;stroke-width:1.0;" width="6" x="2884.5" y="751.3242"/><text fill="#000000" font-family="sans-serif" font-size="14" lengthAdjust="spacing" textLength="325" x="2896.5" y="758.6211">ClassifierValueRepository classifierValueRepository</text><rect fill="none" height="6" style="stroke:#C82930;stroke-width:1.0;" width="6" x="2884.5" y="769.9453"/><text fill="#000000" font-family="sans-serif" font-size="14" lengthAdjust="spacing" textLength="225" x="2896.5" y="777.2422">ValidationErrorFactory errorFactory</text><line style="stroke:#181818;stroke-width:0.5;" x1="2877.5" x2="3256.5" y1="784.7559" y2="784.7559"/><ellipse cx="2887.5" cy="799.5664" fill="#84BE84" rx="3" ry="3" style="stroke:#038048;stroke-width:1.0;"/><text fill="#000000" font-family="sans-serif" font-size="14" lengthAdjust="spacing" textLength="355" x="2896.5" y="803.8633">Optional&lt;ValidationErrorDTO&gt; validate(AgreementDTO)</text><rect fill="#F24D5C" height="6" style="stroke:#C82930;stroke-width:1.0;" width="6" x="2884.5" y="815.1875"/><text fill="#000000" font-family="sans-serif" font-size="14" lengthAdjust="spacing" textLength="280" x="2896.5" y="822.4844">boolean isCountryNotBlank(AgreementDTO)</text><rect fill="#F24D5C" height="6" style="stroke:#C82930;stroke-width:1.0;" width="6" x="2884.5" y="833.8086"/><text fill="#000000" font-family="sans-serif" font-size="14" lengthAdjust="spacing" textLength="202" x="2896.5" y="841.1055">boolean existInDatabase(String)</text></g><!--class AgreementDateToInFutureValidation--><g id="elem_AgreementDateToInFutureValidation"><rect codeLine="56" fill="#F1F1F1" height="103.8633" id="AgreementDateToInFutureValidation" rx="2.5" ry="2.5" style="stroke:#181818;stroke-width:0.5;" width="381" x="3292.5" y="726.0137"/><ellipse cx="3363.25" cy="742.0137" fill="#ADD1B2" rx="11" ry="11" style="stroke:#181818;stroke-width:1.0;"/><path d="M3366.0156,737.8887 Q3366.1719,737.6699 3366.3594,737.5605 Q3366.5469,737.4512 3366.7656,737.4512 Q3367.1406,737.4512 3367.375,737.7168 Q3367.6094,737.9668 3367.6094,738.5762 L3367.6094,740.0293 Q3367.6094,740.6387 3367.375,740.9043 Q3367.1406,741.1699 3366.7656,741.1699 Q3366.4219,741.1699 3366.2188,740.9668 Q3366.0156,740.7793 3365.9063,740.2637 Q3365.8594,739.9043 3365.6719,739.7168 Q3365.3438,739.3418 3364.7344,739.123 Q3364.125,738.9043 3363.5,738.9043 Q3362.7344,738.9043 3362.0938,739.2324 Q3361.4688,739.5605 3360.9688,740.3105 Q3360.4844,741.0605 3360.4844,742.0918 L3360.4844,743.1855 Q3360.4844,744.4199 3361.375,745.248 Q3362.2656,746.0605 3363.8594,746.0605 Q3364.7969,746.0605 3365.4531,745.8105 Q3365.8438,745.6543 3366.2656,745.2168 Q3366.5313,744.9512 3366.6719,744.873 Q3366.8281,744.7949 3367.0313,744.7949 Q3367.3594,744.7949 3367.6094,745.0605 Q3367.875,745.3105 3367.875,745.6543 Q3367.875,745.998 3367.5313,746.4043 Q3367.0313,746.9824 3366.2344,747.3105 Q3365.1563,747.7637 3363.8594,747.7637 Q3362.3438,747.7637 3361.1406,747.1387 Q3360.1563,746.6387 3359.4688,745.5762 Q3358.7813,744.498 3358.7813,743.2168 L3358.7813,742.0605 Q3358.7813,740.7324 3359.3906,739.5918 Q3360.0156,738.4355 3361.1094,737.8262 Q3362.2031,737.2012 3363.4375,737.2012 Q3364.1719,737.2012 3364.8125,737.373 Q3365.4688,737.5293 3366.0156,737.8887 Z " fill="#000000"/><text fill="#000000" font-family="sans-serif" font-size="14" lengthAdjust="spacing" textLength="231" x="3383.75" y="747.8105">AgreementDateToInFutureValidation</text><line style="stroke:#181818;stroke-width:0.5;" x1="3293.5" x2="3672.5" y1="758.0137" y2="758.0137"/><rect fill="none" height="6" style="stroke:#C82930;stroke-width:1.0;" width="6" x="3300.5" y="769.8242"/><text fill="#000000" font-family="sans-serif" font-size="14" lengthAdjust="spacing" textLength="162" x="3312.5" y="777.1211">DateTimeUtil dateTimeUtil</text><rect fill="none" height="6" style="stroke:#C82930;stroke-width:1.0;" width="6" x="3300.5" y="788.4453"/><text fill="#000000" font-family="sans-serif" font-size="14" lengthAdjust="spacing" textLength="225" x="3312.5" y="795.7422">ValidationErrorFactory errorFactory</text><line style="stroke:#181818;stroke-width:0.5;" x1="3293.5" x2="3672.5" y1="803.2559" y2="803.2559"/><ellipse cx="3303.5" cy="818.0664" fill="#84BE84" rx="3" ry="3" style="stroke:#038048;stroke-width:1.0;"/><text fill="#000000" font-family="sans-serif" font-size="14" lengthAdjust="spacing" textLength="355" x="3312.5" y="822.3633">Optional&lt;ValidationErrorDTO&gt; validate(AgreementDTO)</text></g><!--class AgreementDateFromValidation--><g id="elem_AgreementDateFromValidation"><rect codeLine="63" fill="#F1F1F1" height="85.2422" id="AgreementDateFromValidation" rx="2.5" ry="2.5" style="stroke:#181818;stroke-width:0.5;" width="381" x="3708.5" y="735.5137"/><ellipse cx="3797.75" cy="751.5137" fill="#ADD1B2" rx="11" ry="11" style="stroke:#181818;stroke-width:1.0;"/><path d="M3800.5156,747.3887 Q3800.6719,747.1699 3800.8594,747.0605 Q3801.0469,746.9512 3801.2656,746.9512 Q3801.6406,746.9512 3801.875,747.2168 Q3802.1094,747.4668 3802.1094,748.0762 L3802.1094,749.5293 Q3802.1094,750.1387 3801.875,750.4043 Q3801.6406,750.6699 3801.2656,750.6699 Q3800.9219,750.6699 3800.7188,750.4668 Q3800.5156,750.2793 3800.4063,749.7637 Q3800.3594,749.4043 3800.1719,749.2168 Q3799.8438,748.8418 3799.2344,748.623 Q3798.625,748.4043 3798,748.4043 Q3797.2344,748.4043 3796.5938,748.7324 Q3795.9688,749.0605 3795.4688,749.8105 Q3794.9844,750.5605 3794.9844,751.5918 L3794.9844,752.6855 Q3794.9844,753.9199 3795.875,754.748 Q3796.7656,755.5605 3798.3594,755.5605 Q3799.2969,755.5605 3799.9531,755.3105 Q3800.3438,755.1543 3800.7656,754.7168 Q3801.0313,754.4512 3801.1719,754.373 Q3801.3281,754.2949 3801.5313,754.2949 Q3801.8594,754.2949 3802.1094,754.5605 Q3802.375,754.8105 3802.375,755.1543 Q3802.375,755.498 3802.0313,755.9043 Q3801.5313,756.4824 3800.7344,756.8105 Q3799.6563,757.2637 3798.3594,757.2637 Q3796.8438,757.2637 3795.6406,756.6387 Q3794.6563,756.1387 3793.9688,755.0762 Q3793.2813,753.998 3793.2813,752.7168 L3793.2813,751.5605 Q3793.2813,750.2324 3793.8906,749.0918 Q3794.5156,747.9355 3795.6094,747.3262 Q3796.7031,746.7012 3797.9375,746.7012 Q3798.6719,746.7012 3799.3125,746.873 Q3799.9688,747.0293 3800.5156,747.3887 Z " fill="#000000"/><text fill="#000000" font-family="sans-serif" font-size="14" lengthAdjust="spacing" textLength="194" x="3818.25" y="757.3105">AgreementDateFromValidation</text><line style="stroke:#181818;stroke-width:0.5;" x1="3709.5" x2="4088.5" y1="767.5137" y2="767.5137"/><rect fill="none" height="6" style="stroke:#C82930;stroke-width:1.0;" width="6" x="3716.5" y="779.3242"/><text fill="#000000" font-family="sans-serif" font-size="14" lengthAdjust="spacing" textLength="225" x="3728.5" y="786.6211">ValidationErrorFactory errorFactory</text><line style="stroke:#181818;stroke-width:0.5;" x1="3709.5" x2="4088.5" y1="794.1348" y2="794.1348"/><ellipse cx="3719.5" cy="808.9453" fill="#84BE84" rx="3" ry="3" style="stroke:#038048;stroke-width:1.0;"/><text fill="#000000" font-family="sans-serif" font-size="14" lengthAdjust="spacing" textLength="355" x="3728.5" y="813.2422">Optional&lt;ValidationErrorDTO&gt; validate(AgreementDTO)</text></g><!--class DateFromLessThenDateToValidation--><g id="elem_DateFromLessThenDateToValidation"><rect codeLine="76" fill="#F1F1F1" height="85.2422" id="DateFromLessThenDateToValidation" rx="2.5" ry="2.5" style="stroke:#181818;stroke-width:0.5;" width="381" x="4124.5" y="735.5137"/><ellipse cx="4193.25" cy="751.5137" fill="#ADD1B2" rx="11" ry="11" style="stroke:#181818;stroke-width:1.0;"/><path d="M4196.0156,747.3887 Q4196.1719,747.1699 4196.3594,747.0605 Q4196.5469,746.9512 4196.7656,746.9512 Q4197.1406,746.9512 4197.375,747.2168 Q4197.6094,747.4668 4197.6094,748.0762 L4197.6094,749.5293 Q4197.6094,750.1387 4197.375,750.4043 Q4197.1406,750.6699 4196.7656,750.6699 Q4196.4219,750.6699 4196.2188,750.4668 Q4196.0156,750.2793 4195.9063,749.7637 Q4195.8594,749.4043 4195.6719,749.2168 Q4195.3438,748.8418 4194.7344,748.623 Q4194.125,748.4043 4193.5,748.4043 Q4192.7344,748.4043 4192.0938,748.7324 Q4191.4688,749.0605 4190.9688,749.8105 Q4190.4844,750.5605 4190.4844,751.5918 L4190.4844,752.6855 Q4190.4844,753.9199 4191.375,754.748 Q4192.2656,755.5605 4193.8594,755.5605 Q4194.7969,755.5605 4195.4531,755.3105 Q4195.8438,755.1543 4196.2656,754.7168 Q4196.5313,754.4512 4196.6719,754.373 Q4196.8281,754.2949 4197.0313,754.2949 Q4197.3594,754.2949 4197.6094,754.5605 Q4197.875,754.8105 4197.875,755.1543 Q4197.875,755.498 4197.5313,755.9043 Q4197.0313,756.4824 4196.2344,756.8105 Q4195.1563,757.2637 4193.8594,757.2637 Q4192.3438,757.2637 4191.1406,756.6387 Q4190.1563,756.1387 4189.4688,755.0762 Q4188.7813,753.998 4188.7813,752.7168 L4188.7813,751.5605 Q4188.7813,750.2324 4189.3906,749.0918 Q4190.0156,747.9355 4191.1094,747.3262 Q4192.2031,746.7012 4193.4375,746.7012 Q4194.1719,746.7012 4194.8125,746.873 Q4195.4688,747.0293 4196.0156,747.3887 Z " fill="#000000"/><text fill="#000000" font-family="sans-serif" font-size="14" lengthAdjust="spacing" textLength="235" x="4213.75" y="757.3105">DateFromLessThenDateToValidation</text><line style="stroke:#181818;stroke-width:0.5;" x1="4125.5" x2="4504.5" y1="767.5137" y2="767.5137"/><rect fill="none" height="6" style="stroke:#C82930;stroke-width:1.0;" width="6" x="4132.5" y="779.3242"/><text fill="#000000" font-family="sans-serif" font-size="14" lengthAdjust="spacing" textLength="225" x="4144.5" y="786.6211">ValidationErrorFactory errorFactory</text><line style="stroke:#181818;stroke-width:0.5;" x1="4125.5" x2="4504.5" y1="794.1348" y2="794.1348"/><ellipse cx="4135.5" cy="808.9453" fill="#84BE84" rx="3" ry="3" style="stroke:#038048;stroke-width:1.0;"/><text fill="#000000" font-family="sans-serif" font-size="14" lengthAdjust="spacing" textLength="355" x="4144.5" y="813.2422">Optional&lt;ValidationErrorDTO&gt; validate(AgreementDTO)</text></g><!--class EmptyMedicalRiskLimitLevelValidation--><g id="elem_EmptyMedicalRiskLimitLevelValidation"><rect codeLine="82" fill="#F1F1F1" height="159.7266" id="EmptyMedicalRiskLimitLevelValidation" rx="2.5" ry="2.5" style="stroke:#181818;stroke-width:0.5;" width="422" x="4541" y="698.0137"/><ellipse cx="4628.25" cy="714.0137" fill="#ADD1B2" rx="11" ry="11" style="stroke:#181818;stroke-width:1.0;"/><path d="M4631.0156,709.8887 Q4631.1719,709.6699 4631.3594,709.5605 Q4631.5469,709.4512 4631.7656,709.4512 Q4632.1406,709.4512 4632.375,709.7168 Q4632.6094,709.9668 4632.6094,710.5762 L4632.6094,712.0293 Q4632.6094,712.6387 4632.375,712.9043 Q4632.1406,713.1699 4631.7656,713.1699 Q4631.4219,713.1699 4631.2188,712.9668 Q4631.0156,712.7793 4630.9063,712.2637 Q4630.8594,711.9043 4630.6719,711.7168 Q4630.3438,711.3418 4629.7344,711.123 Q4629.125,710.9043 4628.5,710.9043 Q4627.7344,710.9043 4627.0938,711.2324 Q4626.4688,711.5605 4625.9688,712.3105 Q4625.4844,713.0605 4625.4844,714.0918 L4625.4844,715.1855 Q4625.4844,716.4199 4626.375,717.248 Q4627.2656,718.0605 4628.8594,718.0605 Q4629.7969,718.0605 4630.4531,717.8105 Q4630.8438,717.6543 4631.2656,717.2168 Q4631.5313,716.9512 4631.6719,716.873 Q4631.8281,716.7949 4632.0313,716.7949 Q4632.3594,716.7949 4632.6094,717.0605 Q4632.875,717.3105 4632.875,717.6543 Q4632.875,717.998 4632.5313,718.4043 Q4632.0313,718.9824 4631.2344,719.3105 Q4630.1563,719.7637 4628.8594,719.7637 Q4627.3438,719.7637 4626.1406,719.1387 Q4625.1563,718.6387 4624.4688,717.5762 Q4623.7813,716.498 4623.7813,715.2168 L4623.7813,714.0605 Q4623.7813,712.7324 4624.3906,711.5918 Q4625.0156,710.4355 4626.1094,709.8262 Q4627.2031,709.2012 4628.4375,709.2012 Q4629.1719,709.2012 4629.8125,709.373 Q4630.4688,709.5293 4631.0156,709.8887 Z " fill="#000000"/><text fill="#000000" font-family="sans-serif" font-size="14" lengthAdjust="spacing" textLength="239" x="4648.75" y="719.8105">EmptyMedicalRiskLimitLevelValidation</text><line style="stroke:#181818;stroke-width:0.5;" x1="4542" x2="4962" y1="730.0137" y2="730.0137"/><rect fill="none" height="6" style="stroke:#C82930;stroke-width:1.0;" width="6" x="4549" y="741.8242"/><text fill="#000000" font-family="sans-serif" font-size="14" lengthAdjust="spacing" textLength="246" x="4561" y="749.1211">Boolean medicalRiskLimitLevelEnabled</text><rect fill="none" height="6" style="stroke:#C82930;stroke-width:1.0;" width="6" x="4549" y="760.4453"/><text fill="#000000" font-family="sans-serif" font-size="14" lengthAdjust="spacing" textLength="225" x="4561" y="767.7422">ValidationErrorFactory errorFactory</text><line style="stroke:#181818;stroke-width:0.5;" x1="4542" x2="4962" y1="775.2559" y2="775.2559"/><ellipse cx="4552" cy="790.0664" fill="#84BE84" rx="3" ry="3" style="stroke:#038048;stroke-width:1.0;"/><text fill="#000000" font-family="sans-serif" font-size="14" lengthAdjust="spacing" textLength="355" x="4561" y="794.3633">Optional&lt;ValidationErrorDTO&gt; validate(AgreementDTO)</text><rect fill="#F24D5C" height="6" style="stroke:#C82930;stroke-width:1.0;" width="6" x="4549" y="805.6875"/><text fill="#000000" font-family="sans-serif" font-size="14" lengthAdjust="spacing" textLength="265" x="4561" y="812.9844">boolean isMedicalRiskLimitLevelEnabled()</text><rect fill="#F24D5C" height="6" style="stroke:#C82930;stroke-width:1.0;" width="6" x="4549" y="824.3086"/><text fill="#000000" font-family="sans-serif" font-size="14" lengthAdjust="spacing" textLength="305" x="4561" y="831.6055">boolean containsTravelMedical(AgreementDTO)</text><rect fill="#F24D5C" height="6" style="stroke:#C82930;stroke-width:1.0;" width="6" x="4549" y="842.9297"/><text fill="#000000" font-family="sans-serif" font-size="14" lengthAdjust="spacing" textLength="396" x="4561" y="850.2266">boolean isMedicalRiskLimitLevelIsNullOrBlank(AgreementDTO)</text></g><!--class EmptyCountryValidation--><g id="elem_EmptyCountryValidation"><rect codeLine="112" fill="#F1F1F1" height="103.8633" id="EmptyCountryValidation" rx="2.5" ry="2.5" style="stroke:#181818;stroke-width:0.5;" width="381" x="4998.5" y="726.0137"/><ellipse cx="5109.25" cy="742.0137" fill="#ADD1B2" rx="11" ry="11" style="stroke:#181818;stroke-width:1.0;"/><path d="M5112.0156,737.8887 Q5112.1719,737.6699 5112.3594,737.5605 Q5112.5469,737.4512 5112.7656,737.4512 Q5113.1406,737.4512 5113.375,737.7168 Q5113.6094,737.9668 5113.6094,738.5762 L5113.6094,740.0293 Q5113.6094,740.6387 5113.375,740.9043 Q5113.1406,741.1699 5112.7656,741.1699 Q5112.4219,741.1699 5112.2188,740.9668 Q5112.0156,740.7793 5111.9063,740.2637 Q5111.8594,739.9043 5111.6719,739.7168 Q5111.3438,739.3418 5110.7344,739.123 Q5110.125,738.9043 5109.5,738.9043 Q5108.7344,738.9043 5108.0938,739.2324 Q5107.4688,739.5605 5106.9688,740.3105 Q5106.4844,741.0605 5106.4844,742.0918 L5106.4844,743.1855 Q5106.4844,744.4199 5107.375,745.248 Q5108.2656,746.0605 5109.8594,746.0605 Q5110.7969,746.0605 5111.4531,745.8105 Q5111.8438,745.6543 5112.2656,745.2168 Q5112.5313,744.9512 5112.6719,744.873 Q5112.8281,744.7949 5113.0313,744.7949 Q5113.3594,744.7949 5113.6094,745.0605 Q5113.875,745.3105 5113.875,745.6543 Q5113.875,745.998 5113.5313,746.4043 Q5113.0313,746.9824 5112.2344,747.3105 Q5111.1563,747.7637 5109.8594,747.7637 Q5108.3438,747.7637 5107.1406,747.1387 Q5106.1563,746.6387 5105.4688,745.5762 Q5104.7813,744.498 5104.7813,743.2168 L5104.7813,742.0605 Q5104.7813,740.7324 5105.3906,739.5918 Q5106.0156,738.4355 5107.1094,737.8262 Q5108.2031,737.2012 5109.4375,737.2012 Q5110.1719,737.2012 5110.8125,737.373 Q5111.4688,737.5293 5112.0156,737.8887 Z " fill="#000000"/><text fill="#000000" font-family="sans-serif" font-size="14" lengthAdjust="spacing" textLength="151" x="5129.75" y="747.8105">EmptyCountryValidation</text><line style="stroke:#181818;stroke-width:0.5;" x1="4999.5" x2="5378.5" y1="758.0137" y2="758.0137"/><rect fill="none" height="6" style="stroke:#C82930;stroke-width:1.0;" width="6" x="5006.5" y="769.8242"/><text fill="#000000" font-family="sans-serif" font-size="14" lengthAdjust="spacing" textLength="225" x="5018.5" y="777.1211">ValidationErrorFactory errorFactory</text><line style="stroke:#181818;stroke-width:0.5;" x1="4999.5" x2="5378.5" y1="784.6348" y2="784.6348"/><ellipse cx="5009.5" cy="799.4453" fill="#84BE84" rx="3" ry="3" style="stroke:#038048;stroke-width:1.0;"/><text fill="#000000" font-family="sans-serif" font-size="14" lengthAdjust="spacing" textLength="355" x="5018.5" y="803.7422">Optional&lt;ValidationErrorDTO&gt; validate(AgreementDTO)</text><rect fill="#F24D5C" height="6" style="stroke:#C82930;stroke-width:1.0;" width="6" x="5006.5" y="815.0664"/><text fill="#000000" font-family="sans-serif" font-size="14" lengthAdjust="spacing" textLength="295" x="5018.5" y="822.3633">boolean countryIsNullOrBlank(AgreementDTO)</text></g><!--class TravelAgreementFieldValidationImpl--><g id="elem_TravelAgreementFieldValidationImpl"><rect codeLine="125" fill="#F1F1F1" height="85.2422" id="TravelAgreementFieldValidationImpl" rx="2.5" ry="2.5" style="stroke:#181818;stroke-width:0.5;" width="381" x="4561.5" y="506.5137"/><ellipse cx="4634.25" cy="522.5137" fill="#A9DCDF" rx="11" ry="11" style="stroke:#181818;stroke-width:1.0;"/><path d="M4636.4375,524.2793 L4632.2969,524.2793 L4631.875,525.3105 L4632.2969,525.3105 Q4632.9063,525.3105 4633.1719,525.5449 Q4633.4375,525.7793 4633.4375,526.1699 Q4633.4375,526.5449 4633.1719,526.7793 Q4632.9063,527.0137 4632.2969,527.0137 L4630,527.0137 Q4629.3906,527.0137 4629.1406,526.7793 Q4628.875,526.5449 4628.875,526.1543 Q4628.875,525.7793 4629.1563,525.5449 Q4629.4219,525.2949 4630.0469,525.3105 L4632.7188,518.6543 L4631.6094,518.6543 Q4631,518.6543 4630.7344,518.4199 Q4630.4688,518.1855 4630.4688,517.7949 Q4630.4688,517.4199 4630.7344,517.1855 Q4631,516.9512 4631.6094,516.9512 L4635.2813,516.9512 L4638.6719,525.3105 Q4639.2656,525.3105 4639.4531,525.4512 Q4639.8438,525.7168 4639.8438,526.1699 Q4639.8438,526.5449 4639.5781,526.7793 Q4639.3281,527.0137 4638.7188,527.0137 L4636.4219,527.0137 Q4635.8125,527.0137 4635.5469,526.7793 Q4635.2813,526.5449 4635.2813,526.1543 Q4635.2813,525.7793 4635.5469,525.5449 Q4635.8125,525.3105 4636.4219,525.3105 L4636.8438,525.3105 L4636.4375,524.2793 Z M4635.7188,522.5762 L4634.3594,519.2012 L4632.9844,522.5762 L4635.7188,522.5762 Z " fill="#000000"/><text fill="#000000" font-family="sans-serif" font-size="14" font-style="italic" lengthAdjust="spacing" textLength="227" x="4654.75" y="528.3105">TravelAgreementFieldValidationImpl</text><line style="stroke:#181818;stroke-width:0.5;" x1="4562.5" x2="4941.5" y1="538.5137" y2="538.5137"/><line style="stroke:#181818;stroke-width:0.5;" x1="4562.5" x2="4941.5" y1="546.5137" y2="546.5137"/><ellipse cx="4572.5" cy="561.3242" fill="#84BE84" rx="3" ry="3" style="stroke:#038048;stroke-width:1.0;"/><text fill="#000000" font-family="sans-serif" font-size="14" lengthAdjust="spacing" textLength="355" x="4581.5" y="565.6211">Optional&lt;ValidationErrorDTO&gt; validate(AgreementDTO)</text><ellipse cx="4572.5" cy="579.9453" fill="#84BE84" rx="3" ry="3" style="stroke:#038048;stroke-width:1.0;"/><text fill="#000000" font-family="sans-serif" font-size="14" lengthAdjust="spacing" textLength="346" x="4581.5" y="584.2422">List&lt;ValidationErrorDTO&gt; validateList(AgreementDTO)</text></g><!--class MedicalRiskLimitLevelValidation--><g id="elem_MedicalRiskLimitLevelValidation"><rect codeLine="130" fill="#F1F1F1" height="141.1055" id="MedicalRiskLimitLevelValidation" rx="2.5" ry="2.5" style="stroke:#181818;stroke-width:0.5;" width="394" x="5415" y="707.5137"/><ellipse cx="5507.75" cy="723.5137" fill="#ADD1B2" rx="11" ry="11" style="stroke:#181818;stroke-width:1.0;"/><path d="M5510.5156,719.3887 Q5510.6719,719.1699 5510.8594,719.0605 Q5511.0469,718.9512 5511.2656,718.9512 Q5511.6406,718.9512 5511.875,719.2168 Q5512.1094,719.4668 5512.1094,720.0762 L5512.1094,721.5293 Q5512.1094,722.1387 5511.875,722.4043 Q5511.6406,722.6699 5511.2656,722.6699 Q5510.9219,722.6699 5510.7188,722.4668 Q5510.5156,722.2793 5510.4063,721.7637 Q5510.3594,721.4043 5510.1719,721.2168 Q5509.8438,720.8418 5509.2344,720.623 Q5508.625,720.4043 5508,720.4043 Q5507.2344,720.4043 5506.5938,720.7324 Q5505.9688,721.0605 5505.4688,721.8105 Q5504.9844,722.5605 5504.9844,723.5918 L5504.9844,724.6855 Q5504.9844,725.9199 5505.875,726.748 Q5506.7656,727.5605 5508.3594,727.5605 Q5509.2969,727.5605 5509.9531,727.3105 Q5510.3438,727.1543 5510.7656,726.7168 Q5511.0313,726.4512 5511.1719,726.373 Q5511.3281,726.2949 5511.5313,726.2949 Q5511.8594,726.2949 5512.1094,726.5605 Q5512.375,726.8105 5512.375,727.1543 Q5512.375,727.498 5512.0313,727.9043 Q5511.5313,728.4824 5510.7344,728.8105 Q5509.6563,729.2637 5508.3594,729.2637 Q5506.8438,729.2637 5505.6406,728.6387 Q5504.6563,728.1387 5503.9688,727.0762 Q5503.2813,725.998 5503.2813,724.7168 L5503.2813,723.5605 Q5503.2813,722.2324 5503.8906,721.0918 Q5504.5156,719.9355 5505.6094,719.3262 Q5506.7031,718.7012 5507.9375,718.7012 Q5508.6719,718.7012 5509.3125,718.873 Q5509.9688,719.0293 5510.5156,719.3887 Z " fill="#000000"/><text fill="#000000" font-family="sans-serif" font-size="14" lengthAdjust="spacing" textLength="200" x="5528.25" y="729.3105">MedicalRiskLimitLevelValidation</text><line style="stroke:#181818;stroke-width:0.5;" x1="5416" x2="5808" y1="739.5137" y2="739.5137"/><rect fill="none" height="6" style="stroke:#C82930;stroke-width:1.0;" width="6" x="5423" y="751.3242"/><text fill="#000000" font-family="sans-serif" font-size="14" lengthAdjust="spacing" textLength="325" x="5435" y="758.6211">ClassifierValueRepository classifierValueRepository</text><rect fill="none" height="6" style="stroke:#C82930;stroke-width:1.0;" width="6" x="5423" y="769.9453"/><text fill="#000000" font-family="sans-serif" font-size="14" lengthAdjust="spacing" textLength="225" x="5435" y="777.2422">ValidationErrorFactory errorFactory</text><line style="stroke:#181818;stroke-width:0.5;" x1="5416" x2="5808" y1="784.7559" y2="784.7559"/><ellipse cx="5426" cy="799.5664" fill="#84BE84" rx="3" ry="3" style="stroke:#038048;stroke-width:1.0;"/><text fill="#000000" font-family="sans-serif" font-size="14" lengthAdjust="spacing" textLength="355" x="5435" y="803.8633">Optional&lt;ValidationErrorDTO&gt; validate(AgreementDTO)</text><rect fill="#F24D5C" height="6" style="stroke:#C82930;stroke-width:1.0;" width="6" x="5423" y="815.1875"/><text fill="#000000" font-family="sans-serif" font-size="14" lengthAdjust="spacing" textLength="368" x="5435" y="822.4844">boolean isMedicalRiskLimitLevelNotBlank(AgreementDTO)</text><rect fill="#F24D5C" height="6" style="stroke:#C82930;stroke-width:1.0;" width="6" x="5423" y="833.8086"/><text fill="#000000" font-family="sans-serif" font-size="14" lengthAdjust="spacing" textLength="202" x="5435" y="841.1055">boolean existInDatabase(String)</text></g><!--class EmptySelectedRisksValidation--><g id="elem_EmptySelectedRisksValidation"><rect codeLine="143" fill="#F1F1F1" height="85.2422" id="EmptySelectedRisksValidation" rx="2.5" ry="2.5" style="stroke:#181818;stroke-width:0.5;" width="381" x="5844.5" y="735.5137"/><ellipse cx="5935.75" cy="751.5137" fill="#ADD1B2" rx="11" ry="11" style="stroke:#181818;stroke-width:1.0;"/><path d="M5938.5156,747.3887 Q5938.6719,747.1699 5938.8594,747.0605 Q5939.0469,746.9512 5939.2656,746.9512 Q5939.6406,746.9512 5939.875,747.2168 Q5940.1094,747.4668 5940.1094,748.0762 L5940.1094,749.5293 Q5940.1094,750.1387 5939.875,750.4043 Q5939.6406,750.6699 5939.2656,750.6699 Q5938.9219,750.6699 5938.7188,750.4668 Q5938.5156,750.2793 5938.4063,749.7637 Q5938.3594,749.4043 5938.1719,749.2168 Q5937.8438,748.8418 5937.2344,748.623 Q5936.625,748.4043 5936,748.4043 Q5935.2344,748.4043 5934.5938,748.7324 Q5933.9688,749.0605 5933.4688,749.8105 Q5932.9844,750.5605 5932.9844,751.5918 L5932.9844,752.6855 Q5932.9844,753.9199 5933.875,754.748 Q5934.7656,755.5605 5936.3594,755.5605 Q5937.2969,755.5605 5937.9531,755.3105 Q5938.3438,755.1543 5938.7656,754.7168 Q5939.0313,754.4512 5939.1719,754.373 Q5939.3281,754.2949 5939.5313,754.2949 Q5939.8594,754.2949 5940.1094,754.5605 Q5940.375,754.8105 5940.375,755.1543 Q5940.375,755.498 5940.0313,755.9043 Q5939.5313,756.4824 5938.7344,756.8105 Q5937.6563,757.2637 5936.3594,757.2637 Q5934.8438,757.2637 5933.6406,756.6387 Q5932.6563,756.1387 5931.9688,755.0762 Q5931.2813,753.998 5931.2813,752.7168 L5931.2813,751.5605 Q5931.2813,750.2324 5931.8906,749.0918 Q5932.5156,747.9355 5933.6094,747.3262 Q5934.7031,746.7012 5935.9375,746.7012 Q5936.6719,746.7012 5937.3125,746.873 Q5937.9688,747.0293 5938.5156,747.3887 Z " fill="#000000"/><text fill="#000000" font-family="sans-serif" font-size="14" lengthAdjust="spacing" textLength="190" x="5956.25" y="757.3105">EmptySelectedRisksValidation</text><line style="stroke:#181818;stroke-width:0.5;" x1="5845.5" x2="6224.5" y1="767.5137" y2="767.5137"/><rect fill="none" height="6" style="stroke:#C82930;stroke-width:1.0;" width="6" x="5852.5" y="779.3242"/><text fill="#000000" font-family="sans-serif" font-size="14" lengthAdjust="spacing" textLength="225" x="5864.5" y="786.6211">ValidationErrorFactory errorFactory</text><line style="stroke:#181818;stroke-width:0.5;" x1="5845.5" x2="6224.5" y1="794.1348" y2="794.1348"/><ellipse cx="5855.5" cy="808.9453" fill="#84BE84" rx="3" ry="3" style="stroke:#038048;stroke-width:1.0;"/><text fill="#000000" font-family="sans-serif" font-size="14" lengthAdjust="spacing" textLength="355" x="5864.5" y="813.2422">Optional&lt;ValidationErrorDTO&gt; validate(AgreementDTO)</text></g><!--class AgreementDateToValidation--><g id="elem_AgreementDateToValidation"><rect codeLine="156" fill="#F1F1F1" height="85.2422" id="AgreementDateToValidation" rx="2.5" ry="2.5" style="stroke:#181818;stroke-width:0.5;" width="381" x="6260.5" y="735.5137"/><ellipse cx="6357.75" cy="751.5137" fill="#ADD1B2" rx="11" ry="11" style="stroke:#181818;stroke-width:1.0;"/><path d="M6360.5156,747.3887 Q6360.6719,747.1699 6360.8594,747.0605 Q6361.0469,746.9512 6361.2656,746.9512 Q6361.6406,746.9512 6361.875,747.2168 Q6362.1094,747.4668 6362.1094,748.0762 L6362.1094,749.5293 Q6362.1094,750.1387 6361.875,750.4043 Q6361.6406,750.6699 6361.2656,750.6699 Q6360.9219,750.6699 6360.7188,750.4668 Q6360.5156,750.2793 6360.4063,749.7637 Q6360.3594,749.4043 6360.1719,749.2168 Q6359.8438,748.8418 6359.2344,748.623 Q6358.625,748.4043 6358,748.4043 Q6357.2344,748.4043 6356.5938,748.7324 Q6355.9688,749.0605 6355.4688,749.8105 Q6354.9844,750.5605 6354.9844,751.5918 L6354.9844,752.6855 Q6354.9844,753.9199 6355.875,754.748 Q6356.7656,755.5605 6358.3594,755.5605 Q6359.2969,755.5605 6359.9531,755.3105 Q6360.3438,755.1543 6360.7656,754.7168 Q6361.0313,754.4512 6361.1719,754.373 Q6361.3281,754.2949 6361.5313,754.2949 Q6361.8594,754.2949 6362.1094,754.5605 Q6362.375,754.8105 6362.375,755.1543 Q6362.375,755.498 6362.0313,755.9043 Q6361.5313,756.4824 6360.7344,756.8105 Q6359.6563,757.2637 6358.3594,757.2637 Q6356.8438,757.2637 6355.6406,756.6387 Q6354.6563,756.1387 6353.9688,755.0762 Q6353.2813,753.998 6353.2813,752.7168 L6353.2813,751.5605 Q6353.2813,750.2324 6353.8906,749.0918 Q6354.5156,747.9355 6355.6094,747.3262 Q6356.7031,746.7012 6357.9375,746.7012 Q6358.6719,746.7012 6359.3125,746.873 Q6359.9688,747.0293 6360.5156,747.3887 Z " fill="#000000"/><text fill="#000000" font-family="sans-serif" font-size="14" lengthAdjust="spacing" textLength="178" x="6378.25" y="757.3105">AgreementDateToValidation</text><line style="stroke:#181818;stroke-width:0.5;" x1="6261.5" x2="6640.5" y1="767.5137" y2="767.5137"/><rect fill="none" height="6" style="stroke:#C82930;stroke-width:1.0;" width="6" x="6268.5" y="779.3242"/><text fill="#000000" font-family="sans-serif" font-size="14" lengthAdjust="spacing" textLength="225" x="6280.5" y="786.6211">ValidationErrorFactory errorFactory</text><line style="stroke:#181818;stroke-width:0.5;" x1="6261.5" x2="6640.5" y1="794.1348" y2="794.1348"/><ellipse cx="6271.5" cy="808.9453" fill="#84BE84" rx="3" ry="3" style="stroke:#038048;stroke-width:1.0;"/><text fill="#000000" font-family="sans-serif" font-size="14" lengthAdjust="spacing" textLength="355" x="6280.5" y="813.2422">Optional&lt;ValidationErrorDTO&gt; validate(AgreementDTO)</text></g><!--class AgreementDateFromInFutureValidation--><g id="elem_AgreementDateFromInFutureValidation"><rect codeLine="162" fill="#F1F1F1" height="103.8633" id="AgreementDateFromInFutureValidation" rx="2.5" ry="2.5" style="stroke:#181818;stroke-width:0.5;" width="381" x="6676.5" y="726.0137"/><ellipse cx="6739.25" cy="742.0137" fill="#ADD1B2" rx="11" ry="11" style="stroke:#181818;stroke-width:1.0;"/><path d="M6742.0156,737.8887 Q6742.1719,737.6699 6742.3594,737.5605 Q6742.5469,737.4512 6742.7656,737.4512 Q6743.1406,737.4512 6743.375,737.7168 Q6743.6094,737.9668 6743.6094,738.5762 L6743.6094,740.0293 Q6743.6094,740.6387 6743.375,740.9043 Q6743.1406,741.1699 6742.7656,741.1699 Q6742.4219,741.1699 6742.2188,740.9668 Q6742.0156,740.7793 6741.9063,740.2637 Q6741.8594,739.9043 6741.6719,739.7168 Q6741.3438,739.3418 6740.7344,739.123 Q6740.125,738.9043 6739.5,738.9043 Q6738.7344,738.9043 6738.0938,739.2324 Q6737.4688,739.5605 6736.9688,740.3105 Q6736.4844,741.0605 6736.4844,742.0918 L6736.4844,743.1855 Q6736.4844,744.4199 6737.375,745.248 Q6738.2656,746.0605 6739.8594,746.0605 Q6740.7969,746.0605 6741.4531,745.8105 Q6741.8438,745.6543 6742.2656,745.2168 Q6742.5313,744.9512 6742.6719,744.873 Q6742.8281,744.7949 6743.0313,744.7949 Q6743.3594,744.7949 6743.6094,745.0605 Q6743.875,745.3105 6743.875,745.6543 Q6743.875,745.998 6743.5313,746.4043 Q6743.0313,746.9824 6742.2344,747.3105 Q6741.1563,747.7637 6739.8594,747.7637 Q6738.3438,747.7637 6737.1406,747.1387 Q6736.1563,746.6387 6735.4688,745.5762 Q6734.7813,744.498 6734.7813,743.2168 L6734.7813,742.0605 Q6734.7813,740.7324 6735.3906,739.5918 Q6736.0156,738.4355 6737.1094,737.8262 Q6738.2031,737.2012 6739.4375,737.2012 Q6740.1719,737.2012 6740.8125,737.373 Q6741.4688,737.5293 6742.0156,737.8887 Z " fill="#000000"/><text fill="#000000" font-family="sans-serif" font-size="14" lengthAdjust="spacing" textLength="247" x="6759.75" y="747.8105">AgreementDateFromInFutureValidation</text><line style="stroke:#181818;stroke-width:0.5;" x1="6677.5" x2="7056.5" y1="758.0137" y2="758.0137"/><rect fill="none" height="6" style="stroke:#C82930;stroke-width:1.0;" width="6" x="6684.5" y="769.8242"/><text fill="#000000" font-family="sans-serif" font-size="14" lengthAdjust="spacing" textLength="162" x="6696.5" y="777.1211">DateTimeUtil dateTimeUtil</text><rect fill="none" height="6" style="stroke:#C82930;stroke-width:1.0;" width="6" x="6684.5" y="788.4453"/><text fill="#000000" font-family="sans-serif" font-size="14" lengthAdjust="spacing" textLength="225" x="6696.5" y="795.7422">ValidationErrorFactory errorFactory</text><line style="stroke:#181818;stroke-width:0.5;" x1="6677.5" x2="7056.5" y1="803.2559" y2="803.2559"/><ellipse cx="6687.5" cy="818.0664" fill="#84BE84" rx="3" ry="3" style="stroke:#038048;stroke-width:1.0;"/><text fill="#000000" font-family="sans-serif" font-size="14" lengthAdjust="spacing" textLength="355" x="6696.5" y="822.3633">Optional&lt;ValidationErrorDTO&gt; validate(AgreementDTO)</text></g><!--reverse link TravelAgreementValidator to TravelAgreementValidatorImpl--><g id="link_TravelAgreementValidator_TravelAgreementValidatorImpl"><path codeLine="171" d="M461,390.0937 C461,421.0137 461,450.2437 461,487.9837 " fill="none" id="TravelAgreementValidator-backto-TravelAgreementValidatorImpl" style="stroke:#181818;stroke-width:1.0;stroke-dasharray:7.0,7.0;"/><polygon fill="none" points="461,372.0937,455,390.0937,467,390.0937,461,372.0937" style="stroke:#181818;stroke-width:1.0;"/></g><!--reverse link TravelPersonFieldValidationImpl to PersonLastNameValidation--><g id="link_TravelPersonFieldValidationImpl_PersonLastNameValidation"><path codeLine="172" d="M1473.2018,598.8071 C1443.9918,611.6471 1427.64,618.0337 1397,629.0137 C1305.62,661.7437 1278.18,655.7137 1187,689.0137 C1150.21,702.4537 1110.63,719.6637 1076.73,735.3037 " fill="none" id="TravelPersonFieldValidationImpl-backto-PersonLastNameValidation" style="stroke:#181818;stroke-width:1.0;"/><polygon fill="none" points="1489.68,591.5637,1470.7873,593.3144,1475.6162,604.2999,1489.68,591.5637" style="stroke:#181818;stroke-width:1.0;"/></g><!--reverse link TravelAgreementFieldValidationImpl to SelectedRisksValidation--><g id="link_TravelAgreementFieldValidationImpl_SelectedRisksValidation"><path codeLine="173" d="M4543.4746,557.9083 C4129.9846,574.5683 3179.78,619.1637 2859,689.0137 C2853.21,690.2737 2847.37,691.6437 2841.51,693.1137 " fill="none" id="TravelAgreementFieldValidationImpl-backto-SelectedRisksValidation" style="stroke:#181818;stroke-width:1.0;"/><polygon fill="none" points="4561.46,557.1837,4543.233,551.9132,4543.7161,563.9035,4561.46,557.1837" style="stroke:#181818;stroke-width:1.0;"/></g><!--reverse link TravelAgreementFieldValidationImpl to CountryValidation--><g id="link_TravelAgreementFieldValidationImpl_CountryValidation"><path codeLine="174" d="M4543.5218,561.7425 C4201.2518,582.1025 3513.66,628.8237 3275,689.0137 C3255.61,693.9037 3235.69,700.3337 3216.22,707.5037 " fill="none" id="TravelAgreementFieldValidationImpl-backto-CountryValidation" style="stroke:#181818;stroke-width:1.0;"/><polygon fill="none" points="4561.49,560.6737,4543.1655,555.7531,4543.878,567.7319,4561.49,560.6737" style="stroke:#181818;stroke-width:1.0;"/></g><!--reverse link TravelPersonFieldValidationImpl to PersonBirthDateInThePastValidation--><g id="link_TravelPersonFieldValidationImpl_PersonBirthDateInThePastValidation"><path codeLine="175" d="M1531.2853,605.2769 C1498.6853,643.0269 1462.28,685.1937 1427.31,725.6937 " fill="none" id="TravelPersonFieldValidationImpl-backto-PersonBirthDateInThePastValidation" style="stroke:#181818;stroke-width:1.0;"/><polygon fill="none" points="1543.05,591.6537,1526.7442,601.3553,1535.8264,609.1985,1543.05,591.6537" style="stroke:#181818;stroke-width:1.0;"/></g><!--reverse link TravelAgreementFieldValidationImpl to AgreementDateToInFutureValidation--><g id="link_TravelAgreementFieldValidationImpl_AgreementDateToInFutureValidation"><path codeLine="176" d="M4543.1894,560.6836 C4328.4094,574.9136 3988.6,608.1737 3691,689.0137 C3656.66,698.3437 3620.53,712.1137 3588.19,726.0137 " fill="none" id="TravelAgreementFieldValidationImpl-backto-AgreementDateToInFutureValidation" style="stroke:#181818;stroke-width:1.0;"/><polygon fill="none" points="4561.15,559.4937,4542.7927,554.6968,4543.586,566.6705,4561.15,559.4937" style="stroke:#181818;stroke-width:1.0;"/></g><!--reverse link TravelAgreementFieldValidationImpl to AgreementDateFromValidation--><g id="link_TravelAgreementFieldValidationImpl_AgreementDateFromValidation"><path codeLine="177" d="M4543.453,584.6281 C4413.763,608.3181 4256.9,641.6137 4107,689.0137 C4066.72,701.7537 4023.5,719.3537 3986.95,735.4737 " fill="none" id="TravelAgreementFieldValidationImpl-backto-AgreementDateFromValidation" style="stroke:#181818;stroke-width:1.0;"/><polygon fill="none" points="4561.16,581.3937,4542.3748,578.7258,4544.5311,590.5305,4561.16,581.3937" style="stroke:#181818;stroke-width:1.0;"/></g><!--reverse link TravelAgreementFieldValidationImpl to DateFromLessThenDateToValidation--><g id="link_TravelAgreementFieldValidationImpl_DateFromLessThenDateToValidation"><path codeLine="178" d="M4656.1269,599.8118 C4577.4369,640.6918 4473.87,694.4837 4395.11,735.4037 " fill="none" id="TravelAgreementFieldValidationImpl-backto-DateFromLessThenDateToValidation" style="stroke:#181818;stroke-width:1.0;"/><polygon fill="none" points="4672.1,591.5137,4653.3608,594.4874,4658.8929,605.1362,4672.1,591.5137" style="stroke:#181818;stroke-width:1.0;"/></g><!--reverse link TravelAgreementFieldValidationImpl to EmptyMedicalRiskLimitLevelValidation--><g id="link_TravelAgreementFieldValidationImpl_EmptyMedicalRiskLimitLevelValidation"><path codeLine="179" d="M4752,609.6537 C4752,639.3437 4752,662.1837 4752,697.9737 " fill="none" id="TravelAgreementFieldValidationImpl-backto-EmptyMedicalRiskLimitLevelValidation" style="stroke:#181818;stroke-width:1.0;"/><polygon fill="none" points="4752,591.6537,4746,609.6537,4758,609.6537,4752,591.6537" style="stroke:#181818;stroke-width:1.0;"/></g><!--reverse link TravelPersonFieldValidation to TravelPersonFieldValidationImpl--><g id="link_TravelPersonFieldValidation_TravelPersonFieldValidationImpl"><path codeLine="180" d="M1579,399.2037 C1579,435.5737 1579,470.0537 1579,506.3937 " fill="none" id="TravelPersonFieldValidation-backto-TravelPersonFieldValidationImpl" style="stroke:#181818;stroke-width:1.0;stroke-dasharray:7.0,7.0;"/><polygon fill="none" points="1579,381.2037,1573,399.2037,1585,399.2037,1579,381.2037" style="stroke:#181818;stroke-width:1.0;"/></g><!--reverse link TravelAgreementFieldValidationImpl to EmptyCountryValidation--><g id="link_TravelAgreementFieldValidationImpl_EmptyCountryValidation"><path codeLine="181" d="M4847.8731,599.8119 C4920.6531,637.6219 5012.4,685.2737 5090.49,725.8437 " fill="none" id="TravelAgreementFieldValidationImpl-backto-EmptyCountryValidation" style="stroke:#181818;stroke-width:1.0;"/><polygon fill="none" points="4831.9,591.5137,4845.107,605.1362,4850.6392,594.4875,4831.9,591.5137" style="stroke:#181818;stroke-width:1.0;"/></g><!--reverse link TravelPersonFieldValidationImpl to PersonFirstNameValidation--><g id="link_TravelPersonFieldValidationImpl_PersonFirstNameValidation"><path codeLine="182" d="M1626.7128,605.2785 C1661.9628,646.1085 1703.66,694.3837 1738.95,735.2537 " fill="none" id="TravelPersonFieldValidationImpl-backto-PersonFirstNameValidation" style="stroke:#181818;stroke-width:1.0;"/><polygon fill="none" points="1614.95,591.6537,1622.1712,609.1994,1631.2544,601.3576,1614.95,591.6537" style="stroke:#181818;stroke-width:1.0;"/></g><!--reverse link TravelAgreementFieldValidation to TravelAgreementFieldValidationImpl--><g id="link_TravelAgreementFieldValidation_TravelAgreementFieldValidationImpl"><path codeLine="183" d="M4752,399.2037 C4752,435.5737 4752,470.0537 4752,506.3937 " fill="none" id="TravelAgreementFieldValidation-backto-TravelAgreementFieldValidationImpl" style="stroke:#181818;stroke-width:1.0;stroke-dasharray:7.0,7.0;"/><polygon fill="none" points="4752,381.2037,4746,399.2037,4758,399.2037,4752,381.2037" style="stroke:#181818;stroke-width:1.0;"/></g><!--reverse link TravelAgreementFieldValidationImpl to MedicalRiskLimitLevelValidation--><g id="link_TravelAgreementFieldValidationImpl_MedicalRiskLimitLevelValidation"><path codeLine="184" d="M4857.7476,598.643 C4890.4276,612.413 4911.51,619.6237 4947,629.0137 C5142.05,680.6337 5202.04,637.0437 5397,689.0137 C5416.1,694.1037 5435.76,700.4737 5455.07,707.4337 " fill="none" id="TravelAgreementFieldValidationImpl-backto-MedicalRiskLimitLevelValidation" style="stroke:#181818;stroke-width:1.0;"/><polygon fill="none" points="4841.16,591.6537,4855.4178,604.1722,4860.0774,593.1138,4841.16,591.6537" style="stroke:#181818;stroke-width:1.0;"/></g><!--reverse link TravelAgreementFieldValidationImpl to EmptySelectedRisksValidation--><g id="link_TravelAgreementFieldValidationImpl_EmptySelectedRisksValidation"><path codeLine="185" d="M4854.4677,598.7804 C4887.7677,613.0904 4910.16,620.5237 4947,629.0137 C5329.01,717.0437 5445.68,598.0537 5827,689.0137 C5870.48,699.3837 5916.48,717.9737 5954.14,735.3937 " fill="none" id="TravelAgreementFieldValidationImpl-backto-EmptySelectedRisksValidation" style="stroke:#181818;stroke-width:1.0;"/><polygon fill="none" points="4837.93,591.6737,4852.0988,604.293,4856.8366,593.2678,4837.93,591.6737" style="stroke:#181818;stroke-width:1.0;"/></g><!--reverse link TravelPersonFieldValidationImpl to EmptyPersonBirthDateValidation--><g id="link_TravelPersonFieldValidationImpl_EmptyPersonBirthDateValidation"><path codeLine="186" d="M1721.4681,597.3892 C1798.8881,623.7692 1882.87,653.6737 1971,689.0137 C1999.3,700.3637 2029.52,713.4337 2057.53,725.9837 " fill="none" id="TravelPersonFieldValidationImpl-backto-EmptyPersonBirthDateValidation" style="stroke:#181818;stroke-width:1.0;"/><polygon fill="none" points="1704.43,591.5837,1719.5329,603.0686,1723.4032,591.7098,1704.43,591.5837" style="stroke:#181818;stroke-width:1.0;"/></g><!--reverse link TravelAgreementFieldValidationImpl to AgreementDateToValidation--><g id="link_TravelAgreementFieldValidationImpl_AgreementDateToValidation"><path codeLine="187" d="M4853.3908,598.8395 C4886.8908,613.3295 4909.71,620.8437 4947,629.0137 C5510.27,752.3637 5680.69,561.3537 6243,689.0137 C6286.97,698.9937 6333.41,717.7737 6371.23,735.4237 " fill="none" id="TravelAgreementFieldValidationImpl-backto-AgreementDateToValidation" style="stroke:#181818;stroke-width:1.0;"/><polygon fill="none" points="4836.87,591.6937,4851.0088,604.3465,4855.7727,593.3326,4836.87,591.6937" style="stroke:#181818;stroke-width:1.0;"/></g><!--reverse link TravelAgreementFieldValidationImpl to AgreementDateFromInFutureValidation--><g id="link_TravelAgreementFieldValidationImpl_AgreementDateFromInFutureValidation"><path codeLine="188" d="M4852.8506,598.873 C4886.4506,613.463 4909.49,621.0237 4947,629.0137 C5691.63,787.7037 5915.6,524.6237 6659,689.0137 C6695.37,697.0537 6733.39,711.2537 6766.83,725.9137 " fill="none" id="TravelAgreementFieldValidationImpl-backto-AgreementDateFromInFutureValidation" style="stroke:#181818;stroke-width:1.0;"/><polygon fill="none" points="4836.34,591.7037,4850.4608,604.3766,4855.2404,593.3695,4836.34,591.7037" style="stroke:#181818;stroke-width:1.0;"/></g><!--SRC=[rLdRJkCm47tFL-In5Tjy0QgqN2fLAWL1TzzTPoXU7Bko7RHeWMzVvzBcdYQf6z8791BFE6SkFfwPOegajBdOE7_G6zhumdUKG6z07SAaBn33u60km7b3bBX84SwaimebVcu4W0TCpGXGztUqpeNzpvhO2oBLPOsOtcPgeueLQNr56oIlReNWucPrFxLZ733QxwjVZtUVBDF0d5B0wecm3OMzLhWkM-yIh1-n1yCQEjD_WOmSLKd-g5eOMv-MPH6cG3mZ30O3fzTrvBxi-stmBw9jdDyWN850JajRWWratpxnvjwMXibNdvwe_FrUxm64v2odj2rvQLsOpL8pkT79fP5vJcJw0acrH1va4cDYvxuuGrZxuDs6r8FsIBFqYJwqou9kcFTnT9uWE9dWFXBvAdEehuEjoJC1eHTyU8GjboG4ZgjM6jlQ9UadXxKovXJK6pauK9tZqPCIclJ6HOEqiBtsIVhmX-zJ6clEAI1cmr-DTyvka49h964lOI1krzndIhpt6B4kv9QuWiWOyPAhAuhOQwMaSQTb3kWL4Uf5xmrpjdg11trSSouCrbR4Wr-AKDjDFGpw62VE313pEPlvoXVmJROLxYgZviq4zqx8huR0Lq0Aq8OlhhaRnG7IJnfb5TraIQQPN7JVFL1TxhnmweAO6Wd7BWeBa5AV8XObtV1ZabXmwstL-nsu12CQ4Fw2U4GjGEldhBYAMSahaxrbQ4t1xOr2xsf0ZDAYkY1II3iYgifYjRORp-NIf_HUbD6rWKgwM2ksAwDJ1DgqXivoBbfBZHKh-vXRfSQMkARkS25STBBdY8QWj6xFzQAbDavBgll6NMX4JZiRfarQo4WwxXrJvZTjORlh1-kTjB-nDSdnNNdDs0TruUZBXnZb-F9kHaJV3TXnD9A4g7w-q99Cihwzw7N6a9ZKv88TSijIYl-e1iRKz2dDqkq7Vfzc-AHkTZ30wYycYX1whXdiXosI5DdcUj6G5q_R4fvJTLvezmRNprgMgVDx-U4u9gUurcdgsCkFoSJmPDGwvLNP1U_1gUY04HTgkw7cGTq0Ri3-FJXWEnVisUdPW54V6Z8D67gJwP9bS6ZIvGvfTjw7xkIpeRsInjGo-mDqboHe4wu1fuBXezPt4XkgDawVolMjq_dStkTvQnThZly0]--></g></svg>