<?xml version="1.0" encoding="us-ascii" standalone="no"?><svg xmlns="http://www.w3.org/2000/svg" xmlns:xlink="http://www.w3.org/1999/xlink" contentStyleType="text/css" height="1034px" preserveAspectRatio="none" style="width:9261px;height:1034px;background:#FFFFFF;" version="1.1" viewBox="0 0 9261 1034" width="9261px" zoomAndPan="magnify"><defs/><g><!--cluster org--><g id="cluster_org"><path d="M8.5,6.0137 L33.5,6.0137 A3.75,3.75 0 0 1 36,8.5137 L43,30.6348 L9251.5,30.6348 A2.5,2.5 0 0 1 9254,33.1348 L9254,1024.5137 A2.5,2.5 0 0 1 9251.5,1027.0137 L8.5,1027.0137 A2.5,2.5 0 0 1 6,1024.5137 L6,8.5137 A2.5,2.5 0 0 1 8.5,6.0137 " fill="none" style="stroke:#000000;stroke-width:1.5;"/><line style="stroke:#000000;stroke-width:1.5;" x1="6" x2="43" y1="30.6348" y2="30.6348"/><text fill="#000000" font-family="sans-serif" font-size="14" font-weight="bold" lengthAdjust="spacing" textLength="24" x="10" y="23.1211">org</text></g><!--cluster javaguru--><g id="cluster_javaguru"><path d="M32.5,51.0137 L95.5,51.0137 A3.75,3.75 0 0 1 98,53.5137 L105,75.6348 L9227.5,75.6348 A2.5,2.5 0 0 1 9230,78.1348 L9230,1000.5137 A2.5,2.5 0 0 1 9227.5,1003.0137 L32.5,1003.0137 A2.5,2.5 0 0 1 30,1000.5137 L30,53.5137 A2.5,2.5 0 0 1 32.5,51.0137 " fill="none" style="stroke:#000000;stroke-width:1.5;"/><line style="stroke:#000000;stroke-width:1.5;" x1="30" x2="105" y1="75.6348" y2="75.6348"/><text fill="#000000" font-family="sans-serif" font-size="14" font-weight="bold" lengthAdjust="spacing" textLength="62" x="34" y="68.1211">javaguru</text></g><!--cluster travel--><g id="cluster_travel"><path d="M56.5,96.0137 L98.5,96.0137 A3.75,3.75 0 0 1 101,98.5137 L108,120.6348 L9203.5,120.6348 A2.5,2.5 0 0 1 9206,123.1348 L9206,976.5137 A2.5,2.5 0 0 1 9203.5,979.0137 L56.5,979.0137 A2.5,2.5 0 0 1 54,976.5137 L54,98.5137 A2.5,2.5 0 0 1 56.5,96.0137 " fill="none" style="stroke:#000000;stroke-width:1.5;"/><line style="stroke:#000000;stroke-width:1.5;" x1="54" x2="108" y1="120.6348" y2="120.6348"/><text fill="#000000" font-family="sans-serif" font-size="14" font-weight="bold" lengthAdjust="spacing" textLength="41" x="58" y="113.1211">travel</text></g><!--cluster insurance--><g id="cluster_insurance"><path d="M80.5,141.0137 L151.5,141.0137 A3.75,3.75 0 0 1 154,143.5137 L161,165.6348 L9179.5,165.6348 A2.5,2.5 0 0 1 9182,168.1348 L9182,952.5137 A2.5,2.5 0 0 1 9179.5,955.0137 L80.5,955.0137 A2.5,2.5 0 0 1 78,952.5137 L78,143.5137 A2.5,2.5 0 0 1 80.5,141.0137 " fill="none" style="stroke:#000000;stroke-width:1.5;"/><line style="stroke:#000000;stroke-width:1.5;" x1="78" x2="161" y1="165.6348" y2="165.6348"/><text fill="#000000" font-family="sans-serif" font-size="14" font-weight="bold" lengthAdjust="spacing" textLength="70" x="82" y="158.1211">insurance</text></g><!--cluster core--><g id="cluster_core"><path d="M104.5,186.0137 L137.5,186.0137 A3.75,3.75 0 0 1 140,188.5137 L147,210.6348 L9155.5,210.6348 A2.5,2.5 0 0 1 9158,213.1348 L9158,928.5137 A2.5,2.5 0 0 1 9155.5,931.0137 L104.5,931.0137 A2.5,2.5 0 0 1 102,928.5137 L102,188.5137 A2.5,2.5 0 0 1 104.5,186.0137 " fill="none" style="stroke:#000000;stroke-width:1.5;"/><line style="stroke:#000000;stroke-width:1.5;" x1="102" x2="147" y1="210.6348" y2="210.6348"/><text fill="#000000" font-family="sans-serif" font-size="14" font-weight="bold" lengthAdjust="spacing" textLength="32" x="106" y="203.1211">core</text></g><!--cluster validations--><g id="cluster_validations"><path d="M128.5,231.0137 L206.5,231.0137 A3.75,3.75 0 0 1 209,233.5137 L216,255.6348 L9131.5,255.6348 A2.5,2.5 0 0 1 9134,258.1348 L9134,904.5137 A2.5,2.5 0 0 1 9131.5,907.0137 L128.5,907.0137 A2.5,2.5 0 0 1 126,904.5137 L126,233.5137 A2.5,2.5 0 0 1 128.5,231.0137 " fill="none" style="stroke:#000000;stroke-width:1.5;"/><line style="stroke:#000000;stroke-width:1.5;" x1="126" x2="216" y1="255.6348" y2="255.6348"/><text fill="#000000" font-family="sans-serif" font-size="14" font-weight="bold" lengthAdjust="spacing" textLength="77" x="130" y="248.1211">validations</text></g><!--cluster person--><g id="cluster_person"><path d="M5004.5,469.5137 L5055.5,469.5137 A3.75,3.75 0 0 1 5058,472.0137 L5065,494.1348 L8461.5,494.1348 A2.5,2.5 0 0 1 8464,496.6348 L8464,871.5137 A2.5,2.5 0 0 1 8461.5,874.0137 L5004.5,874.0137 A2.5,2.5 0 0 1 5002,871.5137 L5002,472.0137 A2.5,2.5 0 0 1 5004.5,469.5137 " fill="none" style="stroke:#000000;stroke-width:1.5;"/><line style="stroke:#000000;stroke-width:1.5;" x1="5002" x2="5065" y1="494.1348" y2="494.1348"/><text fill="#000000" font-family="sans-serif" font-size="14" font-weight="bold" lengthAdjust="spacing" textLength="50" x="5006" y="486.6211">person</text></g><!--cluster agreement--><g id="cluster_agreement"><path d="M798.5,469.5137 L875.5,469.5137 A3.75,3.75 0 0 1 878,472.0137 L885,494.1348 L4593.5,494.1348 A2.5,2.5 0 0 1 4596,496.6348 L4596,880.5137 A2.5,2.5 0 0 1 4593.5,883.0137 L798.5,883.0137 A2.5,2.5 0 0 1 796,880.5137 L796,472.0137 A2.5,2.5 0 0 1 798.5,469.5137 " fill="none" style="stroke:#000000;stroke-width:1.5;"/><line style="stroke:#000000;stroke-width:1.5;" x1="796" x2="885" y1="494.1348" y2="494.1348"/><text fill="#000000" font-family="sans-serif" font-size="14" font-weight="bold" lengthAdjust="spacing" textLength="76" x="800" y="486.6211">agreement</text></g><!--class TravelAgreementFieldValidator--><g id="elem_TravelAgreementFieldValidator"><rect codeLine="1" fill="#F1F1F1" height="141.1055" id="TravelAgreementFieldValidator" rx="2.5" ry="2.5" style="stroke:#181818;stroke-width:0.5;" width="637" x="8065.5" y="268.0137"/><ellipse cx="8281.75" cy="284.0137" fill="#ADD1B2" rx="11" ry="11" style="stroke:#181818;stroke-width:1.0;"/><path d="M8284.5156,279.8887 Q8284.6719,279.6699 8284.8594,279.5605 Q8285.0469,279.4512 8285.2656,279.4512 Q8285.6406,279.4512 8285.875,279.7168 Q8286.1094,279.9668 8286.1094,280.5762 L8286.1094,282.0293 Q8286.1094,282.6387 8285.875,282.9043 Q8285.6406,283.1699 8285.2656,283.1699 Q8284.9219,283.1699 8284.7188,282.9668 Q8284.5156,282.7793 8284.4063,282.2637 Q8284.3594,281.9043 8284.1719,281.7168 Q8283.8438,281.3418 8283.2344,281.123 Q8282.625,280.9043 8282,280.9043 Q8281.2344,280.9043 8280.5938,281.2324 Q8279.9688,281.5605 8279.4688,282.3105 Q8278.9844,283.0605 8278.9844,284.0918 L8278.9844,285.1855 Q8278.9844,286.4199 8279.875,287.248 Q8280.7656,288.0605 8282.3594,288.0605 Q8283.2969,288.0605 8283.9531,287.8105 Q8284.3438,287.6543 8284.7656,287.2168 Q8285.0313,286.9512 8285.1719,286.873 Q8285.3281,286.7949 8285.5313,286.7949 Q8285.8594,286.7949 8286.1094,287.0605 Q8286.375,287.3105 8286.375,287.6543 Q8286.375,287.998 8286.0313,288.4043 Q8285.5313,288.9824 8284.7344,289.3105 Q8283.6563,289.7637 8282.3594,289.7637 Q8280.8438,289.7637 8279.6406,289.1387 Q8278.6563,288.6387 8277.9688,287.5762 Q8277.2813,286.498 8277.2813,285.2168 L8277.2813,284.0605 Q8277.2813,282.7324 8277.8906,281.5918 Q8278.5156,280.4355 8279.6094,279.8262 Q8280.7031,279.2012 8281.9375,279.2012 Q8282.6719,279.2012 8283.3125,279.373 Q8283.9688,279.5293 8284.5156,279.8887 Z " fill="#000000"/><text fill="#000000" font-family="sans-serif" font-size="14" lengthAdjust="spacing" textLength="196" x="8302.25" y="289.8105">TravelAgreementFieldValidator</text><line style="stroke:#181818;stroke-width:0.5;" x1="8066.5" x2="8701.5" y1="300.0137" y2="300.0137"/><rect fill="none" height="6" style="stroke:#C82930;stroke-width:1.0;" width="6" x="8073.5" y="311.8242"/><text fill="#000000" font-family="sans-serif" font-size="14" lengthAdjust="spacing" textLength="412" x="8085.5" y="319.1211">List&lt;TravelAgreementFieldValidation&gt; agreementFieldValidations</text><line style="stroke:#181818;stroke-width:0.5;" x1="8066.5" x2="8701.5" y1="326.6348" y2="326.6348"/><polygon fill="#4177AF" points="8076.5,337.4453,8072.5,343.4453,8080.5,343.4453" style="stroke:#1963A0;stroke-width:1.0;"/><text fill="#000000" font-family="sans-serif" font-size="14" lengthAdjust="spacing" textLength="324" x="8085.5" y="345.7422">List&lt;ValidationErrorDTO&gt; validate(AgreementDTO)</text><rect fill="#F24D5C" height="6" style="stroke:#C82930;stroke-width:1.0;" width="6" x="8073.5" y="357.0664"/><text fill="#000000" font-family="sans-serif" font-size="14" lengthAdjust="spacing" textLength="462" x="8085.5" y="364.3633">List&lt;ValidationErrorDTO&gt; collectSingleAgreementErrors(AgreementDTO)</text><rect fill="#F24D5C" height="6" style="stroke:#C82930;stroke-width:1.0;" width="6" x="8073.5" y="375.6875"/><text fill="#000000" font-family="sans-serif" font-size="14" lengthAdjust="spacing" textLength="445" x="8085.5" y="382.9844">List&lt;ValidationErrorDTO&gt; collectListAgreementErrors(AgreementDTO)</text><rect fill="#F24D5C" height="6" style="stroke:#C82930;stroke-width:1.0;" width="6" x="8073.5" y="394.3086"/><text fill="#000000" font-family="sans-serif" font-size="14" lengthAdjust="spacing" textLength="611" x="8085.5" y="401.6055">List&lt;ValidationErrorDTO&gt; concatenateLists(List&lt;ValidationErrorDTO&gt;,List&lt;ValidationErrorDTO&gt;)</text></g><!--class TravelPersonFieldValidation--><g id="elem_TravelPersonFieldValidation"><rect codeLine="39" fill="#F1F1F1" height="85.2422" id="TravelPersonFieldValidation" rx="2.5" ry="2.5" style="stroke:#181818;stroke-width:0.5;" width="460" x="6503" y="296.0137"/><ellipse cx="6640.25" cy="312.0137" fill="#B4A7E5" rx="11" ry="11" style="stroke:#181818;stroke-width:1.0;"/><path d="M6641.2031,308.6543 L6641.2031,315.3105 L6642.9219,315.3105 Q6643.5313,315.3105 6643.7969,315.5449 Q6644.0625,315.7793 6644.0625,316.1699 Q6644.0625,316.5449 6643.7969,316.7793 Q6643.5313,317.0137 6642.9219,317.0137 L6637.7813,317.0137 Q6637.1719,317.0137 6636.9063,316.7793 Q6636.6406,316.5449 6636.6406,316.1543 Q6636.6406,315.7793 6636.9063,315.5449 Q6637.1719,315.3105 6637.7813,315.3105 L6639.5,315.3105 L6639.5,308.6543 L6637.7813,308.6543 Q6637.1719,308.6543 6636.9063,308.4199 Q6636.6406,308.1855 6636.6406,307.7949 Q6636.6406,307.4199 6636.9063,307.1855 Q6637.1719,306.9512 6637.7813,306.9512 L6642.9219,306.9512 Q6643.5313,306.9512 6643.7969,307.1855 Q6644.0625,307.4199 6644.0625,307.7949 Q6644.0625,308.1855 6643.7969,308.4199 Q6643.5313,308.6543 6642.9219,308.6543 L6641.2031,308.6543 Z " fill="#000000"/><text fill="#000000" font-family="sans-serif" font-size="14" font-style="italic" lengthAdjust="spacing" textLength="177" x="6660.75" y="317.8105">TravelPersonFieldValidation</text><line style="stroke:#181818;stroke-width:0.5;" x1="6504" x2="6962" y1="328.0137" y2="328.0137"/><line style="stroke:#181818;stroke-width:0.5;" x1="6504" x2="6962" y1="336.0137" y2="336.0137"/><polygon fill="#4177AF" points="6514,346.8242,6510,352.8242,6518,352.8242" style="stroke:#1963A0;stroke-width:1.0;"/><text fill="#000000" font-family="sans-serif" font-size="14" lengthAdjust="spacing" textLength="434" x="6523" y="355.1211">Optional&lt;ValidationErrorDTO&gt; validate(AgreementDTO,PersonDTO)</text><polygon fill="#4177AF" points="6514,365.4453,6510,371.4453,6518,371.4453" style="stroke:#1963A0;stroke-width:1.0;"/><text fill="#000000" font-family="sans-serif" font-size="14" lengthAdjust="spacing" textLength="425" x="6523" y="373.7422">List&lt;ValidationErrorDTO&gt; validateList(AgreementDTO,PersonDTO)</text></g><!--class TravelAgreementUuidValidatorImpl--><g id="elem_TravelAgreementUuidValidatorImpl"><rect codeLine="60" fill="#F1F1F1" height="103.8633" id="TravelAgreementUuidValidatorImpl" rx="2.5" ry="2.5" style="stroke:#181818;stroke-width:0.5;" width="373" x="4612.5" y="497.0137"/><ellipse cx="4685.75" cy="513.0137" fill="#ADD1B2" rx="11" ry="11" style="stroke:#181818;stroke-width:1.0;"/><path d="M4688.5156,508.8887 Q4688.6719,508.6699 4688.8594,508.5605 Q4689.0469,508.4512 4689.2656,508.4512 Q4689.6406,508.4512 4689.875,508.7168 Q4690.1094,508.9668 4690.1094,509.5762 L4690.1094,511.0293 Q4690.1094,511.6387 4689.875,511.9043 Q4689.6406,512.1699 4689.2656,512.1699 Q4688.9219,512.1699 4688.7188,511.9668 Q4688.5156,511.7793 4688.4063,511.2637 Q4688.3594,510.9043 4688.1719,510.7168 Q4687.8438,510.3418 4687.2344,510.123 Q4686.625,509.9043 4686,509.9043 Q4685.2344,509.9043 4684.5938,510.2324 Q4683.9688,510.5605 4683.4688,511.3105 Q4682.9844,512.0605 4682.9844,513.0918 L4682.9844,514.1855 Q4682.9844,515.4199 4683.875,516.248 Q4684.7656,517.0605 4686.3594,517.0605 Q4687.2969,517.0605 4687.9531,516.8105 Q4688.3438,516.6543 4688.7656,516.2168 Q4689.0313,515.9512 4689.1719,515.873 Q4689.3281,515.7949 4689.5313,515.7949 Q4689.8594,515.7949 4690.1094,516.0605 Q4690.375,516.3105 4690.375,516.6543 Q4690.375,516.998 4690.0313,517.4043 Q4689.5313,517.9824 4688.7344,518.3105 Q4687.6563,518.7637 4686.3594,518.7637 Q4684.8438,518.7637 4683.6406,518.1387 Q4682.6563,517.6387 4681.9688,516.5762 Q4681.2813,515.498 4681.2813,514.2168 L4681.2813,513.0605 Q4681.2813,511.7324 4681.8906,510.5918 Q4682.5156,509.4355 4683.6094,508.8262 Q4684.7031,508.2012 4685.9375,508.2012 Q4686.6719,508.2012 4687.3125,508.373 Q4687.9688,508.5293 4688.5156,508.8887 Z " fill="#000000"/><text fill="#000000" font-family="sans-serif" font-size="14" lengthAdjust="spacing" textLength="218" x="4706.25" y="518.8105">TravelAgreementUuidValidatorImpl</text><line style="stroke:#181818;stroke-width:0.5;" x1="4613.5" x2="4984.5" y1="529.0137" y2="529.0137"/><rect fill="none" height="6" style="stroke:#C82930;stroke-width:1.0;" width="6" x="4620.5" y="540.8242"/><text fill="#000000" font-family="sans-serif" font-size="14" lengthAdjust="spacing" textLength="225" x="4632.5" y="548.1211">ValidationErrorFactory errorFactory</text><rect fill="none" height="6" style="stroke:#C82930;stroke-width:1.0;" width="6" x="4620.5" y="559.4453"/><text fill="#000000" font-family="sans-serif" font-size="14" lengthAdjust="spacing" textLength="347" x="4632.5" y="566.7422">AgreementEntityRepository agreementEntityRepository</text><line style="stroke:#181818;stroke-width:0.5;" x1="4613.5" x2="4984.5" y1="574.2559" y2="574.2559"/><ellipse cx="4623.5" cy="589.0664" fill="#84BE84" rx="3" ry="3" style="stroke:#038048;stroke-width:1.0;"/><text fill="#000000" font-family="sans-serif" font-size="14" lengthAdjust="spacing" textLength="262" x="4632.5" y="593.3633">List&lt;ValidationErrorDTO&gt; validate(String)</text></g><!--class ValidationErrorFactory--><g id="elem_ValidationErrorFactory"><rect codeLine="100" fill="#F1F1F1" height="103.8633" id="ValidationErrorFactory" rx="2.5" ry="2.5" style="stroke:#181818;stroke-width:0.5;" width="380" x="8738" y="286.5137"/><ellipse cx="8852.75" cy="302.5137" fill="#ADD1B2" rx="11" ry="11" style="stroke:#181818;stroke-width:1.0;"/><path d="M8855.5156,298.3887 Q8855.6719,298.1699 8855.8594,298.0605 Q8856.0469,297.9512 8856.2656,297.9512 Q8856.6406,297.9512 8856.875,298.2168 Q8857.1094,298.4668 8857.1094,299.0762 L8857.1094,300.5293 Q8857.1094,301.1387 8856.875,301.4043 Q8856.6406,301.6699 8856.2656,301.6699 Q8855.9219,301.6699 8855.7188,301.4668 Q8855.5156,301.2793 8855.4063,300.7637 Q8855.3594,300.4043 8855.1719,300.2168 Q8854.8438,299.8418 8854.2344,299.623 Q8853.625,299.4043 8853,299.4043 Q8852.2344,299.4043 8851.5938,299.7324 Q8850.9688,300.0605 8850.4688,300.8105 Q8849.9844,301.5605 8849.9844,302.5918 L8849.9844,303.6855 Q8849.9844,304.9199 8850.875,305.748 Q8851.7656,306.5605 8853.3594,306.5605 Q8854.2969,306.5605 8854.9531,306.3105 Q8855.3438,306.1543 8855.7656,305.7168 Q8856.0313,305.4512 8856.1719,305.373 Q8856.3281,305.2949 8856.5313,305.2949 Q8856.8594,305.2949 8857.1094,305.5605 Q8857.375,305.8105 8857.375,306.1543 Q8857.375,306.498 8857.0313,306.9043 Q8856.5313,307.4824 8855.7344,307.8105 Q8854.6563,308.2637 8853.3594,308.2637 Q8851.8438,308.2637 8850.6406,307.6387 Q8849.6563,307.1387 8848.9688,306.0762 Q8848.2813,304.998 8848.2813,303.7168 L8848.2813,302.5605 Q8848.2813,301.2324 8848.8906,300.0918 Q8849.5156,298.9355 8850.6094,298.3262 Q8851.7031,297.7012 8852.9375,297.7012 Q8853.6719,297.7012 8854.3125,297.873 Q8854.9688,298.0293 8855.5156,298.3887 Z " fill="#000000"/><text fill="#000000" font-family="sans-serif" font-size="14" lengthAdjust="spacing" textLength="142" x="8873.25" y="308.3105">ValidationErrorFactory</text><line style="stroke:#181818;stroke-width:0.5;" x1="8739" x2="9117" y1="318.5137" y2="318.5137"/><rect fill="none" height="6" style="stroke:#C82930;stroke-width:1.0;" width="6" x="8746" y="330.3242"/><text fill="#000000" font-family="sans-serif" font-size="14" lengthAdjust="spacing" textLength="173" x="8758" y="337.6211">ErrorCodeUtil errorCodeUtil</text><line style="stroke:#181818;stroke-width:0.5;" x1="8739" x2="9117" y1="345.1348" y2="345.1348"/><ellipse cx="8749" cy="359.9453" fill="#84BE84" rx="3" ry="3" style="stroke:#038048;stroke-width:1.0;"/><text fill="#000000" font-family="sans-serif" font-size="14" lengthAdjust="spacing" textLength="237" x="8758" y="364.2422">ValidationErrorDTO buildError(String)</text><ellipse cx="8749" cy="378.5664" fill="#84BE84" rx="3" ry="3" style="stroke:#038048;stroke-width:1.0;"/><text fill="#000000" font-family="sans-serif" font-size="14" lengthAdjust="spacing" textLength="354" x="8758" y="382.8633">ValidationErrorDTO buildError(String,List&lt;Placeholder&gt;)</text></g><!--class TravelAgreementUuidValidator--><g id="elem_TravelAgreementUuidValidator"><rect codeLine="126" fill="#F1F1F1" height="66.6211" id="TravelAgreementUuidValidator" rx="2.5" ry="2.5" style="stroke:#181818;stroke-width:0.5;" width="288" x="4655" y="305.0137"/><ellipse cx="4698.35" cy="321.0137" fill="#B4A7E5" rx="11" ry="11" style="stroke:#181818;stroke-width:1.0;"/><path d="M4699.3031,317.6543 L4699.3031,324.3105 L4701.0219,324.3105 Q4701.6313,324.3105 4701.8969,324.5449 Q4702.1625,324.7793 4702.1625,325.1699 Q4702.1625,325.5449 4701.8969,325.7793 Q4701.6313,326.0137 4701.0219,326.0137 L4695.8813,326.0137 Q4695.2719,326.0137 4695.0063,325.7793 Q4694.7406,325.5449 4694.7406,325.1543 Q4694.7406,324.7793 4695.0063,324.5449 Q4695.2719,324.3105 4695.8813,324.3105 L4697.6,324.3105 L4697.6,317.6543 L4695.8813,317.6543 Q4695.2719,317.6543 4695.0063,317.4199 Q4694.7406,317.1855 4694.7406,316.7949 Q4694.7406,316.4199 4695.0063,316.1855 Q4695.2719,315.9512 4695.8813,315.9512 L4701.0219,315.9512 Q4701.6313,315.9512 4701.8969,316.1855 Q4702.1625,316.4199 4702.1625,316.7949 Q4702.1625,317.1855 4701.8969,317.4199 Q4701.6313,317.6543 4701.0219,317.6543 L4699.3031,317.6543 Z " fill="#000000"/><text fill="#000000" font-family="sans-serif" font-size="14" font-style="italic" lengthAdjust="spacing" textLength="193" x="4718.65" y="326.8105">TravelAgreementUuidValidator</text><line style="stroke:#181818;stroke-width:0.5;" x1="4656" x2="4942" y1="337.0137" y2="337.0137"/><line style="stroke:#181818;stroke-width:0.5;" x1="4656" x2="4942" y1="345.0137" y2="345.0137"/><polygon fill="#4177AF" points="4666,355.8242,4662,361.8242,4670,361.8242" style="stroke:#1963A0;stroke-width:1.0;"/><text fill="#000000" font-family="sans-serif" font-size="14" lengthAdjust="spacing" textLength="262" x="4675" y="364.1211">List&lt;ValidationErrorDTO&gt; validate(String)</text></g><!--class TravelPersonFieldValidator--><g id="elem_TravelPersonFieldValidator"><rect codeLine="141" fill="#F1F1F1" height="159.7266" id="TravelPersonFieldValidator" rx="2.5" ry="2.5" style="stroke:#181818;stroke-width:0.5;" width="637" x="8480.5" y="469.0137"/><ellipse cx="8708.75" cy="485.0137" fill="#ADD1B2" rx="11" ry="11" style="stroke:#181818;stroke-width:1.0;"/><path d="M8711.5156,480.8887 Q8711.6719,480.6699 8711.8594,480.5605 Q8712.0469,480.4512 8712.2656,480.4512 Q8712.6406,480.4512 8712.875,480.7168 Q8713.1094,480.9668 8713.1094,481.5762 L8713.1094,483.0293 Q8713.1094,483.6387 8712.875,483.9043 Q8712.6406,484.1699 8712.2656,484.1699 Q8711.9219,484.1699 8711.7188,483.9668 Q8711.5156,483.7793 8711.4063,483.2637 Q8711.3594,482.9043 8711.1719,482.7168 Q8710.8438,482.3418 8710.2344,482.123 Q8709.625,481.9043 8709,481.9043 Q8708.2344,481.9043 8707.5938,482.2324 Q8706.9688,482.5605 8706.4688,483.3105 Q8705.9844,484.0605 8705.9844,485.0918 L8705.9844,486.1855 Q8705.9844,487.4199 8706.875,488.248 Q8707.7656,489.0605 8709.3594,489.0605 Q8710.2969,489.0605 8710.9531,488.8105 Q8711.3438,488.6543 8711.7656,488.2168 Q8712.0313,487.9512 8712.1719,487.873 Q8712.3281,487.7949 8712.5313,487.7949 Q8712.8594,487.7949 8713.1094,488.0605 Q8713.375,488.3105 8713.375,488.6543 Q8713.375,488.998 8713.0313,489.4043 Q8712.5313,489.9824 8711.7344,490.3105 Q8710.6563,490.7637 8709.3594,490.7637 Q8707.8438,490.7637 8706.6406,490.1387 Q8705.6563,489.6387 8704.9688,488.5762 Q8704.2813,487.498 8704.2813,486.2168 L8704.2813,485.0605 Q8704.2813,483.7324 8704.8906,482.5918 Q8705.5156,481.4355 8706.6094,480.8262 Q8707.7031,480.2012 8708.9375,480.2012 Q8709.6719,480.2012 8710.3125,480.373 Q8710.9688,480.5293 8711.5156,480.8887 Z " fill="#000000"/><text fill="#000000" font-family="sans-serif" font-size="14" lengthAdjust="spacing" textLength="172" x="8729.25" y="490.8105">TravelPersonFieldValidator</text><line style="stroke:#181818;stroke-width:0.5;" x1="8481.5" x2="9116.5" y1="501.0137" y2="501.0137"/><rect fill="none" height="6" style="stroke:#C82930;stroke-width:1.0;" width="6" x="8488.5" y="512.8242"/><text fill="#000000" font-family="sans-serif" font-size="14" lengthAdjust="spacing" textLength="364" x="8500.5" y="520.1211">List&lt;TravelPersonFieldValidation&gt; personFieldValidations</text><line style="stroke:#181818;stroke-width:0.5;" x1="8481.5" x2="9116.5" y1="527.6348" y2="527.6348"/><polygon fill="#4177AF" points="8491.5,538.4453,8487.5,544.4453,8495.5,544.4453" style="stroke:#1963A0;stroke-width:1.0;"/><text fill="#000000" font-family="sans-serif" font-size="14" lengthAdjust="spacing" textLength="324" x="8500.5" y="546.7422">List&lt;ValidationErrorDTO&gt; validate(AgreementDTO)</text><rect fill="#F24D5C" height="6" style="stroke:#C82930;stroke-width:1.0;" width="6" x="8488.5" y="558.0664"/><text fill="#000000" font-family="sans-serif" font-size="14" lengthAdjust="spacing" textLength="478" x="8500.5" y="565.3633">List&lt;ValidationErrorDTO&gt; collectPersonErrors(AgreementDTO,PersonDTO)</text><rect fill="#F24D5C" height="6" style="stroke:#C82930;stroke-width:1.0;" width="6" x="8488.5" y="576.6875"/><text fill="#000000" font-family="sans-serif" font-size="14" lengthAdjust="spacing" textLength="517" x="8500.5" y="583.9844">List&lt;ValidationErrorDTO&gt; collectSinglePersonErrors(AgreementDTO,PersonDTO)</text><rect fill="#F24D5C" height="6" style="stroke:#C82930;stroke-width:1.0;" width="6" x="8488.5" y="595.3086"/><text fill="#000000" font-family="sans-serif" font-size="14" lengthAdjust="spacing" textLength="500" x="8500.5" y="602.6055">List&lt;ValidationErrorDTO&gt; collectListPersonErrors(AgreementDTO,PersonDTO)</text><rect fill="#F24D5C" height="6" style="stroke:#C82930;stroke-width:1.0;" width="6" x="8488.5" y="613.9297"/><text fill="#000000" font-family="sans-serif" font-size="14" lengthAdjust="spacing" textLength="611" x="8500.5" y="621.2266">List&lt;ValidationErrorDTO&gt; concatenateLists(List&lt;ValidationErrorDTO&gt;,List&lt;ValidationErrorDTO&gt;)</text></g><!--class TravelAgreementValidatorImpl--><g id="elem_TravelAgreementValidatorImpl"><rect codeLine="151" fill="#F1F1F1" height="122.4844" id="TravelAgreementValidatorImpl" rx="2.5" ry="2.5" style="stroke:#181818;stroke-width:0.5;" width="637" x="142.5" y="488.0137"/><ellipse cx="361.75" cy="504.0137" fill="#ADD1B2" rx="11" ry="11" style="stroke:#181818;stroke-width:1.0;"/><path d="M364.5156,499.8887 Q364.6719,499.6699 364.8594,499.5605 Q365.0469,499.4512 365.2656,499.4512 Q365.6406,499.4512 365.875,499.7168 Q366.1094,499.9668 366.1094,500.5762 L366.1094,502.0293 Q366.1094,502.6387 365.875,502.9043 Q365.6406,503.1699 365.2656,503.1699 Q364.9219,503.1699 364.7188,502.9668 Q364.5156,502.7793 364.4063,502.2637 Q364.3594,501.9043 364.1719,501.7168 Q363.8438,501.3418 363.2344,501.123 Q362.625,500.9043 362,500.9043 Q361.2344,500.9043 360.5938,501.2324 Q359.9688,501.5605 359.4688,502.3105 Q358.9844,503.0605 358.9844,504.0918 L358.9844,505.1855 Q358.9844,506.4199 359.875,507.248 Q360.7656,508.0605 362.3594,508.0605 Q363.2969,508.0605 363.9531,507.8105 Q364.3438,507.6543 364.7656,507.2168 Q365.0313,506.9512 365.1719,506.873 Q365.3281,506.7949 365.5313,506.7949 Q365.8594,506.7949 366.1094,507.0605 Q366.375,507.3105 366.375,507.6543 Q366.375,507.998 366.0313,508.4043 Q365.5313,508.9824 364.7344,509.3105 Q363.6563,509.7637 362.3594,509.7637 Q360.8438,509.7637 359.6406,509.1387 Q358.6563,508.6387 357.9688,507.5762 Q357.2813,506.498 357.2813,505.2168 L357.2813,504.0605 Q357.2813,502.7324 357.8906,501.5918 Q358.5156,500.4355 359.6094,499.8262 Q360.7031,499.2012 361.9375,499.2012 Q362.6719,499.2012 363.3125,499.373 Q363.9688,499.5293 364.5156,499.8887 Z " fill="#000000"/><text fill="#000000" font-family="sans-serif" font-size="14" lengthAdjust="spacing" textLength="190" x="382.25" y="509.8105">TravelAgreementValidatorImpl</text><line style="stroke:#181818;stroke-width:0.5;" x1="143.5" x2="778.5" y1="520.0137" y2="520.0137"/><rect fill="none" height="6" style="stroke:#C82930;stroke-width:1.0;" width="6" x="150.5" y="531.8242"/><text fill="#000000" font-family="sans-serif" font-size="14" lengthAdjust="spacing" textLength="355" x="162.5" y="539.1211">TravelAgreementFieldValidator agreementFieldValidator</text><rect fill="none" height="6" style="stroke:#C82930;stroke-width:1.0;" width="6" x="150.5" y="550.4453"/><text fill="#000000" font-family="sans-serif" font-size="14" lengthAdjust="spacing" textLength="307" x="162.5" y="557.7422">TravelPersonFieldValidator personFieldValidator</text><line style="stroke:#181818;stroke-width:0.5;" x1="143.5" x2="778.5" y1="565.2559" y2="565.2559"/><ellipse cx="153.5" cy="580.0664" fill="#84BE84" rx="3" ry="3" style="stroke:#038048;stroke-width:1.0;"/><text fill="#000000" font-family="sans-serif" font-size="14" lengthAdjust="spacing" textLength="324" x="162.5" y="584.3633">List&lt;ValidationErrorDTO&gt; validate(AgreementDTO)</text><rect fill="#F24D5C" height="6" style="stroke:#C82930;stroke-width:1.0;" width="6" x="150.5" y="595.6875"/><text fill="#000000" font-family="sans-serif" font-size="14" lengthAdjust="spacing" textLength="611" x="162.5" y="602.9844">List&lt;ValidationErrorDTO&gt; concatenateLists(List&lt;ValidationErrorDTO&gt;,List&lt;ValidationErrorDTO&gt;)</text></g><!--class TravelAgreementFieldValidation--><g id="elem_TravelAgreementFieldValidation"><rect codeLine="166" fill="#F1F1F1" height="85.2422" id="TravelAgreementFieldValidation" rx="2.5" ry="2.5" style="stroke:#181818;stroke-width:0.5;" width="381" x="2476.5" y="296.0137"/><ellipse cx="2562.25" cy="312.0137" fill="#B4A7E5" rx="11" ry="11" style="stroke:#181818;stroke-width:1.0;"/><path d="M2563.2031,308.6543 L2563.2031,315.3105 L2564.9219,315.3105 Q2565.5313,315.3105 2565.7969,315.5449 Q2566.0625,315.7793 2566.0625,316.1699 Q2566.0625,316.5449 2565.7969,316.7793 Q2565.5313,317.0137 2564.9219,317.0137 L2559.7813,317.0137 Q2559.1719,317.0137 2558.9063,316.7793 Q2558.6406,316.5449 2558.6406,316.1543 Q2558.6406,315.7793 2558.9063,315.5449 Q2559.1719,315.3105 2559.7813,315.3105 L2561.5,315.3105 L2561.5,308.6543 L2559.7813,308.6543 Q2559.1719,308.6543 2558.9063,308.4199 Q2558.6406,308.1855 2558.6406,307.7949 Q2558.6406,307.4199 2558.9063,307.1855 Q2559.1719,306.9512 2559.7813,306.9512 L2564.9219,306.9512 Q2565.5313,306.9512 2565.7969,307.1855 Q2566.0625,307.4199 2566.0625,307.7949 Q2566.0625,308.1855 2565.7969,308.4199 Q2565.5313,308.6543 2564.9219,308.6543 L2563.2031,308.6543 Z " fill="#000000"/><text fill="#000000" font-family="sans-serif" font-size="14" font-style="italic" lengthAdjust="spacing" textLength="201" x="2582.75" y="317.8105">TravelAgreementFieldValidation</text><line style="stroke:#181818;stroke-width:0.5;" x1="2477.5" x2="2856.5" y1="328.0137" y2="328.0137"/><line style="stroke:#181818;stroke-width:0.5;" x1="2477.5" x2="2856.5" y1="336.0137" y2="336.0137"/><polygon fill="#4177AF" points="2487.5,346.8242,2483.5,352.8242,2491.5,352.8242" style="stroke:#1963A0;stroke-width:1.0;"/><text fill="#000000" font-family="sans-serif" font-size="14" lengthAdjust="spacing" textLength="355" x="2496.5" y="355.1211">Optional&lt;ValidationErrorDTO&gt; validate(AgreementDTO)</text><polygon fill="#4177AF" points="2487.5,365.4453,2483.5,371.4453,2491.5,371.4453" style="stroke:#1963A0;stroke-width:1.0;"/><text fill="#000000" font-family="sans-serif" font-size="14" lengthAdjust="spacing" textLength="346" x="2496.5" y="373.7422">List&lt;ValidationErrorDTO&gt; validateList(AgreementDTO)</text></g><!--class TravelAgreementValidator--><g id="elem_TravelAgreementValidator"><rect codeLine="178" fill="#F1F1F1" height="66.6211" id="TravelAgreementValidator" rx="2.5" ry="2.5" style="stroke:#181818;stroke-width:0.5;" width="350" x="286" y="305.0137"/><ellipse cx="374.75" cy="321.0137" fill="#B4A7E5" rx="11" ry="11" style="stroke:#181818;stroke-width:1.0;"/><path d="M375.7031,317.6543 L375.7031,324.3105 L377.4219,324.3105 Q378.0313,324.3105 378.2969,324.5449 Q378.5625,324.7793 378.5625,325.1699 Q378.5625,325.5449 378.2969,325.7793 Q378.0313,326.0137 377.4219,326.0137 L372.2813,326.0137 Q371.6719,326.0137 371.4063,325.7793 Q371.1406,325.5449 371.1406,325.1543 Q371.1406,324.7793 371.4063,324.5449 Q371.6719,324.3105 372.2813,324.3105 L374,324.3105 L374,317.6543 L372.2813,317.6543 Q371.6719,317.6543 371.4063,317.4199 Q371.1406,317.1855 371.1406,316.7949 Q371.1406,316.4199 371.4063,316.1855 Q371.6719,315.9512 372.2813,315.9512 L377.4219,315.9512 Q378.0313,315.9512 378.2969,316.1855 Q378.5625,316.4199 378.5625,316.7949 Q378.5625,317.1855 378.2969,317.4199 Q378.0313,317.6543 377.4219,317.6543 L375.7031,317.6543 Z " fill="#000000"/><text fill="#000000" font-family="sans-serif" font-size="14" font-style="italic" lengthAdjust="spacing" textLength="164" x="395.25" y="326.8105">TravelAgreementValidator</text><line style="stroke:#181818;stroke-width:0.5;" x1="287" x2="635" y1="337.0137" y2="337.0137"/><line style="stroke:#181818;stroke-width:0.5;" x1="287" x2="635" y1="345.0137" y2="345.0137"/><polygon fill="#4177AF" points="297,355.8242,293,361.8242,301,361.8242" style="stroke:#1963A0;stroke-width:1.0;"/><text fill="#000000" font-family="sans-serif" font-size="14" lengthAdjust="spacing" textLength="324" x="306" y="364.1211">List&lt;ValidationErrorDTO&gt; validate(AgreementDTO)</text></g><!--class PersonBirthDateInThePastValidation--><g id="elem_PersonBirthDateInThePastValidation"><rect codeLine="10" fill="#F1F1F1" height="103.8633" id="PersonBirthDateInThePastValidation" rx="2.5" ry="2.5" style="stroke:#181818;stroke-width:0.5;" width="460" x="5018" y="726.0137"/><ellipse cx="5128.75" cy="742.0137" fill="#ADD1B2" rx="11" ry="11" style="stroke:#181818;stroke-width:1.0;"/><path d="M5131.5156,737.8887 Q5131.6719,737.6699 5131.8594,737.5605 Q5132.0469,737.4512 5132.2656,737.4512 Q5132.6406,737.4512 5132.875,737.7168 Q5133.1094,737.9668 5133.1094,738.5762 L5133.1094,740.0293 Q5133.1094,740.6387 5132.875,740.9043 Q5132.6406,741.1699 5132.2656,741.1699 Q5131.9219,741.1699 5131.7188,740.9668 Q5131.5156,740.7793 5131.4063,740.2637 Q5131.3594,739.9043 5131.1719,739.7168 Q5130.8438,739.3418 5130.2344,739.123 Q5129.625,738.9043 5129,738.9043 Q5128.2344,738.9043 5127.5938,739.2324 Q5126.9688,739.5605 5126.4688,740.3105 Q5125.9844,741.0605 5125.9844,742.0918 L5125.9844,743.1855 Q5125.9844,744.4199 5126.875,745.248 Q5127.7656,746.0605 5129.3594,746.0605 Q5130.2969,746.0605 5130.9531,745.8105 Q5131.3438,745.6543 5131.7656,745.2168 Q5132.0313,744.9512 5132.1719,744.873 Q5132.3281,744.7949 5132.5313,744.7949 Q5132.8594,744.7949 5133.1094,745.0605 Q5133.375,745.3105 5133.375,745.6543 Q5133.375,745.998 5133.0313,746.4043 Q5132.5313,746.9824 5131.7344,747.3105 Q5130.6563,747.7637 5129.3594,747.7637 Q5127.8438,747.7637 5126.6406,747.1387 Q5125.6563,746.6387 5124.9688,745.5762 Q5124.2813,744.498 5124.2813,743.2168 L5124.2813,742.0605 Q5124.2813,740.7324 5124.8906,739.5918 Q5125.5156,738.4355 5126.6094,737.8262 Q5127.7031,737.2012 5128.9375,737.2012 Q5129.6719,737.2012 5130.3125,737.373 Q5130.9688,737.5293 5131.5156,737.8887 Z " fill="#000000"/><text fill="#000000" font-family="sans-serif" font-size="14" lengthAdjust="spacing" textLength="230" x="5149.25" y="747.8105">PersonBirthDateInThePastValidation</text><line style="stroke:#181818;stroke-width:0.5;" x1="5019" x2="5477" y1="758.0137" y2="758.0137"/><rect fill="none" height="6" style="stroke:#C82930;stroke-width:1.0;" width="6" x="5026" y="769.8242"/><text fill="#000000" font-family="sans-serif" font-size="14" lengthAdjust="spacing" textLength="162" x="5038" y="777.1211">DateTimeUtil dateTimeUtil</text><rect fill="none" height="6" style="stroke:#C82930;stroke-width:1.0;" width="6" x="5026" y="788.4453"/><text fill="#000000" font-family="sans-serif" font-size="14" lengthAdjust="spacing" textLength="225" x="5038" y="795.7422">ValidationErrorFactory errorFactory</text><line style="stroke:#181818;stroke-width:0.5;" x1="5019" x2="5477" y1="803.2559" y2="803.2559"/><ellipse cx="5029" cy="818.0664" fill="#84BE84" rx="3" ry="3" style="stroke:#038048;stroke-width:1.0;"/><text fill="#000000" font-family="sans-serif" font-size="14" lengthAdjust="spacing" textLength="434" x="5038" y="822.3633">Optional&lt;ValidationErrorDTO&gt; validate(AgreementDTO,PersonDTO)</text></g><!--class EmptyPersonFirstNameValidation--><g id="elem_EmptyPersonFirstNameValidation"><rect codeLine="17" fill="#F1F1F1" height="85.2422" id="EmptyPersonFirstNameValidation" rx="2.5" ry="2.5" style="stroke:#181818;stroke-width:0.5;" width="460" x="5513" y="735.5137"/><ellipse cx="5633.75" cy="751.5137" fill="#ADD1B2" rx="11" ry="11" style="stroke:#181818;stroke-width:1.0;"/><path d="M5636.5156,747.3887 Q5636.6719,747.1699 5636.8594,747.0605 Q5637.0469,746.9512 5637.2656,746.9512 Q5637.6406,746.9512 5637.875,747.2168 Q5638.1094,747.4668 5638.1094,748.0762 L5638.1094,749.5293 Q5638.1094,750.1387 5637.875,750.4043 Q5637.6406,750.6699 5637.2656,750.6699 Q5636.9219,750.6699 5636.7188,750.4668 Q5636.5156,750.2793 5636.4063,749.7637 Q5636.3594,749.4043 5636.1719,749.2168 Q5635.8438,748.8418 5635.2344,748.623 Q5634.625,748.4043 5634,748.4043 Q5633.2344,748.4043 5632.5938,748.7324 Q5631.9688,749.0605 5631.4688,749.8105 Q5630.9844,750.5605 5630.9844,751.5918 L5630.9844,752.6855 Q5630.9844,753.9199 5631.875,754.748 Q5632.7656,755.5605 5634.3594,755.5605 Q5635.2969,755.5605 5635.9531,755.3105 Q5636.3438,755.1543 5636.7656,754.7168 Q5637.0313,754.4512 5637.1719,754.373 Q5637.3281,754.2949 5637.5313,754.2949 Q5637.8594,754.2949 5638.1094,754.5605 Q5638.375,754.8105 5638.375,755.1543 Q5638.375,755.498 5638.0313,755.9043 Q5637.5313,756.4824 5636.7344,756.8105 Q5635.6563,757.2637 5634.3594,757.2637 Q5632.8438,757.2637 5631.6406,756.6387 Q5630.6563,756.1387 5629.9688,755.0762 Q5629.2813,753.998 5629.2813,752.7168 L5629.2813,751.5605 Q5629.2813,750.2324 5629.8906,749.0918 Q5630.5156,747.9355 5631.6094,747.3262 Q5632.7031,746.7012 5633.9375,746.7012 Q5634.6719,746.7012 5635.3125,746.873 Q5635.9688,747.0293 5636.5156,747.3887 Z " fill="#000000"/><text fill="#000000" font-family="sans-serif" font-size="14" lengthAdjust="spacing" textLength="210" x="5654.25" y="757.3105">EmptyPersonFirstNameValidation</text><line style="stroke:#181818;stroke-width:0.5;" x1="5514" x2="5972" y1="767.5137" y2="767.5137"/><rect fill="none" height="6" style="stroke:#C82930;stroke-width:1.0;" width="6" x="5521" y="779.3242"/><text fill="#000000" font-family="sans-serif" font-size="14" lengthAdjust="spacing" textLength="225" x="5533" y="786.6211">ValidationErrorFactory errorFactory</text><line style="stroke:#181818;stroke-width:0.5;" x1="5514" x2="5972" y1="794.1348" y2="794.1348"/><ellipse cx="5524" cy="808.9453" fill="#84BE84" rx="3" ry="3" style="stroke:#038048;stroke-width:1.0;"/><text fill="#000000" font-family="sans-serif" font-size="14" lengthAdjust="spacing" textLength="434" x="5533" y="813.2422">Optional&lt;ValidationErrorDTO&gt; validate(AgreementDTO,PersonDTO)</text></g><!--class TravelPersonFieldValidationImpl--><g id="elem_TravelPersonFieldValidationImpl"><rect codeLine="23" fill="#F1F1F1" height="85.2422" id="TravelPersonFieldValidationImpl" rx="2.5" ry="2.5" style="stroke:#181818;stroke-width:0.5;" width="460" x="6503" y="506.5137"/><ellipse cx="6627.25" cy="522.5137" fill="#A9DCDF" rx="11" ry="11" style="stroke:#181818;stroke-width:1.0;"/><path d="M6629.4375,524.2793 L6625.2969,524.2793 L6624.875,525.3105 L6625.2969,525.3105 Q6625.9063,525.3105 6626.1719,525.5449 Q6626.4375,525.7793 6626.4375,526.1699 Q6626.4375,526.5449 6626.1719,526.7793 Q6625.9063,527.0137 6625.2969,527.0137 L6623,527.0137 Q6622.3906,527.0137 6622.1406,526.7793 Q6621.875,526.5449 6621.875,526.1543 Q6621.875,525.7793 6622.1563,525.5449 Q6622.4219,525.2949 6623.0469,525.3105 L6625.7188,518.6543 L6624.6094,518.6543 Q6624,518.6543 6623.7344,518.4199 Q6623.4688,518.1855 6623.4688,517.7949 Q6623.4688,517.4199 6623.7344,517.1855 Q6624,516.9512 6624.6094,516.9512 L6628.2813,516.9512 L6631.6719,525.3105 Q6632.2656,525.3105 6632.4531,525.4512 Q6632.8438,525.7168 6632.8438,526.1699 Q6632.8438,526.5449 6632.5781,526.7793 Q6632.3281,527.0137 6631.7188,527.0137 L6629.4219,527.0137 Q6628.8125,527.0137 6628.5469,526.7793 Q6628.2813,526.5449 6628.2813,526.1543 Q6628.2813,525.7793 6628.5469,525.5449 Q6628.8125,525.3105 6629.4219,525.3105 L6629.8438,525.3105 L6629.4375,524.2793 Z M6628.7188,522.5762 L6627.3594,519.2012 L6625.9844,522.5762 L6628.7188,522.5762 Z " fill="#000000"/><text fill="#000000" font-family="sans-serif" font-size="14" font-style="italic" lengthAdjust="spacing" textLength="203" x="6647.75" y="528.3105">TravelPersonFieldValidationImpl</text><line style="stroke:#181818;stroke-width:0.5;" x1="6504" x2="6962" y1="538.5137" y2="538.5137"/><line style="stroke:#181818;stroke-width:0.5;" x1="6504" x2="6962" y1="546.5137" y2="546.5137"/><ellipse cx="6514" cy="561.3242" fill="#84BE84" rx="3" ry="3" style="stroke:#038048;stroke-width:1.0;"/><text fill="#000000" font-family="sans-serif" font-size="14" lengthAdjust="spacing" textLength="434" x="6523" y="565.6211">Optional&lt;ValidationErrorDTO&gt; validate(AgreementDTO,PersonDTO)</text><ellipse cx="6514" cy="579.9453" fill="#84BE84" rx="3" ry="3" style="stroke:#038048;stroke-width:1.0;"/><text fill="#000000" font-family="sans-serif" font-size="14" lengthAdjust="spacing" textLength="425" x="6523" y="584.2422">List&lt;ValidationErrorDTO&gt; validateList(AgreementDTO,PersonDTO)</text></g><!--class EmptyMedicalRiskLimitLevelValidation--><g id="elem_EmptyMedicalRiskLimitLevelValidation"><rect codeLine="44" fill="#F1F1F1" height="159.7266" id="EmptyMedicalRiskLimitLevelValidation" rx="2.5" ry="2.5" style="stroke:#181818;stroke-width:0.5;" width="460" x="6008" y="698.0137"/><ellipse cx="6114.25" cy="714.0137" fill="#ADD1B2" rx="11" ry="11" style="stroke:#181818;stroke-width:1.0;"/><path d="M6117.0156,709.8887 Q6117.1719,709.6699 6117.3594,709.5605 Q6117.5469,709.4512 6117.7656,709.4512 Q6118.1406,709.4512 6118.375,709.7168 Q6118.6094,709.9668 6118.6094,710.5762 L6118.6094,712.0293 Q6118.6094,712.6387 6118.375,712.9043 Q6118.1406,713.1699 6117.7656,713.1699 Q6117.4219,713.1699 6117.2188,712.9668 Q6117.0156,712.7793 6116.9063,712.2637 Q6116.8594,711.9043 6116.6719,711.7168 Q6116.3438,711.3418 6115.7344,711.123 Q6115.125,710.9043 6114.5,710.9043 Q6113.7344,710.9043 6113.0938,711.2324 Q6112.4688,711.5605 6111.9688,712.3105 Q6111.4844,713.0605 6111.4844,714.0918 L6111.4844,715.1855 Q6111.4844,716.4199 6112.375,717.248 Q6113.2656,718.0605 6114.8594,718.0605 Q6115.7969,718.0605 6116.4531,717.8105 Q6116.8438,717.6543 6117.2656,717.2168 Q6117.5313,716.9512 6117.6719,716.873 Q6117.8281,716.7949 6118.0313,716.7949 Q6118.3594,716.7949 6118.6094,717.0605 Q6118.875,717.3105 6118.875,717.6543 Q6118.875,717.998 6118.5313,718.4043 Q6118.0313,718.9824 6117.2344,719.3105 Q6116.1563,719.7637 6114.8594,719.7637 Q6113.3438,719.7637 6112.1406,719.1387 Q6111.1563,718.6387 6110.4688,717.5762 Q6109.7813,716.498 6109.7813,715.2168 L6109.7813,714.0605 Q6109.7813,712.7324 6110.3906,711.5918 Q6111.0156,710.4355 6112.1094,709.8262 Q6113.2031,709.2012 6114.4375,709.2012 Q6115.1719,709.2012 6115.8125,709.373 Q6116.4688,709.5293 6117.0156,709.8887 Z " fill="#000000"/><text fill="#000000" font-family="sans-serif" font-size="14" lengthAdjust="spacing" textLength="239" x="6134.75" y="719.8105">EmptyMedicalRiskLimitLevelValidation</text><line style="stroke:#181818;stroke-width:0.5;" x1="6009" x2="6467" y1="730.0137" y2="730.0137"/><rect fill="none" height="6" style="stroke:#C82930;stroke-width:1.0;" width="6" x="6016" y="741.8242"/><text fill="#000000" font-family="sans-serif" font-size="14" lengthAdjust="spacing" textLength="246" x="6028" y="749.1211">Boolean medicalRiskLimitLevelEnabled</text><rect fill="none" height="6" style="stroke:#C82930;stroke-width:1.0;" width="6" x="6016" y="760.4453"/><text fill="#000000" font-family="sans-serif" font-size="14" lengthAdjust="spacing" textLength="225" x="6028" y="767.7422">ValidationErrorFactory errorFactory</text><line style="stroke:#181818;stroke-width:0.5;" x1="6009" x2="6467" y1="775.2559" y2="775.2559"/><ellipse cx="6019" cy="790.0664" fill="#84BE84" rx="3" ry="3" style="stroke:#038048;stroke-width:1.0;"/><text fill="#000000" font-family="sans-serif" font-size="14" lengthAdjust="spacing" textLength="434" x="6028" y="794.3633">Optional&lt;ValidationErrorDTO&gt; validate(AgreementDTO,PersonDTO)</text><rect fill="#F24D5C" height="6" style="stroke:#C82930;stroke-width:1.0;" width="6" x="6016" y="805.6875"/><text fill="#000000" font-family="sans-serif" font-size="14" lengthAdjust="spacing" textLength="265" x="6028" y="812.9844">boolean isMedicalRiskLimitLevelEnabled()</text><rect fill="#F24D5C" height="6" style="stroke:#C82930;stroke-width:1.0;" width="6" x="6016" y="824.3086"/><text fill="#000000" font-family="sans-serif" font-size="14" lengthAdjust="spacing" textLength="305" x="6028" y="831.6055">boolean containsTravelMedical(AgreementDTO)</text><rect fill="#F24D5C" height="6" style="stroke:#C82930;stroke-width:1.0;" width="6" x="6016" y="842.9297"/><text fill="#000000" font-family="sans-serif" font-size="14" lengthAdjust="spacing" textLength="372" x="6028" y="850.2266">boolean isMedicalRiskLimitLevelIsNullOrBlank(PersonDTO)</text></g><!--class MedicalRiskLimitLevelValidation--><g id="elem_MedicalRiskLimitLevelValidation"><rect codeLine="77" fill="#F1F1F1" height="159.7266" id="MedicalRiskLimitLevelValidation" rx="2.5" ry="2.5" style="stroke:#181818;stroke-width:0.5;" width="460" x="6503" y="698.0137"/><ellipse cx="6628.75" cy="714.0137" fill="#ADD1B2" rx="11" ry="11" style="stroke:#181818;stroke-width:1.0;"/><path d="M6631.5156,709.8887 Q6631.6719,709.6699 6631.8594,709.5605 Q6632.0469,709.4512 6632.2656,709.4512 Q6632.6406,709.4512 6632.875,709.7168 Q6633.1094,709.9668 6633.1094,710.5762 L6633.1094,712.0293 Q6633.1094,712.6387 6632.875,712.9043 Q6632.6406,713.1699 6632.2656,713.1699 Q6631.9219,713.1699 6631.7188,712.9668 Q6631.5156,712.7793 6631.4063,712.2637 Q6631.3594,711.9043 6631.1719,711.7168 Q6630.8438,711.3418 6630.2344,711.123 Q6629.625,710.9043 6629,710.9043 Q6628.2344,710.9043 6627.5938,711.2324 Q6626.9688,711.5605 6626.4688,712.3105 Q6625.9844,713.0605 6625.9844,714.0918 L6625.9844,715.1855 Q6625.9844,716.4199 6626.875,717.248 Q6627.7656,718.0605 6629.3594,718.0605 Q6630.2969,718.0605 6630.9531,717.8105 Q6631.3438,717.6543 6631.7656,717.2168 Q6632.0313,716.9512 6632.1719,716.873 Q6632.3281,716.7949 6632.5313,716.7949 Q6632.8594,716.7949 6633.1094,717.0605 Q6633.375,717.3105 6633.375,717.6543 Q6633.375,717.998 6633.0313,718.4043 Q6632.5313,718.9824 6631.7344,719.3105 Q6630.6563,719.7637 6629.3594,719.7637 Q6627.8438,719.7637 6626.6406,719.1387 Q6625.6563,718.6387 6624.9688,717.5762 Q6624.2813,716.498 6624.2813,715.2168 L6624.2813,714.0605 Q6624.2813,712.7324 6624.8906,711.5918 Q6625.5156,710.4355 6626.6094,709.8262 Q6627.7031,709.2012 6628.9375,709.2012 Q6629.6719,709.2012 6630.3125,709.373 Q6630.9688,709.5293 6631.5156,709.8887 Z " fill="#000000"/><text fill="#000000" font-family="sans-serif" font-size="14" lengthAdjust="spacing" textLength="200" x="6649.25" y="719.8105">MedicalRiskLimitLevelValidation</text><line style="stroke:#181818;stroke-width:0.5;" x1="6504" x2="6962" y1="730.0137" y2="730.0137"/><rect fill="none" height="6" style="stroke:#C82930;stroke-width:1.0;" width="6" x="6511" y="741.8242"/><text fill="#000000" font-family="sans-serif" font-size="14" lengthAdjust="spacing" textLength="325" x="6523" y="749.1211">ClassifierValueRepository classifierValueRepository</text><rect fill="none" height="6" style="stroke:#C82930;stroke-width:1.0;" width="6" x="6511" y="760.4453"/><text fill="#000000" font-family="sans-serif" font-size="14" lengthAdjust="spacing" textLength="225" x="6523" y="767.7422">ValidationErrorFactory errorFactory</text><line style="stroke:#181818;stroke-width:0.5;" x1="6504" x2="6962" y1="775.2559" y2="775.2559"/><ellipse cx="6514" cy="790.0664" fill="#84BE84" rx="3" ry="3" style="stroke:#038048;stroke-width:1.0;"/><text fill="#000000" font-family="sans-serif" font-size="14" lengthAdjust="spacing" textLength="434" x="6523" y="794.3633">Optional&lt;ValidationErrorDTO&gt; validate(AgreementDTO,PersonDTO)</text><rect fill="#F24D5C" height="6" style="stroke:#C82930;stroke-width:1.0;" width="6" x="6511" y="805.6875"/><text fill="#000000" font-family="sans-serif" font-size="14" lengthAdjust="spacing" textLength="299" x="6523" y="812.9844">ValidationErrorDTO buildValidationError(String)</text><rect fill="#F24D5C" height="6" style="stroke:#C82930;stroke-width:1.0;" width="6" x="6511" y="824.3086"/><text fill="#000000" font-family="sans-serif" font-size="14" lengthAdjust="spacing" textLength="344" x="6523" y="831.6055">boolean isMedicalRiskLimitLevelNotBlank(PersonDTO)</text><rect fill="#F24D5C" height="6" style="stroke:#C82930;stroke-width:1.0;" width="6" x="6511" y="842.9297"/><text fill="#000000" font-family="sans-serif" font-size="14" lengthAdjust="spacing" textLength="202" x="6523" y="850.2266">boolean existInDatabase(String)</text></g><!--class EmptyPersonLastNameValidation--><g id="elem_EmptyPersonLastNameValidation"><rect codeLine="94" fill="#F1F1F1" height="85.2422" id="EmptyPersonLastNameValidation" rx="2.5" ry="2.5" style="stroke:#181818;stroke-width:0.5;" width="460" x="6998" y="735.5137"/><ellipse cx="7119.25" cy="751.5137" fill="#ADD1B2" rx="11" ry="11" style="stroke:#181818;stroke-width:1.0;"/><path d="M7122.0156,747.3887 Q7122.1719,747.1699 7122.3594,747.0605 Q7122.5469,746.9512 7122.7656,746.9512 Q7123.1406,746.9512 7123.375,747.2168 Q7123.6094,747.4668 7123.6094,748.0762 L7123.6094,749.5293 Q7123.6094,750.1387 7123.375,750.4043 Q7123.1406,750.6699 7122.7656,750.6699 Q7122.4219,750.6699 7122.2188,750.4668 Q7122.0156,750.2793 7121.9063,749.7637 Q7121.8594,749.4043 7121.6719,749.2168 Q7121.3438,748.8418 7120.7344,748.623 Q7120.125,748.4043 7119.5,748.4043 Q7118.7344,748.4043 7118.0938,748.7324 Q7117.4688,749.0605 7116.9688,749.8105 Q7116.4844,750.5605 7116.4844,751.5918 L7116.4844,752.6855 Q7116.4844,753.9199 7117.375,754.748 Q7118.2656,755.5605 7119.8594,755.5605 Q7120.7969,755.5605 7121.4531,755.3105 Q7121.8438,755.1543 7122.2656,754.7168 Q7122.5313,754.4512 7122.6719,754.373 Q7122.8281,754.2949 7123.0313,754.2949 Q7123.3594,754.2949 7123.6094,754.5605 Q7123.875,754.8105 7123.875,755.1543 Q7123.875,755.498 7123.5313,755.9043 Q7123.0313,756.4824 7122.2344,756.8105 Q7121.1563,757.2637 7119.8594,757.2637 Q7118.3438,757.2637 7117.1406,756.6387 Q7116.1563,756.1387 7115.4688,755.0762 Q7114.7813,753.998 7114.7813,752.7168 L7114.7813,751.5605 Q7114.7813,750.2324 7115.3906,749.0918 Q7116.0156,747.9355 7117.1094,747.3262 Q7118.2031,746.7012 7119.4375,746.7012 Q7120.1719,746.7012 7120.8125,746.873 Q7121.4688,747.0293 7122.0156,747.3887 Z " fill="#000000"/><text fill="#000000" font-family="sans-serif" font-size="14" lengthAdjust="spacing" textLength="209" x="7139.75" y="757.3105">EmptyPersonLastNameValidation</text><line style="stroke:#181818;stroke-width:0.5;" x1="6999" x2="7457" y1="767.5137" y2="767.5137"/><rect fill="none" height="6" style="stroke:#C82930;stroke-width:1.0;" width="6" x="7006" y="779.3242"/><text fill="#000000" font-family="sans-serif" font-size="14" lengthAdjust="spacing" textLength="225" x="7018" y="786.6211">ValidationErrorFactory errorFactory</text><line style="stroke:#181818;stroke-width:0.5;" x1="6999" x2="7457" y1="794.1348" y2="794.1348"/><ellipse cx="7009" cy="808.9453" fill="#84BE84" rx="3" ry="3" style="stroke:#038048;stroke-width:1.0;"/><text fill="#000000" font-family="sans-serif" font-size="14" lengthAdjust="spacing" textLength="434" x="7018" y="813.2422">Optional&lt;ValidationErrorDTO&gt; validate(AgreementDTO,PersonDTO)</text></g><!--class EmptyPersonBirthDateValidation--><g id="elem_EmptyPersonBirthDateValidation"><rect codeLine="119" fill="#F1F1F1" height="103.8633" id="EmptyPersonBirthDateValidation" rx="2.5" ry="2.5" style="stroke:#181818;stroke-width:0.5;" width="460" x="7493" y="726.0137"/><ellipse cx="7616.25" cy="742.0137" fill="#ADD1B2" rx="11" ry="11" style="stroke:#181818;stroke-width:1.0;"/><path d="M7619.0156,737.8887 Q7619.1719,737.6699 7619.3594,737.5605 Q7619.5469,737.4512 7619.7656,737.4512 Q7620.1406,737.4512 7620.375,737.7168 Q7620.6094,737.9668 7620.6094,738.5762 L7620.6094,740.0293 Q7620.6094,740.6387 7620.375,740.9043 Q7620.1406,741.1699 7619.7656,741.1699 Q7619.4219,741.1699 7619.2188,740.9668 Q7619.0156,740.7793 7618.9063,740.2637 Q7618.8594,739.9043 7618.6719,739.7168 Q7618.3438,739.3418 7617.7344,739.123 Q7617.125,738.9043 7616.5,738.9043 Q7615.7344,738.9043 7615.0938,739.2324 Q7614.4688,739.5605 7613.9688,740.3105 Q7613.4844,741.0605 7613.4844,742.0918 L7613.4844,743.1855 Q7613.4844,744.4199 7614.375,745.248 Q7615.2656,746.0605 7616.8594,746.0605 Q7617.7969,746.0605 7618.4531,745.8105 Q7618.8438,745.6543 7619.2656,745.2168 Q7619.5313,744.9512 7619.6719,744.873 Q7619.8281,744.7949 7620.0313,744.7949 Q7620.3594,744.7949 7620.6094,745.0605 Q7620.875,745.3105 7620.875,745.6543 Q7620.875,745.998 7620.5313,746.4043 Q7620.0313,746.9824 7619.2344,747.3105 Q7618.1563,747.7637 7616.8594,747.7637 Q7615.3438,747.7637 7614.1406,747.1387 Q7613.1563,746.6387 7612.4688,745.5762 Q7611.7813,744.498 7611.7813,743.2168 L7611.7813,742.0605 Q7611.7813,740.7324 7612.3906,739.5918 Q7613.0156,738.4355 7614.1094,737.8262 Q7615.2031,737.2012 7616.4375,737.2012 Q7617.1719,737.2012 7617.8125,737.373 Q7618.4688,737.5293 7619.0156,737.8887 Z " fill="#000000"/><text fill="#000000" font-family="sans-serif" font-size="14" lengthAdjust="spacing" textLength="205" x="7636.75" y="747.8105">EmptyPersonBirthDateValidation</text><line style="stroke:#181818;stroke-width:0.5;" x1="7494" x2="7952" y1="758.0137" y2="758.0137"/><rect fill="none" height="6" style="stroke:#C82930;stroke-width:1.0;" width="6" x="7501" y="769.8242"/><text fill="#000000" font-family="sans-serif" font-size="14" lengthAdjust="spacing" textLength="225" x="7513" y="777.1211">ValidationErrorFactory errorFactory</text><line style="stroke:#181818;stroke-width:0.5;" x1="7494" x2="7952" y1="784.6348" y2="784.6348"/><ellipse cx="7504" cy="799.4453" fill="#84BE84" rx="3" ry="3" style="stroke:#038048;stroke-width:1.0;"/><text fill="#000000" font-family="sans-serif" font-size="14" lengthAdjust="spacing" textLength="434" x="7513" y="803.7422">Optional&lt;ValidationErrorDTO&gt; validate(AgreementDTO,PersonDTO)</text><rect fill="#F24D5C" height="6" style="stroke:#C82930;stroke-width:1.0;" width="6" x="7501" y="815.0664"/><text fill="#000000" font-family="sans-serif" font-size="14" lengthAdjust="spacing" textLength="276" x="7513" y="822.3633">boolean personBirthDateIsNull(PersonDTO)</text></g><!--class EmptyPersonCodeValidation--><g id="elem_EmptyPersonCodeValidation"><rect codeLine="182" fill="#F1F1F1" height="103.8633" id="EmptyPersonCodeValidation" rx="2.5" ry="2.5" style="stroke:#181818;stroke-width:0.5;" width="460" x="7988" y="726.0137"/><ellipse cx="8123.75" cy="742.0137" fill="#ADD1B2" rx="11" ry="11" style="stroke:#181818;stroke-width:1.0;"/><path d="M8126.5156,737.8887 Q8126.6719,737.6699 8126.8594,737.5605 Q8127.0469,737.4512 8127.2656,737.4512 Q8127.6406,737.4512 8127.875,737.7168 Q8128.1094,737.9668 8128.1094,738.5762 L8128.1094,740.0293 Q8128.1094,740.6387 8127.875,740.9043 Q8127.6406,741.1699 8127.2656,741.1699 Q8126.9219,741.1699 8126.7188,740.9668 Q8126.5156,740.7793 8126.4063,740.2637 Q8126.3594,739.9043 8126.1719,739.7168 Q8125.8438,739.3418 8125.2344,739.123 Q8124.625,738.9043 8124,738.9043 Q8123.2344,738.9043 8122.5938,739.2324 Q8121.9688,739.5605 8121.4688,740.3105 Q8120.9844,741.0605 8120.9844,742.0918 L8120.9844,743.1855 Q8120.9844,744.4199 8121.875,745.248 Q8122.7656,746.0605 8124.3594,746.0605 Q8125.2969,746.0605 8125.9531,745.8105 Q8126.3438,745.6543 8126.7656,745.2168 Q8127.0313,744.9512 8127.1719,744.873 Q8127.3281,744.7949 8127.5313,744.7949 Q8127.8594,744.7949 8128.1094,745.0605 Q8128.375,745.3105 8128.375,745.6543 Q8128.375,745.998 8128.0313,746.4043 Q8127.5313,746.9824 8126.7344,747.3105 Q8125.6563,747.7637 8124.3594,747.7637 Q8122.8438,747.7637 8121.6406,747.1387 Q8120.6563,746.6387 8119.9688,745.5762 Q8119.2813,744.498 8119.2813,743.2168 L8119.2813,742.0605 Q8119.2813,740.7324 8119.8906,739.5918 Q8120.5156,738.4355 8121.6094,737.8262 Q8122.7031,737.2012 8123.9375,737.2012 Q8124.6719,737.2012 8125.3125,737.373 Q8125.9688,737.5293 8126.5156,737.8887 Z " fill="#000000"/><text fill="#000000" font-family="sans-serif" font-size="14" lengthAdjust="spacing" textLength="180" x="8144.25" y="747.8105">EmptyPersonCodeValidation</text><line style="stroke:#181818;stroke-width:0.5;" x1="7989" x2="8447" y1="758.0137" y2="758.0137"/><rect fill="none" height="6" style="stroke:#C82930;stroke-width:1.0;" width="6" x="7996" y="769.8242"/><text fill="#000000" font-family="sans-serif" font-size="14" lengthAdjust="spacing" textLength="225" x="8008" y="777.1211">ValidationErrorFactory errorFactory</text><line style="stroke:#181818;stroke-width:0.5;" x1="7989" x2="8447" y1="784.6348" y2="784.6348"/><ellipse cx="7999" cy="799.4453" fill="#84BE84" rx="3" ry="3" style="stroke:#038048;stroke-width:1.0;"/><text fill="#000000" font-family="sans-serif" font-size="14" lengthAdjust="spacing" textLength="434" x="8008" y="803.7422">Optional&lt;ValidationErrorDTO&gt; validate(AgreementDTO,PersonDTO)</text><rect fill="#F24D5C" height="6" style="stroke:#C82930;stroke-width:1.0;" width="6" x="7996" y="815.0664"/><text fill="#000000" font-family="sans-serif" font-size="14" lengthAdjust="spacing" textLength="302" x="8008" y="822.3633">boolean personCodeIsNullOrBlank(PersonDTO)</text></g><!--class AgreementDateFromValidation--><g id="elem_AgreementDateFromValidation"><rect codeLine="28" fill="#F1F1F1" height="85.2422" id="AgreementDateFromValidation" rx="2.5" ry="2.5" style="stroke:#181818;stroke-width:0.5;" width="381" x="812.5" y="735.5137"/><ellipse cx="901.75" cy="751.5137" fill="#ADD1B2" rx="11" ry="11" style="stroke:#181818;stroke-width:1.0;"/><path d="M904.5156,747.3887 Q904.6719,747.1699 904.8594,747.0605 Q905.0469,746.9512 905.2656,746.9512 Q905.6406,746.9512 905.875,747.2168 Q906.1094,747.4668 906.1094,748.0762 L906.1094,749.5293 Q906.1094,750.1387 905.875,750.4043 Q905.6406,750.6699 905.2656,750.6699 Q904.9219,750.6699 904.7188,750.4668 Q904.5156,750.2793 904.4063,749.7637 Q904.3594,749.4043 904.1719,749.2168 Q903.8438,748.8418 903.2344,748.623 Q902.625,748.4043 902,748.4043 Q901.2344,748.4043 900.5938,748.7324 Q899.9688,749.0605 899.4688,749.8105 Q898.9844,750.5605 898.9844,751.5918 L898.9844,752.6855 Q898.9844,753.9199 899.875,754.748 Q900.7656,755.5605 902.3594,755.5605 Q903.2969,755.5605 903.9531,755.3105 Q904.3438,755.1543 904.7656,754.7168 Q905.0313,754.4512 905.1719,754.373 Q905.3281,754.2949 905.5313,754.2949 Q905.8594,754.2949 906.1094,754.5605 Q906.375,754.8105 906.375,755.1543 Q906.375,755.498 906.0313,755.9043 Q905.5313,756.4824 904.7344,756.8105 Q903.6563,757.2637 902.3594,757.2637 Q900.8438,757.2637 899.6406,756.6387 Q898.6563,756.1387 897.9688,755.0762 Q897.2813,753.998 897.2813,752.7168 L897.2813,751.5605 Q897.2813,750.2324 897.8906,749.0918 Q898.5156,747.9355 899.6094,747.3262 Q900.7031,746.7012 901.9375,746.7012 Q902.6719,746.7012 903.3125,746.873 Q903.9688,747.0293 904.5156,747.3887 Z " fill="#000000"/><text fill="#000000" font-family="sans-serif" font-size="14" lengthAdjust="spacing" textLength="194" x="922.25" y="757.3105">AgreementDateFromValidation</text><line style="stroke:#181818;stroke-width:0.5;" x1="813.5" x2="1192.5" y1="767.5137" y2="767.5137"/><rect fill="none" height="6" style="stroke:#C82930;stroke-width:1.0;" width="6" x="820.5" y="779.3242"/><text fill="#000000" font-family="sans-serif" font-size="14" lengthAdjust="spacing" textLength="225" x="832.5" y="786.6211">ValidationErrorFactory errorFactory</text><line style="stroke:#181818;stroke-width:0.5;" x1="813.5" x2="1192.5" y1="794.1348" y2="794.1348"/><ellipse cx="823.5" cy="808.9453" fill="#84BE84" rx="3" ry="3" style="stroke:#038048;stroke-width:1.0;"/><text fill="#000000" font-family="sans-serif" font-size="14" lengthAdjust="spacing" textLength="355" x="832.5" y="813.2422">Optional&lt;ValidationErrorDTO&gt; validate(AgreementDTO)</text></g><!--class TravelAgreementFieldValidationImpl--><g id="elem_TravelAgreementFieldValidationImpl"><rect codeLine="34" fill="#F1F1F1" height="85.2422" id="TravelAgreementFieldValidationImpl" rx="2.5" ry="2.5" style="stroke:#181818;stroke-width:0.5;" width="381" x="2476.5" y="506.5137"/><ellipse cx="2549.25" cy="522.5137" fill="#A9DCDF" rx="11" ry="11" style="stroke:#181818;stroke-width:1.0;"/><path d="M2551.4375,524.2793 L2547.2969,524.2793 L2546.875,525.3105 L2547.2969,525.3105 Q2547.9063,525.3105 2548.1719,525.5449 Q2548.4375,525.7793 2548.4375,526.1699 Q2548.4375,526.5449 2548.1719,526.7793 Q2547.9063,527.0137 2547.2969,527.0137 L2545,527.0137 Q2544.3906,527.0137 2544.1406,526.7793 Q2543.875,526.5449 2543.875,526.1543 Q2543.875,525.7793 2544.1563,525.5449 Q2544.4219,525.2949 2545.0469,525.3105 L2547.7188,518.6543 L2546.6094,518.6543 Q2546,518.6543 2545.7344,518.4199 Q2545.4688,518.1855 2545.4688,517.7949 Q2545.4688,517.4199 2545.7344,517.1855 Q2546,516.9512 2546.6094,516.9512 L2550.2813,516.9512 L2553.6719,525.3105 Q2554.2656,525.3105 2554.4531,525.4512 Q2554.8438,525.7168 2554.8438,526.1699 Q2554.8438,526.5449 2554.5781,526.7793 Q2554.3281,527.0137 2553.7188,527.0137 L2551.4219,527.0137 Q2550.8125,527.0137 2550.5469,526.7793 Q2550.2813,526.5449 2550.2813,526.1543 Q2550.2813,525.7793 2550.5469,525.5449 Q2550.8125,525.3105 2551.4219,525.3105 L2551.8438,525.3105 L2551.4375,524.2793 Z M2550.7188,522.5762 L2549.3594,519.2012 L2547.9844,522.5762 L2550.7188,522.5762 Z " fill="#000000"/><text fill="#000000" font-family="sans-serif" font-size="14" font-style="italic" lengthAdjust="spacing" textLength="227" x="2569.75" y="528.3105">TravelAgreementFieldValidationImpl</text><line style="stroke:#181818;stroke-width:0.5;" x1="2477.5" x2="2856.5" y1="538.5137" y2="538.5137"/><line style="stroke:#181818;stroke-width:0.5;" x1="2477.5" x2="2856.5" y1="546.5137" y2="546.5137"/><ellipse cx="2487.5" cy="561.3242" fill="#84BE84" rx="3" ry="3" style="stroke:#038048;stroke-width:1.0;"/><text fill="#000000" font-family="sans-serif" font-size="14" lengthAdjust="spacing" textLength="355" x="2496.5" y="565.6211">Optional&lt;ValidationErrorDTO&gt; validate(AgreementDTO)</text><ellipse cx="2487.5" cy="579.9453" fill="#84BE84" rx="3" ry="3" style="stroke:#038048;stroke-width:1.0;"/><text fill="#000000" font-family="sans-serif" font-size="14" lengthAdjust="spacing" textLength="346" x="2496.5" y="584.2422">List&lt;ValidationErrorDTO&gt; validateList(AgreementDTO)</text></g><!--class AgreementDateToValidation--><g id="elem_AgreementDateToValidation"><rect codeLine="54" fill="#F1F1F1" height="85.2422" id="AgreementDateToValidation" rx="2.5" ry="2.5" style="stroke:#181818;stroke-width:0.5;" width="381" x="1228.5" y="735.5137"/><ellipse cx="1325.75" cy="751.5137" fill="#ADD1B2" rx="11" ry="11" style="stroke:#181818;stroke-width:1.0;"/><path d="M1328.5156,747.3887 Q1328.6719,747.1699 1328.8594,747.0605 Q1329.0469,746.9512 1329.2656,746.9512 Q1329.6406,746.9512 1329.875,747.2168 Q1330.1094,747.4668 1330.1094,748.0762 L1330.1094,749.5293 Q1330.1094,750.1387 1329.875,750.4043 Q1329.6406,750.6699 1329.2656,750.6699 Q1328.9219,750.6699 1328.7188,750.4668 Q1328.5156,750.2793 1328.4063,749.7637 Q1328.3594,749.4043 1328.1719,749.2168 Q1327.8438,748.8418 1327.2344,748.623 Q1326.625,748.4043 1326,748.4043 Q1325.2344,748.4043 1324.5938,748.7324 Q1323.9688,749.0605 1323.4688,749.8105 Q1322.9844,750.5605 1322.9844,751.5918 L1322.9844,752.6855 Q1322.9844,753.9199 1323.875,754.748 Q1324.7656,755.5605 1326.3594,755.5605 Q1327.2969,755.5605 1327.9531,755.3105 Q1328.3438,755.1543 1328.7656,754.7168 Q1329.0313,754.4512 1329.1719,754.373 Q1329.3281,754.2949 1329.5313,754.2949 Q1329.8594,754.2949 1330.1094,754.5605 Q1330.375,754.8105 1330.375,755.1543 Q1330.375,755.498 1330.0313,755.9043 Q1329.5313,756.4824 1328.7344,756.8105 Q1327.6563,757.2637 1326.3594,757.2637 Q1324.8438,757.2637 1323.6406,756.6387 Q1322.6563,756.1387 1321.9688,755.0762 Q1321.2813,753.998 1321.2813,752.7168 L1321.2813,751.5605 Q1321.2813,750.2324 1321.8906,749.0918 Q1322.5156,747.9355 1323.6094,747.3262 Q1324.7031,746.7012 1325.9375,746.7012 Q1326.6719,746.7012 1327.3125,746.873 Q1327.9688,747.0293 1328.5156,747.3887 Z " fill="#000000"/><text fill="#000000" font-family="sans-serif" font-size="14" lengthAdjust="spacing" textLength="178" x="1346.25" y="757.3105">AgreementDateToValidation</text><line style="stroke:#181818;stroke-width:0.5;" x1="1229.5" x2="1608.5" y1="767.5137" y2="767.5137"/><rect fill="none" height="6" style="stroke:#C82930;stroke-width:1.0;" width="6" x="1236.5" y="779.3242"/><text fill="#000000" font-family="sans-serif" font-size="14" lengthAdjust="spacing" textLength="225" x="1248.5" y="786.6211">ValidationErrorFactory errorFactory</text><line style="stroke:#181818;stroke-width:0.5;" x1="1229.5" x2="1608.5" y1="794.1348" y2="794.1348"/><ellipse cx="1239.5" cy="808.9453" fill="#84BE84" rx="3" ry="3" style="stroke:#038048;stroke-width:1.0;"/><text fill="#000000" font-family="sans-serif" font-size="14" lengthAdjust="spacing" textLength="355" x="1248.5" y="813.2422">Optional&lt;ValidationErrorDTO&gt; validate(AgreementDTO)</text></g><!--class CountryValidation--><g id="elem_CountryValidation"><rect codeLine="67" fill="#F1F1F1" height="159.7266" id="CountryValidation" rx="2.5" ry="2.5" style="stroke:#181818;stroke-width:0.5;" width="381" x="1644.5" y="698.0137"/><ellipse cx="1774.75" cy="714.0137" fill="#ADD1B2" rx="11" ry="11" style="stroke:#181818;stroke-width:1.0;"/><path d="M1777.5156,709.8887 Q1777.6719,709.6699 1777.8594,709.5605 Q1778.0469,709.4512 1778.2656,709.4512 Q1778.6406,709.4512 1778.875,709.7168 Q1779.1094,709.9668 1779.1094,710.5762 L1779.1094,712.0293 Q1779.1094,712.6387 1778.875,712.9043 Q1778.6406,713.1699 1778.2656,713.1699 Q1777.9219,713.1699 1777.7188,712.9668 Q1777.5156,712.7793 1777.4063,712.2637 Q1777.3594,711.9043 1777.1719,711.7168 Q1776.8438,711.3418 1776.2344,711.123 Q1775.625,710.9043 1775,710.9043 Q1774.2344,710.9043 1773.5938,711.2324 Q1772.9688,711.5605 1772.4688,712.3105 Q1771.9844,713.0605 1771.9844,714.0918 L1771.9844,715.1855 Q1771.9844,716.4199 1772.875,717.248 Q1773.7656,718.0605 1775.3594,718.0605 Q1776.2969,718.0605 1776.9531,717.8105 Q1777.3438,717.6543 1777.7656,717.2168 Q1778.0313,716.9512 1778.1719,716.873 Q1778.3281,716.7949 1778.5313,716.7949 Q1778.8594,716.7949 1779.1094,717.0605 Q1779.375,717.3105 1779.375,717.6543 Q1779.375,717.998 1779.0313,718.4043 Q1778.5313,718.9824 1777.7344,719.3105 Q1776.6563,719.7637 1775.3594,719.7637 Q1773.8438,719.7637 1772.6406,719.1387 Q1771.6563,718.6387 1770.9688,717.5762 Q1770.2813,716.498 1770.2813,715.2168 L1770.2813,714.0605 Q1770.2813,712.7324 1770.8906,711.5918 Q1771.5156,710.4355 1772.6094,709.8262 Q1773.7031,709.2012 1774.9375,709.2012 Q1775.6719,709.2012 1776.3125,709.373 Q1776.9688,709.5293 1777.5156,709.8887 Z " fill="#000000"/><text fill="#000000" font-family="sans-serif" font-size="14" lengthAdjust="spacing" textLength="112" x="1795.25" y="719.8105">CountryValidation</text><line style="stroke:#181818;stroke-width:0.5;" x1="1645.5" x2="2024.5" y1="730.0137" y2="730.0137"/><rect fill="none" height="6" style="stroke:#C82930;stroke-width:1.0;" width="6" x="1652.5" y="741.8242"/><text fill="#000000" font-family="sans-serif" font-size="14" lengthAdjust="spacing" textLength="325" x="1664.5" y="749.1211">ClassifierValueRepository classifierValueRepository</text><rect fill="none" height="6" style="stroke:#C82930;stroke-width:1.0;" width="6" x="1652.5" y="760.4453"/><text fill="#000000" font-family="sans-serif" font-size="14" lengthAdjust="spacing" textLength="225" x="1664.5" y="767.7422">ValidationErrorFactory errorFactory</text><line style="stroke:#181818;stroke-width:0.5;" x1="1645.5" x2="2024.5" y1="775.2559" y2="775.2559"/><ellipse cx="1655.5" cy="790.0664" fill="#84BE84" rx="3" ry="3" style="stroke:#038048;stroke-width:1.0;"/><text fill="#000000" font-family="sans-serif" font-size="14" lengthAdjust="spacing" textLength="355" x="1664.5" y="794.3633">Optional&lt;ValidationErrorDTO&gt; validate(AgreementDTO)</text><rect fill="#F24D5C" height="6" style="stroke:#C82930;stroke-width:1.0;" width="6" x="1652.5" y="805.6875"/><text fill="#000000" font-family="sans-serif" font-size="14" lengthAdjust="spacing" textLength="299" x="1664.5" y="812.9844">ValidationErrorDTO buildValidationError(String)</text><rect fill="#F24D5C" height="6" style="stroke:#C82930;stroke-width:1.0;" width="6" x="1652.5" y="824.3086"/><text fill="#000000" font-family="sans-serif" font-size="14" lengthAdjust="spacing" textLength="280" x="1664.5" y="831.6055">boolean isCountryNotBlank(AgreementDTO)</text><rect fill="#F24D5C" height="6" style="stroke:#C82930;stroke-width:1.0;" width="6" x="1652.5" y="842.9297"/><text fill="#000000" font-family="sans-serif" font-size="14" lengthAdjust="spacing" textLength="202" x="1664.5" y="850.2266">boolean existInDatabase(String)</text></g><!--class AgreementDateFromInFutureValidation--><g id="elem_AgreementDateFromInFutureValidation"><rect codeLine="87" fill="#F1F1F1" height="103.8633" id="AgreementDateFromInFutureValidation" rx="2.5" ry="2.5" style="stroke:#181818;stroke-width:0.5;" width="381" x="2060.5" y="726.0137"/><ellipse cx="2123.25" cy="742.0137" fill="#ADD1B2" rx="11" ry="11" style="stroke:#181818;stroke-width:1.0;"/><path d="M2126.0156,737.8887 Q2126.1719,737.6699 2126.3594,737.5605 Q2126.5469,737.4512 2126.7656,737.4512 Q2127.1406,737.4512 2127.375,737.7168 Q2127.6094,737.9668 2127.6094,738.5762 L2127.6094,740.0293 Q2127.6094,740.6387 2127.375,740.9043 Q2127.1406,741.1699 2126.7656,741.1699 Q2126.4219,741.1699 2126.2188,740.9668 Q2126.0156,740.7793 2125.9063,740.2637 Q2125.8594,739.9043 2125.6719,739.7168 Q2125.3438,739.3418 2124.7344,739.123 Q2124.125,738.9043 2123.5,738.9043 Q2122.7344,738.9043 2122.0938,739.2324 Q2121.4688,739.5605 2120.9688,740.3105 Q2120.4844,741.0605 2120.4844,742.0918 L2120.4844,743.1855 Q2120.4844,744.4199 2121.375,745.248 Q2122.2656,746.0605 2123.8594,746.0605 Q2124.7969,746.0605 2125.4531,745.8105 Q2125.8438,745.6543 2126.2656,745.2168 Q2126.5313,744.9512 2126.6719,744.873 Q2126.8281,744.7949 2127.0313,744.7949 Q2127.3594,744.7949 2127.6094,745.0605 Q2127.875,745.3105 2127.875,745.6543 Q2127.875,745.998 2127.5313,746.4043 Q2127.0313,746.9824 2126.2344,747.3105 Q2125.1563,747.7637 2123.8594,747.7637 Q2122.3438,747.7637 2121.1406,747.1387 Q2120.1563,746.6387 2119.4688,745.5762 Q2118.7813,744.498 2118.7813,743.2168 L2118.7813,742.0605 Q2118.7813,740.7324 2119.3906,739.5918 Q2120.0156,738.4355 2121.1094,737.8262 Q2122.2031,737.2012 2123.4375,737.2012 Q2124.1719,737.2012 2124.8125,737.373 Q2125.4688,737.5293 2126.0156,737.8887 Z " fill="#000000"/><text fill="#000000" font-family="sans-serif" font-size="14" lengthAdjust="spacing" textLength="247" x="2143.75" y="747.8105">AgreementDateFromInFutureValidation</text><line style="stroke:#181818;stroke-width:0.5;" x1="2061.5" x2="2440.5" y1="758.0137" y2="758.0137"/><rect fill="none" height="6" style="stroke:#C82930;stroke-width:1.0;" width="6" x="2068.5" y="769.8242"/><text fill="#000000" font-family="sans-serif" font-size="14" lengthAdjust="spacing" textLength="162" x="2080.5" y="777.1211">DateTimeUtil dateTimeUtil</text><rect fill="none" height="6" style="stroke:#C82930;stroke-width:1.0;" width="6" x="2068.5" y="788.4453"/><text fill="#000000" font-family="sans-serif" font-size="14" lengthAdjust="spacing" textLength="225" x="2080.5" y="795.7422">ValidationErrorFactory errorFactory</text><line style="stroke:#181818;stroke-width:0.5;" x1="2061.5" x2="2440.5" y1="803.2559" y2="803.2559"/><ellipse cx="2071.5" cy="818.0664" fill="#84BE84" rx="3" ry="3" style="stroke:#038048;stroke-width:1.0;"/><text fill="#000000" font-family="sans-serif" font-size="14" lengthAdjust="spacing" textLength="355" x="2080.5" y="822.3633">Optional&lt;ValidationErrorDTO&gt; validate(AgreementDTO)</text></g><!--class DateFromLessThenDateToValidation--><g id="elem_DateFromLessThenDateToValidation"><rect codeLine="107" fill="#F1F1F1" height="85.2422" id="DateFromLessThenDateToValidation" rx="2.5" ry="2.5" style="stroke:#181818;stroke-width:0.5;" width="381" x="2476.5" y="735.5137"/><ellipse cx="2545.25" cy="751.5137" fill="#ADD1B2" rx="11" ry="11" style="stroke:#181818;stroke-width:1.0;"/><path d="M2548.0156,747.3887 Q2548.1719,747.1699 2548.3594,747.0605 Q2548.5469,746.9512 2548.7656,746.9512 Q2549.1406,746.9512 2549.375,747.2168 Q2549.6094,747.4668 2549.6094,748.0762 L2549.6094,749.5293 Q2549.6094,750.1387 2549.375,750.4043 Q2549.1406,750.6699 2548.7656,750.6699 Q2548.4219,750.6699 2548.2188,750.4668 Q2548.0156,750.2793 2547.9063,749.7637 Q2547.8594,749.4043 2547.6719,749.2168 Q2547.3438,748.8418 2546.7344,748.623 Q2546.125,748.4043 2545.5,748.4043 Q2544.7344,748.4043 2544.0938,748.7324 Q2543.4688,749.0605 2542.9688,749.8105 Q2542.4844,750.5605 2542.4844,751.5918 L2542.4844,752.6855 Q2542.4844,753.9199 2543.375,754.748 Q2544.2656,755.5605 2545.8594,755.5605 Q2546.7969,755.5605 2547.4531,755.3105 Q2547.8438,755.1543 2548.2656,754.7168 Q2548.5313,754.4512 2548.6719,754.373 Q2548.8281,754.2949 2549.0313,754.2949 Q2549.3594,754.2949 2549.6094,754.5605 Q2549.875,754.8105 2549.875,755.1543 Q2549.875,755.498 2549.5313,755.9043 Q2549.0313,756.4824 2548.2344,756.8105 Q2547.1563,757.2637 2545.8594,757.2637 Q2544.3438,757.2637 2543.1406,756.6387 Q2542.1563,756.1387 2541.4688,755.0762 Q2540.7813,753.998 2540.7813,752.7168 L2540.7813,751.5605 Q2540.7813,750.2324 2541.3906,749.0918 Q2542.0156,747.9355 2543.1094,747.3262 Q2544.2031,746.7012 2545.4375,746.7012 Q2546.1719,746.7012 2546.8125,746.873 Q2547.4688,747.0293 2548.0156,747.3887 Z " fill="#000000"/><text fill="#000000" font-family="sans-serif" font-size="14" lengthAdjust="spacing" textLength="235" x="2565.75" y="757.3105">DateFromLessThenDateToValidation</text><line style="stroke:#181818;stroke-width:0.5;" x1="2477.5" x2="2856.5" y1="767.5137" y2="767.5137"/><rect fill="none" height="6" style="stroke:#C82930;stroke-width:1.0;" width="6" x="2484.5" y="779.3242"/><text fill="#000000" font-family="sans-serif" font-size="14" lengthAdjust="spacing" textLength="225" x="2496.5" y="786.6211">ValidationErrorFactory errorFactory</text><line style="stroke:#181818;stroke-width:0.5;" x1="2477.5" x2="2856.5" y1="794.1348" y2="794.1348"/><ellipse cx="2487.5" cy="808.9453" fill="#84BE84" rx="3" ry="3" style="stroke:#038048;stroke-width:1.0;"/><text fill="#000000" font-family="sans-serif" font-size="14" lengthAdjust="spacing" textLength="355" x="2496.5" y="813.2422">Optional&lt;ValidationErrorDTO&gt; validate(AgreementDTO)</text></g><!--class EmptySelectedRisksValidation--><g id="elem_EmptySelectedRisksValidation"><rect codeLine="113" fill="#F1F1F1" height="85.2422" id="EmptySelectedRisksValidation" rx="2.5" ry="2.5" style="stroke:#181818;stroke-width:0.5;" width="381" x="2892.5" y="735.5137"/><ellipse cx="2983.75" cy="751.5137" fill="#ADD1B2" rx="11" ry="11" style="stroke:#181818;stroke-width:1.0;"/><path d="M2986.5156,747.3887 Q2986.6719,747.1699 2986.8594,747.0605 Q2987.0469,746.9512 2987.2656,746.9512 Q2987.6406,746.9512 2987.875,747.2168 Q2988.1094,747.4668 2988.1094,748.0762 L2988.1094,749.5293 Q2988.1094,750.1387 2987.875,750.4043 Q2987.6406,750.6699 2987.2656,750.6699 Q2986.9219,750.6699 2986.7188,750.4668 Q2986.5156,750.2793 2986.4063,749.7637 Q2986.3594,749.4043 2986.1719,749.2168 Q2985.8438,748.8418 2985.2344,748.623 Q2984.625,748.4043 2984,748.4043 Q2983.2344,748.4043 2982.5938,748.7324 Q2981.9688,749.0605 2981.4688,749.8105 Q2980.9844,750.5605 2980.9844,751.5918 L2980.9844,752.6855 Q2980.9844,753.9199 2981.875,754.748 Q2982.7656,755.5605 2984.3594,755.5605 Q2985.2969,755.5605 2985.9531,755.3105 Q2986.3438,755.1543 2986.7656,754.7168 Q2987.0313,754.4512 2987.1719,754.373 Q2987.3281,754.2949 2987.5313,754.2949 Q2987.8594,754.2949 2988.1094,754.5605 Q2988.375,754.8105 2988.375,755.1543 Q2988.375,755.498 2988.0313,755.9043 Q2987.5313,756.4824 2986.7344,756.8105 Q2985.6563,757.2637 2984.3594,757.2637 Q2982.8438,757.2637 2981.6406,756.6387 Q2980.6563,756.1387 2979.9688,755.0762 Q2979.2813,753.998 2979.2813,752.7168 L2979.2813,751.5605 Q2979.2813,750.2324 2979.8906,749.0918 Q2980.5156,747.9355 2981.6094,747.3262 Q2982.7031,746.7012 2983.9375,746.7012 Q2984.6719,746.7012 2985.3125,746.873 Q2985.9688,747.0293 2986.5156,747.3887 Z " fill="#000000"/><text fill="#000000" font-family="sans-serif" font-size="14" lengthAdjust="spacing" textLength="190" x="3004.25" y="757.3105">EmptySelectedRisksValidation</text><line style="stroke:#181818;stroke-width:0.5;" x1="2893.5" x2="3272.5" y1="767.5137" y2="767.5137"/><rect fill="none" height="6" style="stroke:#C82930;stroke-width:1.0;" width="6" x="2900.5" y="779.3242"/><text fill="#000000" font-family="sans-serif" font-size="14" lengthAdjust="spacing" textLength="225" x="2912.5" y="786.6211">ValidationErrorFactory errorFactory</text><line style="stroke:#181818;stroke-width:0.5;" x1="2893.5" x2="3272.5" y1="794.1348" y2="794.1348"/><ellipse cx="2903.5" cy="808.9453" fill="#84BE84" rx="3" ry="3" style="stroke:#038048;stroke-width:1.0;"/><text fill="#000000" font-family="sans-serif" font-size="14" lengthAdjust="spacing" textLength="355" x="2912.5" y="813.2422">Optional&lt;ValidationErrorDTO&gt; validate(AgreementDTO)</text></g><!--class SelectedRisksValidation--><g id="elem_SelectedRisksValidation"><rect codeLine="130" fill="#F1F1F1" height="178.3477" id="SelectedRisksValidation" rx="2.5" ry="2.5" style="stroke:#181818;stroke-width:0.5;" width="439" x="3308.5" y="689.0137"/><ellipse cx="3448.25" cy="705.0137" fill="#ADD1B2" rx="11" ry="11" style="stroke:#181818;stroke-width:1.0;"/><path d="M3451.0156,700.8887 Q3451.1719,700.6699 3451.3594,700.5605 Q3451.5469,700.4512 3451.7656,700.4512 Q3452.1406,700.4512 3452.375,700.7168 Q3452.6094,700.9668 3452.6094,701.5762 L3452.6094,703.0293 Q3452.6094,703.6387 3452.375,703.9043 Q3452.1406,704.1699 3451.7656,704.1699 Q3451.4219,704.1699 3451.2188,703.9668 Q3451.0156,703.7793 3450.9063,703.2637 Q3450.8594,702.9043 3450.6719,702.7168 Q3450.3438,702.3418 3449.7344,702.123 Q3449.125,701.9043 3448.5,701.9043 Q3447.7344,701.9043 3447.0938,702.2324 Q3446.4688,702.5605 3445.9688,703.3105 Q3445.4844,704.0605 3445.4844,705.0918 L3445.4844,706.1855 Q3445.4844,707.4199 3446.375,708.248 Q3447.2656,709.0605 3448.8594,709.0605 Q3449.7969,709.0605 3450.4531,708.8105 Q3450.8438,708.6543 3451.2656,708.2168 Q3451.5313,707.9512 3451.6719,707.873 Q3451.8281,707.7949 3452.0313,707.7949 Q3452.3594,707.7949 3452.6094,708.0605 Q3452.875,708.3105 3452.875,708.6543 Q3452.875,708.998 3452.5313,709.4043 Q3452.0313,709.9824 3451.2344,710.3105 Q3450.1563,710.7637 3448.8594,710.7637 Q3447.3438,710.7637 3446.1406,710.1387 Q3445.1563,709.6387 3444.4688,708.5762 Q3443.7813,707.498 3443.7813,706.2168 L3443.7813,705.0605 Q3443.7813,703.7324 3444.3906,702.5918 Q3445.0156,701.4355 3446.1094,700.8262 Q3447.2031,700.2012 3448.4375,700.2012 Q3449.1719,700.2012 3449.8125,700.373 Q3450.4688,700.5293 3451.0156,700.8887 Z " fill="#000000"/><text fill="#000000" font-family="sans-serif" font-size="14" lengthAdjust="spacing" textLength="151" x="3468.75" y="710.8105">SelectedRisksValidation</text><line style="stroke:#181818;stroke-width:0.5;" x1="3309.5" x2="3746.5" y1="721.0137" y2="721.0137"/><rect fill="none" height="6" style="stroke:#C82930;stroke-width:1.0;" width="6" x="3316.5" y="732.8242"/><text fill="#000000" font-family="sans-serif" font-size="14" lengthAdjust="spacing" textLength="325" x="3328.5" y="740.1211">ClassifierValueRepository classifierValueRepository</text><rect fill="none" height="6" style="stroke:#C82930;stroke-width:1.0;" width="6" x="3316.5" y="751.4453"/><text fill="#000000" font-family="sans-serif" font-size="14" lengthAdjust="spacing" textLength="225" x="3328.5" y="758.7422">ValidationErrorFactory errorFactory</text><line style="stroke:#181818;stroke-width:0.5;" x1="3309.5" x2="3746.5" y1="766.2559" y2="766.2559"/><ellipse cx="3319.5" cy="781.0664" fill="#84BE84" rx="3" ry="3" style="stroke:#038048;stroke-width:1.0;"/><text fill="#000000" font-family="sans-serif" font-size="14" lengthAdjust="spacing" textLength="346" x="3328.5" y="785.3633">List&lt;ValidationErrorDTO&gt; validateList(AgreementDTO)</text><rect fill="#F24D5C" height="6" style="stroke:#C82930;stroke-width:1.0;" width="6" x="3316.5" y="796.6875"/><text fill="#000000" font-family="sans-serif" font-size="14" lengthAdjust="spacing" textLength="413" x="3328.5" y="803.9844">List&lt;ValidationErrorDTO&gt; validateSelectedRisks(AgreementDTO)</text><rect fill="#F24D5C" height="6" style="stroke:#C82930;stroke-width:1.0;" width="6" x="3316.5" y="815.3086"/><text fill="#000000" font-family="sans-serif" font-size="14" lengthAdjust="spacing" textLength="330" x="3328.5" y="822.6055">Optional&lt;ValidationErrorDTO&gt; validateRiskIc(String)</text><rect fill="#F24D5C" height="6" style="stroke:#C82930;stroke-width:1.0;" width="6" x="3316.5" y="833.9297"/><text fill="#000000" font-family="sans-serif" font-size="14" lengthAdjust="spacing" textLength="299" x="3328.5" y="841.2266">ValidationErrorDTO buildValidationError(String)</text><rect fill="#F24D5C" height="6" style="stroke:#C82930;stroke-width:1.0;" width="6" x="3316.5" y="852.5508"/><text fill="#000000" font-family="sans-serif" font-size="14" lengthAdjust="spacing" textLength="202" x="3328.5" y="859.8477">boolean existInDatabase(String)</text></g><!--class AgreementDateToInFutureValidation--><g id="elem_AgreementDateToInFutureValidation"><rect codeLine="159" fill="#F1F1F1" height="103.8633" id="AgreementDateToInFutureValidation" rx="2.5" ry="2.5" style="stroke:#181818;stroke-width:0.5;" width="381" x="3782.5" y="726.0137"/><ellipse cx="3853.25" cy="742.0137" fill="#ADD1B2" rx="11" ry="11" style="stroke:#181818;stroke-width:1.0;"/><path d="M3856.0156,737.8887 Q3856.1719,737.6699 3856.3594,737.5605 Q3856.5469,737.4512 3856.7656,737.4512 Q3857.1406,737.4512 3857.375,737.7168 Q3857.6094,737.9668 3857.6094,738.5762 L3857.6094,740.0293 Q3857.6094,740.6387 3857.375,740.9043 Q3857.1406,741.1699 3856.7656,741.1699 Q3856.4219,741.1699 3856.2188,740.9668 Q3856.0156,740.7793 3855.9063,740.2637 Q3855.8594,739.9043 3855.6719,739.7168 Q3855.3438,739.3418 3854.7344,739.123 Q3854.125,738.9043 3853.5,738.9043 Q3852.7344,738.9043 3852.0938,739.2324 Q3851.4688,739.5605 3850.9688,740.3105 Q3850.4844,741.0605 3850.4844,742.0918 L3850.4844,743.1855 Q3850.4844,744.4199 3851.375,745.248 Q3852.2656,746.0605 3853.8594,746.0605 Q3854.7969,746.0605 3855.4531,745.8105 Q3855.8438,745.6543 3856.2656,745.2168 Q3856.5313,744.9512 3856.6719,744.873 Q3856.8281,744.7949 3857.0313,744.7949 Q3857.3594,744.7949 3857.6094,745.0605 Q3857.875,745.3105 3857.875,745.6543 Q3857.875,745.998 3857.5313,746.4043 Q3857.0313,746.9824 3856.2344,747.3105 Q3855.1563,747.7637 3853.8594,747.7637 Q3852.3438,747.7637 3851.1406,747.1387 Q3850.1563,746.6387 3849.4688,745.5762 Q3848.7813,744.498 3848.7813,743.2168 L3848.7813,742.0605 Q3848.7813,740.7324 3849.3906,739.5918 Q3850.0156,738.4355 3851.1094,737.8262 Q3852.2031,737.2012 3853.4375,737.2012 Q3854.1719,737.2012 3854.8125,737.373 Q3855.4688,737.5293 3856.0156,737.8887 Z " fill="#000000"/><text fill="#000000" font-family="sans-serif" font-size="14" lengthAdjust="spacing" textLength="231" x="3873.75" y="747.8105">AgreementDateToInFutureValidation</text><line style="stroke:#181818;stroke-width:0.5;" x1="3783.5" x2="4162.5" y1="758.0137" y2="758.0137"/><rect fill="none" height="6" style="stroke:#C82930;stroke-width:1.0;" width="6" x="3790.5" y="769.8242"/><text fill="#000000" font-family="sans-serif" font-size="14" lengthAdjust="spacing" textLength="162" x="3802.5" y="777.1211">DateTimeUtil dateTimeUtil</text><rect fill="none" height="6" style="stroke:#C82930;stroke-width:1.0;" width="6" x="3790.5" y="788.4453"/><text fill="#000000" font-family="sans-serif" font-size="14" lengthAdjust="spacing" textLength="225" x="3802.5" y="795.7422">ValidationErrorFactory errorFactory</text><line style="stroke:#181818;stroke-width:0.5;" x1="3783.5" x2="4162.5" y1="803.2559" y2="803.2559"/><ellipse cx="3793.5" cy="818.0664" fill="#84BE84" rx="3" ry="3" style="stroke:#038048;stroke-width:1.0;"/><text fill="#000000" font-family="sans-serif" font-size="14" lengthAdjust="spacing" textLength="355" x="3802.5" y="822.3633">Optional&lt;ValidationErrorDTO&gt; validate(AgreementDTO)</text></g><!--class EmptyCountryValidation--><g id="elem_EmptyCountryValidation"><rect codeLine="171" fill="#F1F1F1" height="103.8633" id="EmptyCountryValidation" rx="2.5" ry="2.5" style="stroke:#181818;stroke-width:0.5;" width="381" x="4198.5" y="726.0137"/><ellipse cx="4309.25" cy="742.0137" fill="#ADD1B2" rx="11" ry="11" style="stroke:#181818;stroke-width:1.0;"/><path d="M4312.0156,737.8887 Q4312.1719,737.6699 4312.3594,737.5605 Q4312.5469,737.4512 4312.7656,737.4512 Q4313.1406,737.4512 4313.375,737.7168 Q4313.6094,737.9668 4313.6094,738.5762 L4313.6094,740.0293 Q4313.6094,740.6387 4313.375,740.9043 Q4313.1406,741.1699 4312.7656,741.1699 Q4312.4219,741.1699 4312.2188,740.9668 Q4312.0156,740.7793 4311.9063,740.2637 Q4311.8594,739.9043 4311.6719,739.7168 Q4311.3438,739.3418 4310.7344,739.123 Q4310.125,738.9043 4309.5,738.9043 Q4308.7344,738.9043 4308.0938,739.2324 Q4307.4688,739.5605 4306.9688,740.3105 Q4306.4844,741.0605 4306.4844,742.0918 L4306.4844,743.1855 Q4306.4844,744.4199 4307.375,745.248 Q4308.2656,746.0605 4309.8594,746.0605 Q4310.7969,746.0605 4311.4531,745.8105 Q4311.8438,745.6543 4312.2656,745.2168 Q4312.5313,744.9512 4312.6719,744.873 Q4312.8281,744.7949 4313.0313,744.7949 Q4313.3594,744.7949 4313.6094,745.0605 Q4313.875,745.3105 4313.875,745.6543 Q4313.875,745.998 4313.5313,746.4043 Q4313.0313,746.9824 4312.2344,747.3105 Q4311.1563,747.7637 4309.8594,747.7637 Q4308.3438,747.7637 4307.1406,747.1387 Q4306.1563,746.6387 4305.4688,745.5762 Q4304.7813,744.498 4304.7813,743.2168 L4304.7813,742.0605 Q4304.7813,740.7324 4305.3906,739.5918 Q4306.0156,738.4355 4307.1094,737.8262 Q4308.2031,737.2012 4309.4375,737.2012 Q4310.1719,737.2012 4310.8125,737.373 Q4311.4688,737.5293 4312.0156,737.8887 Z " fill="#000000"/><text fill="#000000" font-family="sans-serif" font-size="14" lengthAdjust="spacing" textLength="151" x="4329.75" y="747.8105">EmptyCountryValidation</text><line style="stroke:#181818;stroke-width:0.5;" x1="4199.5" x2="4578.5" y1="758.0137" y2="758.0137"/><rect fill="none" height="6" style="stroke:#C82930;stroke-width:1.0;" width="6" x="4206.5" y="769.8242"/><text fill="#000000" font-family="sans-serif" font-size="14" lengthAdjust="spacing" textLength="225" x="4218.5" y="777.1211">ValidationErrorFactory errorFactory</text><line style="stroke:#181818;stroke-width:0.5;" x1="4199.5" x2="4578.5" y1="784.6348" y2="784.6348"/><ellipse cx="4209.5" cy="799.4453" fill="#84BE84" rx="3" ry="3" style="stroke:#038048;stroke-width:1.0;"/><text fill="#000000" font-family="sans-serif" font-size="14" lengthAdjust="spacing" textLength="355" x="4218.5" y="803.7422">Optional&lt;ValidationErrorDTO&gt; validate(AgreementDTO)</text><rect fill="#F24D5C" height="6" style="stroke:#C82930;stroke-width:1.0;" width="6" x="4206.5" y="815.0664"/><text fill="#000000" font-family="sans-serif" font-size="14" lengthAdjust="spacing" textLength="295" x="4218.5" y="822.3633">boolean countryIsNullOrBlank(AgreementDTO)</text></g><!--reverse link TravelPersonFieldValidationImpl to PersonBirthDateInThePastValidation--><g id="link_TravelPersonFieldValidationImpl_PersonBirthDateInThePastValidation"><path codeLine="191" d="M6612.5307,597.6233 C6572.4207,611.9633 6542.66,620.4937 6499,629.0137 C6060.69,714.5237 5933.64,600.1337 5496,689.0137 C5454.14,697.5137 5409.77,711.5437 5370.32,725.9337 " fill="none" id="TravelPersonFieldValidationImpl-backto-PersonBirthDateInThePastValidation" style="stroke:#181818;stroke-width:1.0;"/><polygon fill="none" points="6629.48,591.5637,6610.5108,591.9736,6614.5505,603.2731,6629.48,591.5637" style="stroke:#181818;stroke-width:1.0;"/></g><!--reverse link TravelPersonFieldValidationImpl to EmptyPersonFirstNameValidation--><g id="link_TravelPersonFieldValidationImpl_EmptyPersonFirstNameValidation"><path codeLine="192" d="M6608.4235,597.5185 C6569.1435,611.2885 6541.04,619.5437 6499,629.0137 C6277.21,678.9737 6212.4,637.3437 5991,689.0137 C5941.5,700.5637 5888.19,718.6937 5843.73,735.5037 " fill="none" id="TravelPersonFieldValidationImpl-backto-EmptyPersonFirstNameValidation" style="stroke:#181818;stroke-width:1.0;"/><polygon fill="none" points="6625.41,591.5637,6606.4386,591.8563,6610.4084,603.1806,6625.41,591.5637" style="stroke:#181818;stroke-width:1.0;"/></g><!--reverse link TravelPersonFieldValidation to TravelPersonFieldValidationImpl--><g id="link_TravelPersonFieldValidation_TravelPersonFieldValidationImpl"><path codeLine="193" d="M6733,399.2037 C6733,435.5737 6733,470.0537 6733,506.3937 " fill="none" id="TravelPersonFieldValidation-backto-TravelPersonFieldValidationImpl" style="stroke:#181818;stroke-width:1.0;stroke-dasharray:7.0,7.0;"/><polygon fill="none" points="6733,381.2037,6727,399.2037,6739,399.2037,6733,381.2037" style="stroke:#181818;stroke-width:1.0;"/></g><!--reverse link TravelAgreementFieldValidationImpl to AgreementDateFromValidation--><g id="link_TravelAgreementFieldValidationImpl_AgreementDateFromValidation"><path codeLine="194" d="M2566.0743,598.8444 C2532.7443,613.3444 2510.11,620.8237 2473,629.0137 C1924.66,749.9737 1758.51,564.3537 1211,689.0137 C1167.03,699.0237 1120.59,717.8037 1082.78,735.4437 " fill="none" id="TravelAgreementFieldValidationImpl-backto-AgreementDateFromValidation" style="stroke:#181818;stroke-width:1.0;"/><polygon fill="none" points="2582.58,591.6637,2563.6808,593.3425,2568.4679,604.3463,2582.58,591.6637" style="stroke:#181818;stroke-width:1.0;"/></g><!--reverse link TravelAgreementFieldValidation to TravelAgreementFieldValidationImpl--><g id="link_TravelAgreementFieldValidation_TravelAgreementFieldValidationImpl"><path codeLine="195" d="M2667,399.2037 C2667,435.5737 2667,470.0537 2667,506.3937 " fill="none" id="TravelAgreementFieldValidation-backto-TravelAgreementFieldValidationImpl" style="stroke:#181818;stroke-width:1.0;stroke-dasharray:7.0,7.0;"/><polygon fill="none" points="2667,381.2037,2661,399.2037,2673,399.2037,2667,381.2037" style="stroke:#181818;stroke-width:1.0;"/></g><!--reverse link TravelPersonFieldValidationImpl to EmptyMedicalRiskLimitLevelValidation--><g id="link_TravelPersonFieldValidationImpl_EmptyMedicalRiskLimitLevelValidation"><path codeLine="196" d="M6626.1387,599.0176 C6561.3387,628.7376 6488.46,662.1537 6410.28,698.0037 " fill="none" id="TravelPersonFieldValidationImpl-backto-EmptyMedicalRiskLimitLevelValidation" style="stroke:#181818;stroke-width:1.0;"/><polygon fill="none" points="6642.5,591.5137,6623.6374,593.5639,6628.6401,604.4714,6642.5,591.5137" style="stroke:#181818;stroke-width:1.0;"/></g><!--reverse link TravelAgreementFieldValidationImpl to AgreementDateToValidation--><g id="link_TravelAgreementFieldValidationImpl_AgreementDateToValidation"><path codeLine="197" d="M2564.9938,598.7669 C2531.8638,613.0669 2509.66,620.4737 2473,629.0137 C2105.88,714.4937 1993.54,601.0537 1627,689.0137 C1583.53,699.4437 1537.53,718.0337 1499.87,735.4537 " fill="none" id="TravelAgreementFieldValidationImpl-backto-AgreementDateToValidation" style="stroke:#181818;stroke-width:1.0;"/><polygon fill="none" points="2581.52,591.6337,2562.616,593.2582,2567.3715,604.2757,2581.52,591.6337" style="stroke:#181818;stroke-width:1.0;"/></g><!--reverse link TravelAgreementUuidValidator to TravelAgreementUuidValidatorImpl--><g id="link_TravelAgreementUuidValidator_TravelAgreementUuidValidatorImpl"><path codeLine="198" d="M4799,390.0937 C4799,423.5337 4799,458.0537 4799,497.0137 " fill="none" id="TravelAgreementUuidValidator-backto-TravelAgreementUuidValidatorImpl" style="stroke:#181818;stroke-width:1.0;stroke-dasharray:7.0,7.0;"/><polygon fill="none" points="4799,372.0937,4793,390.0937,4805,390.0937,4799,372.0937" style="stroke:#181818;stroke-width:1.0;"/></g><!--reverse link TravelAgreementFieldValidationImpl to CountryValidation--><g id="link_TravelAgreementFieldValidationImpl_CountryValidation"><path codeLine="199" d="M2561.7155,598.564 C2529.2055,612.334 2508.29,619.5237 2473,629.0137 C2286.66,679.1237 2229,637.6437 2043,689.0137 C2033.36,691.6737 2023.58,694.6837 2013.78,697.9337 " fill="none" id="TravelAgreementFieldValidationImpl-backto-CountryValidation" style="stroke:#181818;stroke-width:1.0;"/><polygon fill="none" points="2578.29,591.5437,2559.3754,593.0392,2564.0556,604.0889,2578.29,591.5437" style="stroke:#181818;stroke-width:1.0;"/></g><!--reverse link TravelPersonFieldValidationImpl to MedicalRiskLimitLevelValidation--><g id="link_TravelPersonFieldValidationImpl_MedicalRiskLimitLevelValidation"><path codeLine="200" d="M6733,609.6537 C6733,639.3437 6733,662.1837 6733,697.9737 " fill="none" id="TravelPersonFieldValidationImpl-backto-MedicalRiskLimitLevelValidation" style="stroke:#181818;stroke-width:1.0;"/><polygon fill="none" points="6733,591.6537,6727,609.6537,6739,609.6537,6733,591.6537" style="stroke:#181818;stroke-width:1.0;"/></g><!--reverse link TravelAgreementFieldValidationImpl to AgreementDateFromInFutureValidation--><g id="link_TravelAgreementFieldValidationImpl_AgreementDateFromInFutureValidation"><path codeLine="201" d="M2574.8993,600.2756 C2505.5893,638.0956 2418.93,685.3837 2344.67,725.9037 " fill="none" id="TravelAgreementFieldValidationImpl-backto-AgreementDateFromInFutureValidation" style="stroke:#181818;stroke-width:1.0;"/><polygon fill="none" points="2590.7,591.6537,2572.0253,595.0087,2577.7732,605.5425,2590.7,591.6537" style="stroke:#181818;stroke-width:1.0;"/></g><!--reverse link TravelPersonFieldValidationImpl to EmptyPersonLastNameValidation--><g id="link_TravelPersonFieldValidationImpl_EmptyPersonLastNameValidation"><path codeLine="202" d="M6839.8615,599.0171 C6929.0015,639.8971 7048.04,694.4837 7137.26,735.4037 " fill="none" id="TravelPersonFieldValidationImpl-backto-EmptyPersonLastNameValidation" style="stroke:#181818;stroke-width:1.0;"/><polygon fill="none" points="6823.5,591.5137,6837.3603,604.471,6842.3626,593.5633,6823.5,591.5137" style="stroke:#181818;stroke-width:1.0;"/></g><!--reverse link TravelAgreementFieldValidationImpl to DateFromLessThenDateToValidation--><g id="link_TravelAgreementFieldValidationImpl_DateFromLessThenDateToValidation"><path codeLine="203" d="M2667,609.6537 C2667,650.4837 2667,694.3837 2667,735.2537 " fill="none" id="TravelAgreementFieldValidationImpl-backto-DateFromLessThenDateToValidation" style="stroke:#181818;stroke-width:1.0;"/><polygon fill="none" points="2667,591.6537,2661,609.6537,2673,609.6537,2667,591.6537" style="stroke:#181818;stroke-width:1.0;"/></g><!--reverse link TravelAgreementFieldValidationImpl to EmptySelectedRisksValidation--><g id="link_TravelAgreementFieldValidationImpl_EmptySelectedRisksValidation"><path codeLine="204" d="M2759.1009,600.2752 C2834.0409,641.1652 2931.93,694.5837 3006.83,735.4537 " fill="none" id="TravelAgreementFieldValidationImpl-backto-EmptySelectedRisksValidation" style="stroke:#181818;stroke-width:1.0;"/><polygon fill="none" points="2743.3,591.6537,2756.2271,605.5422,2761.9748,595.0083,2743.3,591.6537" style="stroke:#181818;stroke-width:1.0;"/></g><!--reverse link TravelPersonFieldValidationImpl to EmptyPersonBirthDateValidation--><g id="link_TravelPersonFieldValidationImpl_EmptyPersonBirthDateValidation"><path codeLine="205" d="M6857.576,597.5298 C6896.846,611.2998 6924.96,619.5437 6967,629.0137 C7189.23,679.0537 7254.2,637.1237 7476,689.0137 C7516.11,698.3937 7558.74,712.1437 7597.08,725.9937 " fill="none" id="TravelPersonFieldValidationImpl-backto-EmptyPersonBirthDateValidation" style="stroke:#181818;stroke-width:1.0;"/><polygon fill="none" points="6840.59,591.5737,6855.5906,603.1918,6859.5614,591.8678,6840.59,591.5737" style="stroke:#181818;stroke-width:1.0;"/></g><!--reverse link TravelAgreementFieldValidationImpl to SelectedRisksValidation--><g id="link_TravelAgreementFieldValidationImpl_SelectedRisksValidation"><path codeLine="206" d="M2772.7776,598.513 C2805.4576,612.283 2826.54,619.5037 2862,629.0137 C3047.96,678.8637 3104.33,641.8937 3291,689.0137 C3296.75,690.4637 3302.54,692.0037 3308.37,693.6237 " fill="none" id="TravelAgreementFieldValidationImpl-backto-SelectedRisksValidation" style="stroke:#181818;stroke-width:1.0;"/><polygon fill="none" points="2756.19,591.5237,2770.4478,604.0422,2775.1074,592.9838,2756.19,591.5237" style="stroke:#181818;stroke-width:1.0;"/></g><!--reverse link TravelAgreementValidator to TravelAgreementValidatorImpl--><g id="link_TravelAgreementValidator_TravelAgreementValidatorImpl"><path codeLine="207" d="M461,390.0937 C461,421.0137 461,450.2437 461,487.9837 " fill="none" id="TravelAgreementValidator-backto-TravelAgreementValidatorImpl" style="stroke:#181818;stroke-width:1.0;stroke-dasharray:7.0,7.0;"/><polygon fill="none" points="461,372.0937,455,390.0937,467,390.0937,461,372.0937" style="stroke:#181818;stroke-width:1.0;"/></g><!--reverse link TravelAgreementFieldValidationImpl to AgreementDateToInFutureValidation--><g id="link_TravelAgreementFieldValidationImpl_AgreementDateToInFutureValidation"><path codeLine="208" d="M2769.4584,598.8186 C2802.7684,613.1286 2825.15,620.5537 2862,629.0137 C3254.02,719.0037 3373.68,596.0237 3765,689.0137 C3800.67,697.4937 3838.03,711.5137 3871.09,725.9037 " fill="none" id="TravelAgreementFieldValidationImpl-backto-AgreementDateToInFutureValidation" style="stroke:#181818;stroke-width:1.0;"/><polygon fill="none" points="2752.92,591.7137,2767.0901,604.3314,2771.8267,593.3058,2752.92,591.7137" style="stroke:#181818;stroke-width:1.0;"/></g><!--reverse link TravelAgreementFieldValidationImpl to EmptyCountryValidation--><g id="link_TravelAgreementFieldValidationImpl_EmptyCountryValidation"><path codeLine="209" d="M2768.389,598.8537 C2801.889,613.3537 2824.71,620.8637 2862,629.0137 C3435.29,754.3237 3608.68,559.3237 4181,689.0137 C4217.14,697.2037 4254.94,711.3337 4288.25,725.9137 " fill="none" id="TravelAgreementFieldValidationImpl-backto-EmptyCountryValidation" style="stroke:#181818;stroke-width:1.0;"/><polygon fill="none" points="2751.87,591.7037,2766.0057,604.36,2770.7723,593.3474,2751.87,591.7037" style="stroke:#181818;stroke-width:1.0;"/></g><!--reverse link TravelPersonFieldValidationImpl to EmptyPersonCodeValidation--><g id="link_TravelPersonFieldValidationImpl_EmptyPersonCodeValidation"><path codeLine="210" d="M6853.4693,597.6233 C6893.5793,611.9633 6923.34,620.4937 6967,629.0137 C7405.75,714.5937 7532.98,599.7837 7971,689.0137 C8012.71,697.5137 8056.9,711.5437 8096.19,725.9237 " fill="none" id="TravelPersonFieldValidationImpl-backto-EmptyPersonCodeValidation" style="stroke:#181818;stroke-width:1.0;"/><polygon fill="none" points="6836.52,591.5637,6851.4495,603.2731,6855.4892,591.9736,6836.52,591.5637" style="stroke:#181818;stroke-width:1.0;"/></g><!--SRC=[tLdPRgCm57tdAtXCrOOlg29DbqYHqaLjEkyEtAQU6XlPfffeEltsCP06mXumYJCFKOINozsNWqkG43RZA-SN-a2ha8UEvEW3Y8Ef23cYBZWku-1y888z936Zmbd49twiE80FL4un4Ezdii-u_SSQstCiv6NDCKLcOgEA7M5z9GJIfLlE6RzPF4pi3Hymsj9LosVVhooxuJ92m9NFcAu8R6_5-s9lAj5-3nhKLQnJzOlEY57LoOkgZJFhhsLPRXUZ1S05eyvZ_7U5kNoxKNpCwE8D7f6GwSjY0qPx2-p3YyJ4zZ8FQY_7rnIvoknh6p8Frhdz44Gd46blnOk4jrYBVSMyzGEvJkXDCHVo7lcG4_5GOg2bK6oxqkuZJn9BtmBjXClC3uWIg2-hvyqn5nse4xMJWDiiuAIKrRkcdFa7CfWECwLIr6Uz7iRgPg9OE4mby5VaGhTCN-fsIegldYxtTIINo-Q8E_2mYyWJ5kzpx6Cv1tKvvtXNZ150rFRBpjvIj2JW7IYXZEtbXXaixchO6MMFgheZaT97OitDjKBPQY0y4_SX8G_yYY3wFjAHgYiYVy4E6lUkXWxe9SHf0xG9yNPyZ-sqcw0Io_KJ14pW-22gsccJ24RFagkEHujvhbb89L_dp78T4SMl6BZQ2273k5krCwWn2xJLghqCSJPfnUjRrMHzVYFZFPE9WrT51_nMcfzHvQXeYOG6DM-IKPiyP9R6TzDI7zsNohwrH6dsqsw6cZPaHgUX33aOq29hROpdwAXzSISfAfYB-8uNhfcN60IoJuhVAl_SzSfsvvBnx96eXkgD4G_uH8lZVVlR78HGKnazbMAOIX0xrpD4Wp9uKJWByxalniLsE3v2OAGPBiWDwd7xbU-xUZRsvGrCtDdlrM3qT9iwZncovdMPfiRDjtR4ALnlvH_HrPcRAPRTowlsIbar4nQXlzAvSRBnx8E0VWa79JZTRiormmur4Ols-vCw8fAOont5mQSU7qRbwzjxfPuLb2os6eDE0voj78MDwprrLHmzQ58t34b7pOhxXVB1UCWHDuLquZVlWZB3MMlVta2FjekjMTJG6z2LHMpKuc6MDGpCV_av7W_suSSydkk_ubWQmUpBJySPvjECDUINX2wwRVN1nTARtRkeTnz56Egw3Q3UgRX65eImT0wQNToY2NetMAc5Ti4yj_rFFBOSjZMwm1NHM8ELtGHL6inw7KPfj8EKm986grcJXYld40sburJAHYCaO7gqdK3Tgvmn_m40]--></g></svg>